<svg xmlns="http://www.w3.org/2000/svg" viewBox="0 0 139.89 126.22"><defs><style>.cls-1{fill:#234e2e}.cls-2{fill:#214b2b}.cls-3{fill:#d40d15}.cls-5{fill:#fff}.cls-6{fill:#010000}</style></defs><g id="Capa_2" data-name="Capa 2"><g id="Body"><path class="cls-1" d="M22.29 90.86a1.3 1.3 0 0 0 1.32 1.36A1.21 1.21 0 0 0 24.92 91c0-.89-.83-1.11-1.52-1.31a4.91 4.91 0 0 1-1.75-.77 2.34 2.34 0 0 1-1-1.94 2.64 2.64 0 0 1 2.7-2.57 1.92 1.92 0 0 1 1.65.69v-.5h1.3V87h-1.56a1.15 1.15 0 0 0-1.16-1.16 1.11 1.11 0 0 0-1.21 1.11c0 .88.77 1.06 1.46 1.26a5.44 5.44 0 0 1 1.9.81 2.34 2.34 0 0 1 .89 1.87 2.73 2.73 0 0 1-2.82 2.8 2.12 2.12 0 0 1-1.71-.76v.58h-1.35v-2.65ZM29.39 92.08h1.21v1.42h-2.73v-5.24h-1.05v-1.42h1.05V84.6h1.52v2.24h1.13v1.42h-1.13ZM36.25 92.61a2.47 2.47 0 0 1-2.14 1.07 3.45 3.45 0 0 1-3.42-3.47 3.52 3.52 0 0 1 3.49-3.54 2.4 2.4 0 0 1 2.07 1.12v-1h2.38v1.42h-.83v3.82h.83v1.47h-2.38Zm0-2.47a2 2 0 1 0-2 2 2 2 0 0 0 2.03-2ZM41.5 88a2.21 2.21 0 0 1 2-1.21v1.56a2 2 0 0 0-1.31.48 1.87 1.87 0 0 0-.57 1.59v1.68h.86v1.4h-3.25v-1.42h.86v-3.82h-.86v-1.42h2.27ZM46.73 92.08h1.21v1.42h-2.73v-5.24h-1.05v-1.42h1.05V84.6h1.52v2.24h1.14v1.42h-1.14ZM55.36 92.08h.86v1.42H54v-.82a2.44 2.44 0 0 1-2 1 2.4 2.4 0 0 1-1.85-.85 2.75 2.75 0 0 1-.59-1.93v-2.64h-.86v-1.42h2.39v3.61a2.13 2.13 0 0 0 .26 1.24 1.29 1.29 0 0 0 1.12.58 1.44 1.44 0 0 0 1.12-.55 2.08 2.08 0 0 0 .29-1.31v-2.15H53v-1.42h2.38ZM57.3 88.26h-.85v-1.42h2.38v1A2.49 2.49 0 0 1 61 86.77a3.42 3.42 0 0 1 .08 6.83 2.8 2.8 0 0 1-2.26-1v1.94h.86v1.43h-3.23v-1.46h.85Zm5.54 1.94a2 2 0 1 0-2 2 2 2 0 0 0 2-2ZM76.61 93.4H75l-1.65-5.88-1.65 5.88h-1.58L68 85.91h-.9v-1.42h3.62v1.42h-1L71 90.59l1.6-6.1h1.44l1.71 6.05L77 85.91h-1v-1.42h3.61v1.42h-1ZM85.38 91.44a3.46 3.46 0 0 1-6.65-1.35 3.47 3.47 0 0 1 3.47-3.56 3.58 3.58 0 0 1 2.49 1.08 3.48 3.48 0 0 1 .94 2.49v.54h-5.44a2.05 2.05 0 0 0 2 1.6 1.85 1.85 0 0 0 1.61-.8Zm-1.16-2a2.14 2.14 0 0 0-2.1-1.58 2.07 2.07 0 0 0-2 1.58ZM92.86 91.44a3.42 3.42 0 0 1-3.14 2.13 3.52 3.52 0 0 1 0-7 3.6 3.6 0 0 1 2.5 1.08 3.47 3.47 0 0 1 .93 2.49v.54h-5.48a2.06 2.06 0 0 0 2 1.6 1.86 1.86 0 0 0 1.61-.8Zm-1.16-2a2.13 2.13 0 0 0-2.09-1.58 2.07 2.07 0 0 0-2 1.58ZM97.35 88h-.68v-1.27H100v1.43h-.81l-1.89 1.77 2 2h1v1.47h-3.63V92h.56l-1.59-1.74V92h.6v1.4h-3V92h.87v-6.09h-.87v-1.42h2.39v5.23ZM107 91.44a3.43 3.43 0 0 1-3.14 2.13 3.52 3.52 0 0 1 0-7 3.58 3.58 0 0 1 2.49 1.08 3.48 3.48 0 0 1 .94 2.49v.54h-5.39a2.06 2.06 0 0 0 2 1.6 1.83 1.83 0 0 0 1.6-.8Zm-1.16-2a2.14 2.14 0 0 0-2.1-1.58 2 2 0 0 0-1.94 1.58ZM108.33 88.16h-.86v-1.43h2.38v1a2.17 2.17 0 0 1 2-1.1 2.64 2.64 0 0 1 1.93.83 2.58 2.58 0 0 1 .56 2V92h.86v1.4h-3.25V92h.87v-2.18a1.88 1.88 0 0 0-.27-1.2 1.45 1.45 0 0 0-1.17-.54 1.5 1.5 0 0 0-1.21.56 2.34 2.34 0 0 0-.29 1.4V92h.86v1.4h-3.24V92h.86Z"/><path class="cls-1" d="M120.72 92.4a2.52 2.52 0 0 1-2.18 1.1 3.44 3.44 0 0 1 0-6.88 2.77 2.77 0 0 1 2.2 1.09v-1.8h-.87v-1.42h2.39V92h.86v1.4h-2.38Zm0-2.36a2 2 0 1 0-2 2.06 2 2 0 0 0 2.04-2.1Z"/><path class="cls-2" d="m18.18 60.72-3.11.09-3.1.07c-2.07 0-4.14.09-6.21.11h-.27v-.28l-.09-7.17q-.06-3.6-.08-7.19V31.48h13.36V32c0 2.4 0 4.8-.06 7.19l-.1 7.19v3.59l-.08 3.6c-.14 2.36-.19 4.76-.26 7.15Zm0 0c-.08-2.39-.13-4.79-.18-7.18l-.07-3.6-.05-3.59-.1-7.19c0-2.39 0-4.79-.06-7.19l.46.46H5.76l.49-.5v14.38q0 3.59-.08 7.19L6 60.72l-.27-.27c2.07 0 4.14.08 6.21.12l3.1.07Z"/><path class="cls-2" d="M13 39.4c-.76.12-1.53.18-2.29.25l-1.15.09-1.15.06h-.37v-.42c0-.7 0-1.39-.08-2.1s0-1.39 0-2.09v-.49h5.49v.36l-.06 1c0 .35-.05.7-.08 1-.16.94-.22 1.64-.31 2.34Zm0 0c-.1-.7-.17-1.39-.23-2.1 0-.34-.05-.69-.08-1s0-.7-.06-1l.37.37c-.38 0-.76.05-1.14.05H8.41l.49-.49v2.09c0 .69 0 1.4-.08 2.1L8.39 39l1.15.06 1.15.08c.76.08 1.53.15 2.31.26ZM10.69 42.63c.74-.09 1.49-.15 2.23-.2s1.49-.1 2.23-.14h.33v.36l.07 1.64v5.42h-2.73l-2.23-.05h-.43v-.46c0-.55.05-1.1.07-1.64s.05-1.1.08-1.65.08-1.09.12-1.64.19-1.09.26-1.64Zm0 0c.06.55.11 1.09.16 1.64s.08 1.09.11 1.64.07 1.1.09 1.65 0 1.09.06 1.64l-.42-.42 2.23-.06h2.23l-.49.49v-3.29l.05-1.64.06-1.64.34.34c-.74 0-1.49-.08-2.23-.14s-1.45-.13-2.19-.21ZM10.69 54.28a4 4 0 0 1-.58.13l-.57.1c-.19 0-.38.05-.58.08l-.57.07h-.33v-.41c-.08-.86-.12-1.72-.12-2.59v-.46h.49c.77 0 1.53 0 2.3.1h.42v.36c0 .44-.09.87-.15 1.3s-.2.89-.31 1.32Zm0 0a11.79 11.79 0 0 1-.26-1.28c0-.43-.11-.86-.14-1.3l.4.4c-.77.07-1.53.1-2.3.1l.49-.5a24.81 24.81 0 0 1-.12 2.59l-.37-.37L9 54c.2 0 .39 0 .58.08l.57.1c.15.01.35.05.54.1ZM30.7 56.52l-3.11.09-3.1.06c-2.07 0-4.14.1-6.21.12H18v-.27l-.09-7.19c0-2.39-.07-4.79-.08-7.18V27.28h13.36v.45c0 2.4 0 4.79-.06 7.19L31 42.15v3.59l-.08 3.59c-.1 2.4-.15 4.8-.22 7.19Zm0 0c-.08-2.39-.13-4.79-.18-7.19l-.07-3.59-.05-3.59-.09-7.15c0-2.4 0-4.79-.06-7.19l.45.45H18.28l.49-.49V42.19c0 2.39 0 4.79-.08 7.18l-.09 7.19-.27-.27c2.07 0 4.14.08 6.21.12l3.1.07Z"/><path class="cls-2" d="M25.51 35.2c-.77.12-1.54.18-2.3.25l-1.15.08-1.15.06h-.37v-.41c0-.7-.05-1.4-.08-2.1s0-1.4 0-2.1v-.49H24.41l1.15.05h.39v.35c0 .35 0 .7-.06 1s-.05.7-.08 1.05c-.14.86-.2 1.56-.3 2.26Zm0 0c-.11-.7-.17-1.4-.24-2.1 0-.35-.05-.7-.07-1.05s-.05-.7-.07-1l.38.38-1.15.05H20.91l.49-.5v2.1c0 .7 0 1.4-.07 2.1l-.4-.39 1.15.06 1.15.08c.77.07 1.51.16 2.28.27ZM23.21 38.43c.74-.09 1.49-.16 2.23-.21s1.49-.09 2.24-.13H28v.36l.07 1.64.05 1.64V45.51H22.73V45c0-.55 0-1.1.06-1.65s0-1.09.09-1.64.07-1.09.11-1.64.16-1.07.22-1.64Zm0 0c.06.54.11 1.09.16 1.64s.08 1.09.11 1.64.07 1.1.09 1.64.05 1.1.06 1.65l-.42-.43H27.68l-.5.5v-3.29l.05-1.64.07-1.64.34.33c-.75 0-1.49-.07-2.24-.13s-1.4-.19-2.19-.27ZM23.21 50.08l-.58.13-.57.1-.57.08-.58.06h-.33v-.41c-.08-.86-.12-1.72-.12-2.59V47h.49c.77 0 1.53 0 2.3.09h.43v.36c0 .43-.09.87-.15 1.3a11.73 11.73 0 0 1-.32 1.33Zm0 0a11.73 11.73 0 0 1-.21-1.29c-.06-.43-.12-.87-.15-1.3l.4.4c-.77.07-1.53.09-2.3.09l.49-.49a24.81 24.81 0 0 1-.12 2.59l-.37-.37.58.07.57.07c.19 0 .38.06.57.11a5.41 5.41 0 0 1 .54.12ZM12.91 49.19l-3.1.09-3.11.07c-2.07 0-4.14.09-6.21.11H.23v-.28L.13 42c0-2.4-.06-4.79-.07-7.19V20H13.36v.44c0 2.4 0 4.8-.06 7.19l-.09 7.19-.05 3.59-.08 3.59c-.08 2.4-.08 4.8-.17 7.19Zm0 0c-.08-2.39-.12-4.79-.17-7.18l-.08-3.6-.05-3.59-.09-7.19c0-2.39 0-4.79-.06-7.19l.45.46H.49l.49-.5v14.38c0 2.4 0 4.79-.07 7.19l-.1 7.18-.27-.27c2.07 0 4.14.08 6.21.12l3.11.07Z"/><path class="cls-2" d="M7.72 27.87c-.77.12-1.53.18-2.3.25l-1.15.09-1.15.06h-.36v-.42c0-.7 0-1.4-.07-2.1s0-1.39 0-2.09v-.49h3.94l1.15.05h.39v.36c0 .35 0 .7-.06 1.05s0 .7-.08 1c-.14.84-.21 1.54-.31 2.24Zm0 0c-.1-.7-.17-1.4-.23-2.1 0-.34-.06-.69-.08-1s0-.7-.07-1.05l.38.37c-.38 0-.77.05-1.15.05H3.12l.5-.49v2.09c0 .7 0 1.4-.07 2.1l-.4-.39 1.15.06 1.15.08c.74.1 1.55.17 2.27.28ZM5.42 42.76a5.78 5.78 0 0 1-.57.12l-.58.1c-.19 0-.38.05-.57.08l-.58.07h-.33v-.4c-.08-.87-.12-1.73-.12-2.6v-.49h.49c.77 0 1.54 0 2.3.09h.43v.36c0 .44-.09.87-.15 1.3a12.38 12.38 0 0 1-.32 1.37Zm0 0c-.11-.44-.18-.87-.25-1.3s-.12-.86-.15-1.3l.4.4c-.76.07-1.53.1-2.3.1l.5-.5c0 .87 0 1.73-.12 2.6l-.38-.38.58.07c.19 0 .38 0 .57.08l.58.1a3.9 3.9 0 0 1 .57.13Z"/><path class="cls-2" d="m18.82 39.61-3.1.08-3.11.07c-2.07 0-4.14.1-6.21.12h-.26v-.27L6 32.42V10.37h13.27v.45c0 2.4 0 4.79-.06 7.19l-.09 7.18-.05 3.6-.07 3.63c-.06 2.4-.11 4.79-.18 7.19Zm0 0c-.08-2.4-.12-4.79-.18-7.19l-.07-3.59-.05-3.6-.09-7.18c0-2.4 0-4.79-.06-7.19l.45.45H6.4l.49-.49V25.19c0 2.4 0 4.8-.07 7.19l-.1 7.19-.27-.27c2.07 0 4.14.08 6.21.12l3.11.06Z"/><path class="cls-2" d="M13.63 18.29c-.77.11-1.53.18-2.3.25l-1.15.08-1.18.06h-.37v-.41c0-.7-.05-1.4-.07-2.1s0-1.4 0-2.1v-.47H12.45c.38 0 .76 0 1.15.05h.39V14c0 .35 0 .7-.06 1.05s0 .7-.08 1.05c-.05.79-.12 1.49-.22 2.19Zm0 0c-.11-.7-.17-1.4-.23-2.1 0-.35-.06-.7-.08-1.05s-.05-.7-.07-1.05l.38.38h-4.6l.5-.49v2.1c0 .7 0 1.4-.07 2.1l-.4-.4 1.15.07 1.15.08c.74.18 1.5.24 2.27.36ZM11.33 21.51c.74-.08 1.49-.15 2.23-.2s1.49-.09 2.24-.14h.32v.36l.06 1.64.05 1.65v3.78H10.9v-.42c0-.55 0-1.09.06-1.64s.06-1.09.09-1.64.07-1.1.11-1.65.11-1.19.17-1.74Zm0 0c.06.55.11 1.1.16 1.64s.09 1.1.11 1.65.07 1.09.09 1.64.05 1.09.06 1.64l-.42-.42 2.23-.05h2.24l-.49.49v-4.93l.07-1.64.34.34c-.75 0-1.49-.08-2.24-.14s-1.41-.13-2.15-.22ZM11.33 33.17l-.57.13-.58.1-.57.08-.61.06h-.33v-.41c-.08-.86-.12-1.73-.12-2.59v-.49H9c.77 0 1.53 0 2.3.09h.43v.36c0 .43-.09.86-.15 1.29a11.47 11.47 0 0 1-.25 1.38Zm0 0a11.47 11.47 0 0 1-.25-1.3c-.06-.43-.12-.86-.15-1.29l.4.4c-.77.06-1.53.09-2.3.09l.5-.49c0 .86 0 1.73-.12 2.59L9 32.8l.58.06.57.08.58.1ZM139.43 55.67l-3.1.09-3.11.07c-2.07 0-4.14.09-6.21.11h-.26v-.28l-.09-7.18c0-2.4-.06-4.79-.07-7.19V26.42H139.88v.44c0 2.4 0 4.8-.06 7.19l-.09 7.19v3.59l-.08 3.6c-.1 2.45-.14 4.85-.22 7.24Zm0 0c-.08-2.39-.12-4.79-.18-7.18l-.07-3.6-.05-3.59-.13-7.19c0-2.39 0-4.79-.06-7.19l.45.46h-12.42l.49-.5v14.38c0 2.4 0 4.79-.07 7.19l-.1 7.18-.29-.23c2.07 0 4.14.08 6.21.12l3.11.07Z"/><path class="cls-2" d="M134.24 34.35c-.77.12-1.53.18-2.3.25l-1.15.09-1.15.06h-.36v-.42c0-.7-.05-1.39-.07-2.09s0-1.4 0-2.1v-.49h3.94l1.15.05h.39v.36c0 .35 0 .7-.06 1.05s-.05.7-.08 1c-.14.89-.21 1.54-.31 2.24Zm0 0c-.1-.7-.17-1.39-.23-2.09 0-.35-.06-.7-.08-1s-.05-.7-.07-1.05l.38.37-1.15.06H129.64l.5-.49v2.1c0 .7 0 1.39-.07 2.09l-.4-.39 1.15.06 1.15.09c.74.07 1.5.14 2.27.25ZM131.94 37.58c.75-.08 1.49-.15 2.23-.2s1.49-.1 2.24-.14h.32v.36l.06 1.64.05 1.64V44.66h-5.4v-.41c0-.55 0-1.1.06-1.64s.06-1.1.09-1.65.07-1.09.11-1.64.18-1.19.24-1.74Zm0 0c.06.55.11 1.09.16 1.64s.09 1.09.11 1.64.07 1.1.09 1.65 0 1.09.06 1.64l-.42-.42 2.23-.06h2.24l-.49.49v-4.93l.07-1.64.34.34c-.75-.05-1.49-.08-2.24-.14s-1.4-.13-2.15-.21ZM131.94 49.24l-.57.12-.58.1a5.58 5.58 0 0 1-.57.08l-.58.07h-.33v-.4c-.08-.87-.12-1.73-.12-2.6v-.49h.49c.77 0 1.53 0 2.3.1h.43v.36c0 .44-.09.87-.15 1.3a10.25 10.25 0 0 1-.32 1.36Zm0 0a12.38 12.38 0 0 1-.25-1.3c-.06-.43-.12-.86-.15-1.3l.4.4c-.77.07-1.53.1-2.3.1l.5-.5c0 .87 0 1.73-.12 2.6l-.38-.38.58.07c.19 0 .38 0 .57.08l.58.1Z"/><path class="cls-2" d="m134.87 41.94-3.1.09-3.11.06c-2.06 0-4.13.1-6.2.12h-.27v-.27l-.1-7.19c0-2.39-.06-4.79-.07-7.19V12.7H135.39v.45c0 2.4 0 4.79-.07 7.19l-.09 7.18v3.6l-.07 3.59c-.16 2.44-.16 4.84-.29 7.23Zm0 0c-.07-2.39-.12-4.79-.17-7.19l-.08-3.59v-3.6l-.1-7.18c0-2.4 0-4.79-.06-7.19l.45.45H122.5l.49-.49V27.52c0 2.4 0 4.8-.07 7.19l-.09 7.19-.27-.27c2.07 0 4.14.08 6.2.12l3.11.06Z"/><path class="cls-2" d="M129.68 20.62c-.76.11-1.53.18-2.29.25l-1.15.08-1.15.06h-.37v-.41c0-.7 0-1.4-.07-2.1s0-1.4 0-2.1v-.49H128.59l1.15.05h.39v.35c0 .35 0 .7-.07 1s0 .7-.08 1.05c-.13.86-.19 1.56-.3 2.26Zm0 0c-.1-.7-.17-1.4-.23-2.1 0-.35 0-.7-.08-1.05s0-.7-.06-1l.37.38-1.15.05H125.09l.49-.5v2.1c0 .7 0 1.4-.07 2.1l-.39-.39 1.15.06 1.15.08c.73.09 1.5.16 2.26.27ZM127.39 23.84c.74-.08 1.48-.15 2.23-.2s1.49-.09 2.23-.14h.33v.35l.07 1.65v5.42h-2.73l-2.23-.05H127v-.42c0-.54 0-1.09.07-1.64s0-1.09.08-1.64.08-1.1.12-1.64.05-1.14.12-1.69Zm0 0q.09.82.15 1.65c0 .54.09 1.09.12 1.64s.07 1.09.08 1.64.06 1.1.07 1.64l-.42-.42h4.46l-.49.49v-4.92l.07-1.65.34.34c-.74 0-1.49-.07-2.23-.13s-1.41-.19-2.15-.28ZM127.39 35.5l-.58.13-.57.1-.58.08c-.19 0-.38 0-.57.06h-.34v-.41a24.94 24.94 0 0 1-.12-2.59v-.49h.49c.76 0 1.53 0 2.3.09h.42v.36c0 .43-.08.86-.14 1.3s-.2.94-.31 1.37Zm0 0a11.79 11.79 0 0 1-.26-1.29c-.06-.44-.11-.87-.14-1.3l.4.4c-.77.06-1.54.09-2.3.09l.49-.49c0 .86 0 1.73-.12 2.59l-.37-.37.57.06.58.08.57.1ZM119.07 40.92 116 41l-3.11.07c-2.07 0-4.14.1-6.21.12h-.26v-.27l-.09-7.19c0-2.4-.06-4.79-.07-7.19V11.68h13.36v.45c0 2.39 0 4.79-.06 7.19l-.09 7.18-.05 3.6-.08 3.59c-.15 2.44-.19 4.83-.27 7.23Zm0 0c-.08-2.4-.12-4.79-.18-7.19l-.07-3.59v-3.6l-.09-7.18c0-2.4 0-4.8-.06-7.19l.45.45H106.7l.49-.49V26.5c0 2.4 0 4.79-.07 7.19l-.1 7.19-.27-.27c2.07 0 4.14.07 6.21.11l3.11.07Z"/><path class="cls-2" d="M113.88 19.6c-.77.11-1.53.18-2.3.25l-1.15.08-1.15.06h-.36v-.41c0-.7 0-1.4-.07-2.1s0-1.4 0-2.1v-.49h3.94l1.15.06h.39v.35c0 .35 0 .7-.06 1s0 .7-.08 1.05c-.14.85-.19 1.55-.31 2.25Zm0 0c-.11-.7-.17-1.4-.23-2.1 0-.35-.06-.7-.08-1.05s0-.7-.07-1l.38.37-1.15.06H109.28l.49-.49v2.1c0 .7 0 1.4-.07 2.1l-.4-.4 1.15.06 1.15.09c.75.08 1.51.14 2.28.26ZM111.58 22.82c.75-.08 1.49-.15 2.23-.2s1.49-.09 2.24-.14h.32v.36l.06 1.64v5.43h-2.74l-2.23-.06h-.43v-.41c0-.55 0-1.09.06-1.64s.06-1.1.09-1.64.07-1.1.11-1.65.23-1.14.29-1.69Zm0 0c.06.55.11 1.1.16 1.64s.09 1.1.11 1.65.07 1.09.09 1.64 0 1.09.06 1.64l-.42-.42H116.05l-.49.49v-4.93l.07-1.64.34.34c-.75 0-1.49-.08-2.24-.14s-1.4-.19-2.15-.27Z"/><path class="cls-2" d="m126.8 48.14-3.1.07-3.11.06c-2.06 0-4.13.09-6.2.1h-.27v-.23l-.1-6.29c0-2.1-.06-4.19-.07-6.29v-13H127.32V23c0 2.09 0 4.19-.06 6.28l-.1 6.29v3.14l-.16 3.14c-.07 2.09-.12 4.15-.2 6.29Zm0 0c-.07-2.1-.12-4.2-.17-6.29l-.08-3.15v-3.14l-.1-6.29c0-2.09 0-4.19-.06-6.28l.45.39h-12.41l.49-.43v12.57c0 2.1 0 4.19-.07 6.29l-.09 6.29-.27-.24c2.07 0 4.14.07 6.2.1l3.11.06Z"/><path class="cls-2" d="M119.31 32.31c.75-.08 1.49-.14 2.24-.18l2.23-.12h.33v.32l.07 1.43V38.51h-5.4v-.36c0-.48 0-1 .07-1.43s.05-1 .08-1.44.08-1 .12-1.44.2-1.06.26-1.53Zm0 0c.07.47.12.95.16 1.43s.09 1 .12 1.44.07 1 .08 1.44.06 1 .07 1.43l-.43-.37H123.78l-.49.43V33.8l.07-1.43.34.29c-.74 0-1.49-.07-2.23-.12s-1.41-.16-2.16-.23Z"/><path class="cls-2" d="m122.28 33-3.11.09-3.1.07c-2.07 0-4.14.09-6.21.11h-.26V33l-.09-7.18c0-2.4-.06-4.79-.08-7.19V3.76h13.36v.45c0 2.39 0 4.79-.06 7.18l-.09 7.19v3.59l-.08 3.6c-.16 2.46-.21 4.86-.28 7.23Zm0 0c-.08-2.39-.12-4.79-.18-7.18l-.07-3.6v-3.59l-.09-7.19c0-2.39 0-4.79-.06-7.18l.45.45h-12.42l.49-.49V18.59c0 2.4 0 4.79-.07 7.19l-.1 7.18-.27-.27c2.07 0 4.14.08 6.21.12l3.1.07Z"/><path class="cls-2" d="M117.09 11.7c-.77.12-1.53.18-2.3.25l-1.15.09-1.15.06h-.37v-.42c0-.7 0-1.39-.08-2.09s0-1.4 0-2.1V7H117.53v.36c0 .35 0 .7-.06 1.05s-.05.7-.08 1c-.13.9-.2 1.59-.3 2.29Zm0 0c-.11-.7-.17-1.39-.23-2.09 0-.35-.06-.7-.08-1s0-.7-.07-1.05l.38.37-1.15.06H112.49l.5-.49v2.1c0 .7 0 1.39-.07 2.09l-.4-.39 1.15.06 1.15.09c.74.07 1.5.14 2.27.25ZM28.08 20.65l20.75-.22 20.74-.12H111.06v.83l-20.74.2-10.38.1-10.37.14c-6.91.08-13.83.21-20.74.34l-20.74.44v-.55l41.49-.2H111.07v1l-20.74.26-20.76.13-20.74.15-20.75.09v-.1l20.74-.49 20.74-.43 20.75-.39 20.74-.32v1H90.31l-20.74-.05-41.49-.19v-.55l20.74-.24c6.92-.1 13.83-.19 20.75-.34L79.94 21l10.37-.24 20.74-.48v.83c-6.92 0-13.83.05-20.75 0l-20.74-.06L48.83 21l-20.75-.21Z"/><path class="cls-2" d="M38.14 40c.15-3.22.37-6.44.56-9.66s.43-6.43.66-9.65l.73-9.69c.27-3.22.51-6.43.8-9.64V.7h.67L46 .69h.65l.08.65c.4 3.19.77 6.38 1.14 9.57s.74 6.38 1.08 9.58c.72 6.38 1.37 12.77 2 19.17v.43h-.41L44.35 40h-6.21Zm0 0c2.07-.13 4.13-.24 6.2-.34l6.2-.3-.37.43q-1.35-9.54-2.58-19.1-.59-4.82-1.19-9.6c-.4-3.19-.78-6.38-1.15-9.57l.74.65h-4.38l.72-.66c-.29 3.21-.63 6.41-.94 9.62l-1 9.62c-.35 3.21-.68 6.41-1.08 9.61s-.74 6.4-1.17 9.64ZM64.42 40c.16-3.22.37-6.44.57-9.66s.43-6.43.65-9.65l.73-9.69c.27-3.22.51-6.43.8-9.64l.06-.66h5.69l.08.65c.4 3.19.77 6.38 1.14 9.57s.74 6.38 1.09 9.58q1.06 9.57 2 19.17l.05.43h-.42l-6.23-.1h-6.21Zm0 0q3.1-.2 6.2-.34l6.2-.3-.37.43c-.9-6.36-1.77-12.73-2.57-19.1-.42-3.19-.81-6.38-1.2-9.56s-.78-6.38-1.14-9.57l.73.65h-4.38l.72-.66c-.29 3.21-.62 6.41-.94 9.62l-1 9.62c-.35 3.21-.67 6.36-1.07 9.56s-.75 6.41-1.18 9.65ZM90 39.27c.15-3.22.37-6.44.56-9.66s.43-6.44.65-9.65l.74-9.65c.26-3.21.5-6.42.79-9.63l.03-.68h5.7l.08.65c.4 3.19.77 6.38 1.13 9.57s.75 6.38 1.09 9.57c.72 6.39 1.37 12.78 2 19.17v.44h-6.62q-3.08-.06-6.15-.13Zm0 0q3.09-.2 6.2-.34l6.2-.3-.37.43Q100.65 29.5 99.42 20q-.61-4.79-1.19-9.57T97.08.83l.74.65h-4.38l.72-.66c-.29 3.21-.63 6.41-.94 9.62l-1 9.62c-.36 3.21-.69 6.41-1.08 9.61s-.75 6.4-1.14 9.6Z"/><path class="cls-2" d="M28.05 20q1.95-2.15 3.83-4.36c1.24-1.49 2.47-3 3.64-4.51S37.81 8 38.83 6.41a24.44 24.44 0 0 0 1.39-2.5 10 10 0 0 0 .89-2.62l.06-.35h4.37l.11.29c.66 1.68 1.31 3.38 2 5.06s1.43 3.33 2.18 5 1.55 3.28 2.46 4.84a19.71 19.71 0 0 0 1.48 2.24 7.44 7.44 0 0 0 .89 1 1.85 1.85 0 0 0 1 .53h-.12a22.84 22.84 0 0 0 4.33-3.66 29.75 29.75 0 0 0 3.5-4.49 35.72 35.72 0 0 0 2.69-5A39.4 39.4 0 0 0 68 1.28v-.19h.2L71.7 1h.22l.08.21c.63 1.66 1.31 3.31 2 5s1.39 3.28 2.13 4.9 1.52 3.21 2.38 4.75a23.81 23.81 0 0 0 1.38 2.23 9.67 9.67 0 0 0 .81 1c.27.28.63.52.78.5l-.24.06a24.15 24.15 0 0 0 4.31-3.55 29.18 29.18 0 0 0 3.53-4.38 28.15 28.15 0 0 0 2.58-5 31.62 31.62 0 0 0 1.57-5.41l.07-.4h4.3l.09.31c.53 1.85 1.15 3.69 1.82 5.5s1.39 3.61 2.23 5.35a29.52 29.52 0 0 0 2.92 5 10.24 10.24 0 0 0 2 2.06 3.91 3.91 0 0 0 2.66.88v.1a4.09 4.09 0 0 1-2.8-.79 10.52 10.52 0 0 1-2.15-2 28 28 0 0 1-3.16-5c-.89-1.73-1.69-3.52-2.41-5.34s-1.37-3.65-2-5.53l.43.32h-3.58l.47-.39a28.13 28.13 0 0 1-1.52 5.67 29 29 0 0 1-2.66 5.2 29 29 0 0 1-3.65 4.55 24.74 24.74 0 0 1-4.57 3.68l-.11.06h-.14a1.66 1.66 0 0 1-.89-.31 4.15 4.15 0 0 1-.59-.49 10 10 0 0 1-.89-1.1 23.53 23.53 0 0 1-1.42-2.34c-.86-1.58-1.63-3.21-2.34-4.85-1.44-3.28-2.74-6.61-3.93-10l.29.2h-3.48l.25-.19a39.78 39.78 0 0 1-2 5.4 36.85 36.85 0 0 1-2.76 5 35.29 35.29 0 0 1-3.52 4.56 25.55 25.55 0 0 1-4.34 3.82H55.73a2.28 2.28 0 0 1-1.37-.61 7.27 7.27 0 0 1-1-1 19.65 19.65 0 0 1-1.6-2.26c-1-1.56-1.82-3.18-2.63-4.82s-1.55-3.31-2.27-5-1.41-3.36-2-5.08l.41.28h-3.72l.42-.35a10.88 10.88 0 0 1-1 2.84A25.75 25.75 0 0 1 39.5 6.8a51.77 51.77 0 0 1-3.5 4.72c-1.23 1.5-2.49 3-3.82 4.4s-2.66 2.82-4.06 4.16Z"/><path class="cls-2" d="M28 21.83a194.367 194.367 0 0 0 7.41-9.9c1.17-1.68 2.28-3.43 3.3-5.2A30.46 30.46 0 0 0 40.17 4a11.14 11.14 0 0 0 .94-2.82l.06-.35H46.11l.1.31C46.81 3 47.4 4.81 48 6.63s1.32 3.65 2 5.45 1.44 3.59 2.3 5.32a22.7 22.7 0 0 0 1.42 2.5 7.79 7.79 0 0 0 .87 1.1 1.8 1.8 0 0 0 1.07.63l-.14.05a32.09 32.09 0 0 0 4.2-4.36 41.09 41.09 0 0 0 3.48-5A44.33 44.33 0 0 0 66 6.93a46.35 46.35 0 0 0 2-5.75V1h.2l3.5-.06h.22l.08.21c.63 1.82 1.3 3.63 2 5.43s1.38 3.59 2.12 5.36 1.51 3.54 2.36 5.24a27.2 27.2 0 0 0 1.39 2.48 9.19 9.19 0 0 0 .81 1.1 3 3 0 0 0 .45.43.67.67 0 0 0 .36.17l-.31.12A36.27 36.27 0 0 0 85.35 17a42.84 42.84 0 0 0 3.5-5A36 36 0 0 0 93.22.53l.07-.39H97.6l.08.33c.52 2 1.12 4.08 1.78 6.09s1.36 4 2.17 6a37.42 37.42 0 0 0 2.86 5.65 12.69 12.69 0 0 0 2 2.44 3.78 3.78 0 0 0 2.81 1.15v.1a3.13 3.13 0 0 1-1.6-.23 5.19 5.19 0 0 1-1.38-.85 12.52 12.52 0 0 1-2.14-2.4 33.86 33.86 0 0 1-3.09-5.63c-.88-2-1.65-3.94-2.36-6s-1.33-4-1.9-6.07l.43.33h-3.58l.47-.35a35.27 35.27 0 0 1-4.4 11.78 40.2 40.2 0 0 1-3.58 5.19 37 37 0 0 1-4.38 4.57l-.14.12h-.18a1.59 1.59 0 0 1-1-.37 4 4 0 0 1-.59-.57 10.05 10.05 0 0 1-.88-1.24 28.34 28.34 0 0 1-1.42-2.58c-.85-1.75-1.61-3.53-2.32-5.33q-2.14-5.4-3.89-10.92l.29.21-3.48-.05.25-.19a46 46 0 0 1-2.12 5.75 45.84 45.84 0 0 1-2.81 5.44 51.22 51.22 0 0 1-3.49 5A37 37 0 0 1 55.87 22l-.06.05h-.09a2.18 2.18 0 0 1-1.42-.73 8.69 8.69 0 0 1-1-1.15 22.56 22.56 0 0 1-1.53-2.52c-.92-1.73-1.72-3.52-2.48-5.31s-1.43-3.63-2.09-5.46-1.3-3.67-1.87-5.54l.43.31h-4.27l.42-.35a12.11 12.11 0 0 1-1 3c-.45 1-1 1.87-1.49 2.76-1.06 1.8-2.25 3.49-3.47 5.17s-2.48 3.31-3.79 4.91-2.64 3.18-4 4.71Z"/><path class="cls-2" d="m27.91 37-3.11.09-3.1.07c-2.07 0-4.14.09-6.21.11h-.27V37l-.09-7.18c0-2.4-.07-4.79-.08-7.19V7.75h13.36v.44c0 2.4 0 4.8-.06 7.19l-.1 7.19v3.59l-.08 3.6C28 32.2 28 34.6 27.91 37Zm0 0c-.08-2.39-.13-4.79-.18-7.18l-.07-3.6-.05-3.59-.1-7.19c0-2.39 0-4.79-.06-7.19l.46.46H15.49l.49-.5v14.38c0 2.4 0 4.79-.08 7.19L15.76 37l-.27-.27c2.07 0 4.14.08 6.21.12l3.1.07Z"/><path class="cls-2" d="M22.71 15.67c-.76.12-1.53.18-2.29.25l-1.15.08-1.15.06h-.37v-.42c0-.7-.05-1.4-.08-2.09s0-1.4 0-2.1V11h5.49v.36l-.06 1c0 .35-.05.7-.08 1.05-.14.86-.2 1.59-.31 2.26Zm0 0c-.1-.7-.16-1.4-.23-2.09 0-.35-.05-.7-.08-1.05s0-.7-.06-1l.37.37c-.38 0-.76.05-1.15.05H18.12l.49-.49v2.1c0 .7 0 1.39-.08 2.09l-.39-.39 1.15.06 1.15.08c.74.09 1.56.16 2.27.27ZM20.42 18.9c.74-.08 1.49-.15 2.23-.2s1.49-.1 2.23-.14h.33v.36l.07 1.64V26h-2.73l-2.23-.05H20v-.41c0-.55.05-1.1.07-1.64s.05-1.1.08-1.65.08-1.09.12-1.64.08-1.16.15-1.71Zm0 0c.06.55.11 1.09.16 1.64s.08 1.09.11 1.64.07 1.1.09 1.65 0 1.09.06 1.64l-.42-.42 2.23-.05h2.23l-.49.49V22.2l.05-1.64.06-1.64.34.34c-.74 0-1.49-.08-2.23-.14s-1.45-.12-2.19-.22ZM20.42 30.56c-.19.05-.39.09-.58.12l-.57.1c-.19 0-.38 0-.58.08l-.57.07h-.33v-.4c-.08-.87-.12-1.73-.12-2.6v-.49h.49c.77 0 1.53 0 2.3.1h.42v.36c0 .44-.09.87-.15 1.3s-.2.92-.31 1.36Zm0 0a12.45 12.45 0 0 1-.26-1.3c-.05-.43-.11-.86-.14-1.3l.4.4c-.77.07-1.53.1-2.3.1l.49-.5c0 .87 0 1.73-.12 2.6l-.37-.38.57.07c.2 0 .39 0 .58.08l.57.1c.16.03.39.08.58.13Z"/><path class="cls-3" d="M58.92 119v-7.35c0-5.72-4.64-6.78-9.42-6.78a13.41 13.41 0 0 0-6.44 1.4 6.25 6.25 0 0 0-3.14 5.42h6.19c.31-1.72 1.47-2.53 3.31-2.53 1.36 0 3.19.58 3.19 2.09 0 1.25-.62 1.64-1.75 1.88-4.31.87-10.89.48-11.69 5.87a8.11 8.11 0 0 0-.07 1.14c0 4.16 3 6.11 6.89 6.11a9.13 9.13 0 0 0 6.66-2.49 7.64 7.64 0 0 0 .39 1.9h6.66a11.72 11.72 0 0 1-.78-5.18Zm-6.54 0c-.39 2.19-1.56 3.16-3.9 3.16-1.48 0-2.76-.66-2.76-2.29a2.12 2.12 0 0 1 .15-.87c.37-1 1.4-1.42 2.58-1.71 1.44-.39 3.15-.5 4.08-1.1a12.72 12.72 0 0 1-.15 2.81"/><path d="M38.2 120.42v-1H27.61V97.83h-7.25v27.8h20.22v-.08a6 6 0 0 1-2.38-5.13" style="fill:#d40e1b"/><path class="cls-3" d="m112.29 120.57 1.61-1.6 8.49-8.52v-5.02H104.7v5.07h9.28l-8.55 8.47-1.54 1.53v5.13h19.23v-5.06h-10.83zM102.52 119v-7.35c0-5.72-4.64-6.78-9.43-6.78a14.26 14.26 0 0 0-5.64 1v.59a12.49 12.49 0 0 1-1 5.21h3.25c.32-1.72 1.48-2.53 3.31-2.53 1.36 0 3.19.58 3.19 2.09 0 1.25-.62 1.64-1.76 1.88-4.29.87-10.87.48-11.67 5.87a8.11 8.11 0 0 0-.07 1.14c0 4.16 3 6.11 6.89 6.11a9.09 9.09 0 0 0 6.65-2.49 7.66 7.66 0 0 0 .4 1.9h6.65a11.86 11.86 0 0 1-.77-5.18ZM96 119c-.39 2.19-1.57 3.16-3.9 3.16-1.48 0-2.77-.66-2.77-2.29a2.3 2.3 0 0 1 .15-.87 3.33 3.33 0 0 1 2.57-1.7c1.45-.39 3.16-.5 4.1-1.1A12.72 12.72 0 0 1 96 119"/><path class="cls-3" d="M76.4 116.37c6.11 0 10-2.69 10-9.58 0-6.58-4.86-9-10-9H63.2v27.87h7.24v-9.26Zm-6-12.73h4.9c2.23 0 3.91 1 3.91 3.66s-1.64 3.46-3.91 3.46h-4.86Z"/><path class="cls-5" d="M50.24 57.32H47.8v-15c0-7.4 6.53-13.42 14.56-13.42s14.55 6 14.55 13.42v15H50.24ZM81.9 56.93H80V44.4a11.37 11.37 0 0 1 22.74 0v12.53H81.9Z"/><path class="cls-2" d="M78.13 48.65a2.77 2.77 0 0 1-2.57-2.38V38.62a10.25 10.25 0 0 0-7.16-8.29 38.92 38.92 0 0 0-12.27.31 9.41 9.41 0 0 0-6.8 8.14v3.75H48v-3.77a10.82 10.82 0 0 1 7.77-9.4A39.5 39.5 0 0 1 68.61 29h.07a11.81 11.81 0 0 1 8.18 9.43v7.61c.07.28.39 1.32 1.39 1.25a1 1 0 0 0 .94-.87v-4.73A9.77 9.77 0 0 1 85.83 34h.06a24.76 24.76 0 0 1 9.79-.27c.48.07 6 1.06 7.7 7.71V48h-1.32v-6.35C100.53 35.8 95.68 35 95.47 35a24 24 0 0 0-9.19.25 8.46 8.46 0 0 0-5.66 6.56v4.78a2.29 2.29 0 0 1-2.22 2.06ZM40.92 55a2 2 0 1 1-2-2 2 2 0 0 1 2 2Z"/><circle class="cls-2" cx="50.66" cy="54.99" r="2.01" transform="rotate(-89.27 50.658 54.987)"/><path class="cls-2" d="M56.4 41.09a2 2 0 1 1-2-2 2 2 0 0 1 2 2ZM71.74 41.09a2 2 0 1 1-2-2 2 2 0 0 1 2 2ZM70.4 61.17a1.89 1.89 0 1 1-1.89-1.89 1.88 1.88 0 0 1 1.89 1.89ZM80.76 61.17a1.89 1.89 0 1 1-1.88-1.89 1.88 1.88 0 0 1 1.88 1.89ZM86.36 44a1.89 1.89 0 1 1-1.88-1.89A1.89 1.89 0 0 1 86.36 44ZM99.34 44a1.89 1.89 0 1 1-1.89-1.89A1.89 1.89 0 0 1 99.34 44ZM102.94 63.27a1.69 1.69 0 1 1-1.69-1.69 1.69 1.69 0 0 1 1.69 1.69ZM112.64 63.27a1.7 1.7 0 1 1-1.7-1.69 1.7 1.7 0 0 1 1.7 1.69ZM50.38 62.69H38.49a2.27 2.27 0 0 1 0-4.53h11.89a2.27 2.27 0 0 1 0 4.53Zm-11.89-3.2a.94.94 0 1 0 0 1.87h11.89a.94.94 0 0 0 0-1.87ZM96.73 52.07H84.84a2.26 2.26 0 0 1 0-4.52h11.89a2.26 2.26 0 0 1 0 4.52Zm-11.89-3.19a.94.94 0 1 0 0 1.87h11.89a.94.94 0 0 0 0-1.87ZM69.51 50.48H56.57a.67.67 0 0 1 0-1.33h12.94a1.18 1.18 0 0 0 0-2.35H54.42a.66.66 0 1 1 0-1.32h15.09a2.5 2.5 0 0 1 0 5ZM87.84 59.63h5.24v1.33h-5.24zM77.8 66.08h-8.07a.67.67 0 0 1 0-1.33h8.07a.67.67 0 1 1 0 1.33ZM109.83 68.63h-8.58a.66.66 0 0 1 0-1.32h8.58a.66.66 0 1 1 0 1.32ZM94.47 80.92h6.22v1.33h-6.22zM111.93 80.92h6.22v1.33h-6.22zM76.99 80.92h10.4v1.33h-10.4zM31.02 80.92h6.26v1.33h-6.26zM48.85 82.2h8.18v1.33h-8.18zM29.22 75.92c-4.42 0-8-2.65-8-5.9s3.6-5.91 8-5.91 8 2.65 8 5.91-3.58 5.9-8 5.9Zm0-10.48c-3.69 0-6.69 2-6.69 4.58s3 4.57 6.69 4.57 6.69-2 6.69-4.57-3-4.58-6.69-4.58ZM55.91 74c-2.82 0-5.11-1.77-5.11-4s2.29-4 5.11-4 5.11 1.78 5.11 4-2.29 4-5.11 4Zm0-6.58c-2.08 0-3.78 1.18-3.78 2.63s1.7 2.63 3.78 2.63 3.78-1.18 3.78-2.63-1.69-2.63-3.78-2.63ZM87.84 73.6c-2.81 0-5.11-1.77-5.11-3.95s2.3-4 5.11-4 5.11 1.78 5.11 4-2.29 3.95-5.11 3.95Zm0-6.58c-2.08 0-3.78 1.18-3.78 2.63s1.7 2.63 3.78 2.63 3.78-1.18 3.78-2.63S89.93 67 87.84 67ZM117.42 73.6c-2.82 0-5.11-1.77-5.11-3.95s2.29-4 5.11-4 5.1 1.78 5.1 4-2.29 3.95-5.1 3.95Zm0-6.58c-2.09 0-3.78 1.18-3.78 2.63s1.69 2.63 3.78 2.63 3.78-1.18 3.78-2.63-1.7-2.65-3.78-2.65ZM106 52.07a3.74 3.74 0 1 1 3.77-3.74 3.75 3.75 0 0 1-3.77 3.74Zm0-6.15a2.42 2.42 0 1 0 2.44 2.41 2.43 2.43 0 0 0-2.44-2.41Z"/><path class="cls-2" d="M56.1 66.35h-1.33v-13.3a8.63 8.63 0 0 0-6-6.26 18.49 18.49 0 0 0-9.24.44 8.2 8.2 0 0 0-4.65 6.57v12h-1.34V53.78A9.45 9.45 0 0 1 39 46a19.5 19.5 0 0 1 10-.51 10 10 0 0 1 7 7.34v.07ZM54.77 73.98h1.33v1.28h-1.33zM83.9 75.64h-1.32V59a7.77 7.77 0 0 0-5.28-4.9 13.72 13.72 0 0 0-7.32.28 8.05 8.05 0 0 0-4.56 5.34v16h-1.33V59.46a9.25 9.25 0 0 1 5.37-6.36 14.8 14.8 0 0 1 8.08-.35 9.07 9.07 0 0 1 6.3 5.84v.11ZM98 75.64h-1.31V61.82a8 8 0 0 1 4.75-6h.06a17.67 17.67 0 0 1 8.86-.21h.09a9.08 9.08 0 0 1 5.24 6.39v4.62h-1.33v-4.4a7.74 7.74 0 0 0-4.36-5.38 16.67 16.67 0 0 0-8 .16 6.75 6.75 0 0 0-4 4.94ZM114.28 72.94h1.33v2.32h-1.33zM60.68 32.23h5.05s1.15.07 1.21 1.09a1.18 1.18 0 0 1-1.09 1.21ZM33.54 77.3h1.33v1.79h-1.33zM54.77 77.56h1.33v1.53h-1.33zM64.09 77.56h1.33v1.53h-1.33zM64.09 81.2h1.33v1.53h-1.33zM82.58 77.56h1.33v1.28h-1.33zM96.69 77.56h1.33v1.28h-1.33zM114.28 77.56h1.33v1.28h-1.33z"/><path class="cls-6" d="m99.29 55.91.11-.91a.62.62 0 0 1 .37-.52s1.78-1.49 9.61 1.26c0 0 5.45 1.89 8 4.21 0 0 .54.42.37.94a1.87 1.87 0 0 1-.34.68s-.53 1.12-1.52.55c0 0-5.86-3-7.45-3.43a32.64 32.64 0 0 0-8.1-1.71s-1.27-.15-1.05-1.07Z"/><path class="cls-6" d="M103.43 54.23s.81-3 2.58-3.83a5.67 5.67 0 0 1 4.67-.06s3.61.81 4.77 3.41c0 0 .87 1.58-.4 4.6a45.64 45.64 0 0 0-5.55-2.53 39.32 39.32 0 0 0-6.07-1.59ZM35 63a11.77 11.77 0 0 0-1-2s-4.75-6 1-19.16a13.46 13.46 0 0 1 5.14-5.2 9.72 9.72 0 0 1 4.24-1.21s3-.29 4.7.66c0 0 4.31 1.65 6.76 9.34a31.43 31.43 0 0 1-.22 15.07l-.76 1.45a2.28 2.28 0 0 0 0 1.75l-.44.3s.16-.3-.35-.8c0 0-.59-.95 0-1.55 0 0 .71-.15-.15-1.5 0 0-.14-.1-.25-1.09a16.66 16.66 0 0 0 .43-4.38s-.27-3.68-3.25-4.78c0 0-6.52-2-11.93-.23 0 0-3.42.79-3.53 3.53 0 0-.27-.13.33 5.22a4.23 4.23 0 0 1 0 2.12s-.7.71-.46 1.08a9.94 9.94 0 0 1 .42 1.69A4.21 4.21 0 0 0 35 63Z"/><path class="cls-6" d="M36.33 63.29A1.44 1.44 0 1 1 34.9 62a1.37 1.37 0 0 1 1.43 1.29ZM56.74 64.19a1.44 1.44 0 1 1-1.43-1.3 1.37 1.37 0 0 1 1.43 1.3Z"/><path class="cls-5" d="M34.3 48.47c.71-.79 1.45-1.57 2.17-2.36a.07.07 0 0 1 .07 0l2.87 1.07h-.1l2.32-2a.14.14 0 0 1 .14 0l2.62 1.55h-.14l2.58-1.69a.1.1 0 0 1 .13 0c.86.58 1.72 1.16 2.57 1.75h-.09l2.79-1.09a.09.09 0 0 1 .07 0l2.16 2.12-2.25-2h.07L49.51 47a.1.1 0 0 1-.09 0l-2.59-1.72H47L44.39 47a.12.12 0 0 1-.14 0l-2.6-1.57h.14l-2.35 1.93a.11.11 0 0 1-.11 0l-2.84-1.13h.08c-.76.77-1.51 1.49-2.27 2.24Z"/><path class="cls-5" d="M35.2 45.45c.69-.75 1.39-1.49 2.08-2.23a.06.06 0 0 1 .07 0l2.71 1H40c.73-.62 1.48-1.22 2.22-1.83a.12.12 0 0 1 .14 0l2.46 1.5h-.14l2.47-1.57a.12.12 0 0 1 .13 0c.81.56 1.62 1.12 2.42 1.69h-.1l2.66-1a.06.06 0 0 1 .07 0l2 2-2.13-1.88h.07l-2.63 1.07a.09.09 0 0 1-.09 0l-2.43-1.66h.13l-2.46 1.59a.12.12 0 0 1-.14 0l-2.45-1.51h.14c-.75.6-1.49 1.21-2.24 1.8a.09.09 0 0 1-.1 0l-2.7-1.09h.08Z"/><path class="cls-5" d="M40 42.53a.31.31 0 0 1-.31.31.31.31 0 0 1 0-.62.31.31 0 0 1 .31.31ZM39.4 45.45a.32.32 0 0 1-.63 0 .32.32 0 1 1 .63 0ZM44.69 45.38a.31.31 0 1 1-.31-.31.31.31 0 0 1 .31.31ZM45 41.91a.31.31 0 1 1-.31-.32.31.31 0 0 1 .31.32ZM50 42.22a.32.32 0 1 1-.31-.31.31.31 0 0 1 .31.31ZM50 45.38a.32.32 0 1 1-.31-.31.31.31 0 0 1 .31.31Z"/></g></g></svg>