<svg width="139.82" height="126.259" viewBox="0 0 36.994 33.406" xmlns="http://www.w3.org/2000/svg"><g fill="#fff"><g stroke-width=".265"><path class="cls-1" d="M5.882 24.04a.344.344 0 0 0 .35.36.32.32 0 0 0 .346-.323c0-.235-.22-.294-.402-.347a1.3 1.3 0 0 1-.463-.203.62.62 0 0 1-.265-.514.699.699 0 0 1 .714-.68.508.508 0 0 1 .437.183v-.132h.344v.635H6.53a.304.304 0 0 0-.307-.307.294.294 0 0 0-.32.293c0 .233.204.28.386.334a1.44 1.44 0 0 1 .503.214.62.62 0 0 1 .236.495.722.722 0 0 1-.746.74.56.56 0 0 1-.453-.2v.153h-.357v-.701zM7.76 24.363h.32v.376h-.722v-1.387H7.08v-.375h.278v-.593h.402v.593h.299v.375H7.76zM9.575 24.503a.654.654 0 0 1-.566.283.913.913 0 0 1-.905-.918.931.931 0 0 1 .923-.937.635.635 0 0 1 .548.297v-.265h.63v.376h-.22v1.01h.22v.39h-.63zm0-.654a.53.53 0 1 0-.53.53.53.53 0 0 0 .538-.53zM10.964 23.283a.585.585 0 0 1 .53-.32v.413a.53.53 0 0 0-.347.127.495.495 0 0 0-.151.42v.445h.227v.37h-.86v-.376h.228v-1.01h-.228v-.376h.601zM12.348 24.363h.32v.376h-.722v-1.387h-.278v-.375h.278v-.593h.402v.593h.302v.375h-.302zM14.631 24.363h.228v.376h-.588v-.217a.646.646 0 0 1-.529.264.635.635 0 0 1-.49-.225.728.728 0 0 1-.156-.51v-.699h-.227v-.375h.632v.955a.564.564 0 0 0 .069.328.341.341 0 0 0 .296.153.381.381 0 0 0 .297-.145.55.55 0 0 0 .076-.347v-.569h-.232v-.375h.63zM15.145 23.352h-.225v-.376h.63v.265a.659.659 0 0 1 .574-.283.905.905 0 0 1 .021 1.807.74.74 0 0 1-.598-.265v.514h.228v.378h-.855v-.386h.225zm1.466.513a.53.53 0 1 0-.53.53.53.53 0 0 0 .53-.53zM20.256 24.712h-.426l-.437-1.556-.436 1.556h-.418l-.561-1.982h-.238v-.375h.958v.375h-.265l.339 1.239.423-1.614h.381l.452 1.6.331-1.225h-.264v-.376h.955v.376h-.265zM22.576 24.193a.915.915 0 0 1-1.76-.357.918.918 0 0 1 .919-.942.947.947 0 0 1 .658.286.92.92 0 0 1 .25.658v.143h-1.44a.542.542 0 0 0 .529.424.49.49 0 0 0 .426-.212zm-.307-.53a.566.566 0 0 0-.556-.417.548.548 0 0 0-.529.418zM24.556 24.193a.905.905 0 0 1-.83.564.931.931 0 0 1 0-1.853.953.953 0 0 1 .66.286.918.918 0 0 1 .247.659v.143h-1.45a.545.545 0 0 0 .529.423.492.492 0 0 0 .426-.211zm-.307-.53a.564.564 0 0 0-.553-.417.548.548 0 0 0-.53.418zM25.746 23.283h-.18v-.336h.881v.378h-.214l-.5.469.529.529h.265v.389h-.96v-.37h.147l-.42-.461v.46h.158v.37h-.793v-.37h.23V22.73h-.23v-.376h.632v1.384zM28.296 24.193a.908.908 0 0 1-.83.564.931.931 0 0 1 0-1.853.947.947 0 0 1 .658.286.92.92 0 0 1 .249.659v.143h-1.426a.545.545 0 0 0 .529.423.484.484 0 0 0 .423-.211zm-.307-.53a.566.566 0 0 0-.556-.417.53.53 0 0 0-.513.418zM28.646 23.326h-.228v-.378h.63v.264a.574.574 0 0 1 .53-.29.699.699 0 0 1 .51.219.683.683 0 0 1 .148.529v.672h.228v.37h-.86v-.37h.23v-.577a.497.497 0 0 0-.071-.317.384.384 0 0 0-.31-.143.397.397 0 0 0-.32.148.62.62 0 0 0-.077.37v.519h.228v.37h-.858v-.37h.228z"/><path class="cls-1" d="M31.926 24.447a.667.667 0 0 1-.577.291.91.91 0 0 1 0-1.82.733.733 0 0 1 .582.288v-.476h-.23v-.376h.632v1.987h.228v.37h-.63zm0-.624a.53.53 0 1 0-.53.545.53.53 0 0 0 .54-.556z"/><path class="cls-2" d="m4.794 16.065-.823.024-.82.018c-.548 0-1.095.024-1.643.03h-.072v-.075l-.023-1.897q-.016-.952-.022-1.902V8.328h3.535v.138c0 .635 0 1.27-.016 1.902l-.026 1.903v.95l-.021.952c-.037.625-.05 1.26-.07 1.892zm0 0c-.021-.632-.034-1.267-.048-1.9l-.018-.952-.013-.95-.027-1.902c0-.633 0-1.268-.016-1.903l.122.122H1.508l.13-.132v3.804q0 .95-.022 1.903l-.045 1.91-.071-.071c.548 0 1.095.02 1.643.031l.82.019z"/><path class="cls-2" d="M3.424 10.424c-.201.032-.405.048-.606.066l-.304.024-.304.016h-.098v-.111c0-.185 0-.368-.022-.556-.02-.188 0-.368 0-.553v-.13h1.453v.096l-.016.264c0 .093-.013.186-.02.265-.043.249-.06.434-.083.619zm0 0a9.632 9.632 0 0 1-.06-.556c0-.09-.014-.182-.022-.264-.008-.082 0-.185-.016-.265l.098.098c-.1 0-.201.013-.302.013H2.21l.13-.13v.554s0 .37-.022.555l-.114-.11.305.015.304.021c.2.021.405.04.611.069zM2.813 11.279c.196-.024.394-.04.59-.053.196-.013.394-.026.59-.037h.087v.095l.019.434V13.152h-.722l-.59-.013h-.114v-.122c0-.145.013-.29.018-.434l.021-.436c.008-.146.022-.289.032-.434s.05-.288.069-.434zm0 0a15.65 15.65 0 0 1 .071.868c.008.145.019.29.024.436.006.146 0 .289.016.434l-.111-.11.59-.017h.59l-.13.13v-.87l.014-.434.015-.434.09.09c-.195 0-.394-.022-.59-.037a21.45 21.45 0 0 1-.579-.056zM2.813 14.361a1.058 1.058 0 0 1-.153.034l-.151.027c-.05 0-.1.013-.154.021l-.15.019h-.088v-.109a7.379 7.379 0 0 1-.032-.685v-.122h.13c.204 0 .405 0 .609.027h.11v.095c0 .116-.023.23-.039.344-.016.114-.053.235-.082.349zm0 0a3.12 3.12 0 0 1-.069-.339c0-.113-.029-.227-.037-.344l.106.106a6.688 6.688 0 0 1-.609.027l.13-.133a6.564 6.564 0 0 1-.032.686l-.098-.098.162.02c.053 0 .103 0 .153.022l.151.027c.04.002.093.013.143.026zM8.107 14.954l-.823.024-.82.016c-.548 0-1.095.026-1.643.031h-.074v-.071l-.024-1.902c0-.633-.019-1.268-.021-1.9V7.218h3.535v.119c0 .635 0 1.267-.016 1.902l-.035 1.913v.95l-.02.95c-.027.635-.04 1.27-.06 1.902zm0 0c-.021-.632-.034-1.267-.048-1.902l-.018-.95-.013-.95-.024-1.892c0-.635 0-1.267-.016-1.902l.119.119H4.821l.13-.13v3.815c0 .633 0 1.268-.022 1.9l-.023 1.903-.072-.072c.548 0 1.096.021 1.643.032l.82.018z"/><path class="cls-2" d="M6.734 9.313c-.204.032-.407.048-.609.066l-.304.021-.304.016h-.098v-.108c0-.185-.013-.37-.021-.556-.008-.185 0-.37 0-.556v-.13h1.045l.304.014h.103v.093c0 .092 0 .185-.015.264-.016.08-.014.185-.022.278-.037.228-.053.413-.079.598zm0 0c-.03-.185-.045-.37-.063-.556 0-.092-.014-.185-.019-.277-.005-.093-.013-.186-.019-.265l.101.1-.304.014h-.913l.13-.133v.556c0 .185 0 .37-.019.556l-.106-.103.304.015.305.022c.203.018.4.042.603.071zM6.125 10.168c.196-.024.394-.042.59-.056s.394-.023.593-.034h.084v.095l.019.434.013.434v1H5.998v-.135c0-.145 0-.29.016-.436.016-.146 0-.289.024-.434s.018-.289.029-.434.042-.283.058-.434zm0 0a15.688 15.688 0 0 1 .071.868c.008.145.019.29.024.434.006.143.013.29.016.436l-.111-.113h1.183l-.133.132v-.87l.014-.435.018-.433.09.087c-.198 0-.394-.019-.593-.035-.198-.015-.37-.05-.579-.071zM6.125 13.25l-.153.034-.151.027-.151.021-.154.016H5.43v-.109a7.379 7.379 0 0 1-.032-.685v-.119h.13c.204 0 .405 0 .609.024h.113v.095c0 .114-.023.23-.04.344a3.104 3.104 0 0 1-.084.352zm0 0a3.104 3.104 0 0 1-.056-.341 5.068 5.068 0 0 1-.04-.344l.107.106a6.684 6.684 0 0 1-.609.023l.13-.13a6.564 6.564 0 0 1-.032.686l-.098-.098.154.019.15.018c.05 0 .1.016.151.03a1.431 1.431 0 0 1 .143.031zM3.4 13.015l-.82.024-.823.018c-.548 0-1.095.024-1.643.03H.045v-.075l-.026-1.9c0-.634-.016-1.267-.019-1.902V5.292H3.52v.116c0 .635 0 1.27-.016 1.903L3.48 9.213l-.013.95-.021.95c-.021.635-.021 1.27-.045 1.902zm0 0c-.021-.632-.032-1.267-.045-1.9l-.021-.952-.013-.95-.024-1.902c0-.633 0-1.268-.016-1.903l.119.122H.114l.13-.132v3.804c0 .635 0 1.268-.019 1.903l-.026 1.9-.072-.072c.548 0 1.096.021 1.643.032l.823.018z"/><path class="cls-2" d="M2.027 7.374c-.204.032-.405.048-.609.066l-.304.024-.304.016H.715v-.111c0-.185 0-.37-.019-.556-.018-.185 0-.368 0-.553v-.13H1.74l.304.014h.103v.095c0 .093 0 .185-.016.278-.016.092 0 .185-.021.264-.037.223-.056.408-.082.593zm0 0a9.895 9.895 0 0 1-.06-.556c0-.09-.017-.182-.022-.264-.005-.082 0-.185-.019-.278l.101.098c-.1 0-.204.013-.304.013H.81l.132-.13v.553c0 .186 0 .37-.018.556l-.106-.103.304.016.304.02c.196.027.41.046.601.075zM1.418 11.313a1.53 1.53 0 0 1-.15.032l-.154.026c-.05 0-.1.013-.151.021l-.154.019H.722v-.106a7.48 7.48 0 0 1-.032-.688v-.13h.13c.204 0 .408 0 .609.024h.113v.096c0 .116-.023.23-.04.344a3.276 3.276 0 0 1-.084.362zm0 0c-.03-.116-.048-.23-.066-.344s-.032-.227-.04-.344l.106.106a6.646 6.646 0 0 1-.609.026l.133-.132c0 .23 0 .458-.032.688l-.1-.1.153.018c.05 0 .1 0 .15.021l.154.027a1.032 1.032 0 0 1 .151.034z"/><path class="cls-2" d="m4.964 10.48-.82.021-.823.019c-.548 0-1.095.026-1.643.031h-.069v-.071l-.037-1.902V2.744h3.511v.119c0 .635 0 1.267-.016 1.902l-.024 1.9-.013.952-.018.96c-.016.636-.03 1.268-.048 1.903zm0 0c-.021-.635-.032-1.267-.048-1.902l-.018-.95-.013-.953-.024-1.9c0-.634 0-1.267-.016-1.902l.119.12H1.678l.13-.13v3.802c0 .635 0 1.27-.019 1.902l-.026 1.902-.072-.071c.548 0 1.096.021 1.643.032l.823.016z"/><path class="cls-2" d="M3.59 4.839c-.204.03-.405.048-.609.066l-.304.021-.312.016h-.098v-.108c0-.185-.013-.37-.018-.556-.006-.185 0-.37 0-.556v-.124h1.029c.1 0 .2 0 .304.013h.103v.093c0 .093 0 .185-.016.278-.016.092 0 .185-.02.278a7.27 7.27 0 0 1-.059.579zm0 0a7.922 7.922 0 0 1-.06-.556c0-.092-.017-.185-.022-.277-.005-.093-.013-.186-.019-.278l.101.1H2.373l.132-.13v.556c0 .185 0 .37-.018.556l-.106-.106.304.019.304.02c.196.048.397.064.601.096zM2.982 5.691c.196-.021.394-.04.59-.053l.593-.037h.084v.095l.016.434.013.437v1h-1.41v-.111c0-.146 0-.289.016-.434.016-.146.016-.289.024-.434.008-.146.018-.291.029-.437.01-.145.03-.314.045-.46zm0 0c.016.146.03.291.042.434s.024.291.03.436c.005.146.018.289.023.434.006.146.013.289.016.434l-.111-.11.59-.014h.593l-.13.13V6.13l.019-.434.09.09c-.199 0-.395-.02-.593-.037a13.36 13.36 0 0 1-.569-.058zM2.982 8.776l-.15.034-.154.027-.151.021-.161.016h-.088v-.109a7.422 7.422 0 0 1-.032-.685v-.13h.12c.203 0 .404 0 .608.024h.114v.096c0 .113-.024.227-.04.34a3.035 3.035 0 0 1-.066.366zm0 0a3.035 3.035 0 0 1-.066-.344 4.992 4.992 0 0 1-.04-.341l.106.106a7.8 7.8 0 0 1-.609.023l.133-.13c0 .228 0 .458-.032.686l-.108-.098.153.016.15.021.154.027zM36.876 14.729l-.82.024-.823.018c-.548 0-1.095.024-1.643.03h-.069v-.075l-.024-1.9c0-.634-.016-1.267-.018-1.902V6.99h3.516v.116c0 .635 0 1.27-.016 1.903l-.024 1.902v.95l-.02.952c-.027.649-.038 1.284-.06 1.916zm0 0c-.021-.632-.032-1.267-.048-1.9l-.018-.952-.013-.95-.035-1.902c0-.633 0-1.268-.016-1.903l.12.122h-3.287l.13-.132v3.804c0 .635 0 1.268-.018 1.903l-.027 1.9-.077-.061c.548 0 1.096.02 1.643.031l.823.019z"/><path class="cls-2" d="M35.506 9.088c-.204.032-.405.048-.609.066l-.304.024-.304.016h-.095v-.111c0-.185-.013-.368-.019-.553-.005-.185 0-.37 0-.556v-.13h1.043l.304.014h.103v.095c0 .093 0 .185-.016.278-.016.092-.013.185-.02.264-.038.236-.057.408-.083.593zm0 0a9.793 9.793 0 0 1-.06-.553c0-.093-.017-.185-.022-.265l-.019-.277.1.098-.303.015h-.913l.132-.13v.556c0 .186 0 .368-.018.553l-.106-.103.304.016.304.024c.196.018.397.037.601.066zM34.896 9.943c.198-.021.394-.04.59-.053.196-.013.394-.026.593-.037h.084v.095l.016.434.013.434v1h-1.428v-.108c0-.146 0-.291.016-.434s.015-.291.023-.437c.008-.145.019-.288.03-.434.01-.145.047-.314.063-.46zm0 0c.016.146.03.288.042.434s.024.288.03.434c.004.145.018.29.023.436.005.146 0 .289.016.434l-.111-.11.59-.017h.593l-.13.13V10.38l.019-.434.09.09c-.199-.014-.395-.022-.593-.037s-.37-.035-.569-.056zM34.896 13.028l-.15.032-.154.026a1.476 1.476 0 0 1-.151.021l-.154.019H34.2v-.106a7.469 7.469 0 0 1-.032-.688v-.13h.13c.204 0 .405 0 .609.027h.113v.095c0 .117-.023.23-.04.344a2.712 2.712 0 0 1-.084.36zm0 0a3.276 3.276 0 0 1-.066-.344c-.016-.114-.032-.227-.04-.344l.106.106a6.688 6.688 0 0 1-.609.026l.133-.132c0 .23 0 .458-.032.688l-.1-.1.153.018c.05 0 .1 0 .15.021l.154.027z"/><path class="cls-2" d="m35.666 11.096-.82.024-.823.016c-.545 0-1.093.026-1.64.031h-.072v-.071l-.026-1.902c0-.633-.016-1.268-.019-1.903V3.36h3.538v.119c0 .635 0 1.267-.019 1.902l-.024 1.9v.952l-.018.95c-.042.646-.042 1.28-.077 1.913zm0 0c-.018-.632-.032-1.267-.045-1.902l-.021-.95V7.29l-.027-1.9c0-.634 0-1.267-.016-1.902l.12.12h-3.284l.13-.13V7.28c0 .635 0 1.27-.019 1.902l-.024 1.902-.071-.071c.548 0 1.095.021 1.64.032l.823.016z"/><path class="cls-2" d="M34.296 5.456c-.201.03-.405.048-.606.066l-.304.021-.304.016h-.098v-.108c0-.185 0-.37-.019-.556-.018-.185 0-.37 0-.556v-.13h1.043l.304.014h.103v.093c0 .092 0 .185-.018.264-.019.08 0 .185-.022.278-.034.228-.05.413-.079.598zm0 0a9.886 9.886 0 0 1-.06-.556c0-.092 0-.185-.022-.277-.021-.093 0-.186-.016-.265l.098.1-.304.014h-.91l.13-.133v.556c0 .185 0 .37-.02.556l-.103-.103.305.015.304.022c.193.023.397.042.598.071zM33.686 6.308c.196-.021.392-.04.59-.053l.59-.037h.087v.093l.019.436V8.181h-.722l-.59-.013h-.077v-.111c0-.143 0-.289.018-.434s0-.288.022-.434.02-.291.031-.434.014-.301.032-.447zm0 0q.024.217.04.437c0 .142.024.288.032.433s.018.289.02.434c.004.146.017.291.02.434l-.112-.11h1.18l-.13.129V6.763l.019-.436.09.09c-.196 0-.394-.019-.59-.035-.196-.016-.373-.05-.569-.074zM33.686 9.393l-.153.034-.151.027-.154.021c-.05 0-.1 0-.15.016h-.09v-.109a6.599 6.599 0 0 1-.032-.685v-.13h.13c.2 0 .404 0 .608.024h.111v.096c0 .113-.021.227-.037.344-.016.116-.053.248-.082.362zm0 0a3.12 3.12 0 0 1-.069-.341 5.202 5.202 0 0 1-.037-.344l.106.106a7.845 7.845 0 0 1-.609.023l.13-.13c0 .228 0 .458-.032.686l-.097-.098.15.016.154.021.15.027zM31.486 10.827l-.812.021-.823.019c-.548 0-1.096.026-1.643.031h-.069v-.071l-.024-1.902c0-.635-.016-1.268-.018-1.903V3.09h3.534v.12c0 .632 0 1.267-.015 1.902l-.024 1.9-.013.952-.022.95c-.04.646-.05 1.278-.071 1.913zm0 0c-.021-.635-.032-1.267-.048-1.902l-.018-.95v-.953l-.024-1.9c0-.634 0-1.27-.016-1.902l.12.12h-3.287l.13-.13v3.802c0 .635 0 1.267-.019 1.902l-.026 1.902-.072-.071c.548 0 1.096.019 1.644.03l.822.018z"/><path class="cls-2" d="M30.116 5.186c-.204.03-.405.048-.609.066l-.304.021-.304.016h-.095v-.108c0-.185 0-.37-.019-.556-.018-.185 0-.37 0-.556v-.13h1.043l.304.017h.103v.092c0 .093 0 .186-.016.265-.016.08 0 .185-.021.278-.037.225-.05.41-.082.595zm0 0a7.88 7.88 0 0 1-.06-.556c0-.092-.017-.185-.022-.277-.005-.093 0-.186-.018-.265l.1.098-.304.016h-.913l.13-.13v.556s0 .37-.019.555l-.106-.105.305.015.304.024c.198.021.4.037.603.069zM29.506 6.038c.198-.021.394-.04.59-.053l.593-.037h.084v.095l.016.434V7.914h-.725l-.59-.016h-.113V7.79c0-.146 0-.289.015-.434.016-.146.016-.291.024-.434.008-.143.019-.291.03-.437.01-.145.06-.301.076-.447zm0 0c.016.146.03.291.042.434s.024.291.03.436c.004.146.018.289.023.434.005.146 0 .289.016.434l-.111-.11h1.183l-.13.129V6.49l.019-.433.09.09c-.199 0-.395-.022-.593-.038-.199-.015-.37-.05-.569-.071z"/><path class="cls-2" d="m33.536 12.737-.82.019-.823.015c-.545 0-1.093.024-1.64.027h-.072v-.061l-.026-1.664c0-.556-.016-1.109-.019-1.664v-3.44h3.538v.116c0 .553 0 1.109-.016 1.662l-.027 1.664v.831l-.042.83c-.019.554-.032 1.099-.053 1.665zm0 0a176.74 176.74 0 0 1-.045-1.664l-.021-.834v-.83l-.027-1.665c0-.553 0-1.108-.016-1.661l.12.103h-3.284l.13-.114v3.326c0 .556 0 1.109-.019 1.664l-.024 1.664-.071-.063c.548 0 1.095.018 1.64.026l.823.016z"/><path class="cls-2" d="M31.556 8.549c.198-.021.394-.037.593-.048l.59-.031h.087v.084l.018.379v1.256h-1.428v-.095c0-.127 0-.264.018-.378s.013-.265.021-.381.022-.265.032-.381.053-.28.069-.405zm0 0c.019.124.032.251.042.378.01.127.024.265.032.381.008.117.019.265.021.381.003.117.016.265.019.379l-.114-.098h1.183l-.13.114v-1.14l.019-.38.09.078c-.196 0-.395-.019-.59-.032s-.373-.043-.572-.061z"/><path class="cls-2" d="m32.336 8.731-.823.024-.82.018c-.548 0-1.095.024-1.643.03h-.069V8.73l-.024-1.9c0-.635-.016-1.267-.021-1.902V.994h3.535v.12c0 .632 0 1.267-.016 1.9l-.024 1.902v.95l-.021.952c-.042.65-.056 1.286-.074 1.913zm0 0c-.021-.632-.032-1.267-.048-1.9l-.018-.952v-.95l-.024-1.902c0-.633 0-1.268-.016-1.9l.12.119h-3.287l.13-.13v3.802c0 .635 0 1.268-.019 1.903l-.026 1.9-.072-.072c.548 0 1.096.021 1.644.032l.82.018z"/><path class="cls-2" d="M30.966 3.095c-.204.032-.405.048-.609.066l-.304.024-.304.016h-.098V3.09c0-.185 0-.368-.021-.553s0-.37 0-.556v-.13h1.452v.096c0 .092 0 .185-.015.278-.016.092-.014.185-.022.264-.034.238-.053.42-.08.606zm0 0a7.865 7.865 0 0 1-.06-.553c0-.093-.017-.185-.022-.265-.005-.079 0-.185-.019-.277l.1.098-.303.015h-.913l.132-.13v.556c0 .186 0 .368-.018.553l-.106-.103.304.016.304.024c.196.018.397.037.601.066zM7.414 5.463l5.49-.058 5.488-.032h10.977v.22l-5.487.053-2.747.026-2.743.037c-1.829.021-3.66.056-5.488.09l-5.487.116V5.77l10.978-.053h10.978v.265l-5.488.068-5.493.035-5.487.04-5.49.023v-.026l5.487-.13 5.488-.114 5.49-.103 5.487-.084v.264H23.88l-5.488-.013-10.978-.05v-.146l5.488-.063c1.83-.027 3.66-.05 5.49-.09l2.744-.037 8.23-.19v.219c-1.83 0-3.658.013-5.49 0l-5.487-.016-5.485-.013-5.49-.056z"/><path class="cls-2" d="M10.075 10.583c.04-.852.098-1.704.148-2.556.05-.852.114-1.701.175-2.553l.193-2.564c.071-.852.135-1.701.212-2.55V.184h.177l1.175-.003h.172l.02.172c.107.844.205 1.688.302 2.532.098.844.196 1.688.286 2.535a357.6 357.6 0 0 1 .53 5.072v.114h-.11l-1.637-.024h-1.643zm0 0c.548-.034 1.093-.064 1.64-.09l1.64-.08-.097.114q-.357-2.524-.683-5.053-.156-1.275-.315-2.54c-.105-.844-.206-1.688-.304-2.532l.196.172h-1.159l.19-.175c-.076.85-.166 1.696-.248 2.545L10.67 5.49c-.092.85-.18 1.696-.285 2.542-.106.847-.196 1.694-.31 2.551zM17.029 10.583c.042-.852.098-1.704.15-2.556.054-.852.115-1.701.173-2.553l.193-2.564c.071-.852.135-1.701.212-2.55l.015-.175h1.506l.021.172c.106.844.204 1.688.302 2.532s.196 1.688.288 2.535q.28 2.532.53 5.072l.013.114h-.112l-1.648-.027h-1.643zm0 0q.82-.053 1.64-.09l1.64-.08-.097.114a326.064 326.064 0 0 1-.68-5.053c-.111-.844-.214-1.688-.318-2.53-.103-.84-.206-1.687-.301-2.532l.193.172h-1.159l.19-.174c-.076.85-.163 1.696-.248 2.545L17.624 5.5c-.092.85-.177 1.683-.283 2.53-.106.846-.198 1.696-.312 2.553zM23.796 10.39c.04-.852.098-1.704.148-2.556.05-.852.114-1.704.172-2.553l.196-2.553c.069-.85.132-1.699.209-2.548l.008-.18h1.508l.021.172c.106.844.204 1.688.3 2.532.094.844.198 1.688.288 2.532.19 1.69.362 3.381.529 5.072v.117h-1.752q-.815-.016-1.627-.035zm0 0q.818-.053 1.64-.09l1.64-.08-.097.114q-.365-2.529-.69-5.043-.162-1.267-.316-2.532T25.67.22l.196.172h-1.159l.19-.174c-.076.849-.166 1.696-.248 2.545l-.265 2.545c-.095.85-.182 1.696-.285 2.543-.104.847-.199 1.693-.302 2.54z"/><path class="cls-2" d="M7.406 5.292q.516-.569 1.013-1.154c.328-.394.654-.793.963-1.193.31-.4.606-.828.876-1.249a6.466 6.466 0 0 0 .368-.661 2.646 2.646 0 0 0 .236-.693l.015-.093h1.157l.029.077c.174.444.346.894.529 1.339.182.444.378.88.577 1.322.198.442.41.868.65 1.281a5.215 5.215 0 0 0 .392.593 1.968 1.968 0 0 0 .236.264.49.49 0 0 0 .264.14h-.032a6.043 6.043 0 0 0 1.146-.968 7.871 7.871 0 0 0 .926-1.188 9.45 9.45 0 0 0 .712-1.323A10.425 10.425 0 0 0 17.976.34v-.05h.053l.926-.024h.058l.021.055c.167.44.347.876.53 1.323.182.447.367.868.563 1.297s.402.85.63 1.257a6.3 6.3 0 0 0 .365.59 2.558 2.558 0 0 0 .214.264c.072.074.167.138.207.133l-.064.015a6.39 6.39 0 0 0 1.14-.939 7.72 7.72 0 0 0 .935-1.159 7.448 7.448 0 0 0 .682-1.323 8.366 8.366 0 0 0 .416-1.431L24.67.24h1.138l.024.082c.14.49.304.976.481 1.455s.368.955.59 1.416a7.81 7.81 0 0 0 .773 1.323 2.71 2.71 0 0 0 .529.545 1.034 1.034 0 0 0 .704.233v.026a1.082 1.082 0 0 1-.741-.209 2.783 2.783 0 0 1-.569-.53 7.408 7.408 0 0 1-.836-1.322 15.775 15.775 0 0 1-.638-1.413c-.19-.481-.362-.966-.529-1.463l.114.085h-.947l.124-.104a7.443 7.443 0 0 1-.402 1.5 7.673 7.673 0 0 1-.704 1.376 7.673 7.673 0 0 1-.966 1.204 6.546 6.546 0 0 1-1.209.974l-.029.016h-.037a.44.44 0 0 1-.235-.082 1.098 1.098 0 0 1-.157-.13 2.646 2.646 0 0 1-.235-.29 6.226 6.226 0 0 1-.376-.62c-.227-.418-.431-.85-.619-1.283a37.32 37.32 0 0 1-1.04-2.646l.077.053h-.92l.065-.05a10.525 10.525 0 0 1-.529 1.429 9.75 9.75 0 0 1-.73 1.322 9.337 9.337 0 0 1-.931 1.207 6.76 6.76 0 0 1-1.149 1.01h-.031a.603.603 0 0 1-.363-.16 1.923 1.923 0 0 1-.264-.265 5.2 5.2 0 0 1-.424-.598 12.974 12.974 0 0 1-.696-1.276c-.214-.434-.41-.875-.6-1.323S12.01.844 11.853.39l.11.074h-.985l.111-.092a2.879 2.879 0 0 1-.265.751 6.813 6.813 0 0 1-.389.678 13.697 13.697 0 0 1-.926 1.248c-.325.397-.658.794-1.01 1.165-.352.37-.704.746-1.074 1.1z"/><path class="cls-2" d="M7.392 5.776a51.434 51.434 0 0 0 1.96-2.62c.31-.444.604-.907.874-1.375a8.06 8.06 0 0 0 .386-.723 2.947 2.947 0 0 0 .249-.746l.016-.092h1.307l.026.082c.159.492.315.97.474 1.452.158.482.349.966.529 1.442.18.477.38.95.608 1.408a6.006 6.006 0 0 0 .376.661 2.061 2.061 0 0 0 .23.291.476.476 0 0 0 .283.167l-.037.013a8.49 8.49 0 0 0 1.112-1.153 10.872 10.872 0 0 0 .92-1.323 11.729 11.729 0 0 0 .741-1.426 12.263 12.263 0 0 0 .53-1.522V.265h.052l.926-.016h.058l.022.055c.166.482.344.96.529 1.437s.365.95.56 1.418c.196.469.4.937.625 1.387a7.197 7.197 0 0 0 .368.656 2.432 2.432 0 0 0 .214.291.794.794 0 0 0 .12.114.177.177 0 0 0 .095.045l-.082.031a9.596 9.596 0 0 0 1.103-1.185 11.335 11.335 0 0 0 .926-1.323A9.525 9.525 0 0 0 24.648.14l.019-.103h1.14l.021.088a26.98 26.98 0 0 0 1.045 3.198 9.9 9.9 0 0 0 .757 1.495 3.358 3.358 0 0 0 .53.646 1 1 0 0 0 .743.304v.027a.828.828 0 0 1-.424-.061 1.373 1.373 0 0 1-.365-.225 3.313 3.313 0 0 1-.566-.635 8.959 8.959 0 0 1-.818-1.49 20.369 20.369 0 0 1-.624-1.587A26.131 26.131 0 0 1 25.603.19l.114.087h-.947l.124-.093a9.332 9.332 0 0 1-1.164 3.117 10.636 10.636 0 0 1-.947 1.373 9.79 9.79 0 0 1-1.16 1.21l-.036.031h-.048a.42.42 0 0 1-.264-.098 1.058 1.058 0 0 1-.156-.15 2.66 2.66 0 0 1-.233-.328 7.498 7.498 0 0 1-.376-.683 20.106 20.106 0 0 1-.614-1.41q-.566-1.43-1.029-2.89l.077.056L18.023.4l.066-.05a12.171 12.171 0 0 1-.56 1.521 12.128 12.128 0 0 1-.744 1.44 13.552 13.552 0 0 1-.924 1.322 9.79 9.79 0 0 1-1.095 1.188l-.016.013h-.024a.577.577 0 0 1-.376-.193 2.3 2.3 0 0 1-.264-.304 5.969 5.969 0 0 1-.405-.667 17.796 17.796 0 0 1-.656-1.405c-.201-.473-.379-.96-.553-1.444a30.752 30.752 0 0 1-.495-1.466l.114.082h-1.13l.111-.093a3.204 3.204 0 0 1-.264.794c-.12.265-.265.495-.395.73-.28.477-.595.924-.918 1.368a28.23 28.23 0 0 1-1.003 1.3c-.346.423-.698.84-1.058 1.246z"/><path class="cls-2" d="m7.369 9.789-.823.024-.82.018c-.548 0-1.095.024-1.643.03H4.01v-.072l-.023-1.9c0-.635-.019-1.267-.022-1.902V2.05h3.536v.116c0 .635 0 1.27-.017 1.903L7.46 5.97v.95l-.021.952c-.045.646-.045 1.281-.07 1.916zm0 0c-.021-.632-.034-1.267-.048-1.9l-.018-.952-.013-.95-.027-1.902c0-.633 0-1.268-.016-1.903l.122.122H4.083l.13-.132v3.804c0 .635 0 1.268-.022 1.903l-.037 1.91-.071-.071c.548 0 1.095.02 1.643.031l.82.019z"/><path class="cls-2" d="M5.993 4.146c-.201.032-.405.048-.606.066l-.304.021-.304.016H4.68v-.11c0-.186-.014-.371-.022-.554-.007-.182 0-.37 0-.556V2.91h1.453v.096l-.016.264c0 .093-.013.185-.021.278-.037.228-.053.42-.082.598zm0 0c-.026-.185-.042-.37-.06-.553 0-.093-.014-.185-.022-.278-.008-.092 0-.185-.016-.264l.098.098c-.1 0-.201.013-.304.013h-.91l.13-.13v.556s0 .368-.022.553l-.103-.103.304.015.304.022c.196.023.413.042.601.071zM5.387 5c.196-.021.394-.04.59-.053.196-.013.394-.026.59-.037h.087v.095l.019.434v1.44H5.95l-.59-.014h-.085v-.108c0-.146.013-.291.018-.434.006-.143.014-.291.022-.437.007-.145.02-.288.031-.434.01-.145.021-.306.04-.452zm0 0c.016.146.03.288.042.434.014.145.021.288.03.434.007.145.018.29.023.436.006.146 0 .289.016.434l-.111-.11.59-.014h.59l-.13.13v-.87l.014-.435.016-.434.09.09c-.196 0-.395-.02-.59-.037A10.74 10.74 0 0 1 5.386 5zM5.387 8.086c-.05.013-.103.024-.153.032l-.151.026c-.05 0-.1 0-.154.021l-.15.019H4.69v-.106a7.48 7.48 0 0 1-.032-.688v-.13h.13c.204 0 .405 0 .609.027h.11v.095c0 .117-.023.23-.039.344s-.053.244-.082.36zm0 0a3.294 3.294 0 0 1-.069-.344c-.013-.114-.029-.228-.037-.344l.106.106a6.688 6.688 0 0 1-.609.026l.13-.132c0 .23 0 .458-.032.688l-.098-.1.151.018c.053 0 .103 0 .154.021l.15.027c.043.008.104.02.154.034z"/><path class="cls-3" d="M15.573 31.485V29.54c0-1.513-1.228-1.794-2.492-1.794a3.548 3.548 0 0 0-1.704.37 1.654 1.654 0 0 0-.831 1.435h1.638c.082-.455.389-.67.875-.67.36 0 .845.154.845.553 0 .331-.165.434-.464.498-1.14.23-2.88.127-3.093 1.553a2.146 2.146 0 0 0-.018.302c0 1.1.794 1.616 1.823 1.616a2.416 2.416 0 0 0 1.762-.659 2.021 2.021 0 0 0 .103.503h1.762a3.1 3.1 0 0 1-.206-1.37zm-1.73 0c-.104.58-.413.836-1.032.836-.392 0-.73-.175-.73-.606a.56.56 0 0 1 .04-.23c.097-.265.37-.376.682-.452.38-.104.833-.133 1.08-.291a3.365 3.365 0 0 1-.04.743"/><path class="cls-4" d="M10.091 31.861v-.265H7.289v-5.712H5.371v7.355h5.35v-.02a1.587 1.587 0 0 1-.63-1.358"/></g><path class="cls-3" d="M27.471 31.882v1.357h5.088V31.9h-2.865l.426-.423 2.246-2.254v-1.328h-4.68v1.341h2.455l-2.262 2.241z"/><g stroke-width=".265" transform="translate(-80.624 -54.098)"><path class="cls-3" d="M107.73 85.583v-1.945c0-1.513-1.228-1.794-2.495-1.794a3.773 3.773 0 0 0-1.492.265v.156a3.305 3.305 0 0 1-.265 1.379h.86c.085-.456.392-.67.876-.67.36 0 .844.154.844.553 0 .33-.164.434-.466.498-1.135.23-2.876.127-3.087 1.553a2.146 2.146 0 0 0-.019.301c0 1.101.794 1.617 1.823 1.617a2.405 2.405 0 0 0 1.76-.659 2.027 2.027 0 0 0 .105.503h1.76a3.138 3.138 0 0 1-.204-1.37zm-1.725 0c-.103.58-.415.836-1.032.836-.392 0-.733-.175-.733-.606a.609.609 0 0 1 .04-.23.881.881 0 0 1 .68-.45c.383-.103.836-.132 1.085-.29a3.365 3.365 0 0 1-.04.74"/><path class="cls-3" d="M100.82 84.887c1.617 0 2.646-.712 2.646-2.535 0-1.74-1.286-2.38-2.646-2.38h-3.493v7.373h1.916v-2.45zm-1.587-3.368h1.296c.59 0 1.034.264 1.034.968s-.433.916-1.034.916h-1.286z"/><path class="cls-2" d="M101.28 66.97a.733.733 0 0 1-.68-.63v-2.024a2.712 2.712 0 0 0-1.894-2.193 10.298 10.298 0 0 0-3.247.082 2.49 2.49 0 0 0-1.799 2.154v.992h-.352v-.998a2.863 2.863 0 0 1 2.056-2.487 10.451 10.451 0 0 1 3.397-.095h.019a3.125 3.125 0 0 1 2.164 2.495v2.013c.018.074.103.35.368.331a.265.265 0 0 0 .248-.23v-1.252a2.585 2.585 0 0 1 1.757-2.034h.016a6.551 6.551 0 0 1 2.59-.072c.127.019 1.588.28 2.038 2.04v1.736h-.35v-1.68c-.404-1.548-1.688-1.76-1.743-1.76a6.35 6.35 0 0 0-2.432.067 2.238 2.238 0 0 0-1.497 1.735v1.265a.606.606 0 0 1-.588.545zM91.435 68.65a.53.53 0 1 1-.53-.53.53.53 0 0 1 .53.53z"/><circle class="cls-2" transform="rotate(-89.27)" cx="-67.443" cy="94.879" r=".532"/><path class="cls-2" d="M95.531 64.97a.53.53 0 1 1-.53-.53.53.53 0 0 1 .53.53zM99.589 64.97a.53.53 0 1 1-.53-.53.53.53 0 0 1 .53.53zM99.235 70.282a.5.5 0 1 1-.5-.5.497.497 0 0 1 .5.5zM101.98 70.282a.5.5 0 1 1-.497-.5.497.497 0 0 1 .497.5zM103.46 65.74a.5.5 0 1 1-.497-.5.5.5 0 0 1 .497.5zM106.89 65.74a.5.5 0 1 1-.5-.5.5.5 0 0 1 .5.5zM107.84 70.838a.447.447 0 1 1-.447-.447.447.447 0 0 1 .447.447zM110.41 70.838a.45.45 0 1 1-.45-.447.45.45 0 0 1 .45.447zM93.938 70.685h-3.146a.6.6 0 0 1 0-1.199h3.146a.6.6 0 0 1 0 1.199zm-3.146-.847a.249.249 0 1 0 0 .495h3.146a.249.249 0 0 0 0-.495zM106.2 67.875h-3.146a.598.598 0 0 1 0-1.196h3.146a.598.598 0 0 1 0 1.196zm-3.146-.844a.249.249 0 1 0 0 .495h3.146a.249.249 0 0 0 0-.495zM98.999 67.454h-3.424a.177.177 0 0 1 0-.352H99a.312.312 0 0 0 0-.622h-3.993a.175.175 0 1 1 0-.349H99a.661.661 0 0 1 0 1.323zM103.85 69.875h1.386v.352h-1.386zM101.19 71.582h-2.135a.177.177 0 0 1 0-.352h2.135a.177.177 0 1 1 0 .352zM109.67 72.256h-2.27a.175.175 0 0 1 0-.35h2.27a.175.175 0 1 1 0 .35zM105.6 75.508h1.646v.352H105.6zM110.22 75.508h1.646v.352h-1.646zM100.98 75.508h2.752v.352h-2.752zM88.816 75.508h1.656v.352h-1.656zM93.533 75.847h2.164v.352h-2.164zM88.339 74.185c-1.17 0-2.117-.701-2.117-1.561s.953-1.564 2.117-1.564 2.117.701 2.117 1.564c0 .863-.948 1.561-2.117 1.561zm0-2.773c-.976 0-1.77.53-1.77 1.212s.794 1.21 1.77 1.21 1.77-.53 1.77-1.21-.794-1.212-1.77-1.212zM95.401 73.677c-.746 0-1.352-.468-1.352-1.058s.606-1.059 1.352-1.059 1.352.471 1.352 1.059-.606 1.058-1.352 1.058zm0-1.741c-.55 0-1 .312-1 .696s.45.696 1 .696 1-.313 1-.696-.447-.696-1-.696zM103.85 73.571c-.743 0-1.352-.468-1.352-1.045s.609-1.058 1.352-1.058 1.352.47 1.352 1.058-.606 1.045-1.352 1.045zm0-1.741c-.55 0-1 .312-1 .696s.45.696 1 .696 1-.313 1-.696-.447-.701-1-.701zM111.68 73.571c-.746 0-1.352-.468-1.352-1.045s.606-1.058 1.352-1.058c.746 0 1.35.47 1.35 1.058s-.606 1.045-1.35 1.045zm0-1.741c-.553 0-1 .312-1 .696s.447.696 1 .696c.553 0 1-.313 1-.696s-.45-.701-1-.701zM108.65 67.875a.99.99 0 1 1 .997-.99.992.992 0 0 1-.997.99zm0-1.627a.64.64 0 1 0 .646.637.643.643 0 0 0-.646-.637z"/></g><path class="cls-2" d="M14.827 17.555h-.352v-3.12c-.737-2.262-4.829-2.507-5.127-.36l-.135 3.35h-.355v-2.818c.44-2.791 5.246-2.637 5.943-.223v.017z"/><g stroke-width=".265"><path class="cls-2" d="M14.475 19.574h.352v.339h-.352zM22.186 20.013h-.35V15.61a2.056 2.056 0 0 0-1.396-1.296 3.63 3.63 0 0 0-1.937.074 2.13 2.13 0 0 0-1.206 1.413v4.233h-.352v-4.302a2.447 2.447 0 0 1 1.42-1.683 3.916 3.916 0 0 1 2.138-.092 2.4 2.4 0 0 1 1.667 1.545v.029zM25.916 20.013h-.347v-3.656a2.117 2.117 0 0 1 1.257-1.588h.016a4.675 4.675 0 0 1 2.344-.056h.024a2.402 2.402 0 0 1 1.386 1.691v1.223h-.351v-1.165a2.048 2.048 0 0 0-1.154-1.423 4.41 4.41 0 0 0-2.117.042 1.786 1.786 0 0 0-1.058 1.307zM30.216 19.299h.352v.614h-.352zM16.039 8.527h1.336s.304.019.32.288a.312.312 0 0 1-.288.32zM8.858 20.452h.352v.474h-.352zM14.475 20.521h.352v.405h-.352zM16.941 20.521h.352v.405h-.352zM16.941 21.484h.352v.405h-.352zM21.836 20.521h.352v.339h-.352zM25.566 20.521h.352v.339h-.352zM30.216 20.521h.352v.339h-.352z"/><path class="cls-6" d="m26.256 14.793.03-.24a.164.164 0 0 1 .097-.138s.471-.395 2.543.333c0 0 1.442.5 2.116 1.114 0 0 .143.111.098.249a.495.495 0 0 1-.09.18s-.14.296-.402.145c0 0-1.55-.794-1.971-.907a8.636 8.636 0 0 0-2.143-.453s-.336-.04-.278-.283z"/><path class="cls-6" d="M27.346 14.348s.214-.794.683-1.013a1.5 1.5 0 0 1 1.235-.016s.955.214 1.262.902c0 0 .23.418-.106 1.217a12.076 12.076 0 0 0-1.468-.67 10.403 10.403 0 0 0-1.606-.42zM9.596 16.745a.381.381 0 1 1-.378-.341.362.362 0 0 1 .378.341zM14.997 16.983a.381.381 0 1 1-.378-.344.362.362 0 0 1 .378.344z"/><path class="cls-6" d="M12.001 9.363c-.163 0-.274.01-.274.01a2.572 2.572 0 0 0-1.122.321 3.561 3.561 0 0 0-1.36 1.376c-1.522 3.482-.265 5.07-.265 5.07a3.114 3.114 0 0 1 .265.528 1.114 1.114 0 0 1 .18.083 2.63 2.63 0 0 0-.112-.448c-.063-.098.122-.286.122-.286a1.12 1.12 0 0 0 0-.56c-.158-1.416-.087-1.382-.087-1.382.03-.725.934-.933.934-.933 1.431-.469 3.156.06 3.156.06.789.292.86 1.265.86 1.265a4.408 4.408 0 0 1-.114 1.16c.03.261.067.287.067.287.227.358.04.397.04.397-.157.16 0 .41 0 .41.134.132.092.212.092.212l.116-.08a.603.603 0 0 1 0-.463l.201-.383a8.316 8.316 0 0 0 .059-3.987c-.649-2.035-1.789-2.472-1.789-2.472-.281-.157-.697-.185-.969-.185zm-.193 1.64a.082.082 0 0 1 .082.085.082.082 0 1 1-.082-.084zm1.323.085a.082.082 0 0 1 .082.083.085.085 0 1 1-.082-.083zm-2.646.083a.082.082 0 0 1 .083.081.082.082 0 0 1-.083.082.082.082 0 0 1 0-.163zm1.974.026a.032.032 0 0 1 .034 0c.212.146.423.292.631.44l.687-.258a.016.016 0 0 1 .019 0l.529.53-.558-.492-.683.277a.024.024 0 0 1-.024 0l-.626-.428-.633.41a.032.032 0 0 1-.037 0l-.627-.387c-.193.155-.384.312-.577.463a.024.024 0 0 1-.027 0l-.699-.282-.57.555c.182-.199.367-.394.55-.59a.016.016 0 0 1 .018 0l.707.26c.191-.162.388-.32.582-.48a.032.032 0 0 1 .037 0l.632.386zm-.067.713a.026.026 0 0 1 .017.006c.225.152.449.304.671.458l.723-.283a.024.024 0 0 1 .02 0l.57.561-.589-.524-.72.307a.026.026 0 0 1-.024 0l-.663-.44-.668.44a.032.032 0 0 1-.037 0l-.667-.402-.606.497a.03.03 0 0 1-.029 0l-.736-.292c-.2.201-.395.39-.594.586.187-.209.383-.415.574-.625a.019.019 0 0 1 .018 0l.74.277.607-.522a.037.037 0 0 1 .037 0l.674.398.665-.436a.026.026 0 0 1 .017-.006zm-.665.015a.082.082 0 0 1 .081.082.082.082 0 1 1-.081-.082zm1.404 0a.082.082 0 0 1 .082.082.085.085 0 1 1-.082-.082zm-2.814 0a.085.085 0 0 1 .092.1.085.085 0 0 1-.167 0 .085.085 0 0 1 .075-.1z"/></g></g></svg>