<svg width="143.524" height="213.286" viewBox="0 0 37.974 56.432" xmlns="http://www.w3.org/2000/svg"><g fill="#4d4d4d" stroke-width=".336" aria-label="Open"><path d="M8.464 33.415q-1.56 0-2.483.734-.79.623-1.113 1.826-.251.945-.251 2.386 0 1.287.203 2.224.21.938.657 1.553.462.63 1.19.944.734.308 1.783.308 1.588 0 2.497-.727.79-.637 1.113-1.833.251-.937.251-2.385 0-1.295-.21-2.232-.202-.937-.65-1.553-.462-.63-1.203-.937-.735-.308-1.784-.308zM5.26 38.361q0-1.798.469-2.827.406-.88 1.175-1.245.336-.154.714-.21.384-.063.846-.063 1.035 0 1.665.315.755.378 1.126 1.301.413 1.022.413 2.812 0 1.812-.462 2.827-.406.88-1.182 1.238-.336.154-.72.217-.378.063-.84.063-.504 0-.916-.07t-.749-.245q-.748-.385-1.119-1.301-.42-1.036-.42-2.812zM14.981 42.825q.469.273 1 .42t1.05.147q.993 0 1.706-.574.609-.49.93-1.378.288-.79.288-1.714 0-.748-.161-1.413-.161-.664-.483-1.161-.343-.525-.86-.811-.511-.294-1.197-.294-.79 0-1.504.44-.44.273-.77.679v-1.014l-.636.14v9.506l.637.07zm0-4.687q0-.014.09-.175.092-.154.204-.293.336-.42.77-.679.587-.343 1.251-.343.4 0 .763.203.37.203.65.595.294.405.455.986.161.574.161 1.294t-.196 1.357q-.238.763-.7 1.19-.552.517-1.364.517-.433 0-.81-.098-.756-.189-1.274-.518zM26.754 39.275q.063-.364.063-.679 0-1.378-.881-2.028-.714-.518-1.966-.518-1.47 0-2.232.833-.79.867-.79 2.644 0 1.056.168 1.79.168.728.524 1.183.357.455.938.671.587.217 1.434.217.727 0 1.525-.245.65-.188 1.05-.426l-.19-.532q-.475.21-1.021.378-.735.224-1.371.224-.58 0-1.021-.147-.441-.147-.742-.483-.658-.734-.658-2.441l5.107-.196zm-5.142-.16q.12-1.302.672-1.89.553-.58 1.609-.58.636 0 1.028.105.616.168.938.622.307.441.307 1.204 0 .237-.014.37zM34.08 39.085q0-.707-.098-1.238-.09-.539-.336-.924-.273-.426-.755-.65-.476-.224-1.224-.224-.553 0-.987.175-.447.175-.797.406-.35.223-.644.531v-1l-.636.133v6.925h.636v-5.33q.245-.329.637-.616.378-.273.776-.427.497-.195 1.043-.195.51 0 .846.154.343.153.546.468.189.301.272.749.084.44.084 1.056v1.742q0 .713.063 1.14.098.65.392 1 .364.434 1.028.434.336 0 .56-.09.448-.176.686-.519l-.245-.433q-.196.21-.42.329-.217.111-.546.111-.258 0-.426-.097-.161-.105-.26-.336-.104-.224-.146-.602-.042-.378-.049-.98z"/></g><path d="M1.04 11.718v10.405H0V11.718z" fill="#ffb600"/><path d="M1.04 23.207v10.405H0V23.207z" fill="#00169c"/><path d="M1.04 46.029v10.406H0V46.029z" fill="#86d800"/><path d="M1.04.002v10.406H0V.002z" fill="#f60"/><path d="M1.04 34.649v10.406H0V34.649z" fill="#a7169c"/><g fill="#4d4d4d" stroke-width=".336" aria-label="labEc"><path d="M4.649 45.865q0 2.357.007 3.526v3.777q0 .567.042.944.09.728.37 1.092.357.475 1.071.475.476 0 .818-.147.322-.14.707-.49l-.245-.433q-.259.217-.58.364-.322.14-.658.14-.273 0-.44-.105-.169-.112-.267-.357-.097-.245-.14-.658-.041-.412-.041-1.049v-7.226zM13.122 48.495v.462q-.469-.273-1-.42t-1.05-.147q-1 0-1.7.567-.615.496-.937 1.385-.287.79-.287 1.714 0 .748.161 1.413.161.664.483 1.154.343.531.853.825.518.287 1.204.287.832 0 1.455-.49.237-.182.426-.398.19-.224.448-.574.091.658.392 1.021.35.441 1.035.441.455 0 .805-.16.35-.162.72-.519l-.245-.433q-.259.217-.587.364-.322.146-.658.146-.273 0-.44-.104-.162-.105-.26-.357-.097-.245-.14-.65-.041-.407-.041-1.064v-4.323zm0 4.939q-.37.706-.951 1.175-.65.524-1.371.524-.511 0-.896-.237-.378-.245-.636-.679-.245-.413-.371-.965-.12-.553-.12-1.196 0-.721.197-1.358.23-.762.7-1.196.559-.51 1.363-.51.63 0 1.099.146.524.161.986.47zM17.781 55.555v-.392q.252.161.56.287.713.28 1.49.28.993 0 1.706-.574.609-.49.93-1.378.288-.79.288-1.714v-.23q0-.077-.014-.231-.021-.294-.063-.567-.19-1.189-.819-1.882-.7-.769-1.805-.769-.79 0-1.504.44-.44.274-.77.68v-3.736l-.636.105v9.681zm0-5.079q.105-.293.35-.566.252-.273.58-.483.322-.21.679-.322.364-.118.706-.118.4 0 .763.202.37.203.65.595.294.406.455.986.161.574.161 1.294 0 .714-.217 1.371-.245.763-.713 1.19-.553.503-1.33.503-.496 0-.888-.105-.399-.105-.692-.23-.287-.133-.504-.315zM24.867 46.505v9.052h5.953v-.574h-5.317V50.99h4.351l.084-.567h-4.435v-3.917h5.149l.084-.574H24.81zM37.939 50.985q0-.944-.51-1.58-.413-.519-1.148-.798-.573-.217-1.21-.217-1.4 0-2.14.741-.84.84-.84 2.63v.574q0 1.47.539 2.294.447.679 1.203.93.524.176 1.231.176.65 0 1.19-.182.538-.189.923-.539.384-.357.587-.86.21-.504.21-1.12l-.601.008q-.063.482-.203.853-.14.37-.392.637-.58.601-1.707.601-.692 0-1.154-.21-.455-.21-.72-.615-.252-.385-.364-.938-.105-.56-.105-1.315 0-.692.084-1.224.09-.532.321-.923.26-.441.72-.679.47-.238 1.211-.238 1.063 0 1.63.525.51.483.658 1.469z"/></g><g fill="#4d4d4d"><path d="M21.421 1.696c-.059-.003-.094 0-.1.006-.018.017.076.366.209.775.218.675.233.757.156.875-.047.071-.7.712-1.453 1.423-2.746 2.598-2.812 2.653-3.049 2.578-.155-.049-.198-.144-1.174-2.574-.776-1.933-.855-2.101-.966-2.066-.262.081-1.918.8-1.945.845-.016.025.197.443.473.927.276.485.517.975.536 1.09.029.178.012.222-.118.308a.82.82 0 0 1-.366.106c-.192.005-.258-.041-.694-.492a29.94 29.94 0 0 1-.76-.812l-.278-.315-.767.572-.766.574.338.36 1.287 1.36c.522.55 1.114 1.185 1.316 1.41.388.432.635.84.554.917-.087.083-5.412 2.509-5.69 2.592-.13.038-.213.02-.382-.086-.272-.17-1.333-.742-1.378-.742-.052 0-.387.909-.518 1.407-.13.497-.323 1.896-.384 2.8l-.039.59 1.022-.017c.563-.01 2.609-.053 4.547-.098 3.574-.083 3.622-.086 3.626-.288 0-.028-.139-.04-.309-.025-.276.023-5.019-.121-7.328-.224-.771-.034-.92-.057-1.047-.157-.105-.083-.145-.163-.132-.271.03-.252.22-.302 1.166-.303.469 0 .95-.019 1.068-.038l.216-.035.14-.56c.175-.71.218-.744.783-.61.467.111.438.041.356.845l-.046.456h.88l.11-.456.112-.456.412.004c.227.004.475.038.552.08.134.073.14.097.11.533l-.032.456.627.037 1.355.075.73.04-.03-.142c-.016-.078-.207-.71-.425-1.407-.217-.695-.41-1.386-.427-1.534-.029-.243-.016-.283.13-.398.212-.167.469-.163.64.008.087.087.259.503.477 1.157.34 1.018.34 1.021.43.85.248-.479 1.214-1.502 1.895-2.01.758-.564 1.686-.89 2.698-.95l.61-.036-.546-.615c-.622-.703-1.056-1.274-1.056-1.39 0-.043.142-.123.32-.179.4-.126.345-.16 1.447.872.46.43.853.79.873.797.029.01.823-1.703.986-2.128.02-.05-.187-.159-.621-.326-.358-.137-.65-.273-.65-.301 0-.13.386-1.056.44-1.055.033 0 .346.092.696.202l.638.201.177-.393c.286-.63.294-.658.193-.658-.153 0-1.285-.294-1.338-.347-.028-.028.07-.289.22-.587.303-.604.267-.588.92-.44.238.053.44.074.452.044.459-1.183.65-1.582.755-1.576.22.015.755.182.775.243.011.033-.658 1.828-1.487 3.987-1.286 3.348-1.563 4.125-1.418 3.968.042-.045.974-1.93 2.187-4.417 1.14-2.339 1.733-3.62 1.733-3.744 0-.147-1.13-.556-2.138-.774-.55-.12-2.102-.322-2.516-.338zM26.876 3.312c-.019.018-1.256 2.65-2.737 5.822-1.085 2.322-1.168 2.515-1.108 2.56.057.04.073.033.127-.055.034-.055.734-1.347 1.556-2.87 1.978-3.667 2.4-4.427 2.536-4.573.098-.105.139-.123.283-.123.142 0 .18.015.233.096.102.157.019.411-.449 1.375-.234.483-.42.892-.413.908.006.017.136.135.287.262.476.402.624.557.624.661 0 .064-.09.205-.277.431l-.276.337-.228-.14-.504-.313-.275-.172-.158.335c-.243.518-.245.496.085.753l.34.263c.048.038.05.067.014.188-.058.195-.43.697-.535.723-.095.024-.221-.026-.597-.239l-.264-.15-.143.249c-.133.228-.662 1.179-1.028 1.848a2.203 2.203 0 0 0-.153.313c0 .018.68.13 1.513.25.832.118 1.567.236 1.632.262a.471.471 0 0 1 .192.168c.163.266.126.487-.105.643-.173.116-.455.11-1.493-.028-.46-.06-.856-.106-.88-.1-.026.006.036.143.153.339.353.59.68 1.526.824 2.362.088.514.096 1.367.016 1.748a8.545 8.545 0 0 1-.498 1.442 3.116 3.116 0 0 0-.132.288c.004.004.436-.117.96-.268.525-.15 1.064-.283 1.197-.294.22-.02.25-.015.326.06.074.074.08.107.06.3-.012.12-.04.249-.059.286-.042.078-.256.17-1.5.65-.492.189-.926.361-.965.382-.065.035-.05.061.178.338.399.484 1.248 1.475 1.302 1.52.04.033.152-.053.538-.415.268-.25.51-.456.537-.456.051 0 .494.47.614.653.115.174.086.238-.31.675-.532.586-.495.52-.374.68.17.221.569.67.597.67.014 0 .198-.206.409-.457.251-.3.42-.472.494-.498.107-.038.119-.032.308.173.108.118.27.316.36.441l.163.228-.302.396-.333.438c-.02.026.072.158.255.366.723.821.816.94.816 1.038 0 .115-.32.452-.495.518-.108.042-.116.036-.436-.3-.402-.425-5.2-5.638-5.252-5.708-.037-.05-.163-.03-.163.028 0 .046 4.479 5.925 5.037 6.612.16.196.333.39.387.429a.39.39 0 0 0 .133.073c.083.004.553-.394.901-.761.426-.448.966-1.15 1.509-1.962.366-.547.732-1.135.716-1.15a20.69 20.69 0 0 0-.723-.105c-.394-.053-.76-.114-.815-.135-.118-.046-.156-.138-.447-1.082-.66-2.143-1.307-4.416-1.307-4.59 0-.303.109-.338.918-.297.777.039 4.064.248 4.173.266.045.007.195.007.199.005.01-.01.05-2.313.043-2.324a15.69 15.69 0 0 0-.943.05c-1.115.076-1.385.067-1.501-.05-.1-.098-.103-.334-.008-.534.085-.18.263-.258 1.335-.589a29.889 29.889 0 0 0 1.022-.331 6.96 6.96 0 0 0-.197-.949l-.246-.897-.187.054c-.103.029-.921.29-1.82.581-3.252 1.052-3.127 1.038-3.148.385-.007-.212.034-1.64.09-3.174l.102-2.788.8-.564c.44-.31.8-.575.8-.59 0-.048-.541-.638-.76-.83-.394-.343-.94-.754-1.459-1.096-.694-.457-1.652-1.003-1.692-.964zM14.828 16.794l-.248.024c-.5.05-6.914.797-7.753.903-.879.111-1.142.153-1.396.221l-.141.038v.233c0 .788.496 2.242 1.46 4.277.288.606.228.602.671.052.595-.737.717-.86.866-.86.18 0 2.41.554 4.898 1.215 1.076.286 1.166.33 1.166.583 0 .156-.072.266-1.85 2.807-.622.888-1.138 1.631-1.146 1.652-.011.03 1.448 1.096 1.9 1.388l.097.063.503-.995c.548-1.082.688-1.283.896-1.283.09 0 .16.04.288.16.163.154.171.172.185.397.016.242-.082.672-.41 1.801-.119.412-.121.434-.056.468.197.106 1.838.732 1.868.714.02-.012.036-.047.036-.076s.117-.545.26-1.145c.787-3.316 1.039-4.156 1.26-4.21.112-.03.215.026.865.46.511.341 4.016 2.636 4.516 2.956l.243.156.025.434c.055.974.102 1.647.12 1.674.048.08 1.192-.213 1.859-.476 1.145-.451 3.006-1.442 2.934-1.562-.217-.363-5.154-7.855-5.27-7.997-.056-.07-.155-.085-.19-.03-.024.04.103.264 2.337 4.148 2.322 4.036 2.183 3.772 2.115 4.017-.051.186-.18.26-.358.207a.634.634 0 0 1-.228-.131c-.048-.049-.343-.494-.656-.99s-.583-.902-.602-.902c-.019 0-.258.085-.532.19-.314.118-.56.19-.664.192-.154.004-.17-.006-.229-.128a3.226 3.226 0 0 1-.145-.446c-.082-.315-.082-.316-.01-.396.04-.044.283-.187.54-.316l.468-.234-.202-.314-.261-.403c-.032-.05-.08-.09-.107-.09-.026 0-.199.058-.384.129-.377.144-.512.158-.596.064-.1-.11-.394-.704-.394-.793 0-.114.084-.184.513-.427l.362-.204-.177-.337c-.327-.619-1.23-2.21-1.254-2.21-.014 0-.505.576-1.093 1.28s-1.113 1.31-1.168 1.346c-.133.088-.4.086-.536-.004-.203-.133-.26-.427-.131-.68.04-.08.37-.516.733-.97.363-.454.66-.833.66-.844 0-.01-.145-.018-.321-.018-.984 0-2.215-.299-3.256-.787-.738-.346-1.586-1.163-2.047-1.973l-.16-.28-.196.704c-.235.845-.48 1.591-.575 1.756-.057.098-.097.124-.21.133-.123.01-.157-.008-.319-.17-.244-.244-.253-.074.1-1.945.112-.591.198-1.082.191-1.088-.026-.026-1.786.261-2.378.388-.11.024-.184.06-.184.088 0 .027.05.31.111.63s.102.618.092.663a.226.226 0 0 1-.102.125c-.143.076-.59.177-.788.178-.16 0-.2-.013-.246-.083-.03-.046-.124-.347-.209-.67a6.646 6.646 0 0 0-.18-.616c-.014-.016-.284.013-.6.065l-.585.094c-.005 0 .086.283.203.63.117.345.213.675.213.731 0 .133-.057.161-.461.232-.426.074-.67.074-.753 0-.036-.032-.15-.271-.255-.532-.105-.26-.201-.474-.216-.474-.014 0-.354.067-.755.147-.763.154-1.011.177-1.073.101-.054-.066-.192-.531-.192-.646 0-.085.028-.108.211-.178.2-.077 1.199-.297 4.356-.96 1.47-.31 4.083-.848 4.11-.848.01 0 .017-.044.017-.097z"/><path d="M20.697 26.549a8.849 8.849 0 0 0-2.568.326c-2.526.707-4.653 2.487-5.762 4.83-.194.41-.535 1.343-.635 1.746a9.165 9.165 0 0 0 .197 5.096c.154.469.509 1.26.76 1.688.889 1.513 2.06 2.621 3.664 3.474l.002.002.278.147.013-.037c.453.199 1.193.487 1.514.57a9.6 9.6 0 0 0 1.86.265 8.7 8.7 0 0 0 2.273-.199 9.12 9.12 0 0 0 7.09-9.787 9.053 9.053 0 0 0-1.98-4.851 8.882 8.882 0 0 0-6.706-3.27zm-.01.545a8.332 8.332 0 0 1 6.291 3.07 8.5 8.5 0 0 1 1.861 4.557 8.542 8.542 0 0 1-.994 4.92c-1.169 2.169-3.275 3.76-5.668 4.283a8.108 8.108 0 0 1-2.136.187 9.263 9.263 0 0 1-1.744-.248c-.228-.058-1.551-.563-1.686-.634-1.53-.814-2.606-1.836-3.45-3.272a11.147 11.147 0 0 1-.712-1.58 8.601 8.601 0 0 1-.186-4.795c.073-.295.44-1.31.598-1.642 1.04-2.196 3.041-3.876 5.414-4.54a8.318 8.318 0 0 1 2.412-.306z" color="#000" style="font-feature-settings:normal;font-variant-alternates:normal;font-variant-caps:normal;font-variant-east-asian:normal;font-variant-ligatures:normal;font-variant-numeric:normal;font-variant-position:normal;font-variation-settings:normal;inline-size:0;isolation:auto;mix-blend-mode:normal;shape-margin:0;shape-padding:0;text-decoration-color:#000;text-decoration-line:none;text-decoration-style:solid;text-indent:0;text-orientation:mixed;text-transform:none;white-space:normal" transform="translate(-14.336 -43.843) scale(1.6933)"/><path d="M23.82 16.145a3.584 3.584 0 0 1-3.585 3.584 3.584 3.584 0 0 1-3.583-3.584 3.584 3.584 0 0 1 3.583-3.583 3.584 3.584 0 0 1 3.584 3.583"/></g></svg>