<svg width="143.524" height="213.286" viewBox="0 0 37.974 56.432" xmlns="http://www.w3.org/2000/svg"><g fill="#fff" stroke-width=".336" aria-label="Open"><path d="M8.464 33.416q-1.56 0-2.483.735-.79.622-1.113 1.825-.251.945-.251 2.386 0 1.287.202 2.224.21.938.658 1.553.462.63 1.19.944.734.308 1.783.308 1.588 0 2.497-.727.79-.637 1.112-1.833.252-.937.252-2.385 0-1.295-.21-2.232-.202-.937-.65-1.553-.462-.63-1.203-.937-.735-.308-1.784-.308zM5.26 38.362q0-1.798.469-2.827.406-.88 1.175-1.245.336-.154.713-.21.385-.063.847-.063 1.035 0 1.665.315.755.378 1.126 1.301.413 1.022.413 2.812 0 1.812-.462 2.827-.406.88-1.182 1.238-.336.154-.72.217-.378.063-.84.063-.504 0-.916-.07t-.749-.245q-.748-.385-1.12-1.301-.419-1.036-.419-2.812zM14.98 42.826q.47.273 1.001.42t1.05.147q.993 0 1.706-.574.609-.49.93-1.378.287-.79.287-1.714 0-.748-.16-1.413-.161-.664-.483-1.161-.343-.525-.86-.811-.511-.294-1.197-.294-.79 0-1.504.44-.44.273-.77.679v-1.014l-.636.14v9.506l.637.07zm0-4.687q0-.014.092-.175.09-.154.203-.293.335-.42.77-.679.587-.343 1.251-.343.399 0 .763.203.37.203.65.595.294.405.455.986.16.574.16 1.294t-.195 1.357q-.238.763-.7 1.19-.552.517-1.364.517-.433 0-.811-.098-.756-.189-1.273-.518zM26.754 39.276q.063-.364.063-.679 0-1.378-.882-2.028-.713-.518-1.965-.518-1.47 0-2.232.833-.79.867-.79 2.644 0 1.056.168 1.79.168.728.524 1.183.357.455.938.671.587.217 1.434.217.727 0 1.525-.245.65-.188 1.049-.426l-.189-.532q-.476.21-1.021.378-.735.224-1.371.224-.58 0-1.022-.147-.44-.147-.741-.483-.658-.734-.658-2.441l5.107-.196zm-5.142-.16q.12-1.302.672-1.89.553-.58 1.609-.58.636 0 1.028.105.616.168.938.622.307.441.307 1.204 0 .237-.014.37zM34.08 39.086q0-.707-.098-1.238-.091-.539-.336-.924-.273-.426-.755-.65-.476-.224-1.224-.224-.553 0-.987.175-.447.175-.797.406-.35.223-.644.531v-1l-.636.133v6.925h.636v-5.33q.245-.329.637-.616.377-.273.776-.427.497-.195 1.043-.195.51 0 .846.154.343.153.546.468.188.301.272.749.084.44.084 1.056v1.742q0 .713.063 1.14.098.65.392 1 .364.434 1.028.434.336 0 .56-.09.448-.176.685-.519l-.244-.433q-.196.21-.42.329-.217.111-.546.111-.259 0-.426-.097-.161-.105-.26-.336-.104-.224-.146-.602-.042-.378-.05-.98z"/></g><path d="M1.038 11.722v10.405h-1.04V11.722z" fill="#ffb600"/><path d="M1.038 23.21v10.406h-1.04V23.211z" fill="#00169c"/><path d="M1.038 46.033v10.406h-1.04V46.033z" fill="#86d800"/><path d="M1.038.006v10.406h-1.04V.006z" fill="#f60"/><path d="M1.038 34.653v10.406h-1.04V34.653z" fill="#a7169c"/><g fill="#fff" stroke-width=".336" aria-label="labEc"><path d="M4.649 45.866q0 2.357.007 3.526v3.777q0 .567.042.944.09.728.37 1.092.357.475 1.07.475.477 0 .82-.147.321-.14.706-.49l-.245-.433q-.259.217-.58.364-.322.14-.658.14-.273 0-.44-.105-.169-.112-.267-.357t-.14-.658q-.041-.412-.041-1.049V45.72zM13.122 48.496v.462q-.469-.273-1-.42t-1.05-.147q-1 0-1.7.567-.615.496-.937 1.385-.287.79-.287 1.714 0 .748.161 1.413.161.664.483 1.154.343.531.853.825.518.287 1.204.287.832 0 1.455-.49.237-.182.426-.398.19-.224.448-.574.09.658.392 1.021.35.441 1.035.441.455 0 .804-.16.35-.162.72-.519l-.244-.433q-.259.217-.588.364-.321.146-.657.146-.273 0-.44-.104-.162-.105-.26-.357-.098-.245-.14-.65-.041-.407-.041-1.064v-4.323zm0 4.939q-.37.706-.951 1.175-.651.524-1.372.524-.51 0-.895-.237-.378-.245-.636-.679-.245-.413-.371-.965-.12-.553-.12-1.196 0-.721.197-1.358.23-.762.7-1.196.559-.51 1.363-.51.63 0 1.099.146.524.161.986.47zM17.78 55.556v-.392q.253.161.56.287.714.28 1.49.28.994 0 1.707-.574.609-.49.93-1.378.287-.79.287-1.714v-.23q0-.077-.014-.231-.02-.294-.062-.567-.19-1.189-.819-1.882-.7-.769-1.805-.769-.79 0-1.504.44-.44.274-.77.68V45.77l-.636.105v9.681zm0-5.079q.106-.293.35-.566.252-.273.581-.483.322-.21.679-.322.364-.118.706-.118.4 0 .763.202.37.203.65.595.294.406.455.986.16.574.16 1.294 0 .714-.216 1.371-.245.763-.713 1.19-.553.503-1.33.503-.496 0-.888-.105-.399-.105-.692-.23-.287-.133-.504-.315zM24.867 46.506v9.052h5.953v-.574h-5.317V50.99h4.351l.084-.567h-4.435v-3.917h5.149l.084-.574H24.81zM37.939 50.986q0-.944-.51-1.58-.413-.519-1.148-.798-.574-.217-1.21-.217-1.4 0-2.14.741-.84.84-.84 2.63v.574q0 1.47.539 2.294.447.679 1.203.93.524.176 1.231.176.65 0 1.19-.182.538-.189.923-.539.384-.357.587-.86.21-.504.21-1.12l-.602.008q-.063.482-.202.853-.14.37-.392.637-.58.601-1.707.601-.693 0-1.154-.21-.455-.21-.72-.615-.253-.385-.364-.938-.105-.56-.105-1.315 0-.692.084-1.224.09-.532.321-.923.26-.441.72-.679.47-.238 1.211-.238 1.063 0 1.63.525.51.483.657 1.469z"/></g><g fill="#fff"><path d="M21.42 1.698c-.059-.004-.094 0-.1.005-.018.017.076.366.209.776.218.675.233.756.156.874-.047.071-.7.712-1.453 1.424-2.746 2.597-2.812 2.653-3.049 2.577-.155-.049-.198-.144-1.174-2.573-.776-1.934-.855-2.102-.966-2.067-.262.082-1.918.8-1.945.845-.016.025.197.443.473.927.276.485.517.975.536 1.09.029.179.012.223-.118.308a.82.82 0 0 1-.366.106c-.192.006-.258-.041-.694-.491a29.94 29.94 0 0 1-.76-.813l-.278-.315-.767.573-.766.573.338.36c.186.199.766.81 1.287 1.36.522.55 1.114 1.185 1.316 1.41.388.432.635.84.554.917-.087.084-5.412 2.509-5.69 2.592-.13.039-.213.02-.382-.086-.272-.17-1.333-.742-1.378-.742-.052 0-.387.91-.518 1.407-.13.497-.323 1.896-.384 2.8l-.039.59 1.022-.017c.563-.009 2.609-.053 4.547-.098 3.574-.083 3.622-.086 3.626-.288 0-.028-.139-.039-.309-.025-.276.023-5.019-.121-7.328-.224-.771-.034-.92-.056-1.047-.157-.105-.083-.145-.163-.132-.271.03-.252.22-.302 1.166-.303.469 0 .95-.018 1.068-.038l.216-.035.14-.56c.175-.71.218-.743.783-.61.467.112.438.042.356.846l-.046.456h.88l.11-.456.112-.457.412.004c.227.004.475.038.552.08.134.073.14.097.11.533l-.032.456.627.037 1.355.075.73.04-.03-.142c-.016-.077-.207-.71-.425-1.406-.217-.696-.41-1.387-.427-1.535-.029-.243-.016-.283.13-.398.212-.167.469-.163.64.008.087.087.259.503.477 1.157.34 1.019.34 1.022.43.85.248-.478 1.214-1.502 1.895-2.01.758-.564 1.686-.89 2.698-.95l.61-.036-.546-.615c-.622-.703-1.056-1.274-1.056-1.39 0-.043.142-.123.32-.179.4-.125.345-.159 1.447.872.46.43.853.79.873.797.029.011.823-1.703.986-2.128.02-.05-.187-.158-.621-.326-.358-.137-.65-.273-.65-.301 0-.13.386-1.055.44-1.055.033 0 .346.092.696.202l.638.202.177-.393c.286-.632.294-.659.193-.659-.153 0-1.285-.293-1.338-.347-.028-.028.07-.288.22-.587.303-.604.267-.587.92-.44.238.053.44.074.452.044.459-1.182.65-1.582.755-1.575.22.014.755.181.775.242.011.033-.658 1.828-1.487 3.987-1.286 3.348-1.563 4.125-1.418 3.968.042-.045.974-1.93 2.187-4.416 1.14-2.34 1.733-3.621 1.733-3.745 0-.147-1.13-.556-2.138-.774-.55-.12-2.102-.322-2.516-.337zM26.875 3.313c-.019.018-1.256 2.651-2.737 5.822-1.085 2.323-1.168 2.515-1.108 2.56.057.04.073.033.127-.055.034-.055.734-1.347 1.556-2.87 1.978-3.666 2.4-4.427 2.536-4.573.098-.105.139-.123.283-.123.142 0 .18.016.233.096.102.157.019.412-.449 1.375-.234.483-.42.892-.413.908.006.017.136.135.287.262.476.402.624.557.624.661 0 .064-.09.205-.277.431l-.276.338-.228-.142-.504-.312-.275-.172-.158.335c-.243.518-.245.497.085.753l.34.263c.048.038.05.067.014.189-.058.194-.43.696-.535.722-.095.024-.221-.026-.597-.239l-.264-.149-.143.248c-.133.228-.662 1.179-1.028 1.848a2.203 2.203 0 0 0-.153.313c0 .018.68.13 1.513.25.832.118 1.567.236 1.632.262a.471.471 0 0 1 .192.168c.163.266.126.487-.105.643-.173.116-.455.11-1.493-.027-.46-.062-.856-.107-.88-.101-.026.006.036.143.153.339.353.59.68 1.527.824 2.362.088.514.096 1.367.016 1.748a8.545 8.545 0 0 1-.498 1.442 3.116 3.116 0 0 0-.132.288c.004.004.436-.117.96-.267.525-.15 1.064-.283 1.197-.295.22-.02.25-.015.326.06.074.074.08.108.06.3-.012.12-.04.249-.059.286-.042.078-.256.17-1.5.65-.492.19-.926.361-.965.382-.065.035-.05.062.178.339.399.483 1.248 1.474 1.302 1.52.04.032.152-.054.538-.415.268-.251.51-.456.537-.456.051 0 .494.47.614.652.115.175.086.238-.31.675-.532.586-.495.52-.374.68.17.221.569.67.597.67.014 0 .198-.205.409-.457.251-.3.42-.472.494-.498.107-.038.119-.031.308.174.108.117.27.315.36.44l.163.229-.302.395-.333.438c-.02.026.072.158.255.366.723.821.816.94.816 1.038 0 .116-.32.452-.495.519-.108.041-.116.036-.436-.301-.402-.424-5.2-5.637-5.252-5.708-.037-.05-.163-.029-.163.028 0 .046 4.479 5.925 5.037 6.612.16.197.333.39.387.43a.39.39 0 0 0 .133.072c.083.004.553-.394.901-.76.426-.449.966-1.152 1.509-1.963.366-.547.732-1.134.716-1.15a20.69 20.69 0 0 0-.723-.104c-.394-.054-.76-.115-.815-.136-.118-.046-.156-.137-.447-1.081-.66-2.144-1.307-4.417-1.307-4.59 0-.303.109-.338.918-.298.777.04 4.064.248 4.173.266.045.008.195.008.199.005.01-.01.05-2.312.043-2.324a15.69 15.69 0 0 0-.943.05c-1.115.076-1.385.067-1.501-.049-.1-.099-.103-.335-.008-.535.085-.18.263-.258 1.335-.588a29.889 29.889 0 0 0 1.022-.332 6.96 6.96 0 0 0-.197-.949l-.246-.897-.187.054c-.103.03-.921.29-1.82.581-3.252 1.053-3.127 1.038-3.148.385-.007-.211.034-1.64.09-3.174l.102-2.788.8-.563c.44-.31.8-.576.8-.59 0-.049-.541-.64-.76-.83-.394-.344-.94-.755-1.459-1.097-.694-.457-1.652-1.003-1.692-.963zM14.827 16.795l-.248.025c-.5.05-6.914.796-7.753.903-.879.11-1.142.152-1.396.22l-.141.038v.234c0 .787.496 2.241 1.46 4.276.288.607.228.602.671.052.595-.737.717-.86.866-.86.18 0 2.41.554 4.898 1.215 1.076.286 1.166.33 1.166.584 0 .155-.072.265-1.85 2.806-.622.888-1.138 1.631-1.146 1.652-.011.03 1.448 1.097 1.9 1.389l.097.062.503-.995c.548-1.082.688-1.283.896-1.283.09 0 .16.04.288.16.163.154.171.172.185.397.016.243-.082.673-.41 1.801-.119.412-.121.434-.056.468.197.106 1.838.732 1.868.714.02-.012.036-.046.036-.076s.117-.545.26-1.145c.787-3.316 1.039-4.155 1.26-4.21.112-.029.215.026.865.46.511.342 4.016 2.636 4.516 2.957l.243.155.025.434c.055.974.102 1.647.12 1.674.048.08 1.192-.213 1.859-.476 1.145-.451 3.006-1.442 2.934-1.562-.217-.363-5.154-7.854-5.27-7.997-.056-.07-.155-.085-.19-.03-.024.04.103.264 2.337 4.148 2.322 4.036 2.183 3.772 2.115 4.017-.051.187-.18.26-.358.207a.634.634 0 0 1-.228-.13c-.048-.05-.343-.495-.656-.991s-.583-.902-.602-.902c-.019 0-.258.085-.532.19-.314.118-.56.19-.664.192-.154.004-.17-.005-.229-.128a3.226 3.226 0 0 1-.145-.446c-.082-.314-.082-.316-.01-.396.04-.044.283-.186.54-.315l.468-.235-.202-.314-.261-.403c-.032-.05-.08-.09-.107-.09-.026 0-.199.058-.384.129-.377.144-.512.158-.596.064-.1-.11-.394-.704-.394-.793 0-.114.084-.184.513-.426l.362-.205-.177-.337c-.327-.618-1.23-2.21-1.254-2.21-.014 0-.505.577-1.093 1.28s-1.113 1.31-1.168 1.347c-.133.087-.4.085-.536-.005-.203-.133-.26-.427-.131-.68.04-.08.37-.516.733-.97.363-.454.66-.833.66-.843 0-.01-.145-.019-.321-.019-.984 0-2.215-.299-3.256-.787-.738-.346-1.586-1.163-2.047-1.972l-.16-.28-.196.703c-.235.845-.48 1.591-.575 1.757-.057.097-.097.123-.21.132-.123.01-.157-.008-.319-.17-.244-.244-.253-.074.1-1.944.112-.592.198-1.082.191-1.089-.026-.026-1.786.261-2.378.388-.11.024-.184.06-.184.088 0 .027.05.31.111.63s.102.618.092.663a.226.226 0 0 1-.102.125c-.143.076-.59.177-.788.178-.16 0-.2-.013-.246-.082-.03-.046-.124-.348-.209-.67a6.646 6.646 0 0 0-.18-.616c-.014-.017-.284.012-.6.064-.316.052-.58.094-.585.094-.005 0 .086.283.203.63.117.345.213.675.213.732 0 .132-.057.16-.461.231-.426.074-.67.074-.753 0-.036-.032-.15-.271-.255-.532-.105-.26-.201-.473-.216-.473-.014 0-.354.066-.755.146-.763.154-1.011.178-1.073.101-.054-.065-.192-.531-.192-.646 0-.084.028-.108.211-.178.2-.077 1.199-.297 4.356-.96 1.47-.31 4.083-.848 4.11-.848.01 0 .017-.044.017-.097z"/><path d="M20.697 26.549a8.849 8.849 0 0 0-2.568.326c-2.526.707-4.653 2.487-5.762 4.83-.194.41-.535 1.343-.635 1.746a9.165 9.165 0 0 0 .197 5.096c.154.469.509 1.26.76 1.688.889 1.513 2.06 2.621 3.664 3.474l.002.002.278.147.013-.037c.453.199 1.193.487 1.514.57a9.6 9.6 0 0 0 1.86.265 8.7 8.7 0 0 0 2.273-.199 9.12 9.12 0 0 0 7.09-9.787 9.053 9.053 0 0 0-1.98-4.851 8.882 8.882 0 0 0-6.706-3.27zm-.01.545a8.332 8.332 0 0 1 6.291 3.07 8.5 8.5 0 0 1 1.861 4.557 8.542 8.542 0 0 1-.994 4.92c-1.169 2.169-3.275 3.76-5.668 4.283a8.108 8.108 0 0 1-2.136.187 9.263 9.263 0 0 1-1.744-.248c-.228-.058-1.551-.563-1.686-.634-1.53-.814-2.606-1.836-3.45-3.272a11.147 11.147 0 0 1-.712-1.58 8.601 8.601 0 0 1-.186-4.795c.073-.295.44-1.31.598-1.642 1.04-2.196 3.041-3.876 5.414-4.54a8.318 8.318 0 0 1 2.412-.306z" color="#000" style="font-feature-settings:normal;font-variant-alternates:normal;font-variant-caps:normal;font-variant-east-asian:normal;font-variant-ligatures:normal;font-variant-numeric:normal;font-variant-position:normal;font-variation-settings:normal;inline-size:0;isolation:auto;mix-blend-mode:normal;shape-margin:0;shape-padding:0;text-decoration-color:#000;text-decoration-line:none;text-decoration-style:solid;text-indent:0;text-orientation:mixed;text-transform:none;white-space:normal" transform="translate(-14.337 -43.842) scale(1.6933)"/><path d="M23.818 16.147a3.584 3.584 0 0 1-3.584 3.583 3.584 3.584 0 0 1-3.583-3.583 3.584 3.584 0 0 1 3.583-3.584 3.584 3.584 0 0 1 3.584 3.584"/></g></svg>