<svg xmlns="http://www.w3.org/2000/svg" viewBox="0 0 136.08 38.2"><defs><style>.cls-1,.cls-2{opacity:0.25;}.cls-2,.cls-3{fill:#007df2;stroke:#007df2;stroke-miterlimit:10;stroke-width:2px;}</style></defs><g id="Capa_2" data-name="Capa 2"><g id="Body"><g class="cls-1"><rect class="cls-2" x="1.6" y="1.6" width="132.88" height="35"/><polygon class="cls-3" points="2.2 10.86 1 10.86 1 1 10.86 1 10.86 2.2 2.2 2.2 2.2 10.86"/><polygon class="cls-3" points="10.86 37.2 1 37.2 1 27.34 2.2 27.34 2.2 36 10.86 36 10.86 37.2"/><polygon class="cls-3" points="135.08 37.2 125.22 37.2 125.22 36 133.88 36 133.88 27.34 135.08 27.34 135.08 37.2"/><polygon class="cls-3" points="135.08 10.86 133.88 10.86 133.88 2.2 125.22 2.2 125.22 1 135.08 1 135.08 10.86"/></g></g></g></svg>