<svg width="210mm" height="297mm" viewBox="0 0 210 297" xmlns="http://www.w3.org/2000/svg"><text x="-86.983" y="186.555" font-family="Sans" font-size="25.4" font-weight="bold" stroke-width=".265" style="font-variant-ligatures:none;line-height:0" xml:space="preserve"/><path d="M-109.8 480.86v202.6h46.875v-48.178l12.762-15.494 41.016 63.672H45.41l-56.381-83.203 52.605-63.021h-54.037l-50.521 64.584V480.86z"/><path transform="matrix(1.0844 0 0 1.2372 -9.024 -28.304)" d="M-29.58 119.34c-4.156-.134-6.994 11.981-7.36 7.889v54.135a7.36 7.36 0 0 0 7.36 7.36h13.461a7.36 7.36 0 0 0 6.3-4.808l.925 1.434a7.36 7.36 0 0 0 6.185 3.373h15.721a7.36 7.36 0 0 0 6.092-11.488L6.96 159.313l10.834-12.979a7.36 7.36 0 0 0-5.648-12.076H-3.54a7.36 7.36 0 0 0-5.221 2.545v-10.104a7.36 7.36 0 0 0-7.36-7.36zm71.451 0c-4.156-.134-6.994 11.981-7.36 7.889v54.135a7.36 7.36 0 0 0 7.36 7.36h13.461a7.36 7.36 0 0 0 6.3-4.808l.925 1.434a7.36 7.36 0 0 0 6.185 3.373h15.723a7.36 7.36 0 0 0 6.516-3.982c3.776 2.379 7.848 3.705 11.744 4.363a7.36 7.36 0 0 0 .002 0c3.974.67 7.885.762 11.63.553a7.36 7.36 0 0 0 .009 0 44.661 44.661 0 0 0 9.642-1.604c2.248-.626 4.374-1.391 6.393-2.207a7.36 7.36 0 0 0 3.453-3.066 15.677 15.677 0 0 0 3.447 3.062c3.439 2.266 7.05 3.07 10.146 3.418a7.36 7.36 0 0 0 .018.002c2.809.31 5.412.243 7.773.116a7.36 7.36 0 0 0 .07-.004 44.873 44.873 0 0 0 6.342-.862l.01-.002c.795-.164 1.452-.337 1.979-.468a7.36 7.36 0 0 0 3.078-2c1.079.727 2.14 1.487 3.342 2.002h.002s0 .002.002.002c3.385 1.45 6.822 1.824 9.967 1.683 2.895-.106 5.878-.628 8.79-1.746.18-.067.295-.16.467-.23a7.36 7.36 0 0 0 2.342.97h13.357a7.36 7.36 0 0 0 5.123-2.203 7.36 7.36 0 0 0 5.223 2.203h13.46a7.36 7.36 0 0 0 6.466-5.199 7.36 7.36 0 0 0 6.463 5.2h13.529a7.36 7.36 0 0 0 7.359-7.362v-.14c1.858 2.012 3.922 3.816 6.332 5.122 4.442 2.42 9.164 3.337 13.55 3.537a7.36 7.36 0 0 0 .017 0c4.256.185 8.872-.152 13.473-1.75 3.734-1.293 7.237-3.423 10.105-6.416.23-.238.368-.533.587-.779v.428a7.36 7.36 0 0 0 7.36 7.36h13.46a7.36 7.36 0 0 0 6.374-4.981c1.811 1.767 3.815 3.306 6.137 4.3h.002s0 .003.002.003c3.386 1.45 6.824 1.824 9.968 1.683 2.896-.106 5.879-.628 8.791-1.746.18-.067.295-.16.467-.23a7.36 7.36 0 0 0 2.342.97h13.357a7.36 7.36 0 0 0 5.123-2.203 7.36 7.36 0 0 0 5.223 2.203h12.82a7.36 7.36 0 0 0 1.605-.545 25.41 25.41 0 0 0 5.33 1.125c3.065.309 6.519.304 10.127-.685 3.84-1.034 7.238-3.027 10.01-5.637a27.185 27.185 0 0 0 6.918-10.38c1.645-4.378 2.084-8.813 1.965-12.933v-.006c-.111-4.16-.726-8.712-2.703-13.186a7.36 7.36 0 0 0-.012-.025c-1.572-3.523-4.016-7.014-7.734-9.56-3.357-2.316-7.111-3.373-10.707-3.628a7.36 7.36 0 0 0-.014-.002c-2.164-.15-4.46.036-6.785.469v-7.031a7.36 7.36 0 0 0-7.36-7.36h-13.46a7.36 7.36 0 0 0-7.36 7.36v14.889c-1.942-2.413-4.256-4.322-6.785-5.493-3.502-1.622-6.96-2.246-10.023-2.595a7.36 7.36 0 0 0-.025-.004c-2.497-.276-4.928-.356-7.276-.338a7.36 7.36 0 0 0-.012.002c-3.48.031-6.909.37-10.256.94-2.062.335-4.336.702-6.773 1.34a7.36 7.36 0 0 0-1.916 1.269v-10.01a7.36 7.36 0 0 0-7.36-7.36h-13.46a7.36 7.36 0 0 0-7.36 7.36v15.279c-2.143-2.399-4.698-4.428-7.648-5.864-5.119-2.514-10.461-3.132-15.277-3.056a7.36 7.36 0 0 0-.014 0c-4.321.075-8.993.791-13.486 2.933-3.974 1.883-7.362 4.825-9.894 8.49-.058-.124-.063-.246-.123-.37-1.974-4.106-5.313-7.274-9.426-9.073-3.463-1.527-6.935-1.906-10.035-1.842a7.36 7.36 0 0 0-.002 0c-3.117.066-6.303.785-9.35 2.149a7.36 7.36 0 0 0-2.625-1.088h-13.46a7.36 7.36 0 0 0-7.352 7.34c-1.944-2.418-4.26-4.33-6.793-5.502-3.502-1.623-6.96-2.247-10.023-2.596a7.36 7.36 0 0 0-.026-.004c-2.496-.275-4.928-.355-7.275-.338a7.36 7.36 0 0 0-.012.002c-3.48.032-6.91.37-10.256.94-2.062.335-4.336.702-6.773 1.34a7.36 7.36 0 0 0-.815.538 7.36 7.36 0 0 0-4.154-1.72h-4.25v-3.7a7.36 7.36 0 0 0-7.36-7.359h-13.46a7.36 7.36 0 0 0-7.36 7.36v4.636a7.36 7.36 0 0 0-3.535 2.652c-.736-.525-1.482-1.04-2.29-1.476-4.017-2.191-8.212-2.99-12.022-3.235a42.73 42.73 0 0 0-3.436-.078 7.36 7.36 0 0 0-.015 0c-4.38.075-9.076.801-13.598 2.899-.002 0-.004 0-.006.002-1.51.696-2.922 1.567-4.272 2.527a7.36 7.36 0 0 0-6.652-4.228H67.912a7.36 7.36 0 0 0-5.22 2.545v-10.104a7.36 7.36 0 0 0-7.36-7.36zm188.68 16.311c-.015.007-.026.018-.041.025-.014.007-.029.01-.043.016zm-21.184 7.533a.323.323 0 0 1 .023.045c-.009-.015-.014-.03-.023-.045zm169.95 0a.323.323 0 0 1 .023.045c-.009-.015-.014-.03-.023-.045zm-119.38 1.776-.01.02-.012.013zm24.451 12.19c.02.017.061.063.063.069-.087-.058.064.042-.063-.068zm.15.555c.005.02.144.638.207.928.193 1.225.233 2.692.166 4.36-.016.313-.042.674-.07.949a7.36 7.36 0 0 0-.002.015 9.508 9.508 0 0 1-.139.951c0 .004 0 .012-.002.016-.01.044-.03.118-.015.065a7.36 7.36 0 0 0-.022.084c-.083.33-.09.288-.164.423h-.002a7.145 7.145 0 0 1-.197-.771v-.006l-.002-.004a12.114 12.114 0 0 1-.115-.723 7.36 7.36 0 0 0-.01-.066 25.047 25.047 0 0 1-.067-.694l.004.03a24.626 24.626 0 0 1 .01-3.608c.025-.298.069-.683.1-.898a7.36 7.36 0 0 0 .002-.018c.075-.524.201-.712.318-1.033zm-205.16.461c-.07.738-.212 1.485-.236 2.211l-.72-1.064.956-1.147zm78.236.276h3.64c-.337.49-.696.952-.991 1.49a7.36 7.36 0 0 0-.02.035c-.803 1.485-1.199 2.972-1.552 4.443a7.36 7.36 0 0 0-1.065.291c-.008-2.06-.01-4.135-.011-6.26zm126.97 7.326c.083.08-.084-.352 0 0zm121.52 5.111c-.275 3.243-.07-.763 0 0zm-324.47 3.457.014.022.006.017zm178.84 4.496.014.016.01.017zm-170.84 5.073.008.004c.005.003.007.009.012.011z" fill="#1a1a1a" style="font-variant-ligatures:none"/></svg>