<?xml version="1.0" encoding="UTF-8"?>
<!-- Created with Inkscape (http://www.inkscape.org/) -->
<svg width="210mm" height="297mm" version="1.1" viewBox="0 0 210 297" xmlns="http://www.w3.org/2000/svg">
 <text x="-86.982658" y="186.5549" font-family="Sans" font-size="25.4px" font-weight="bold" stroke-width=".26458" style="font-variant-ligatures:none;line-height:0" xml:space="preserve"><tspan stroke-width=".26458"/></text>
 <path d="m-109.8 480.86v202.6h46.875v-48.178l12.762-15.494 41.016 63.672h54.557l-56.381-83.203 52.605-63.021h-54.037l-50.521 64.584v-120.96z"/>
 <path transform="matrix(1.0844 0 0 1.2372 -9.0244 -28.304)" d="m-29.58 119.34c-4.156-0.1339-6.9937 11.981-7.3594 7.8887v54.135a7.3594 7.3594 0 0 0 7.3594 7.3594h13.461a7.3594 7.3594 0 0 0 6.3008-4.8066c0.30796 0.47797 0.61583 0.95561 0.92383 1.4336a7.3594 7.3594 0 0 0 6.1855 3.373h15.721a7.3594 7.3594 0 0 0 6.0918-11.488c-4.0479-5.9734-8.0947-11.948-12.143-17.922 3.6114-4.327 7.2226-8.6528 10.834-12.979a7.3594 7.3594 0 0 0-5.6484-12.076h-15.686a7.3594 7.3594 0 0 0-5.2207 2.5449v-10.104a7.3594 7.3594 0 0 0-7.3594-7.3594zm71.451 0c-4.156-0.1339-6.9937 11.981-7.3594 7.8887v54.135a7.3594 7.3594 0 0 0 7.3594 7.3594h13.461a7.3594 7.3594 0 0 0 6.3008-4.8066c0.30796 0.47797 0.61583 0.95561 0.92383 1.4336a7.3594 7.3594 0 0 0 6.1855 3.373h15.723a7.3594 7.3594 0 0 0 6.5156-3.9824c3.7764 2.3792 7.8486 3.7057 11.744 4.3633a7.3594 7.3594 0 0 0 2e-3 0c3.9742 0.66911 7.8852 0.76235 11.631 0.55274a7.3594 7.3594 0 0 0 8e-3 0c3.2242-0.18429 6.4628-0.70149 9.6426-1.6035 2.2477-0.62619 4.3736-1.3915 6.3926-2.207a7.3594 7.3594 0 0 0 3.4531-3.0664c0.97488 1.1548 2.1142 2.1974 3.4473 3.0625 3.4386 2.2658 7.049 3.0688 10.146 3.418a7.3594 7.3594 0 0 0 0.0176 2e-3c2.8086 0.30978 5.4123 0.24219 7.7734 0.11523a7.3594 7.3594 0 0 0 0.0703-4e-3c2.1374-0.13556 4.258-0.42559 6.3418-0.86132l0.01-2e-3c0.79504-0.16447 1.4516-0.33699 1.9785-0.46875a7.3594 7.3594 0 0 0 3.0781-2c1.0785 0.72725 2.1407 1.4876 3.3418 2.002 6.1e-4 2.5e-4 1e-3 -2.6e-4 2e-3 0 8.2e-4 3.5e-4 1e-3 2e-3 2e-3 2e-3 3.3854 1.4498 6.8223 1.8246 9.9668 1.6836 2.8956-0.10592 5.8783-0.62854 8.791-1.7461 0.17867-0.067 0.29442-0.16013 0.4668-0.23047a7.3594 7.3594 0 0 0 2.3418 0.9707h13.357a7.3594 7.3594 0 0 0 5.123-2.2031 7.3594 7.3594 0 0 0 5.2226 2.2031h13.461a7.3594 7.3594 0 0 0 6.4648-5.1992 7.3594 7.3594 0 0 0 6.4629 5.1992h13.529a7.3594 7.3594 0 0 0 7.3594-7.3613c-2e-5 -0.0468 1e-5 -0.0938 0-0.14063 1.858 2.013 3.9225 3.8167 6.332 5.123 4.4419 2.4202 9.1636 3.3366 13.551 3.5371a7.3594 7.3594 0 0 0 0.0156 0c4.256 0.18506 8.8728-0.15219 13.473-1.75 3.7346-1.2936 7.2379-3.4232 10.105-6.416 0.23027-0.23796 0.36853-0.53375 0.58789-0.7793v0.42774a7.3594 7.3594 0 0 0 7.3594 7.3594h13.461a7.3594 7.3594 0 0 0 6.373-4.9805c1.8116 1.7674 3.8148 3.3064 6.1367 4.3008 6e-4 2.5e-4 1e-3 -2.6e-4 2e-3 0 8.3e-4 3.5e-4 1e-3 2e-3 2e-3 2e-3 3.3868 1.4504 6.8241 1.8246 9.9688 1.6836 2.8956-0.10592 5.8783-0.62855 8.791-1.7461 0.17874-0.067 0.29436-0.1601 0.4668-0.23047a7.3594 7.3594 0 0 0 2.3418 0.9707h13.357a7.3594 7.3594 0 0 0 5.123-2.2031 7.3594 7.3594 0 0 0 5.2227 2.2031h12.82a7.3594 7.3594 0 0 0 1.6055-0.54492c1.7084 0.55202 3.4883 0.94383 5.3301 1.125 3.0649 0.30845 6.5185 0.30343 10.127-0.68555 3.84-1.0335 7.2381-3.027 10.01-5.6367 3.0562-2.8635 5.4426-6.4021 6.918-10.381 1.6445-4.3773 2.0842-8.812 1.9648-12.932v-6e-3c-0.11151-4.1597-0.72566-8.7123-2.7031-13.186a7.3594 7.3594 0 0 0-0.0117-0.0254c-1.5723-3.5225-4.0158-7.014-7.7344-9.5606-3.3571-2.3147-7.1111-3.3722-10.707-3.627a7.3594 7.3594 0 0 0-0.0137-2e-3c-2.1643-0.14922-4.4607 0.0355-6.7852 0.46875v-7.0312a7.3594 7.3594 0 0 0-7.3594-7.3594h-13.461a7.3594 7.3594 0 0 0-7.3594 7.3594v14.889c-1.9426-2.4124-4.2559-4.3216-6.7852-5.4922-3.5016-1.6227-6.9602-2.2469-10.023-2.5957a7.3594 7.3594 0 0 0-0.0254-4e-3c-2.4966-0.2754-4.928-0.35537-7.2754-0.33789a7.3594 7.3594 0 0 0-0.0117 2e-3c-3.4796 0.0316-6.9094 0.37049-10.256 0.93946-2.062 0.3355-4.3365 0.70225-6.7734 1.3398a7.3594 7.3594 0 0 0-1.916 1.2695v-10.01a7.3594 7.3594 0 0 0-7.3594-7.3594h-13.461a7.3594 7.3594 0 0 0-7.3594 7.3594v15.279c-2.1428-2.3983-4.6979-4.4276-7.6484-5.8633-5.1186-2.514-10.461-3.1319-15.277-3.0566a7.3594 7.3594 0 0 0-0.0137 0c-4.3214 0.0752-8.9932 0.79144-13.486 2.9336-3.9739 1.8824-7.3619 4.8244-9.8945 8.4902-0.0577-0.12485-0.0624-0.24628-0.12305-0.37109-1.9732-4.1057-5.3121-7.2737-9.4258-9.0723-3.4623-1.5275-6.9351-1.9062-10.035-1.8418a7.3594 7.3594 0 0 0-2e-3 0c-3.1166 0.0657-6.3025 0.78453-9.3496 2.1484a7.3594 7.3594 0 0 0-2.625-1.0879h-13.461a7.3594 7.3594 0 0 0-7.3516 7.3398c-1.9439-2.4176-4.2602-4.3298-6.793-5.502-3.5016-1.6227-6.9602-2.2469-10.023-2.5957a7.3594 7.3594 0 0 0-0.0254-4e-3c-2.4966-0.2754-4.928-0.35537-7.2754-0.33789a7.3594 7.3594 0 0 0-0.0117 2e-3c-3.4796 0.0316-6.9093 0.37049-10.256 0.93946-2.062 0.3355-4.3365 0.70224-6.7734 1.3398a7.3594 7.3594 0 0 0-0.81446 0.53906 7.3594 7.3594 0 0 0-4.1543-1.7207h-4.25v-3.6992a7.3594 7.3594 0 0 0-7.3594-7.3594h-13.461a7.3594 7.3594 0 0 0-7.3594 7.3594v4.6367a7.3594 7.3594 0 0 0-3.5352 2.6523c-0.73574-0.52583-1.4818-1.0406-2.2891-1.4766-4.0177-2.1909-8.2126-2.9892-12.023-3.2344-1.1784-0.0767-2.3247-0.0951-3.4356-0.0781a7.3594 7.3594 0 0 0-0.0156 0c-4.3787 0.0751-9.0761 0.80103-13.598 2.8984-0.0019 9e-4 -0.0039 1e-3 -0.0059 2e-3 -1.5102 0.69619-2.9215 1.5673-4.2715 2.5274a7.3594 7.3594 0 0 0-6.6523-4.2285h-15.686a7.3594 7.3594 0 0 0-5.2207 2.5449v-10.104a7.3594 7.3594 0 0 0-7.3594-7.3594zm188.68 16.311c-0.0153 7e-3 -0.0258 0.0179-0.041 0.0254-0.014 7e-3 -0.029 9e-3 -0.043 0.0156zm-21.184 7.5332c0.0111 0.0189 0.0267 0.0488 0.0234 0.0449-9e-3 -0.0148-0.0142-0.0301-0.0234-0.0449zm169.95 0c0.0111 0.0189 0.0267 0.0488 0.0234 0.0449-9e-3 -0.0148-0.0142-0.0301-0.0234-0.0449zm-119.38 1.7754c-4e-3 6e-3 -6e-3 0.0132-0.01 0.0195-3e-3 5e-3 -8e-3 9e-3 -0.0117 0.0137zm24.451 12.191c0.0195 0.0169 0.0612 0.0625 0.0625 0.0684-0.0862-0.0583 0.0647 0.0417-0.0625-0.0684zm0.15039 0.55468c5e-3 0.0195 0.14323 0.63803 0.20703 0.92774 0.19258 1.2251 0.23305 2.6922 0.16602 4.3594-0.0165 0.3136-0.0422 0.67455-0.0703 0.94922a7.3594 7.3594 0 0 0-2e-3 0.0156c-0.0375 0.3743-0.0854 0.69168-0.13867 0.95117-8.7e-4 4e-3 -1e-3 0.0114-2e-3 0.0156-0.0104 0.0439-0.0297 0.11769-0.0156 0.0645a7.3594 7.3594 0 0 0-0.0215 0.084c-0.0829 0.32999-0.0913 0.28891-0.16407 0.42383-6.4e-4 -1e-5 -1e-3 1e-5 -2e-3 0-0.0556-0.17383-0.14028-0.47427-0.19726-0.77148v-6e-3c-3.1e-4 -2e-3 -2e-3 -2e-3 -2e-3 -4e-3 -0.0516-0.27495-0.0919-0.53216-0.11523-0.72266a7.3594 7.3594 0 0 0-0.01-0.0664c-8e-3 -0.063-0.048-0.45641-0.0664-0.69336l4e-3 0.0293c-0.0847-1.155-0.0818-2.4052 0.01-3.6074 0.0249-0.29789 0.0682-0.68323 0.0996-0.89843a7.3594 7.3594 0 0 0 2e-3 -0.0176c0.0753-0.52421 0.20143-0.71194 0.31836-1.0332zm-205.16 0.46094c-0.0709 0.73823-0.21222 1.4845-0.23633 2.2109-0.24038-0.35472-0.48033-0.70973-0.7207-1.0644 0.31902-0.38223 0.63802-0.76427 0.95703-1.1465zm78.236 0.27539h3.6387c-0.33609 0.49014-0.69541 0.95223-0.99023 1.4902a7.3594 7.3594 0 0 0-0.0195 0.0352c-0.80337 1.485-1.1992 2.9722-1.5527 4.4434a7.3594 7.3594 0 0 0-1.0644 0.29102c-8e-3 -2.0602-0.011-4.1354-0.0117-6.2598zm126.97 7.3262c0.0826 0.0805-0.0841-0.35164 0 0zm121.52 5.1113c-0.27581 3.243-0.0699-0.76318 0 0zm-324.47 3.457c0.0036 8e-3 0.01002 0.0137 0.01367 0.0215 0.0027 6e-3 0.0031 0.0118 0.0059 0.0176zm178.84 4.4961c4e-3 6e-3 0.01 0.01 0.0137 0.0156 4e-3 6e-3 6e-3 0.012 0.01 0.0176zm-170.84 5.0723c0.0024 2e-3 0.0054 2e-3 0.0078 4e-3 0.0045 3e-3 0.0072 9e-3 0.01172 0.0117z" fill="#1a1a1a" stroke-width=".26458" style="font-variant-ligatures:none"/>
</svg>
