<svg width="92.938" height="140.92" viewBox="0 0 92.937 140.92" xmlns="http://www.w3.org/2000/svg"><g fill="#0ff"><path d="M96.453 12.543c-20.173.001-36.934 15.836-38.439 36.316h-.11v30.816a46.464 46.464 0 0 1 8.448-9.725V49.153h.082C67.61 33.16 80.7 20.795 96.454 20.796c15.753 0 28.843 12.364 30.02 28.357h.084v20.088a46.464 46.464 0 0 1 8.445 9.192V48.858h-.107c-1.506-20.48-18.268-36.316-38.441-36.316z" style="paint-order:stroke fill markers" transform="translate(-50.402 -12.543)"/><path d="M96.678 60.523a46.469 46.469 0 0 0-46.275 46.467 46.469 46.469 0 0 0 46.469 46.469 46.469 46.469 0 0 0 46.469-46.469 46.469 46.469 0 0 0-46.469-46.467 46.469 46.469 0 0 0-.193 0zm.1 6.445a40.023 40.023 0 0 1 .093 0 40.023 40.023 0 0 1 40.023 40.021 40.023 40.023 0 0 1-40.023 40.023 40.023 40.023 0 0 1-40.023-40.023 40.023 40.023 0 0 1 39.93-40.02z" style="paint-order:stroke fill markers" transform="translate(-50.402 -12.543)"/><path d="M96.58 68.723a38.269 38.269 0 0 0-37.979 38.268 38.269 38.269 0 0 0 38.27 38.27 38.269 38.269 0 0 0 38.27-38.27 38.269 38.269 0 0 0-38.27-38.268 38.269 38.269 0 0 0-.291 0zm.453 23.098a6.864 6.864 0 0 1 6.863 6.863 6.864 6.864 0 0 1-3.898 6.19h.244v12.107a4.223 2.276 0 0 1 1.014 1.48 4.223 2.276 0 0 1-4.223 2.278 4.223 2.276 0 0 1-4.222-2.278 4.223 2.276 0 0 1 .974-1.453v-12.135h.283a6.864 6.864 0 0 1-3.898-6.19 6.864 6.864 0 0 1 6.863-6.863z" style="paint-order:stroke fill markers" transform="translate(-50.402 -12.543)"/></g></svg>