<svg width="92.938" height="140.92" version="1.1" viewBox="0 0 92.937 140.92" xmlns="http://www.w3.org/2000/svg">
 <g transform="translate(-50.402 -12.543)" fill="#0ff">
  <path d="m96.453 12.543c-20.173 0.0011-36.934 15.836-38.439 36.316h-0.10937v30.816c2.3506-3.618 5.1937-6.891 8.4473-9.7246v-20.797h0.082c1.1768-15.993 14.266-28.358 30.02-28.357 15.753-5.27e-4 28.843 12.364 30.02 28.357h0.084v20.088c3.2157 2.67 6.0564 5.7617 8.4453 9.1914v-26.645c3e-4 -0.08919 3e-4 -0.17839 0-0.26758v-2.6621h-0.10742c-1.5058-20.481-18.268-36.316-38.441-36.316z" style="paint-order:stroke fill markers"/>
  <path d="m96.678 60.523a46.469 46.469 0 0 0-46.275 46.467 46.469 46.469 0 0 0 46.469 46.469 46.469 46.469 0 0 0 46.469-46.469 46.469 46.469 0 0 0-46.469-46.467 46.469 46.469 0 0 0-0.19336 0zm0.0996 6.4453a40.023 40.023 0 0 1 0.0937 0 40.023 40.023 0 0 1 40.023 40.021 40.023 40.023 0 0 1-40.023 40.023 40.023 40.023 0 0 1-40.023-40.023 40.023 40.023 0 0 1 39.93-40.021z" style="paint-order:stroke fill markers"/>
  <path d="m96.58 68.723a38.269 38.269 0 0 0-37.979 38.268 38.269 38.269 0 0 0 38.27 38.27 38.269 38.269 0 0 0 38.27-38.27 38.269 38.269 0 0 0-38.27-38.268 38.269 38.269 0 0 0-0.29101 0zm0.45312 23.098a6.8637 6.8637 0 0 1 6.8633 6.8633 6.8637 6.8637 0 0 1-3.8984 6.1895h0.24414v12.107a4.2231 2.2762 0 0 1 1.0137 1.4805 4.2231 2.2762 0 0 1-4.2227 2.2773 4.2231 2.2762 0 0 1-4.2226-2.2773 4.2231 2.2762 0 0 1 0.97461-1.4531v-12.135h0.2832a6.8637 6.8637 0 0 1-3.8984-6.1895 6.8637 6.8637 0 0 1 6.8633-6.8633z" style="paint-order:stroke fill markers"/>
 </g>
</svg>
