<svg xmlns="http://www.w3.org/2000/svg" width="40" height="40"><path d="M19.998 0C8.953 0 0 8.957 0 20.002 0 31.047 8.953 40 19.998 40 31.045 40 40 31.047 40 20.002 40 8.957 31.045 0 19.998 0zm-6.447 10.092a2.242 2.242 0 0 1 0 4.484 2.244 2.244 0 0 1-2.246-2.242 2.244 2.244 0 0 1 2.246-2.242zm11.785 5.875c3.916 0 4.637 2.576 4.637 5.928v6.824h-3.864v-6.051c0-1.443-.028-3.299-2.011-3.299-2.012 0-2.319 1.572-2.319 3.194v6.156h-3.867V16.275h3.711v1.702h.05c.52-.98 1.78-2.01 3.663-2.01zm-13.723.308h3.873V28.72h-3.873V16.275z" style="fill:#0ff;fill-opacity:1"/></svg>