<svg width="111.93mm" height="11.589mm" version="1.1" viewBox="0 0 111.93 11.589" xmlns="http://www.w3.org/2000/svg">
 <g transform="translate(22.848 -72.557)">
  <g transform="matrix(.26458 0 0 .26458 -261.11 -76.264)" fill="#fff">
   <path class="st64" d="m937.82 605.19h-10.946v-15.822h-15.407v15.822h-10.946v-41.5h10.946v15.822h15.407v-15.822h10.946z" stroke-width=".81261"/>
   <path class="st65" d="m959.53 598.55-2.49 6.64h-12.51l15.51-41.49h15.9l15.39 41.49h-12.53l-2.49-6.64zm13.08-10.86-4.66-13.21-4.66 13.21z"/>
   <path class="st66" d="m1038.8 605.19h-10.34l-18.51-22.41v22.41h-12.7v-41.49h11.11l17.75 21.77v-21.77h12.7v41.49z"/>
   <path class="st67" d="m1059.8 598.55-2.49 6.64h-12.51l15.51-41.49h15.9l15.38 41.49h-12.51l-2.49-6.64zm13.08-10.86-4.66-13.21-4.66 13.21z"/>
   <path class="st68" d="m1139 605.19h-10.34l-18.51-22.41v22.41h-12.7v-41.49h11.11l17.75 21.77v-21.77h12.7v41.49z"/>
   <path class="st69" d="m1165.8 606.27c-6.96 0-12.83-1.98-17.62-4.98l4.66-11.17c3.19 2.23 7.66 4.21 12.96 4.21 2.68 0 4.21-0.64 4.21-1.53 0-0.83-1.66-1.92-3.38-2.62l-6.58-2.62c-6.77-2.68-10.79-6.77-10.79-12.96 0-5.75 5.11-12.13 16.6-12.13 6.13 0 12.38 1.28 16.66 3.45l-4.4 11.11c-3.06-1.66-6.96-3.13-12.45-3.13-2.55 0-3.83 0.38-3.83 1.15 0 1.02 1.66 1.72 3.32 2.43l8.23 3.51c5.55 2.36 9.77 6.19 9.77 12.13 0 8.43-7.34 13.15-17.36 13.15z"/>
   <path class="st70" d="m1189.4 584.37c0-12.26 9.7-21.9 22.54-21.9 12.89 0 22.66 9.64 22.66 21.9 0 12.32-9.77 21.9-22.66 21.9-12.83 0-22.54-9.57-22.54-21.9zm32.37 0c0-5.55-4.4-10.47-9.83-10.47s-9.7 4.85-9.7 10.53c0 5.62 4.28 10.41 9.7 10.41 5.29 0 9.83-4.78 9.83-10.47z"/>
   <path class="st71" d="m1256.3 581.37h14.24v10.85h-14.24v12.96h-12.7v-41.49h36.71v10.85h-24v6.83z"/>
   <path class="st72" d="m1309.8 574.54v30.64h-12.7v-30.64h-13.85v-10.85h40.35v10.85z"/>
  </g>
 </g>
</svg>
