<svg xmlns="http://www.w3.org/2000/svg" width="40" height="40"><path d="M20 0C8.955 0 0 8.952 0 19.998c0 11.045 8.955 20 20 20 11.046 0 20-8.955 20-20C40 8.951 31.046 0 20 0zm4.799 10.998c.496.024.99.13 1.449.318.466.19.879.448 1.266.778l.228.232.18.047c.92-.23 1.783-.554 2.617-1l.117-.01.004.114a4.06 4.06 0 0 1-.732 1.337c-.21.259-.73.901-1.084.961.746-.125 1.512-.316 2.205-.629h.09v.02a.551.551 0 0 1-.116.346c-.51.686-1.06 1.3-1.744 1.812-.1.075-.265.152-.265.293 0 3.603-.92 7.2-3.545 9.809-3.344 3.322-8.36 4.226-12.813 2.996a12.224 12.224 0 0 1-2.476-.99 10.801 10.801 0 0 1-.772-.46l-.058-.132c.054-.028.096-.03.295 0 1.246.122 2.529-.063 3.707-.475.648-.227 2.04-.681 2.441-1.293l.03-.029c-.164-.038-.326-.04-.487-.066-1.21-.347-2.825-.953-3.574-2.993-.047-.119-.002-.18.123-.156.996.077 1.354.022 1.7-.055a2.647 2.647 0 0 1-.575-.175c-1.524-.579-2.638-2.065-2.84-3.672a2.778 2.778 0 0 1-.03-.516l.169-.092c.783.407 1.661.502 1.734.489a8.24 8.24 0 0 1-.553-.489c-1.321-1.251-1.834-3.798-.777-5.384.086-.129.144-.129.248-.008 2.418 2.754 5.394 4.04 8.986 4.574l.092-.105c-.094-.632-.106-1.253.047-1.88a4.562 4.562 0 0 1 .887-1.777c.406-.5.916-.916 1.488-1.215.57-.298 1.2-.479 1.844-.521.164-.01.329-.012.494-.004z" style="fill:#0ff;fill-opacity:1"/></svg>