<?xml version="1.0" encoding="utf-8"?>
<!-- Generator: Adobe Illustrator 16.0.3, SVG Export Plug-In . SVG Version: 6.00 Build 0)  -->
<!DOCTYPE svg PUBLIC "-//W3C//DTD SVG 1.1//EN" "http://www.w3.org/Graphics/SVG/1.1/DTD/svg11.dtd" [
	<!ENTITY ns_flows "http://ns.adobe.com/Flows/1.0/">
	<!ENTITY ns_extend "http://ns.adobe.com/Extensibility/1.0/">
	<!ENTITY ns_ai "http://ns.adobe.com/AdobeIllustrator/10.0/">
	<!ENTITY ns_graphs "http://ns.adobe.com/Graphs/1.0/">
]>
<svg version="1.1" id="Capa_1" xmlns:x="&ns_extend;" xmlns:i="&ns_ai;" xmlns:graph="&ns_graphs;"
	 xmlns="http://www.w3.org/2000/svg" xmlns:xlink="http://www.w3.org/1999/xlink" xmlns:a="http://ns.adobe.com/AdobeSVGViewerExtensions/3.0/"
	 x="0px" y="0px" width="1920px" height="83.333px" viewBox="0 0 1920 83.333" enable-background="new 0 0 1920 83.333"
	 xml:space="preserve">
<g>
	<defs>
		<polyline id="SVGID_1_" points="1920,1139.333 1920,-160.667 0,-160.667 0,1139.333 		"/>
	</defs>
	<clipPath id="SVGID_2_">
		<use xlink:href="#SVGID_1_"  overflow="visible"/>
	</clipPath>
	<g clip-path="url(#SVGID_2_)">
		<defs>
			<polyline id="SVGID_3_" points="0,1139.333 0,-160.667 1920,-160.667 1920,1139.333 			"/>
		</defs>
		<clipPath id="SVGID_4_">
			<use xlink:href="#SVGID_3_"  overflow="visible"/>
		</clipPath>
	</g>
	<g clip-path="url(#SVGID_2_)">
		<defs>
			<polyline id="SVGID_5_" points="0,1139.333 0,-160.667 1920,-160.667 1920,1139.333 			"/>
		</defs>
		<clipPath id="SVGID_6_">
			<use xlink:href="#SVGID_5_"  overflow="visible"/>
		</clipPath>
	</g>
	<g clip-path="url(#SVGID_2_)">
		<defs>
			<polyline id="SVGID_7_" points="0,1139.333 0,-160.667 1920,-160.667 1920,1139.333 			"/>
		</defs>
		<clipPath id="SVGID_8_">
			<use xlink:href="#SVGID_7_"  overflow="visible"/>
		</clipPath>
		<g opacity="0.25" clip-path="url(#SVGID_8_)">
			<g>
				<g opacity="0.25">
					<g>
						<line fill="#007DF2" x1="1028.193" y1="729.468" x2="1028.193" y2="732.048"/>
					</g>
				</g>
			</g>
		</g>
	</g>
	<g clip-path="url(#SVGID_2_)">
		<defs>
			<polyline id="SVGID_9_" points="0,1139.333 0,-160.667 1920,-160.667 1920,1139.333 			"/>
		</defs>
		<clipPath id="SVGID_10_">
			<use xlink:href="#SVGID_9_"  overflow="visible"/>
		</clipPath>
	</g>
	<g clip-path="url(#SVGID_2_)">
		<defs>
			<polyline id="SVGID_11_" points="0,1139.333 0,-160.667 1920,-160.667 1920,1139.333 			"/>
		</defs>
		<clipPath id="SVGID_12_">
			<use xlink:href="#SVGID_11_"  overflow="visible"/>
		</clipPath>
	</g>
	<g clip-path="url(#SVGID_2_)">
		<defs>
			<polyline id="SVGID_13_" points="0,1139.333 0,-160.667 1920,-160.667 1920,1139.333 			"/>
		</defs>
		<clipPath id="SVGID_14_">
			<use xlink:href="#SVGID_13_"  overflow="visible"/>
		</clipPath>
		<path clip-path="url(#SVGID_14_)" fill="#00AEC6" d="M1557.197,8.203h-33.905l-42.678,66.257H576.07L519.457,5.932H361.586
			c0.004-0.033,0.005-0.066,0.009-0.099H0v7.84h330h31h155.575l55.843,67.54l0.937,1.102h943.289l0.974-1.45l42.653-64.806H1920
			V8.203H1557.197z"/>
	</g>
	<g clip-path="url(#SVGID_2_)">
		<defs>
			<path id="SVGID_15_" d="M446.73,12.554"/>
		</defs>
		<clipPath id="SVGID_16_">
			<use xlink:href="#SVGID_15_"  overflow="visible"/>
		</clipPath>
		<rect x="446.731" y="11.55" clip-path="url(#SVGID_16_)" fill="#00ACF9" width="2.216" height="0.096"/>
		<rect x="446.731" y="11.647" clip-path="url(#SVGID_16_)" fill="#00AEF8" width="2.216" height="0.289"/>
		<rect x="446.731" y="11.936" clip-path="url(#SVGID_16_)" fill="#00AFF8" width="2.216" height="0.289"/>
		<rect x="446.731" y="12.225" clip-path="url(#SVGID_16_)" fill="#00B0F8" width="2.216" height="0.289"/>
		<rect x="446.731" y="12.514" clip-path="url(#SVGID_16_)" fill="#00B2F8" width="2.216" height="0.289"/>
		<rect x="446.731" y="12.801" clip-path="url(#SVGID_16_)" fill="#00B3F8" width="2.216" height="0.289"/>
		<rect x="446.731" y="13.09" clip-path="url(#SVGID_16_)" fill="#00B4F8" width="2.216" height="0.289"/>
		<rect x="446.731" y="13.379" clip-path="url(#SVGID_16_)" fill="#00B6F7" width="2.216" height="0.289"/>
		<rect x="446.73" y="13.668" clip-path="url(#SVGID_16_)" fill="#00B7F7" width="2.216" height="0.099"/>
		<rect x="444.544" y="3.624" clip-path="url(#SVGID_16_)" fill="#0080FF" width="2.229" height="0.228"/>
		<rect x="444.544" y="3.851" clip-path="url(#SVGID_16_)" fill="#0080FF" width="2.229" height="0.289"/>
		<rect x="444.543" y="4.14" clip-path="url(#SVGID_16_)" fill="#0082FF" width="2.229" height="0.227"/>
		<rect x="441.114" y="8.115" clip-path="url(#SVGID_16_)" fill="#009AFB" width="1.862" height="0.068"/>
		<rect x="441.114" y="8.182" clip-path="url(#SVGID_16_)" fill="#009BFB" width="1.862" height="0.289"/>
		<rect x="441.114" y="8.471" clip-path="url(#SVGID_16_)" fill="#009DFB" width="1.862" height="0.289"/>
		<rect x="441.114" y="8.759" clip-path="url(#SVGID_16_)" fill="#009FFB" width="1.862" height="0.289"/>
		<rect x="441.114" y="9.047" clip-path="url(#SVGID_16_)" fill="#00A0FA" width="1.862" height="0.289"/>
		<rect x="441.114" y="9.336" clip-path="url(#SVGID_16_)" fill="#00A2FA" width="1.862" height="0.289"/>
		<rect x="441.114" y="9.625" clip-path="url(#SVGID_16_)" fill="#00A3FA" width="1.862" height="0.289"/>
		<rect x="441.114" y="9.915" clip-path="url(#SVGID_16_)" fill="#00A5FA" width="1.862" height="0.062"/>
		<rect x="440.886" y="11.213" clip-path="url(#SVGID_16_)" fill="#00ABF9" width="1.744" height="0.145"/>
		<rect x="440.886" y="11.357" clip-path="url(#SVGID_16_)" fill="#00ACF9" width="1.744" height="0.289"/>
		<rect x="440.886" y="12.802" clip-path="url(#SVGID_16_)" fill="#00B3F8" width="1.744" height="0.155"/>
		<rect x="437.977" y="11.058" clip-path="url(#SVGID_16_)" fill="#00A9F9" width="1.482" height="0.012"/>
		<rect x="437.977" y="11.07" clip-path="url(#SVGID_16_)" fill="#00ABF9" width="1.482" height="0.289"/>
		<polyline clip-path="url(#SVGID_16_)" fill="#00ACF9" points="437.977,11.646 437.977,11.357 439.459,11.357 439.459,11.646 		"/>
		<rect x="437.977" y="11.936" clip-path="url(#SVGID_16_)" fill="#00AFF8" width="1.482" height="0.289"/>
		<rect x="437.977" y="12.225" clip-path="url(#SVGID_16_)" fill="#00B0F8" width="1.482" height="0.289"/>
		<rect x="437.977" y="12.514" clip-path="url(#SVGID_16_)" fill="#00B2F8" width="1.482" height="0.026"/>
		<rect x="434.087" y="13.82" clip-path="url(#SVGID_16_)" fill="#00B7F7" width="1.512" height="0.138"/>
		<rect x="434.087" y="13.957" clip-path="url(#SVGID_16_)" fill="#00B8F7" width="1.512" height="0.289"/>
		<rect x="434.087" y="14.246" clip-path="url(#SVGID_16_)" fill="#00B9F7" width="1.512" height="0.289"/>
		<rect x="431.32" y="7.825" clip-path="url(#SVGID_16_)" fill="#0098FC" width="1.795" height="0.069"/>
		<rect x="431.32" y="7.894" clip-path="url(#SVGID_16_)" fill="#009AFB" width="1.795" height="0.289"/>
		<rect x="431.32" y="8.182" clip-path="url(#SVGID_16_)" fill="#009BFB" width="1.795" height="0.289"/>
		<rect x="431.32" y="8.471" clip-path="url(#SVGID_16_)" fill="#009DFB" width="1.795" height="0.289"/>
		<rect x="431.32" y="8.759" clip-path="url(#SVGID_16_)" fill="#009FFB" width="1.795" height="0.289"/>
		<rect x="431.32" y="9.047" clip-path="url(#SVGID_16_)" fill="#00A0FA" width="1.795" height="0.289"/>
		<rect x="431.32" y="9.336" clip-path="url(#SVGID_16_)" fill="#00A2FA" width="1.795" height="0.282"/>
		<rect x="427.6" y="9.073" clip-path="url(#SVGID_16_)" fill="#00A0FA" width="1.627" height="0.264"/>
		<rect x="427.6" y="9.336" clip-path="url(#SVGID_16_)" fill="#00A2FA" width="1.627" height="0.289"/>
		<rect x="427.6" y="9.625" clip-path="url(#SVGID_16_)" fill="#00A3FA" width="1.627" height="0.289"/>
		<rect x="427.6" y="9.915" clip-path="url(#SVGID_16_)" fill="#00A5FA" width="1.627" height="0.289"/>
		<rect x="427.6" y="10.204" clip-path="url(#SVGID_16_)" fill="#00A6FA" width="1.627" height="0.289"/>
		<rect x="427.6" y="10.493" clip-path="url(#SVGID_16_)" fill="#00A8F9" width="1.627" height="0.208"/>
		<rect x="421.707" y="13.709" clip-path="url(#SVGID_16_)" fill="#00B7F7" width="1.114" height="0.248"/>
		<rect x="421.707" y="13.957" clip-path="url(#SVGID_16_)" fill="#00B8F7" width="1.114" height="0.289"/>
		<rect x="421.707" y="14.246" clip-path="url(#SVGID_16_)" fill="#00B9F7" width="1.114" height="0.289"/>
		<rect x="452.032" y="3.624" clip-path="url(#SVGID_16_)" fill="#0080FF" width="2.741" height="0.196"/>
		<rect x="416.895" y="3.624" clip-path="url(#SVGID_16_)" fill="#0080FF" width="55.144" height="0.228"/>
		<rect x="416.895" y="3.851" clip-path="url(#SVGID_16_)" fill="#0080FF" width="55.144" height="0.289"/>
		<rect x="416.895" y="4.14" clip-path="url(#SVGID_16_)" fill="#0082FF" width="55.144" height="0.289"/>
		<rect x="416.895" y="4.429" clip-path="url(#SVGID_16_)" fill="#0084FE" width="55.144" height="0.289"/>
		<rect x="416.895" y="4.716" clip-path="url(#SVGID_16_)" fill="#0086FE" width="55.144" height="0.289"/>
		<rect x="416.895" y="5.005" clip-path="url(#SVGID_16_)" fill="#0088FE" width="55.144" height="0.289"/>
		<rect x="416.895" y="5.294" clip-path="url(#SVGID_16_)" fill="#008AFE" width="55.144" height="0.289"/>
		<rect x="416.895" y="5.583" clip-path="url(#SVGID_16_)" fill="#008BFD" width="55.144" height="0.289"/>
		<rect x="416.895" y="5.873" clip-path="url(#SVGID_16_)" fill="#008DFD" width="55.144" height="0.289"/>
		<rect x="416.895" y="6.161" clip-path="url(#SVGID_16_)" fill="#008FFD" width="55.144" height="0.289"/>
		<rect x="416.895" y="6.45" clip-path="url(#SVGID_16_)" fill="#0091FD" width="55.144" height="0.289"/>
		<rect x="416.895" y="6.739" clip-path="url(#SVGID_16_)" fill="#0093FC" width="55.144" height="0.289"/>
		<rect x="416.895" y="7.027" clip-path="url(#SVGID_16_)" fill="#0094FC" width="55.144" height="0.289"/>
		<rect x="416.895" y="7.315" clip-path="url(#SVGID_16_)" fill="#0096FC" width="55.144" height="0.289"/>
		<rect x="416.895" y="7.604" clip-path="url(#SVGID_16_)" fill="#0098FC" width="55.144" height="0.289"/>
		<rect x="416.895" y="7.894" clip-path="url(#SVGID_16_)" fill="#009AFB" width="55.144" height="0.289"/>
		<rect x="416.895" y="8.182" clip-path="url(#SVGID_16_)" fill="#009BFB" width="55.144" height="0.289"/>
		<rect x="416.895" y="8.471" clip-path="url(#SVGID_16_)" fill="#009DFB" width="55.144" height="0.289"/>
		<rect x="416.895" y="8.759" clip-path="url(#SVGID_16_)" fill="#009FFB" width="55.144" height="0.289"/>
		<rect x="416.895" y="9.047" clip-path="url(#SVGID_16_)" fill="#00A0FA" width="55.144" height="0.289"/>
		<rect x="416.895" y="9.336" clip-path="url(#SVGID_16_)" fill="#00A2FA" width="55.144" height="0.289"/>
		<rect x="416.895" y="9.625" clip-path="url(#SVGID_16_)" fill="#00A3FA" width="55.144" height="0.289"/>
		<rect x="416.895" y="9.915" clip-path="url(#SVGID_16_)" fill="#00A5FA" width="55.144" height="0.289"/>
		<rect x="416.895" y="10.204" clip-path="url(#SVGID_16_)" fill="#00A6FA" width="55.144" height="0.289"/>
		<rect x="416.895" y="10.492" clip-path="url(#SVGID_16_)" fill="#00A8F9" width="55.144" height="0.289"/>
		<rect x="416.895" y="10.781" clip-path="url(#SVGID_16_)" fill="#00A9F9" width="55.144" height="0.289"/>
		<rect x="416.895" y="11.07" clip-path="url(#SVGID_16_)" fill="#00ABF9" width="55.144" height="0.289"/>
		<line clip-path="url(#SVGID_16_)" fill="#00ACF9" x1="472.039" y1="11.357" x2="472.039" y2="11.646"/>
		<line clip-path="url(#SVGID_16_)" fill="#00ACF9" x1="416.895" y1="11.646" x2="416.895" y2="11.357"/>
		<rect x="416.895" y="12.801" clip-path="url(#SVGID_16_)" fill="#00B3F8" width="55.144" height="0.289"/>
		<rect x="416.895" y="13.09" clip-path="url(#SVGID_16_)" fill="#00B4F8" width="55.144" height="0.289"/>
		<rect x="416.895" y="13.379" clip-path="url(#SVGID_16_)" fill="#00B6F7" width="55.144" height="0.289"/>
		<rect x="416.895" y="13.668" clip-path="url(#SVGID_16_)" fill="#00B7F7" width="55.144" height="0.289"/>
		<rect x="416.895" y="13.957" clip-path="url(#SVGID_16_)" fill="#00B8F7" width="55.144" height="0.289"/>
		<rect x="416.895" y="14.246" clip-path="url(#SVGID_16_)" fill="#00B9F7" width="55.144" height="0.289"/>
		<line clip-path="url(#SVGID_16_)" fill="#00CFF4" x1="472.039" y1="20.598" x2="472.039" y2="20.886"/>
		<line clip-path="url(#SVGID_16_)" fill="#00CFF4" x1="416.895" y1="20.886" x2="416.895" y2="20.598"/>
		<line clip-path="url(#SVGID_16_)" fill="#00D0F4" x1="472.039" y1="20.887" x2="472.039" y2="21.175"/>
		<line clip-path="url(#SVGID_16_)" fill="#00D0F4" x1="416.895" y1="21.175" x2="416.895" y2="20.887"/>
		<line clip-path="url(#SVGID_16_)" fill="#00D0F4" x1="472.039" y1="21.175" x2="472.039" y2="21.464"/>
		<line clip-path="url(#SVGID_16_)" fill="#00D0F4" x1="416.895" y1="21.464" x2="416.895" y2="21.175"/>
		<line clip-path="url(#SVGID_16_)" fill="#00D1F3" x1="472.039" y1="21.463" x2="472.039" y2="21.752"/>
		<line clip-path="url(#SVGID_16_)" fill="#00D1F3" x1="416.895" y1="21.752" x2="416.895" y2="21.463"/>
		<line clip-path="url(#SVGID_16_)" fill="#00D2F3" x1="472.039" y1="21.752" x2="472.039" y2="22.042"/>
		<line clip-path="url(#SVGID_16_)" fill="#00D2F3" x1="416.895" y1="22.042" x2="416.895" y2="21.752"/>
		<line clip-path="url(#SVGID_16_)" fill="#00D2F3" x1="472.039" y1="22.042" x2="472.039" y2="22.331"/>
		<line clip-path="url(#SVGID_16_)" fill="#00D2F3" x1="416.895" y1="22.331" x2="416.895" y2="22.042"/>
		<line clip-path="url(#SVGID_16_)" fill="#00D3F3" x1="472.039" y1="22.331" x2="472.039" y2="22.62"/>
		<line clip-path="url(#SVGID_16_)" fill="#00D3F3" x1="416.895" y1="22.62" x2="416.895" y2="22.331"/>
		<line clip-path="url(#SVGID_16_)" fill="#00D4F3" x1="472.039" y1="22.619" x2="472.039" y2="22.908"/>
		<line clip-path="url(#SVGID_16_)" fill="#00D4F3" x1="416.895" y1="22.908" x2="416.895" y2="22.619"/>
		<line clip-path="url(#SVGID_16_)" fill="#00D4F3" x1="472.039" y1="22.908" x2="472.039" y2="23.197"/>
		<line clip-path="url(#SVGID_16_)" fill="#00D4F3" x1="416.895" y1="23.197" x2="416.895" y2="22.908"/>
		<line clip-path="url(#SVGID_16_)" fill="#00D5F3" x1="472.039" y1="23.197" x2="472.039" y2="23.485"/>
		<line clip-path="url(#SVGID_16_)" fill="#00D5F3" x1="416.895" y1="23.485" x2="416.895" y2="23.197"/>
		<line clip-path="url(#SVGID_16_)" fill="#00D5F3" x1="472.039" y1="23.484" x2="472.039" y2="23.773"/>
		<line clip-path="url(#SVGID_16_)" fill="#00D5F3" x1="416.895" y1="23.773" x2="416.895" y2="23.484"/>
		<line clip-path="url(#SVGID_16_)" fill="#00D6F3" x1="472.039" y1="23.773" x2="472.039" y2="24.063"/>
		<line clip-path="url(#SVGID_16_)" fill="#00D6F3" x1="416.895" y1="24.063" x2="416.895" y2="23.773"/>
		<line clip-path="url(#SVGID_16_)" fill="#00D6F3" x1="472.039" y1="24.063" x2="472.039" y2="24.352"/>
		<line clip-path="url(#SVGID_16_)" fill="#00D6F3" x1="416.895" y1="24.352" x2="416.895" y2="24.063"/>
		<line clip-path="url(#SVGID_16_)" fill="#00D7F3" x1="472.039" y1="24.352" x2="472.039" y2="24.641"/>
		<line clip-path="url(#SVGID_16_)" fill="#00D7F3" x1="416.895" y1="24.641" x2="416.895" y2="24.352"/>
		<line clip-path="url(#SVGID_16_)" fill="#00D7F3" x1="472.039" y1="24.641" x2="472.039" y2="24.929"/>
		<line clip-path="url(#SVGID_16_)" fill="#00D7F3" x1="416.895" y1="24.929" x2="416.895" y2="24.641"/>
		<line clip-path="url(#SVGID_16_)" fill="#00D7F3" x1="472.039" y1="24.929" x2="472.039" y2="25.217"/>
		<line clip-path="url(#SVGID_16_)" fill="#00D7F3" x1="416.895" y1="25.217" x2="416.895" y2="24.929"/>
		<line clip-path="url(#SVGID_16_)" fill="#00D8F2" x1="472.039" y1="25.217" x2="472.039" y2="25.506"/>
		<line clip-path="url(#SVGID_16_)" fill="#00D8F2" x1="416.895" y1="25.506" x2="416.895" y2="25.217"/>
		<line clip-path="url(#SVGID_16_)" fill="#00D8F2" x1="472.039" y1="25.506" x2="472.039" y2="25.795"/>
		<line clip-path="url(#SVGID_16_)" fill="#00D8F2" x1="416.895" y1="25.795" x2="416.895" y2="25.506"/>
		<line clip-path="url(#SVGID_16_)" fill="#00D9F2" x1="472.039" y1="25.794" x2="472.039" y2="26.083"/>
		<line clip-path="url(#SVGID_16_)" fill="#00D9F2" x1="416.895" y1="26.083" x2="416.895" y2="25.794"/>
		<line clip-path="url(#SVGID_16_)" fill="#00D9F2" x1="472.039" y1="26.083" x2="472.039" y2="26.373"/>
		<line clip-path="url(#SVGID_16_)" fill="#00D9F2" x1="416.895" y1="26.373" x2="416.895" y2="26.083"/>
		<line clip-path="url(#SVGID_16_)" fill="#00D9F2" x1="472.039" y1="26.373" x2="472.039" y2="26.662"/>
		<line clip-path="url(#SVGID_16_)" fill="#00D9F2" x1="416.895" y1="26.662" x2="416.895" y2="26.373"/>
		<line clip-path="url(#SVGID_16_)" fill="#00D9F2" x1="472.039" y1="26.662" x2="472.039" y2="26.951"/>
		<line clip-path="url(#SVGID_16_)" fill="#00D9F2" x1="416.895" y1="26.951" x2="416.895" y2="26.662"/>
		<line clip-path="url(#SVGID_16_)" fill="#00DAF2" x1="472.039" y1="26.951" x2="472.039" y2="27.24"/>
		<line clip-path="url(#SVGID_16_)" fill="#00DAF2" x1="416.895" y1="27.24" x2="416.895" y2="26.951"/>
		<line clip-path="url(#SVGID_16_)" fill="#00DAF2" x1="472.039" y1="27.239" x2="472.039" y2="27.527"/>
		<line clip-path="url(#SVGID_16_)" fill="#00DAF2" x1="416.895" y1="27.527" x2="416.895" y2="27.239"/>
		<line clip-path="url(#SVGID_16_)" fill="#00DAF2" x1="472.039" y1="27.528" x2="472.039" y2="27.816"/>
		<line clip-path="url(#SVGID_16_)" fill="#00DAF2" x1="416.895" y1="27.816" x2="416.895" y2="27.528"/>
		<line clip-path="url(#SVGID_16_)" fill="#00DAF2" x1="472.039" y1="27.816" x2="472.039" y2="28.105"/>
		<line clip-path="url(#SVGID_16_)" fill="#00DAF2" x1="416.895" y1="28.105" x2="416.895" y2="27.816"/>
		<line clip-path="url(#SVGID_16_)" fill="#00DBF2" x1="472.039" y1="28.105" x2="472.039" y2="28.395"/>
		<line clip-path="url(#SVGID_16_)" fill="#00DBF2" x1="416.895" y1="28.395" x2="416.895" y2="28.105"/>
		<line clip-path="url(#SVGID_16_)" fill="#00DBF2" x1="472.039" y1="28.394" x2="472.039" y2="28.683"/>
		<line clip-path="url(#SVGID_16_)" fill="#00DBF2" x1="416.895" y1="28.683" x2="416.895" y2="28.394"/>
		<line clip-path="url(#SVGID_16_)" fill="#00DBF2" x1="472.039" y1="28.683" x2="472.039" y2="28.971"/>
		<line clip-path="url(#SVGID_16_)" fill="#00DBF2" x1="416.895" y1="28.971" x2="416.895" y2="28.683"/>
		<line clip-path="url(#SVGID_16_)" fill="#00DBF2" x1="472.039" y1="28.972" x2="472.039" y2="29.26"/>
		<line clip-path="url(#SVGID_16_)" fill="#00DBF2" x1="416.895" y1="29.26" x2="416.895" y2="28.972"/>
		<line clip-path="url(#SVGID_16_)" fill="#00DBF2" x1="472.039" y1="29.259" x2="472.039" y2="29.548"/>
		<line clip-path="url(#SVGID_16_)" fill="#00DBF2" x1="416.895" y1="29.548" x2="416.895" y2="29.259"/>
		<line clip-path="url(#SVGID_16_)" fill="#00DBF2" x1="416.895" y1="29.837" x2="416.895" y2="29.548"/>
		<line clip-path="url(#SVGID_16_)" fill="#00DBF2" x1="472.039" y1="29.548" x2="472.039" y2="29.837"/>
		<line clip-path="url(#SVGID_16_)" fill="#00DBF2" x1="472.039" y1="29.837" x2="472.039" y2="30.126"/>
		<line clip-path="url(#SVGID_16_)" fill="#00DBF2" x1="416.895" y1="30.126" x2="416.895" y2="29.837"/>
		<line clip-path="url(#SVGID_16_)" fill="#00DBF2" x1="472.039" y1="30.126" x2="472.039" y2="30.579"/>
		<line clip-path="url(#SVGID_16_)" fill="#00DBF2" x1="416.895" y1="30.579" x2="416.895" y2="30.126"/>
		<line clip-path="url(#SVGID_16_)" fill="#00DCF2" x1="472.039" y1="30.579" x2="472.039" y2="31.031"/>
		<line clip-path="url(#SVGID_16_)" fill="#00DCF2" x1="416.895" y1="31.031" x2="416.895" y2="30.579"/>
		<line clip-path="url(#SVGID_16_)" fill="#00DDF3" x1="472.039" y1="31.029" x2="472.039" y2="31.481"/>
		<line clip-path="url(#SVGID_16_)" fill="#00DDF3" x1="416.895" y1="31.481" x2="416.895" y2="31.029"/>
		<line clip-path="url(#SVGID_16_)" fill="#00DEF3" x1="472.039" y1="31.481" x2="472.039" y2="31.934"/>
		<line clip-path="url(#SVGID_16_)" fill="#00DEF3" x1="416.895" y1="31.934" x2="416.895" y2="31.481"/>
		<line clip-path="url(#SVGID_16_)" fill="#00DFF3" x1="472.039" y1="31.934" x2="472.039" y2="32.385"/>
		<line clip-path="url(#SVGID_16_)" fill="#00DFF3" x1="416.895" y1="32.385" x2="416.895" y2="31.934"/>
		<line clip-path="url(#SVGID_16_)" fill="#00E0F4" x1="472.039" y1="32.385" x2="472.039" y2="32.837"/>
		<line clip-path="url(#SVGID_16_)" fill="#00E0F4" x1="416.895" y1="32.837" x2="416.895" y2="32.385"/>
		<line clip-path="url(#SVGID_16_)" fill="#00E1F4" x1="472.039" y1="32.837" x2="472.039" y2="33.29"/>
		<line clip-path="url(#SVGID_16_)" fill="#00E1F4" x1="416.895" y1="33.29" x2="416.895" y2="32.837"/>
		<line clip-path="url(#SVGID_16_)" fill="#00E2F5" x1="472.039" y1="33.29" x2="472.039" y2="33.742"/>
		<line clip-path="url(#SVGID_16_)" fill="#00E2F5" x1="416.895" y1="33.742" x2="416.895" y2="33.29"/>
		<line clip-path="url(#SVGID_16_)" fill="#00E3F5" x1="472.039" y1="33.741" x2="472.039" y2="34.192"/>
		<line clip-path="url(#SVGID_16_)" fill="#00E3F5" x1="416.895" y1="34.192" x2="416.895" y2="33.741"/>
		<line clip-path="url(#SVGID_16_)" fill="#00E4F5" x1="472.039" y1="34.192" x2="472.039" y2="34.645"/>
		<line clip-path="url(#SVGID_16_)" fill="#00E4F5" x1="416.895" y1="34.645" x2="416.895" y2="34.192"/>
		<line clip-path="url(#SVGID_16_)" fill="#00E5F6" x1="472.039" y1="34.645" x2="472.039" y2="35.096"/>
		<line clip-path="url(#SVGID_16_)" fill="#00E5F6" x1="416.895" y1="35.096" x2="416.895" y2="34.645"/>
		<line clip-path="url(#SVGID_16_)" fill="#00E6F6" x1="472.039" y1="35.096" x2="472.039" y2="35.548"/>
		<line clip-path="url(#SVGID_16_)" fill="#00E6F6" x1="416.895" y1="35.548" x2="416.895" y2="35.096"/>
		<line clip-path="url(#SVGID_16_)" fill="#00E7F6" x1="472.039" y1="35.548" x2="472.039" y2="36"/>
		<line clip-path="url(#SVGID_16_)" fill="#00E7F6" x1="416.895" y1="36" x2="416.895" y2="35.548"/>
		<line clip-path="url(#SVGID_16_)" fill="#00E8F7" x1="472.039" y1="36" x2="472.039" y2="36.453"/>
		<line clip-path="url(#SVGID_16_)" fill="#00E8F7" x1="416.895" y1="36.453" x2="416.895" y2="36"/>
		<line clip-path="url(#SVGID_16_)" fill="#00E9F7" x1="472.039" y1="36.452" x2="472.039" y2="36.903"/>
		<line clip-path="url(#SVGID_16_)" fill="#00E9F7" x1="416.895" y1="36.903" x2="416.895" y2="36.452"/>
		<line clip-path="url(#SVGID_16_)" fill="#00EAF8" x1="472.039" y1="36.903" x2="472.039" y2="37.355"/>
		<line clip-path="url(#SVGID_16_)" fill="#00EAF8" x1="416.895" y1="37.355" x2="416.895" y2="36.903"/>
		<line clip-path="url(#SVGID_16_)" fill="#00EBF8" x1="472.039" y1="37.355" x2="472.039" y2="37.808"/>
		<line clip-path="url(#SVGID_16_)" fill="#00EBF8" x1="416.895" y1="37.808" x2="416.895" y2="37.355"/>
		<line clip-path="url(#SVGID_16_)" fill="#00ECF8" x1="472.039" y1="37.808" x2="472.039" y2="38.259"/>
		<line clip-path="url(#SVGID_16_)" fill="#00ECF8" x1="416.895" y1="38.259" x2="416.895" y2="37.808"/>
		<line clip-path="url(#SVGID_16_)" fill="#00EEF9" x1="472.039" y1="38.258" x2="472.039" y2="38.71"/>
		<line clip-path="url(#SVGID_16_)" fill="#00EEF9" x1="416.895" y1="38.71" x2="416.895" y2="38.258"/>
		<line clip-path="url(#SVGID_16_)" fill="#00EFF9" x1="416.895" y1="39.023" x2="416.895" y2="38.71"/>
		<line clip-path="url(#SVGID_16_)" fill="#00EFF9" x1="472.039" y1="38.71" x2="472.039" y2="39.023"/>
	</g>
	<g clip-path="url(#SVGID_2_)">
		<defs>
			<polyline id="SVGID_17_" points="0,1139.333 0,-160.667 1920,-160.667 1920,1139.333 			"/>
		</defs>
		<clipPath id="SVGID_18_">
			<use xlink:href="#SVGID_17_"  overflow="visible"/>
		</clipPath>
		<g clip-path="url(#SVGID_18_)"  a:adobe-blending-mode="hardLight">
			<g  a:adobe-blending-mode="normal">
				<defs>
					<path id="SVGID_19_" d="M519.77,75.153"/>
				</defs>
				<defs>
					<path id="SVGID_20_" d="M380.57,75.153"/>
				</defs>
				<clipPath id="SVGID_21_">
					<use xlink:href="#SVGID_19_"  overflow="visible"/>
				</clipPath>
				<clipPath id="SVGID_22_" clip-path="url(#SVGID_21_)">
					<use xlink:href="#SVGID_20_"  overflow="visible"/>
				</clipPath>
				<g clip-path="url(#SVGID_22_)">
					<defs>
						<polyline id="SVGID_23_" points="519.77,-63.569 380.57,-63.569 380.57,75.151 519.77,75.151 						"/>
					</defs>
					<clipPath id="SVGID_24_">
						<use xlink:href="#SVGID_23_"  overflow="visible"/>
					</clipPath>
				</g>
			</g>
		</g>
	</g>
</g>
</svg>
