<svg xmlns="http://www.w3.org/2000/svg" xmlns:xlink="http://www.w3.org/1999/xlink" width="1920" height="83.333" xml:space="preserve"><defs><path id="a" d="M1920 1139.333v-1300H0v1300"/></defs><clipPath id="b"><use xlink:href="#a" overflow="visible"/></clipPath><g clip-path="url(#b)"><defs><path id="c" d="M0 1139.333v-1300h1920v1300"/></defs></g><g clip-path="url(#b)"><defs><path id="d" d="M0 1139.333v-1300h1920v1300"/></defs></g><g clip-path="url(#b)"><defs><path id="e" d="M0 1139.333v-1300h1920v1300"/></defs><clipPath id="f"><use xlink:href="#e" overflow="visible"/></clipPath><g opacity=".25" clip-path="url(#f)"><path fill="#007DF2" d="M1028.193 729.468v2.58" opacity=".25"/></g></g><g clip-path="url(#b)"><defs><path id="g" d="M0 1139.333v-1300h1920v1300"/></defs></g><g clip-path="url(#b)"><defs><path id="h" d="M0 1139.333v-1300h1920v1300"/></defs></g><g clip-path="url(#b)"><defs><path id="i" d="M0 1139.333v-1300h1920v1300"/></defs><clipPath id="j"><use xlink:href="#i" overflow="visible"/></clipPath><path clip-path="url(#j)" fill="#00AEC6" d="M1557.197 8.203h-33.905l-42.678 66.257H576.07L519.457 5.932H361.586l.009-.099H0v7.84h516.575l55.843 67.54.937 1.102h943.289l.974-1.45 42.653-64.806H1920V8.203h-362.803z"/></g><g clip-path="url(#b)"><clipPath id="l"><use xlink:href="#k" overflow="visible"/></clipPath><path clip-path="url(#l)" fill="#00ACF9" d="M446.731 11.55h2.216v.096h-2.216z"/><path clip-path="url(#l)" fill="#00AEF8" d="M446.731 11.647h2.216v.289h-2.216z"/><path clip-path="url(#l)" fill="#00AFF8" d="M446.731 11.936h2.216v.289h-2.216z"/><path clip-path="url(#l)" fill="#00B0F8" d="M446.731 12.225h2.216v.289h-2.216z"/><path clip-path="url(#l)" fill="#00B2F8" d="M446.731 12.514h2.216v.289h-2.216z"/><path clip-path="url(#l)" fill="#00B3F8" d="M446.731 12.801h2.216v.289h-2.216z"/><path clip-path="url(#l)" fill="#00B4F8" d="M446.731 13.09h2.216v.289h-2.216z"/><path clip-path="url(#l)" fill="#00B6F7" d="M446.731 13.379h2.216v.289h-2.216z"/><path clip-path="url(#l)" fill="#00B7F7" d="M446.73 13.668h2.216v.099h-2.216z"/><path clip-path="url(#l)" fill="#0080FF" d="M444.544 3.624h2.229v.228h-2.229z"/><path clip-path="url(#l)" fill="#0080FF" d="M444.544 3.851h2.229v.289h-2.229z"/><path clip-path="url(#l)" fill="#0082FF" d="M444.543 4.14h2.229v.227h-2.229z"/><path clip-path="url(#l)" fill="#009AFB" d="M441.114 8.115h1.862v.068h-1.862z"/><path clip-path="url(#l)" fill="#009BFB" d="M441.114 8.182h1.862v.289h-1.862z"/><path clip-path="url(#l)" fill="#009DFB" d="M441.114 8.471h1.862v.289h-1.862z"/><path clip-path="url(#l)" fill="#009FFB" d="M441.114 8.759h1.862v.289h-1.862z"/><path clip-path="url(#l)" fill="#00A0FA" d="M441.114 9.047h1.862v.289h-1.862z"/><path clip-path="url(#l)" fill="#00A2FA" d="M441.114 9.336h1.862v.289h-1.862z"/><path clip-path="url(#l)" fill="#00A3FA" d="M441.114 9.625h1.862v.289h-1.862z"/><path clip-path="url(#l)" fill="#00A5FA" d="M441.114 9.915h1.862v.062h-1.862z"/><path clip-path="url(#l)" fill="#00ABF9" d="M440.886 11.213h1.744v.145h-1.744z"/><path clip-path="url(#l)" fill="#00ACF9" d="M440.886 11.357h1.744v.289h-1.744z"/><path clip-path="url(#l)" fill="#00B3F8" d="M440.886 12.802h1.744v.155h-1.744z"/><path clip-path="url(#l)" fill="#00A9F9" d="M437.977 11.058h1.482v.012h-1.482z"/><path clip-path="url(#l)" fill="#00ABF9" d="M437.977 11.07h1.482v.289h-1.482z"/><path clip-path="url(#l)" fill="#00ACF9" d="M437.977 11.646v-.289h1.482v.289"/><path clip-path="url(#l)" fill="#00AFF8" d="M437.977 11.936h1.482v.289h-1.482z"/><path clip-path="url(#l)" fill="#00B0F8" d="M437.977 12.225h1.482v.289h-1.482z"/><path clip-path="url(#l)" fill="#00B2F8" d="M437.977 12.514h1.482v.026h-1.482z"/><path clip-path="url(#l)" fill="#00B7F7" d="M434.087 13.82h1.512v.138h-1.512z"/><path clip-path="url(#l)" fill="#00B8F7" d="M434.087 13.957h1.512v.289h-1.512z"/><path clip-path="url(#l)" fill="#00B9F7" d="M434.087 14.246h1.512v.289h-1.512z"/><path clip-path="url(#l)" fill="#0098FC" d="M431.32 7.825h1.795v.069h-1.795z"/><path clip-path="url(#l)" fill="#009AFB" d="M431.32 7.894h1.795v.289h-1.795z"/><path clip-path="url(#l)" fill="#009BFB" d="M431.32 8.182h1.795v.289h-1.795z"/><path clip-path="url(#l)" fill="#009DFB" d="M431.32 8.471h1.795v.289h-1.795z"/><path clip-path="url(#l)" fill="#009FFB" d="M431.32 8.759h1.795v.289h-1.795z"/><path clip-path="url(#l)" fill="#00A0FA" d="M431.32 9.047h1.795v.289h-1.795z"/><path clip-path="url(#l)" fill="#00A2FA" d="M431.32 9.336h1.795v.282h-1.795z"/><path clip-path="url(#l)" fill="#00A0FA" d="M427.6 9.073h1.627v.264H427.6z"/><path clip-path="url(#l)" fill="#00A2FA" d="M427.6 9.336h1.627v.289H427.6z"/><path clip-path="url(#l)" fill="#00A3FA" d="M427.6 9.625h1.627v.289H427.6z"/><path clip-path="url(#l)" fill="#00A5FA" d="M427.6 9.915h1.627v.289H427.6z"/><path clip-path="url(#l)" fill="#00A6FA" d="M427.6 10.204h1.627v.289H427.6z"/><path clip-path="url(#l)" fill="#00A8F9" d="M427.6 10.493h1.627v.208H427.6z"/><path clip-path="url(#l)" fill="#00B7F7" d="M421.707 13.709h1.114v.248h-1.114z"/><path clip-path="url(#l)" fill="#00B8F7" d="M421.707 13.957h1.114v.289h-1.114z"/><path clip-path="url(#l)" fill="#00B9F7" d="M421.707 14.246h1.114v.289h-1.114z"/><path clip-path="url(#l)" fill="#0080FF" d="M452.032 3.624h2.741v.196h-2.741z"/><path clip-path="url(#l)" fill="#0080FF" d="M416.895 3.624h55.144v.228h-55.144z"/><path clip-path="url(#l)" fill="#0080FF" d="M416.895 3.851h55.144v.289h-55.144z"/><path clip-path="url(#l)" fill="#0082FF" d="M416.895 4.14h55.144v.289h-55.144z"/><path clip-path="url(#l)" fill="#0084FE" d="M416.895 4.429h55.144v.289h-55.144z"/><path clip-path="url(#l)" fill="#0086FE" d="M416.895 4.716h55.144v.289h-55.144z"/><path clip-path="url(#l)" fill="#0088FE" d="M416.895 5.005h55.144v.289h-55.144z"/><path clip-path="url(#l)" fill="#008AFE" d="M416.895 5.294h55.144v.289h-55.144z"/><path clip-path="url(#l)" fill="#008BFD" d="M416.895 5.583h55.144v.289h-55.144z"/><path clip-path="url(#l)" fill="#008DFD" d="M416.895 5.873h55.144v.289h-55.144z"/><path clip-path="url(#l)" fill="#008FFD" d="M416.895 6.161h55.144v.289h-55.144z"/><path clip-path="url(#l)" fill="#0091FD" d="M416.895 6.45h55.144v.289h-55.144z"/><path clip-path="url(#l)" fill="#0093FC" d="M416.895 6.739h55.144v.289h-55.144z"/><path clip-path="url(#l)" fill="#0094FC" d="M416.895 7.027h55.144v.289h-55.144z"/><path clip-path="url(#l)" fill="#0096FC" d="M416.895 7.315h55.144v.289h-55.144z"/><path clip-path="url(#l)" fill="#0098FC" d="M416.895 7.604h55.144v.289h-55.144z"/><path clip-path="url(#l)" fill="#009AFB" d="M416.895 7.894h55.144v.289h-55.144z"/><path clip-path="url(#l)" fill="#009BFB" d="M416.895 8.182h55.144v.289h-55.144z"/><path clip-path="url(#l)" fill="#009DFB" d="M416.895 8.471h55.144v.289h-55.144z"/><path clip-path="url(#l)" fill="#009FFB" d="M416.895 8.759h55.144v.289h-55.144z"/><path clip-path="url(#l)" fill="#00A0FA" d="M416.895 9.047h55.144v.289h-55.144z"/><path clip-path="url(#l)" fill="#00A2FA" d="M416.895 9.336h55.144v.289h-55.144z"/><path clip-path="url(#l)" fill="#00A3FA" d="M416.895 9.625h55.144v.289h-55.144z"/><path clip-path="url(#l)" fill="#00A5FA" d="M416.895 9.915h55.144v.289h-55.144z"/><path clip-path="url(#l)" fill="#00A6FA" d="M416.895 10.204h55.144v.289h-55.144z"/><path clip-path="url(#l)" fill="#00A8F9" d="M416.895 10.492h55.144v.289h-55.144z"/><path clip-path="url(#l)" fill="#00A9F9" d="M416.895 10.781h55.144v.289h-55.144z"/><path clip-path="url(#l)" fill="#00ABF9" d="M416.895 11.07h55.144v.289h-55.144z"/><path clip-path="url(#l)" fill="#00ACF9" d="M472.039 11.357v.289M416.895 11.646v-.289"/><path clip-path="url(#l)" fill="#00B3F8" d="M416.895 12.801h55.144v.289h-55.144z"/><path clip-path="url(#l)" fill="#00B4F8" d="M416.895 13.09h55.144v.289h-55.144z"/><path clip-path="url(#l)" fill="#00B6F7" d="M416.895 13.379h55.144v.289h-55.144z"/><path clip-path="url(#l)" fill="#00B7F7" d="M416.895 13.668h55.144v.289h-55.144z"/><path clip-path="url(#l)" fill="#00B8F7" d="M416.895 13.957h55.144v.289h-55.144z"/><path clip-path="url(#l)" fill="#00B9F7" d="M416.895 14.246h55.144v.289h-55.144z"/><path clip-path="url(#l)" fill="#00CFF4" d="M472.039 20.598v.288M416.895 20.886v-.288"/><path clip-path="url(#l)" fill="#00D0F4" d="M472.039 20.887v.288M416.895 21.175v-.288M472.039 21.175v.289M416.895 21.464v-.289"/><path clip-path="url(#l)" fill="#00D1F3" d="M472.039 21.463v.289M416.895 21.752v-.289"/><path clip-path="url(#l)" fill="#00D2F3" d="M472.039 21.752v.29M416.895 22.042v-.29M472.039 22.042v.289M416.895 22.331v-.289"/><path clip-path="url(#l)" fill="#00D3F3" d="M472.039 22.331v.289M416.895 22.62v-.289"/><path clip-path="url(#l)" fill="#00D4F3" d="M472.039 22.619v.289M416.895 22.908v-.289M472.039 22.908v.289M416.895 23.197v-.289"/><path clip-path="url(#l)" fill="#00D5F3" d="M472.039 23.197v.288M416.895 23.485v-.288M472.039 23.484v.289M416.895 23.773v-.289"/><path clip-path="url(#l)" fill="#00D6F3" d="M472.039 23.773v.29M416.895 24.063v-.29M472.039 24.063v.289M416.895 24.352v-.289"/><path clip-path="url(#l)" fill="#00D7F3" d="M472.039 24.352v.289M416.895 24.641v-.289M472.039 24.641v.288M416.895 24.929v-.288M472.039 24.929v.288M416.895 25.217v-.288"/><path clip-path="url(#l)" fill="#00D8F2" d="M472.039 25.217v.289M416.895 25.506v-.289M472.039 25.506v.289M416.895 25.795v-.289"/><path clip-path="url(#l)" fill="#00D9F2" d="M472.039 25.794v.289M416.895 26.083v-.289M472.039 26.083v.29M416.895 26.373v-.29M472.039 26.373v.289M416.895 26.662v-.289M472.039 26.662v.289M416.895 26.951v-.289"/><path clip-path="url(#l)" fill="#00DAF2" d="M472.039 26.951v.289M416.895 27.24v-.289M472.039 27.239v.288M416.895 27.527v-.288M472.039 27.528v.288M416.895 27.816v-.288M472.039 27.816v.289M416.895 28.105v-.289"/><path clip-path="url(#l)" fill="#00DBF2" d="M472.039 28.105v.29M416.895 28.395v-.29M472.039 28.394v.289M416.895 28.683v-.289M472.039 28.683v.288M416.895 28.971v-.288M472.039 28.972v.288M416.895 29.26v-.288M472.039 29.259v.289M416.895 29.548v-.289M416.895 29.837v-.289M472.039 29.548v.289M472.039 29.837v.289M416.895 30.126v-.289M472.039 30.126v.453M416.895 30.579v-.453"/><path clip-path="url(#l)" fill="#00DCF2" d="M472.039 30.579v.452M416.895 31.031v-.452"/><path clip-path="url(#l)" fill="#00DDF3" d="M472.039 31.029v.452M416.895 31.481v-.452"/><path clip-path="url(#l)" fill="#00DEF3" d="M472.039 31.481v.453M416.895 31.934v-.453"/><path clip-path="url(#l)" fill="#00DFF3" d="M472.039 31.934v.451M416.895 32.385v-.451"/><path clip-path="url(#l)" fill="#00E0F4" d="M472.039 32.385v.452M416.895 32.837v-.452"/><path clip-path="url(#l)" fill="#00E1F4" d="M472.039 32.837v.453M416.895 33.29v-.453"/><path clip-path="url(#l)" fill="#00E2F5" d="M472.039 33.29v.452M416.895 33.742v-.452"/><path clip-path="url(#l)" fill="#00E3F5" d="M472.039 33.741v.451M416.895 34.192v-.451"/><path clip-path="url(#l)" fill="#00E4F5" d="M472.039 34.192v.453M416.895 34.645v-.453"/><path clip-path="url(#l)" fill="#00E5F6" d="M472.039 34.645v.451M416.895 35.096v-.451"/><path clip-path="url(#l)" fill="#00E6F6" d="M472.039 35.096v.452M416.895 35.548v-.452"/><path clip-path="url(#l)" fill="#00E7F6" d="M472.039 35.548V36M416.895 36v-.452"/><path clip-path="url(#l)" fill="#00E8F7" d="M472.039 36v.453M416.895 36.453V36"/><path clip-path="url(#l)" fill="#00E9F7" d="M472.039 36.452v.451M416.895 36.903v-.451"/><path clip-path="url(#l)" fill="#00EAF8" d="M472.039 36.903v.452M416.895 37.355v-.452"/><path clip-path="url(#l)" fill="#00EBF8" d="M472.039 37.355v.453M416.895 37.808v-.453"/><path clip-path="url(#l)" fill="#00ECF8" d="M472.039 37.808v.451M416.895 38.259v-.451"/><path clip-path="url(#l)" fill="#00EEF9" d="M472.039 38.258v.452M416.895 38.71v-.452"/><path clip-path="url(#l)" fill="#00EFF9" d="M416.895 39.023v-.313M472.039 38.71v.313"/></g><g clip-path="url(#b)"><defs><path id="m" d="M0 1139.333v-1300h1920v1300"/></defs><clipPath id="n"><use xlink:href="#m" overflow="visible"/></clipPath><g clip-path="url(#n)"><clipPath id="p"><use xlink:href="#o" overflow="visible"/></clipPath><clipPath id="r" clip-path="url(#p)"><use xlink:href="#q" overflow="visible"/></clipPath><g clip-path="url(#r)"><defs><path id="s" d="M519.77-63.569h-139.2v138.72h139.2"/></defs></g></g></g></svg>