<?xml version="1.0" encoding="utf-8"?>
<!-- Generator: Adobe Illustrator 16.0.3, SVG Export Plug-In . SVG Version: 6.00 Build 0)  -->
<!DOCTYPE svg PUBLIC "-//W3C//DTD SVG 1.1//EN" "http://www.w3.org/Graphics/SVG/1.1/DTD/svg11.dtd" [
	<!ENTITY ns_flows "http://ns.adobe.com/Flows/1.0/">
	<!ENTITY ns_extend "http://ns.adobe.com/Extensibility/1.0/">
	<!ENTITY ns_ai "http://ns.adobe.com/AdobeIllustrator/10.0/">
	<!ENTITY ns_graphs "http://ns.adobe.com/Graphs/1.0/">
]>
<svg version="1.1" id="Capa_1" xmlns:x="&ns_extend;" xmlns:i="&ns_ai;" xmlns:graph="&ns_graphs;"
	 xmlns="http://www.w3.org/2000/svg" xmlns:xlink="http://www.w3.org/1999/xlink" xmlns:a="http://ns.adobe.com/AdobeSVGViewerExtensions/3.0/"
	 x="0px" y="0px" width="174.38px" height="50.75px" viewBox="0 0 174.38 50.75" enable-background="new 0 0 174.38 50.75"
	 xml:space="preserve">
<g>
	<defs>
		<polyline id="SVGID_1_" points="1353.88,1137.5 1353.88,-162.5 -566.13,-162.5 -566.13,1137.5 		"/>
	</defs>
	<clipPath id="SVGID_2_">
		<use xlink:href="#SVGID_1_"  overflow="visible"/>
	</clipPath>
	<g clip-path="url(#SVGID_2_)">
		<defs>
			<polyline id="SVGID_3_" points="-566.13,1137.5 -566.13,-162.5 1353.88,-162.5 1353.88,1137.5 			"/>
		</defs>
		<clipPath id="SVGID_4_">
			<use xlink:href="#SVGID_3_"  overflow="visible"/>
		</clipPath>
	</g>
	<g clip-path="url(#SVGID_2_)">
		<defs>
			<polyline id="SVGID_5_" points="-566.13,1137.5 -566.13,-162.5 1353.88,-162.5 1353.88,1137.5 			"/>
		</defs>
		<clipPath id="SVGID_6_">
			<use xlink:href="#SVGID_5_"  overflow="visible"/>
		</clipPath>
	</g>
	<g clip-path="url(#SVGID_2_)">
		<defs>
			<polyline id="SVGID_7_" points="-566.13,1137.5 -566.13,-162.5 1353.88,-162.5 1353.88,1137.5 			"/>
		</defs>
		<clipPath id="SVGID_8_">
			<use xlink:href="#SVGID_7_"  overflow="visible"/>
		</clipPath>
		<g opacity="0.25" clip-path="url(#SVGID_8_)">
			<g>
				<g opacity="0.25">
					<g>
						<line fill="#007DF2" x1="462.07" y1="727.63" x2="462.07" y2="730.21"/>
					</g>
				</g>
			</g>
		</g>
	</g>
	<g clip-path="url(#SVGID_2_)">
		<defs>
			<polyline id="SVGID_9_" points="-566.13,1137.5 -566.13,-162.5 1353.88,-162.5 1353.88,1137.5 			"/>
		</defs>
		<clipPath id="SVGID_10_">
			<use xlink:href="#SVGID_9_"  overflow="visible"/>
		</clipPath>
		<g opacity="0.8" clip-path="url(#SVGID_10_)">
			<g>
				<defs>
					<rect id="SVGID_11_" x="239.97" y="10.57" width="237.78" height="29.76"/>
				</defs>
				<clipPath id="SVGID_12_">
					<use xlink:href="#SVGID_11_"  overflow="visible"/>
				</clipPath>
			</g>
		</g>
	</g>
	<g clip-path="url(#SVGID_2_)">
		<defs>
			<polyline id="SVGID_13_" points="-566.13,1137.5 -566.13,-162.5 1353.88,-162.5 1353.88,1137.5 			"/>
		</defs>
		<clipPath id="SVGID_14_">
			<use xlink:href="#SVGID_13_"  overflow="visible"/>
		</clipPath>
		<path clip-path="url(#SVGID_14_)" fill="#00FFFF" d="M323.22,25.43 M323.22,22.56c-0.06,0-0.1,0.04-0.1,0.1"/>
		<g opacity="0.8" clip-path="url(#SVGID_14_)">
			<g>
				<defs>
					<rect id="SVGID_15_" x="5.16" y="10.57" width="32.23" height="28.72"/>
				</defs>
				<clipPath id="SVGID_16_">
					<use xlink:href="#SVGID_15_"  overflow="visible"/>
				</clipPath>
				<polygon clip-path="url(#SVGID_16_)" fill="#10ADC8" points="37.39,10.57 24.44,39.29 5.16,39.13 5.16,26.31 12.26,10.57 				
					"/>
			</g>
		</g>
		<g opacity="0.8" clip-path="url(#SVGID_14_)">
			<g>
				<defs>
					<rect id="SVGID_17_" x="28.64" y="10.57" width="18.1" height="28.79"/>
				</defs>
				<clipPath id="SVGID_18_">
					<use xlink:href="#SVGID_17_"  overflow="visible"/>
				</clipPath>
				<polygon clip-path="url(#SVGID_18_)" fill="#10ADC8" points="46.73,10.57 33.78,39.29 33.72,39.36 33.71,39.36 28.64,39.32 
					41.6,10.57 				"/>
			</g>
		</g>
		<path clip-path="url(#SVGID_14_)" fill="#043848" d="M10.43,0.77L0.74,22.25V48.9l161.6,1.24h0.1l10.93-24.24l0.07-0.16V0.77
			H10.43z M172.95,25.28l-10.71,23.75L1.24,47.8V22.71l9.4-20.83h162.31V25.28z"/>
		<path clip-path="url(#SVGID_14_)" fill="#085967" d="M11.05,4.1L2.24,23.63v21.95l159.41,1.22l0.17,0l10.13-22.45V4.1H11.05z
			 M171.11,23.59l-9.64,21.37L3.08,43.74V24.4L11.4,5.95h159.71V23.59z"/>
		<g opacity="0.8" clip-path="url(#SVGID_14_)">
			<g>
				<defs>
					<rect id="SVGID_19_" x="37.95" y="10.57" width="18.13" height="28.86"/>
				</defs>
				<clipPath id="SVGID_20_">
					<use xlink:href="#SVGID_19_"  overflow="visible"/>
				</clipPath>
				<polygon clip-path="url(#SVGID_20_)" fill="#10ADC8" points="56.08,10.57 43.12,39.29 42.99,39.43 37.95,39.39 50.95,10.57 				
					"/>
			</g>
		</g>
		<g opacity="0.8" clip-path="url(#SVGID_14_)">
			<g>
				<defs>
					<rect id="SVGID_21_" x="47.26" y="10.57" width="121.77" height="29.76"/>
				</defs>
				<clipPath id="SVGID_22_">
					<use xlink:href="#SVGID_21_"  overflow="visible"/>
				</clipPath>
				<polygon clip-path="url(#SVGID_22_)" fill="#10ADC8" points="169.03,10.57 169.03,21.68 160.62,40.33 47.26,39.47 60.29,10.57 
									"/>
			</g>
		</g>
		<path clip-path="url(#SVGID_14_)" fill="#10ADC8" d="M737.92,39.29"/>
	</g>
	<g clip-path="url(#SVGID_2_)">
		<defs>
			<path id="SVGID_23_" d="M-127.34,9.22 M-94.09,33.73"/>
		</defs>
		<clipPath id="SVGID_24_">
			<use xlink:href="#SVGID_23_"  overflow="visible"/>
		</clipPath>
		<rect x="-119.39" y="9.72" clip-path="url(#SVGID_24_)" fill="#00ACF9" width="2.22" height="0.1"/>
		<rect x="-119.39" y="9.81" clip-path="url(#SVGID_24_)" fill="#00AEF8" width="2.22" height="0.29"/>
		<rect x="-119.39" y="10.1" clip-path="url(#SVGID_24_)" fill="#00AFF8" width="2.22" height="0.29"/>
		<rect x="-119.39" y="10.39" clip-path="url(#SVGID_24_)" fill="#00B0F8" width="2.22" height="0.29"/>
		<rect x="-119.39" y="10.68" clip-path="url(#SVGID_24_)" fill="#00B2F8" width="2.22" height="0.29"/>
		<rect x="-119.39" y="10.97" clip-path="url(#SVGID_24_)" fill="#00B3F8" width="2.22" height="0.29"/>
		<rect x="-119.39" y="11.26" clip-path="url(#SVGID_24_)" fill="#00B4F8" width="2.22" height="0.29"/>
		<rect x="-119.39" y="11.55" clip-path="url(#SVGID_24_)" fill="#00B6F7" width="2.22" height="0.29"/>
		<rect x="-119.4" y="11.83" clip-path="url(#SVGID_24_)" fill="#00B7F7" width="2.22" height="0.1"/>
		<rect x="-121.58" y="2.02" clip-path="url(#SVGID_24_)" fill="#0080FF" width="2.23" height="0.29"/>
		<rect x="-121.58" y="2.31" clip-path="url(#SVGID_24_)" fill="#0082FF" width="2.23" height="0.23"/>
		<rect x="-125.01" y="6.28" clip-path="url(#SVGID_24_)" fill="#009AFB" width="1.86" height="0.07"/>
		<rect x="-125.01" y="6.35" clip-path="url(#SVGID_24_)" fill="#009BFB" width="1.86" height="0.29"/>
		<rect x="-125.01" y="6.64" clip-path="url(#SVGID_24_)" fill="#009DFB" width="1.86" height="0.29"/>
		<rect x="-125.01" y="6.93" clip-path="url(#SVGID_24_)" fill="#009FFB" width="1.86" height="0.29"/>
		<rect x="-125.01" y="7.21" clip-path="url(#SVGID_24_)" fill="#00A0FA" width="1.86" height="0.29"/>
		<rect x="-125.01" y="7.5" clip-path="url(#SVGID_24_)" fill="#00A2FA" width="1.86" height="0.29"/>
		<rect x="-125.01" y="7.79" clip-path="url(#SVGID_24_)" fill="#00A3FA" width="1.86" height="0.29"/>
		<rect x="-125.01" y="8.08" clip-path="url(#SVGID_24_)" fill="#00A5FA" width="1.86" height="0.06"/>
		<rect x="-125.24" y="9.38" clip-path="url(#SVGID_24_)" fill="#00ABF9" width="1.74" height="0.15"/>
		<rect x="-125.24" y="9.52" clip-path="url(#SVGID_24_)" fill="#00ACF9" width="1.74" height="0.29"/>
		<rect x="-125.24" y="9.81" clip-path="url(#SVGID_24_)" fill="#00AEF8" width="1.74" height="0.29"/>
		<rect x="-125.24" y="10.1" clip-path="url(#SVGID_24_)" fill="#00AFF8" width="1.74" height="0.29"/>
		<rect x="-125.24" y="10.39" clip-path="url(#SVGID_24_)" fill="#00B0F8" width="1.74" height="0.29"/>
		<rect x="-125.24" y="10.68" clip-path="url(#SVGID_24_)" fill="#00B2F8" width="1.74" height="0.29"/>
		<rect x="-125.24" y="10.97" clip-path="url(#SVGID_24_)" fill="#00B3F8" width="1.74" height="0.16"/>
		<rect x="-128.15" y="9.22" clip-path="url(#SVGID_24_)" fill="#00A9F9" width="1.48" height="0.01"/>
		<rect x="-128.15" y="9.24" clip-path="url(#SVGID_24_)" fill="#00ABF9" width="1.48" height="0.29"/>
		<line clip-path="url(#SVGID_24_)" fill="#00ACF9" x1="-128.15" y1="9.52" x2="-126.67" y2="9.52"/>
		<rect x="-134.81" y="5.99" clip-path="url(#SVGID_24_)" fill="#0098FC" width="1.8" height="0.07"/>
		<rect x="-134.81" y="6.06" clip-path="url(#SVGID_24_)" fill="#009AFB" width="1.8" height="0.29"/>
		<rect x="-134.81" y="6.35" clip-path="url(#SVGID_24_)" fill="#009BFB" width="1.8" height="0.29"/>
		<rect x="-134.81" y="6.64" clip-path="url(#SVGID_24_)" fill="#009DFB" width="1.8" height="0.29"/>
		<rect x="-134.81" y="6.93" clip-path="url(#SVGID_24_)" fill="#009FFB" width="1.8" height="0.29"/>
		<rect x="-134.81" y="7.21" clip-path="url(#SVGID_24_)" fill="#00A0FA" width="1.8" height="0.29"/>
		<rect x="-134.81" y="7.5" clip-path="url(#SVGID_24_)" fill="#00A2FA" width="1.8" height="0.28"/>
		<rect x="-137.51" y="12.94" clip-path="url(#SVGID_24_)" fill="#00BBF7" width="1.34" height="0.05"/>
		<rect x="-137.51" y="12.99" clip-path="url(#SVGID_24_)" fill="#00BCF6" width="1.34" height="0.29"/>
		<rect x="-137.51" y="13.28" clip-path="url(#SVGID_24_)" fill="#00BDF6" width="1.34" height="0.29"/>
		<rect x="-137.51" y="13.57" clip-path="url(#SVGID_24_)" fill="#00BEF6" width="1.34" height="0.29"/>
		<rect x="-137.51" y="13.86" clip-path="url(#SVGID_24_)" fill="#00BFF6" width="1.34" height="0.29"/>
		<rect x="-137.51" y="14.15" clip-path="url(#SVGID_24_)" fill="#00C0F6" width="1.34" height="0.14"/>
		<rect x="-138.52" y="7.24" clip-path="url(#SVGID_24_)" fill="#00A0FA" width="1.63" height="0.26"/>
		<rect x="-138.52" y="7.5" clip-path="url(#SVGID_24_)" fill="#00A2FA" width="1.63" height="0.29"/>
		<rect x="-138.52" y="7.79" clip-path="url(#SVGID_24_)" fill="#00A3FA" width="1.63" height="0.29"/>
		<rect x="-138.52" y="8.08" clip-path="url(#SVGID_24_)" fill="#00A5FA" width="1.63" height="0.29"/>
		<rect x="-138.52" y="8.37" clip-path="url(#SVGID_24_)" fill="#00A6FA" width="1.63" height="0.29"/>
		<rect x="-138.52" y="8.66" clip-path="url(#SVGID_24_)" fill="#00A8F9" width="1.63" height="0.21"/>
		<rect x="-144.42" y="11.88" clip-path="url(#SVGID_24_)" fill="#00B7F7" width="1.11" height="0.25"/>
		<rect x="-144.42" y="12.12" clip-path="url(#SVGID_24_)" fill="#00B8F7" width="1.11" height="0.29"/>
		<rect x="-144.42" y="12.41" clip-path="url(#SVGID_24_)" fill="#00B9F7" width="1.11" height="0.29"/>
		<rect x="-144.42" y="12.7" clip-path="url(#SVGID_24_)" fill="#00BBF7" width="1.11" height="0.29"/>
		<path clip-path="url(#SVGID_24_)" fill="#00BCF6" d="M-144.42,12.99h1.11H-144.42z"/>
		<rect x="-149.23" y="2.02" clip-path="url(#SVGID_24_)" fill="#0080FF" width="55.14" height="0.29"/>
		<rect x="-149.23" y="2.31" clip-path="url(#SVGID_24_)" fill="#0082FF" width="55.14" height="0.29"/>
		<rect x="-149.23" y="2.6" clip-path="url(#SVGID_24_)" fill="#0084FE" width="55.14" height="0.29"/>
		<rect x="-149.23" y="2.88" clip-path="url(#SVGID_24_)" fill="#0086FE" width="55.14" height="0.29"/>
		<rect x="-149.23" y="3.17" clip-path="url(#SVGID_24_)" fill="#0088FE" width="55.14" height="0.29"/>
		<rect x="-149.23" y="3.46" clip-path="url(#SVGID_24_)" fill="#008AFE" width="55.14" height="0.29"/>
		<rect x="-149.23" y="3.75" clip-path="url(#SVGID_24_)" fill="#008BFD" width="55.14" height="0.29"/>
		<rect x="-149.23" y="4.04" clip-path="url(#SVGID_24_)" fill="#008DFD" width="55.14" height="0.29"/>
		<rect x="-149.23" y="4.33" clip-path="url(#SVGID_24_)" fill="#008FFD" width="55.14" height="0.29"/>
		<rect x="-149.23" y="4.62" clip-path="url(#SVGID_24_)" fill="#0091FD" width="55.14" height="0.29"/>
		<rect x="-149.23" y="4.91" clip-path="url(#SVGID_24_)" fill="#0093FC" width="55.14" height="0.29"/>
		<rect x="-149.23" y="5.19" clip-path="url(#SVGID_24_)" fill="#0094FC" width="55.14" height="0.29"/>
		<rect x="-149.23" y="5.48" clip-path="url(#SVGID_24_)" fill="#0096FC" width="55.14" height="0.29"/>
		<rect x="-149.23" y="5.77" clip-path="url(#SVGID_24_)" fill="#0098FC" width="55.14" height="0.29"/>
		<rect x="-149.23" y="6.06" clip-path="url(#SVGID_24_)" fill="#009AFB" width="55.14" height="0.29"/>
		<rect x="-149.23" y="6.35" clip-path="url(#SVGID_24_)" fill="#009BFB" width="55.14" height="0.29"/>
		<rect x="-149.23" y="6.64" clip-path="url(#SVGID_24_)" fill="#009DFB" width="55.14" height="0.29"/>
		<rect x="-149.23" y="6.93" clip-path="url(#SVGID_24_)" fill="#009FFB" width="55.14" height="0.29"/>
		<rect x="-149.23" y="7.21" clip-path="url(#SVGID_24_)" fill="#00A0FA" width="55.14" height="0.29"/>
		<rect x="-149.23" y="7.5" clip-path="url(#SVGID_24_)" fill="#00A2FA" width="55.14" height="0.29"/>
		<rect x="-149.23" y="7.79" clip-path="url(#SVGID_24_)" fill="#00A3FA" width="55.14" height="0.29"/>
		<polyline clip-path="url(#SVGID_24_)" fill="#00A5FA" points="-94.09,8.08 -94.09,8.37 -149.23,8.37 -149.23,8.08 		"/>
		<rect x="-149.23" y="8.37" clip-path="url(#SVGID_24_)" fill="#00A6FA" width="55.14" height="0.29"/>
		<rect x="-149.23" y="8.66" clip-path="url(#SVGID_24_)" fill="#00A8F9" width="55.14" height="0.29"/>
		<rect x="-149.23" y="8.95" clip-path="url(#SVGID_24_)" fill="#00A9F9" width="55.14" height="0.29"/>
		<rect x="-149.23" y="9.24" clip-path="url(#SVGID_24_)" fill="#00ABF9" width="55.14" height="0.29"/>
		<polyline clip-path="url(#SVGID_24_)" fill="#00ACF9" points="-149.23,9.81 -149.23,9.52 -94.09,9.52 -94.09,9.81 		"/>
		<line clip-path="url(#SVGID_24_)" fill="#00AEF8" x1="-94.09" y1="9.81" x2="-94.09" y2="10.1"/>
		<line clip-path="url(#SVGID_24_)" fill="#00AEF8" x1="-149.23" y1="10.1" x2="-149.23" y2="9.81"/>
		<line clip-path="url(#SVGID_24_)" fill="#00AFF8" x1="-94.09" y1="10.1" x2="-94.09" y2="10.39"/>
		<line clip-path="url(#SVGID_24_)" fill="#00AFF8" x1="-149.23" y1="10.39" x2="-149.23" y2="10.1"/>
		<line clip-path="url(#SVGID_24_)" fill="#00B0F8" x1="-94.09" y1="10.39" x2="-94.09" y2="10.68"/>
		<line clip-path="url(#SVGID_24_)" fill="#00B0F8" x1="-149.23" y1="10.68" x2="-149.23" y2="10.39"/>
		<line clip-path="url(#SVGID_24_)" fill="#00B2F8" x1="-94.09" y1="10.68" x2="-94.09" y2="10.97"/>
		<line clip-path="url(#SVGID_24_)" fill="#00B2F8" x1="-149.23" y1="10.97" x2="-149.23" y2="10.68"/>
		<line clip-path="url(#SVGID_24_)" fill="#00B3F8" x1="-94.09" y1="10.97" x2="-94.09" y2="11.26"/>
		<line clip-path="url(#SVGID_24_)" fill="#00B3F8" x1="-149.23" y1="11.26" x2="-149.23" y2="10.97"/>
		<line clip-path="url(#SVGID_24_)" fill="#00B4F8" x1="-94.09" y1="11.26" x2="-94.09" y2="11.55"/>
		<line clip-path="url(#SVGID_24_)" fill="#00B4F8" x1="-149.23" y1="11.55" x2="-149.23" y2="11.26"/>
		<line clip-path="url(#SVGID_24_)" fill="#00B6F7" x1="-94.09" y1="11.55" x2="-94.09" y2="11.83"/>
		<line clip-path="url(#SVGID_24_)" fill="#00B6F7" x1="-149.23" y1="11.83" x2="-149.23" y2="11.55"/>
		<line clip-path="url(#SVGID_24_)" fill="#00B7F7" x1="-94.09" y1="11.83" x2="-94.09" y2="12.12"/>
		<line clip-path="url(#SVGID_24_)" fill="#00B7F7" x1="-149.23" y1="12.12" x2="-149.23" y2="11.83"/>
		<line clip-path="url(#SVGID_24_)" fill="#00B8F7" x1="-94.09" y1="12.12" x2="-94.09" y2="12.41"/>
		<line clip-path="url(#SVGID_24_)" fill="#00B8F7" x1="-149.23" y1="12.41" x2="-149.23" y2="12.12"/>
		<line clip-path="url(#SVGID_24_)" fill="#00B9F7" x1="-94.09" y1="12.41" x2="-94.09" y2="12.7"/>
		<line clip-path="url(#SVGID_24_)" fill="#00B9F7" x1="-149.23" y1="12.7" x2="-149.23" y2="12.41"/>
		<line clip-path="url(#SVGID_24_)" fill="#00BBF7" x1="-94.09" y1="12.7" x2="-94.09" y2="12.99"/>
		<line clip-path="url(#SVGID_24_)" fill="#00BBF7" x1="-149.23" y1="12.99" x2="-149.23" y2="12.7"/>
		<line clip-path="url(#SVGID_24_)" fill="#00BCF6" x1="-94.09" y1="12.99" x2="-94.09" y2="13.28"/>
		<line clip-path="url(#SVGID_24_)" fill="#00BCF6" x1="-149.23" y1="13.28" x2="-149.23" y2="12.99"/>
		<line clip-path="url(#SVGID_24_)" fill="#00BDF6" x1="-94.09" y1="13.28" x2="-94.09" y2="13.57"/>
		<line clip-path="url(#SVGID_24_)" fill="#00BDF6" x1="-149.23" y1="13.57" x2="-149.23" y2="13.28"/>
		<line clip-path="url(#SVGID_24_)" fill="#00BEF6" x1="-94.09" y1="13.57" x2="-94.09" y2="13.86"/>
		<line clip-path="url(#SVGID_24_)" fill="#00BEF6" x1="-149.23" y1="13.86" x2="-149.23" y2="13.57"/>
		<line clip-path="url(#SVGID_24_)" fill="#00BFF6" x1="-94.09" y1="13.86" x2="-94.09" y2="14.15"/>
		<line clip-path="url(#SVGID_24_)" fill="#00BFF6" x1="-149.23" y1="14.15" x2="-149.23" y2="13.86"/>
		<line clip-path="url(#SVGID_24_)" fill="#00C0F6" x1="-94.09" y1="14.15" x2="-94.09" y2="14.43"/>
		<line clip-path="url(#SVGID_24_)" fill="#00C0F6" x1="-149.23" y1="14.43" x2="-149.23" y2="14.15"/>
		<line clip-path="url(#SVGID_24_)" fill="#00C1F6" x1="-94.09" y1="14.43" x2="-94.09" y2="14.72"/>
		<line clip-path="url(#SVGID_24_)" fill="#00C1F6" x1="-149.23" y1="14.72" x2="-149.23" y2="14.43"/>
		<line clip-path="url(#SVGID_24_)" fill="#00C2F6" x1="-94.09" y1="14.72" x2="-94.09" y2="15.01"/>
		<line clip-path="url(#SVGID_24_)" fill="#00C2F6" x1="-149.23" y1="15.01" x2="-149.23" y2="14.72"/>
		<line clip-path="url(#SVGID_24_)" fill="#00C3F5" x1="-94.09" y1="15.01" x2="-94.09" y2="15.3"/>
		<line clip-path="url(#SVGID_24_)" fill="#00C3F5" x1="-149.23" y1="15.3" x2="-149.23" y2="15.01"/>
		<line clip-path="url(#SVGID_24_)" fill="#00CDF4" x1="-94.09" y1="17.9" x2="-94.09" y2="18.19"/>
		<line clip-path="url(#SVGID_24_)" fill="#00CDF4" x1="-94.09" y1="18.19" x2="-94.09" y2="18.48"/>
		<line clip-path="url(#SVGID_24_)" fill="#00CEF4" x1="-94.09" y1="18.48" x2="-94.09" y2="18.77"/>
		<line clip-path="url(#SVGID_24_)" fill="#00CFF4" x1="-94.09" y1="18.76" x2="-94.09" y2="19.05"/>
		<line clip-path="url(#SVGID_24_)" fill="#00D0F4" x1="-94.09" y1="19.05" x2="-94.09" y2="19.34"/>
		<line clip-path="url(#SVGID_24_)" fill="#00D0F4" x1="-94.09" y1="19.34" x2="-94.09" y2="19.63"/>
		<line clip-path="url(#SVGID_24_)" fill="#00D1F3" x1="-94.09" y1="19.63" x2="-94.09" y2="19.92"/>
		<line clip-path="url(#SVGID_24_)" fill="#00D2F3" x1="-94.09" y1="19.92" x2="-94.09" y2="20.21"/>
		<line clip-path="url(#SVGID_24_)" fill="#00D2F3" x1="-94.09" y1="20.21" x2="-94.09" y2="20.5"/>
		<line clip-path="url(#SVGID_24_)" fill="#00D3F3" x1="-94.09" y1="20.5" x2="-94.09" y2="20.79"/>
		<line clip-path="url(#SVGID_24_)" fill="#00D4F3" x1="-94.09" y1="20.79" x2="-94.09" y2="21.07"/>
		<line clip-path="url(#SVGID_24_)" fill="#00D4F3" x1="-94.09" y1="21.07" x2="-94.09" y2="21.36"/>
		<line clip-path="url(#SVGID_24_)" fill="#00D5F3" x1="-94.09" y1="21.36" x2="-94.09" y2="21.65"/>
		<line clip-path="url(#SVGID_24_)" fill="#00D5F3" x1="-94.09" y1="21.65" x2="-94.09" y2="21.94"/>
		<line clip-path="url(#SVGID_24_)" fill="#00D6F3" x1="-94.09" y1="21.94" x2="-94.09" y2="22.23"/>
		<line clip-path="url(#SVGID_24_)" fill="#00D6F3" x1="-94.09" y1="22.23" x2="-94.09" y2="22.52"/>
		<line clip-path="url(#SVGID_24_)" fill="#00D7F3" x1="-94.09" y1="22.52" x2="-94.09" y2="22.81"/>
		<line clip-path="url(#SVGID_24_)" fill="#00D7F3" x1="-94.09" y1="22.81" x2="-94.09" y2="23.1"/>
		<line clip-path="url(#SVGID_24_)" fill="#00D7F3" x1="-94.09" y1="23.1" x2="-94.09" y2="23.38"/>
		<line clip-path="url(#SVGID_24_)" fill="#00D8F2" x1="-94.09" y1="23.38" x2="-94.09" y2="23.67"/>
		<line clip-path="url(#SVGID_24_)" fill="#00D8F2" x1="-94.09" y1="23.67" x2="-94.09" y2="23.96"/>
		<line clip-path="url(#SVGID_24_)" fill="#00D9F2" x1="-94.09" y1="23.96" x2="-94.09" y2="24.25"/>
		<line clip-path="url(#SVGID_24_)" fill="#00D9F2" x1="-94.09" y1="24.25" x2="-94.09" y2="24.54"/>
		<line clip-path="url(#SVGID_24_)" fill="#00D9F2" x1="-94.09" y1="24.54" x2="-94.09" y2="24.83"/>
		<line clip-path="url(#SVGID_24_)" fill="#00D9F2" x1="-94.09" y1="24.83" x2="-94.09" y2="25.12"/>
		<line clip-path="url(#SVGID_24_)" fill="#00DAF2" x1="-94.09" y1="25.12" x2="-94.09" y2="25.41"/>
		<line clip-path="url(#SVGID_24_)" fill="#00DAF2" x1="-94.09" y1="25.41" x2="-94.09" y2="25.69"/>
		<line clip-path="url(#SVGID_24_)" fill="#00DAF2" x1="-94.09" y1="25.69" x2="-94.09" y2="25.98"/>
		<line clip-path="url(#SVGID_24_)" fill="#00DAF2" x1="-94.09" y1="25.98" x2="-94.09" y2="26.27"/>
		<line clip-path="url(#SVGID_24_)" fill="#00DBF2" x1="-94.09" y1="26.27" x2="-94.09" y2="26.56"/>
		<line clip-path="url(#SVGID_24_)" fill="#00DBF2" x1="-94.09" y1="26.56" x2="-94.09" y2="26.85"/>
		<line clip-path="url(#SVGID_24_)" fill="#00DBF2" x1="-94.09" y1="26.85" x2="-94.09" y2="27.14"/>
		<line clip-path="url(#SVGID_24_)" fill="#00DBF2" x1="-94.09" y1="27.14" x2="-94.09" y2="27.43"/>
		<line clip-path="url(#SVGID_24_)" fill="#00DBF2" x1="-94.09" y1="27.43" x2="-94.09" y2="27.71"/>
		<line clip-path="url(#SVGID_24_)" fill="#00DBF2" x1="-94.09" y1="27.71" x2="-94.09" y2="28"/>
		<line clip-path="url(#SVGID_24_)" fill="#00DBF2" x1="-94.09" y1="28" x2="-94.09" y2="28.29"/>
		<line clip-path="url(#SVGID_24_)" fill="#00DBF2" x1="-94.09" y1="28.29" x2="-94.09" y2="28.75"/>
		<line clip-path="url(#SVGID_24_)" fill="#00DCF2" x1="-94.09" y1="28.75" x2="-94.09" y2="29.2"/>
		<line clip-path="url(#SVGID_24_)" fill="#00DDF3" x1="-94.09" y1="29.2" x2="-94.09" y2="29.65"/>
		<line clip-path="url(#SVGID_24_)" fill="#00DEF3" x1="-94.09" y1="29.65" x2="-94.09" y2="30.1"/>
		<line clip-path="url(#SVGID_24_)" fill="#00DFF3" x1="-94.09" y1="30.1" x2="-94.09" y2="30.55"/>
		<line clip-path="url(#SVGID_24_)" fill="#00E0F4" x1="-94.09" y1="30.55" x2="-94.09" y2="31"/>
		<line clip-path="url(#SVGID_24_)" fill="#00E1F4" x1="-94.09" y1="31" x2="-94.09" y2="31.46"/>
		<line clip-path="url(#SVGID_24_)" fill="#00E2F5" x1="-94.09" y1="31.46" x2="-94.09" y2="31.91"/>
		<line clip-path="url(#SVGID_24_)" fill="#00E3F5" x1="-94.09" y1="31.91" x2="-94.09" y2="32.36"/>
		<line clip-path="url(#SVGID_24_)" fill="#00E4F5" x1="-94.09" y1="32.36" x2="-94.09" y2="32.81"/>
		<line clip-path="url(#SVGID_24_)" fill="#00E5F6" x1="-94.09" y1="32.81" x2="-94.09" y2="33.26"/>
		<line clip-path="url(#SVGID_24_)" fill="#00E6F6" x1="-94.09" y1="33.26" x2="-94.09" y2="33.71"/>
		<line clip-path="url(#SVGID_24_)" fill="#00E7F6" x1="-94.09" y1="33.71" x2="-94.09" y2="34.17"/>
		<line clip-path="url(#SVGID_24_)" fill="#00E8F7" x1="-94.09" y1="34.17" x2="-94.09" y2="34.62"/>
		<line clip-path="url(#SVGID_24_)" fill="#00E9F7" x1="-94.09" y1="34.62" x2="-94.09" y2="35.07"/>
		<line clip-path="url(#SVGID_24_)" fill="#00EAF8" x1="-94.09" y1="35.07" x2="-94.09" y2="35.52"/>
		<line clip-path="url(#SVGID_24_)" fill="#00EBF8" x1="-94.09" y1="35.52" x2="-94.09" y2="35.97"/>
		<line clip-path="url(#SVGID_24_)" fill="#00ECF8" x1="-94.09" y1="35.97" x2="-94.09" y2="36.43"/>
		<line clip-path="url(#SVGID_24_)" fill="#00EEF9" x1="-94.09" y1="36.42" x2="-94.09" y2="36.88"/>
		<line clip-path="url(#SVGID_24_)" fill="#00EFF9" x1="-94.09" y1="36.88" x2="-94.09" y2="37.19"/>
	</g>
	<g clip-path="url(#SVGID_2_)">
		<defs>
			<line id="SVGID_25_" x1="-137.25" y1="-19.5" x2="-137.44" y2="-18.4"/>
		</defs>
		<clipPath id="SVGID_26_">
			<use xlink:href="#SVGID_25_"  overflow="visible"/>
		</clipPath>
		<line clip-path="url(#SVGID_26_)" fill="#0029FF" x1="-137.44" y1="-18.31" x2="-137.44" y2="-19.5"/>
		<line clip-path="url(#SVGID_26_)" fill="#0029FF" x1="-137.44" y1="-18.22" x2="-137.44" y2="-18.31"/>
	</g>
	<g clip-path="url(#SVGID_2_)">
		<defs>
			<path id="SVGID_27_" d="M-137.59-17.8"/>
		</defs>
		<clipPath id="SVGID_28_">
			<use xlink:href="#SVGID_27_"  overflow="visible"/>
		</clipPath>
		<line clip-path="url(#SVGID_28_)" fill="#002CFF" x1="-137.79" y1="-17.56" x2="-137.79" y2="-17.8"/>
		<path clip-path="url(#SVGID_28_)" fill="#002EFF" d="M-137.79-17.56"/>
	</g>
</g>
</svg>
