<svg xmlns="http://www.w3.org/2000/svg" xmlns:xlink="http://www.w3.org/1999/xlink" width="165.3" height="30.5" xml:space="preserve"><defs><path id="a" d="M1349.5 1127.6v-1300h-1920v1300"/></defs><clipPath id="b"><use xlink:href="#a" overflow="visible"/></clipPath><g clip-path="url(#b)"><defs><path id="c" d="M-570.5 1127.6v-1300h1920v1300"/></defs></g><g clip-path="url(#b)"><defs><path id="d" d="M-570.5 1127.6v-1300h1920v1300"/></defs></g><g clip-path="url(#b)"><defs><path id="e" d="M-570.5 1127.6v-1300h1920v1300"/></defs><clipPath id="f"><use xlink:href="#e" overflow="visible"/></clipPath><g opacity=".25" clip-path="url(#f)"><path fill="#007DF2" d="M457.7 717.8v2.5" opacity=".25"/></g></g><g clip-path="url(#b)"><defs><path id="g" d="M-570.5 1127.6v-1300h1920v1300"/></defs><clipPath id="h"><use xlink:href="#g" overflow="visible"/></clipPath><g opacity=".8" clip-path="url(#h)"><defs><path id="i" d="M235.6.7h237.8v29.8H235.6z"/></defs></g></g><g clip-path="url(#b)"><defs><path id="j" d="M-570.5 1127.6v-1300h1920v1300"/></defs><clipPath id="k"><use xlink:href="#j" overflow="visible"/></clipPath><path clip-path="url(#k)" fill="#0FF" d="M318.8 12.7"/><g opacity=".8" clip-path="url(#k)"><defs><path id="l" d="M.8.7H33v28.7H.8z"/></defs><clipPath id="m"><use xlink:href="#l" overflow="visible"/></clipPath><path clip-path="url(#m)" fill="#10ADC8" d="M33 .7 20.1 29.4.8 29.3V16.4L7.9.7z"/></g><g opacity=".8" clip-path="url(#k)"><defs><path id="n" d="M24.3.7h18.1v28.8H24.3z"/></defs><clipPath id="o"><use xlink:href="#n" overflow="visible"/></clipPath><path clip-path="url(#o)" fill="#10ADC8" d="m42.4.7-13 28.7-.1.1-5-.1L37.2.7z"/></g><g opacity=".8" clip-path="url(#k)"><defs><path id="p" d="M33.6.7h18.1v28.9H33.6z"/></defs><clipPath id="q"><use xlink:href="#p" overflow="visible"/></clipPath><path clip-path="url(#q)" fill="#10ADC8" d="m51.7.7-13 28.7-.1.2-5-.1L46.6.7z"/></g><g opacity=".8" clip-path="url(#k)"><defs><path id="r" d="M42.9.7h121.8v29.8H42.9z"/></defs><clipPath id="s"><use xlink:href="#r" overflow="visible"/></clipPath><path clip-path="url(#s)" fill="#10ADC8" d="M164.7.7v11.1l-8.5 18.7-113.3-.9L55.9.7z"/></g></g><g clip-path="url(#b)"><defs><path id="t" d="M-98.5 23.9"/></defs><clipPath id="u"><use xlink:href="#t" overflow="visible"/></clipPath><path clip-path="url(#u)" fill="#00ACF9" d="M-123.8-.2h2.2v.1h-2.2z"/><path clip-path="url(#u)" fill="#00AEF8" d="M-123.8-.1h2.2v.3h-2.2z"/><path clip-path="url(#u)" fill="#00AFF8" d="M-123.8.2h2.2v.3h-2.2z"/><path clip-path="url(#u)" fill="#00B0F8" d="M-123.8.5h2.2v.3h-2.2z"/><path clip-path="url(#u)" fill="#00B2F8" d="M-123.8.8h2.2v.3h-2.2z"/><path clip-path="url(#u)" fill="#00B3F8" d="M-123.8 1.1h2.2v.3h-2.2z"/><path clip-path="url(#u)" fill="#00B4F8" d="M-123.8 1.4h2.2v.3h-2.2z"/><path clip-path="url(#u)" fill="#00B6F7" d="M-123.8 1.7h2.2V2h-2.2z"/><path clip-path="url(#u)" fill="#00B7F7" d="M-123.8 2h2.2v.1h-2.2z"/><path clip-path="url(#u)" fill="#0080FF" d="M-126-7.9h2.2v.3h-2.2z"/><path clip-path="url(#u)" fill="#0082FF" d="M-126-7.6h2.2v.2h-2.2z"/><path clip-path="url(#u)" fill="#009AFB" d="M-129.4-3.6h1.9v.1h-1.9z"/><path clip-path="url(#u)" fill="#009BFB" d="M-129.4-3.5h1.9v.3h-1.9z"/><path clip-path="url(#u)" fill="#009DFB" d="M-129.4-3.2h1.9v.3h-1.9z"/><path clip-path="url(#u)" fill="#009FFB" d="M-129.4-2.9h1.9v.3h-1.9z"/><path clip-path="url(#u)" fill="#00A0FA" d="M-129.4-2.7h1.9v.3h-1.9z"/><path clip-path="url(#u)" fill="#00A2FA" d="M-129.4-2.4h1.9v.3h-1.9z"/><path clip-path="url(#u)" fill="#00A3FA" d="M-129.4-2.1h1.9v.3h-1.9z"/><path clip-path="url(#u)" fill="#00A5FA" d="M-129.4-1.8h1.9v.1h-1.9z"/><path clip-path="url(#u)" fill="#00ABF9" d="M-129.6-.5h1.7v.1h-1.7z"/><path clip-path="url(#u)" fill="#00ACF9" d="M-129.6-.4h1.7v.3h-1.7z"/><path clip-path="url(#u)" fill="#00AEF8" d="M-129.6-.1h1.7v.3h-1.7z"/><path clip-path="url(#u)" fill="#00AFF8" d="M-129.6.2h1.7v.3h-1.7z"/><path clip-path="url(#u)" fill="#00B0F8" d="M-129.6.5h1.7v.3h-1.7z"/><path clip-path="url(#u)" fill="#00B2F8" d="M-129.6.8h1.7v.3h-1.7z"/><path clip-path="url(#u)" fill="#00B3F8" d="M-129.6 1.1h1.7v.2h-1.7z"/><path clip-path="url(#u)" fill="#00ABF9" d="M-132.5-.6h1.5v.3h-1.5z"/><path clip-path="url(#u)" fill="#00ACF9" d="M-132.5-.4h1.5"/><path clip-path="url(#u)" fill="#0098FC" d="M-139.2-3.9h1.8v.1h-1.8z"/><path clip-path="url(#u)" fill="#009AFB" d="M-139.2-3.8h1.8v.3h-1.8z"/><path clip-path="url(#u)" fill="#009BFB" d="M-139.2-3.5h1.8v.3h-1.8z"/><path clip-path="url(#u)" fill="#009DFB" d="M-139.2-3.2h1.8v.3h-1.8z"/><path clip-path="url(#u)" fill="#009FFB" d="M-139.2-2.9h1.8v.3h-1.8z"/><path clip-path="url(#u)" fill="#00A0FA" d="M-139.2-2.7h1.8v.3h-1.8z"/><path clip-path="url(#u)" fill="#00A2FA" d="M-139.2-2.4h1.8v.3h-1.8z"/><path clip-path="url(#u)" fill="#00BCF6" d="M-141.9 3.1h1.3v.3h-1.3z"/><path clip-path="url(#u)" fill="#00BDF6" d="M-141.9 3.4h1.3v.3h-1.3z"/><path clip-path="url(#u)" fill="#00BEF6" d="M-141.9 3.7h1.3V4h-1.3z"/><path clip-path="url(#u)" fill="#00BFF6" d="M-141.9 4h1.3v.3h-1.3z"/><path clip-path="url(#u)" fill="#00C0F6" d="M-141.9 4.3h1.3v.1h-1.3z"/><path clip-path="url(#u)" fill="#00A0FA" d="M-142.9-2.6h1.6v.3h-1.6z"/><path clip-path="url(#u)" fill="#00A2FA" d="M-142.9-2.4h1.6v.3h-1.6z"/><path clip-path="url(#u)" fill="#00A3FA" d="M-142.9-2.1h1.6v.3h-1.6z"/><path clip-path="url(#u)" fill="#00A5FA" d="M-142.9-1.8h1.6v.3h-1.6z"/><path clip-path="url(#u)" fill="#00A6FA" d="M-142.9-1.5h1.6v.3h-1.6z"/><path clip-path="url(#u)" fill="#00A8F9" d="M-142.9-1.2h1.6v.2h-1.6z"/><path clip-path="url(#u)" fill="#00B7F7" d="M-148.8 2h1.1v.2h-1.1z"/><path clip-path="url(#u)" fill="#00B8F7" d="M-148.8 2.2h1.1v.3h-1.1z"/><path clip-path="url(#u)" fill="#00B9F7" d="M-148.8 2.5h1.1v.3h-1.1z"/><path clip-path="url(#u)" fill="#00BBF7" d="M-148.8 2.8h1.1v.3h-1.1z"/><path clip-path="url(#u)" fill="#00BCF6" d="M-148.8 3.1h1.1-1.1z"/><path clip-path="url(#u)" fill="#0080FF" d="M-153.6-7.9h55.1v.3h-55.1z"/><path clip-path="url(#u)" fill="#0082FF" d="M-153.6-7.6h55.1v.3h-55.1z"/><path clip-path="url(#u)" fill="#0084FE" d="M-153.6-7.3h55.1v.3h-55.1z"/><path clip-path="url(#u)" fill="#0086FE" d="M-153.6-7h55.1v.3h-55.1z"/><path clip-path="url(#u)" fill="#0088FE" d="M-153.6-6.7h55.1v.3h-55.1z"/><path clip-path="url(#u)" fill="#008AFE" d="M-153.6-6.4h55.1v.3h-55.1z"/><path clip-path="url(#u)" fill="#008BFD" d="M-153.6-6.1h55.1v.3h-55.1z"/><path clip-path="url(#u)" fill="#008DFD" d="M-153.6-5.8h55.1v.3h-55.1z"/><path clip-path="url(#u)" fill="#008FFD" d="M-153.6-5.5h55.1v.3h-55.1z"/><path clip-path="url(#u)" fill="#0091FD" d="M-153.6-5.3h55.1v.3h-55.1z"/><path clip-path="url(#u)" fill="#0093FC" d="M-153.6-5h55.1v.3h-55.1z"/><path clip-path="url(#u)" fill="#0094FC" d="M-153.6-4.7h55.1v.3h-55.1z"/><path clip-path="url(#u)" fill="#0096FC" d="M-153.6-4.4h55.1v.3h-55.1z"/><path clip-path="url(#u)" fill="#0098FC" d="M-153.6-4.1h55.1v.3h-55.1z"/><path clip-path="url(#u)" fill="#009AFB" d="M-153.6-3.8h55.1v.3h-55.1z"/><path clip-path="url(#u)" fill="#009BFB" d="M-153.6-3.5h55.1v.3h-55.1z"/><path clip-path="url(#u)" fill="#009DFB" d="M-153.6-3.2h55.1v.3h-55.1z"/><path clip-path="url(#u)" fill="#009FFB" d="M-153.6-2.9h55.1v.3h-55.1z"/><path clip-path="url(#u)" fill="#00A0FA" d="M-153.6-2.7h55.1v.3h-55.1z"/><path clip-path="url(#u)" fill="#00A2FA" d="M-153.6-2.4h55.1v.3h-55.1z"/><path clip-path="url(#u)" fill="#00A3FA" d="M-153.6-2.1h55.1v.3h-55.1z"/><path clip-path="url(#u)" fill="#00A5FA" d="M-98.5-1.8v.3h-55.1v-.3"/><path clip-path="url(#u)" fill="#00A6FA" d="M-153.6-1.5h55.1v.3h-55.1z"/><path clip-path="url(#u)" fill="#00A8F9" d="M-153.6-1.2h55.1v.3h-55.1z"/><path clip-path="url(#u)" fill="#00A9F9" d="M-153.6-.9h55.1v.3h-55.1z"/><path clip-path="url(#u)" fill="#00ABF9" d="M-153.6-.6h55.1v.3h-55.1z"/><path clip-path="url(#u)" fill="#00ACF9" d="M-153.6-.1v-.3h55.1v.3"/><path clip-path="url(#u)" fill="#00AEF8" d="M-98.5-.1v.3M-153.6.2v-.3"/><path clip-path="url(#u)" fill="#00AFF8" d="M-98.5.2v.3M-153.6.5V.2"/><path clip-path="url(#u)" fill="#00B0F8" d="M-98.5.5v.3M-153.6.8V.5"/><path clip-path="url(#u)" fill="#00B2F8" d="M-98.5.8v.3M-153.6 1.1V.8"/><path clip-path="url(#u)" fill="#00B3F8" d="M-98.5 1.1v.3M-153.6 1.4v-.3"/><path clip-path="url(#u)" fill="#00B4F8" d="M-98.5 1.4v.3M-153.6 1.7v-.3"/><path clip-path="url(#u)" fill="#00B6F7" d="M-98.5 1.7V2M-153.6 2v-.3"/><path clip-path="url(#u)" fill="#00B7F7" d="M-98.5 2v.2M-153.6 2.2V2"/><path clip-path="url(#u)" fill="#00B8F7" d="M-98.5 2.2v.3M-153.6 2.5v-.3"/><path clip-path="url(#u)" fill="#00B9F7" d="M-98.5 2.5v.3M-153.6 2.8v-.3"/><path clip-path="url(#u)" fill="#00BBF7" d="M-98.5 2.8v.3M-153.6 3.1v-.3"/><path clip-path="url(#u)" fill="#00BCF6" d="M-98.5 3.1v.3M-153.6 3.4v-.3"/><path clip-path="url(#u)" fill="#00BDF6" d="M-98.5 3.4v.3M-153.6 3.7v-.3"/><path clip-path="url(#u)" fill="#00BEF6" d="M-98.5 3.7V4M-153.6 4v-.3"/><path clip-path="url(#u)" fill="#00BFF6" d="M-98.5 4v.3M-153.6 4.3V4"/><path clip-path="url(#u)" fill="#00C0F6" d="M-98.5 4.3v.3M-153.6 4.6v-.3"/><path clip-path="url(#u)" fill="#00C1F6" d="M-98.5 4.6v.2M-153.6 4.8v-.2"/><path clip-path="url(#u)" fill="#00C2F6" d="M-98.5 4.8v.3M-153.6 5.1v-.3"/><path clip-path="url(#u)" fill="#00C3F5" d="M-98.5 5.1v.3M-153.6 5.4v-.3"/><path clip-path="url(#u)" fill="#00CDF4" d="M-98.5 8v.3M-98.5 8.3v.3"/><path clip-path="url(#u)" fill="#00CEF4" d="M-98.5 8.6v.3"/><path clip-path="url(#u)" fill="#00CFF4" d="M-98.5 8.9v.3"/><path clip-path="url(#u)" fill="#00D0F4" d="M-98.5 9.2v.3M-98.5 9.5v.3"/><path clip-path="url(#u)" fill="#00D1F3" d="M-98.5 9.8v.2"/><path clip-path="url(#u)" fill="#00D2F3" d="M-98.5 10v.3M-98.5 10.3v.3"/><path clip-path="url(#u)" fill="#00D3F3" d="M-98.5 10.6v.3"/><path clip-path="url(#u)" fill="#00D4F3" d="M-98.5 10.9v.3M-98.5 11.2v.3"/><path clip-path="url(#u)" fill="#00D5F3" d="M-98.5 11.5v.3M-98.5 11.8v.3"/><path clip-path="url(#u)" fill="#00D6F3" d="M-98.5 12.1v.3M-98.5 12.4v.2"/><path clip-path="url(#u)" fill="#00D7F3" d="M-98.5 12.6v.3M-98.5 12.9v.3M-98.5 13.2v.3"/><path clip-path="url(#u)" fill="#00D8F2" d="M-98.5 13.5v.3M-98.5 13.8v.3"/><path clip-path="url(#u)" fill="#00D9F2" d="M-98.5 14.1v.3M-98.5 14.4v.3M-98.5 14.7v.3M-98.5 15v.2"/><path clip-path="url(#u)" fill="#00DAF2" d="M-98.5 15.2v.3M-98.5 15.5v.3M-98.5 15.8v.3M-98.5 16.1v.3"/><path clip-path="url(#u)" fill="#00DBF2" d="M-98.5 16.4v.3M-98.5 16.7v.3M-98.5 17v.3M-98.5 17.3v.3M-98.5 17.6v.2M-98.5 17.8v.3M-98.5 18.1v.3M-98.5 18.4v.5"/><path clip-path="url(#u)" fill="#00DCF2" d="M-98.5 18.9v.4"/><path clip-path="url(#u)" fill="#00DDF3" d="M-98.5 19.3v.5"/><path clip-path="url(#u)" fill="#00DEF3" d="M-98.5 19.8v.4"/><path clip-path="url(#u)" fill="#00DFF3" d="M-98.5 20.2v.5"/><path clip-path="url(#u)" fill="#00E0F4" d="M-98.5 20.7v.4"/><path clip-path="url(#u)" fill="#00E1F4" d="M-98.5 21.1v.5"/><path clip-path="url(#u)" fill="#00E2F5" d="M-98.5 21.6v.4"/><path clip-path="url(#u)" fill="#00E3F5" d="M-98.5 22v.5"/><path clip-path="url(#u)" fill="#00E4F5" d="M-98.5 22.5v.4"/><path clip-path="url(#u)" fill="#00E5F6" d="M-98.5 22.9v.5"/><path clip-path="url(#u)" fill="#00E6F6" d="M-98.5 23.4v.4"/><path clip-path="url(#u)" fill="#00E7F6" d="M-98.5 23.8v.5"/><path clip-path="url(#u)" fill="#00E8F7" d="M-98.5 24.3v.4"/><path clip-path="url(#u)" fill="#00E9F7" d="M-98.5 24.7v.5"/><path clip-path="url(#u)" fill="#00EAF8" d="M-98.5 25.2v.4"/><path clip-path="url(#u)" fill="#00EBF8" d="M-98.5 25.6v.5"/><path clip-path="url(#u)" fill="#00ECF8" d="M-98.5 26.1v.5"/><path clip-path="url(#u)" fill="#00EEF9" d="M-98.5 26.5v.5"/><path clip-path="url(#u)" fill="#00EFF9" d="M-98.5 27v.3"/></g><g clip-path="url(#b)"><defs><path id="v" d="m-141.6-29.4-.2 1.1"/></defs><clipPath id="w"><use xlink:href="#v" overflow="visible"/></clipPath><path clip-path="url(#w)" fill="#0029FF" d="M-141.8-28.2v-1.2M-141.8-28.1v-.1"/></g><g clip-path="url(#b)"><clipPath id="y"><use xlink:href="#x" overflow="visible"/></clipPath><path clip-path="url(#y)" fill="#002CFF" d="M-142.2-27.4v-.3"/></g></svg>