<svg xmlns="http://www.w3.org/2000/svg" xmlns:xlink="http://www.w3.org/1999/xlink" width="1920" height="54" xml:space="preserve"><defs><path id="a" d="M1920 1140V-160H0v1300"/></defs><clipPath id="b"><use xlink:href="#a" overflow="visible"/></clipPath><g clip-path="url(#b)"><defs><path id="c" d="M0 1140V-160h1920v1300"/></defs></g><g clip-path="url(#b)"><defs><path id="d" d="M0 1140V-160h1920v1300"/></defs></g><g clip-path="url(#b)"><defs><path id="e" d="M0 1140V-160h1920v1300"/></defs><clipPath id="f"><use xlink:href="#e" overflow="visible"/></clipPath><g opacity=".25" clip-path="url(#f)"><path fill="#007DF2" d="M1028.193 730.135v2.58" opacity=".25"/></g></g><g clip-path="url(#b)"><defs><path id="g" d="M0 1140V-160h1920v1300"/></defs><clipPath id="h"><use xlink:href="#g" overflow="visible"/></clipPath><g opacity=".8" clip-path="url(#h)"><defs><path id="i" d="M806.092 13.07h237.778v29.76H806.092z"/></defs></g></g><g clip-path="url(#b)"><defs><path id="j" d="M0 1140V-160h1920v1300"/></defs><clipPath id="k"><use xlink:href="#j" overflow="visible"/></clipPath><path clip-path="url(#k)" fill="#0FF" d="M889.348 25.057a.095.095 0 0 0-.097.097"/><path clip-path="url(#k)" fill="#043848" d="m576.557 3.269-9.69 21.484v26.651l161.596 1.243h.104l10.935-24.243.073-.163V3.269H576.557zm162.518 24.512L728.36 51.532l-160.993-1.235V25.211l9.397-20.833h162.311v23.403z"/><path clip-path="url(#k)" fill="#085967" d="m577.18 6.598-8.811 19.534v21.953l159.406 1.225.173.003 10.126-22.452V6.598H577.18zm160.06 19.497-9.637 21.365-158.4-1.217V26.898l8.323-18.45H737.24v17.647z"/></g><g clip-path="url(#b)"><defs><path id="l" d="M472.038 36.232"/></defs><clipPath id="m"><use xlink:href="#l" overflow="visible"/></clipPath><path clip-path="url(#m)" fill="#00ACF9" d="M446.731 12.217h2.216v.096h-2.216z"/><path clip-path="url(#m)" fill="#00AEF8" d="M446.731 12.314h2.216v.289h-2.216z"/><path clip-path="url(#m)" fill="#00AFF8" d="M446.731 12.602h2.216v.289h-2.216z"/><path clip-path="url(#m)" fill="#00B0F8" d="M446.731 12.891h2.216v.289h-2.216z"/><path clip-path="url(#m)" fill="#00B2F8" d="M446.731 13.18h2.216v.289h-2.216z"/><path clip-path="url(#m)" fill="#00B3F8" d="M446.731 13.468h2.216v.289h-2.216z"/><path clip-path="url(#m)" fill="#00B4F8" d="M446.731 13.757h2.216v.289h-2.216z"/><path clip-path="url(#m)" fill="#00B6F7" d="M446.731 14.046h2.216v.289h-2.216z"/><path clip-path="url(#m)" fill="#00B7F7" d="M446.73 14.335h2.216v.099h-2.216z"/><path clip-path="url(#m)" fill="#0080FF" d="M444.544 4.517h2.229v.289h-2.229z"/><path clip-path="url(#m)" fill="#0082FF" d="M444.543 4.806h2.229v.227h-2.229z"/><path clip-path="url(#m)" fill="#009AFB" d="M441.114 8.781h1.862v.068h-1.862z"/><path clip-path="url(#m)" fill="#009BFB" d="M441.114 8.848h1.862v.289h-1.862z"/><path clip-path="url(#m)" fill="#009DFB" d="M441.114 9.137h1.862v.289h-1.862z"/><path clip-path="url(#m)" fill="#009FFB" d="M441.114 9.426h1.862v.289h-1.862z"/><path clip-path="url(#m)" fill="#00A0FA" d="M441.114 9.714h1.862v.289h-1.862z"/><path clip-path="url(#m)" fill="#00A2FA" d="M441.114 10.003h1.862v.289h-1.862z"/><path clip-path="url(#m)" fill="#00A3FA" d="M441.114 10.292h1.862v.289h-1.862z"/><path clip-path="url(#m)" fill="#00A5FA" d="M441.114 10.581h1.862v.062h-1.862z"/><path clip-path="url(#m)" fill="#00ABF9" d="M440.886 11.88h1.744v.145h-1.744z"/><path clip-path="url(#m)" fill="#00ACF9" d="M440.886 12.024h1.744v.289h-1.744z"/><path clip-path="url(#m)" fill="#00AEF8" d="M440.886 12.314h1.744v.289h-1.744z"/><path clip-path="url(#m)" fill="#00AFF8" d="M440.886 12.602h1.744v.289h-1.744z"/><path clip-path="url(#m)" fill="#00B0F8" d="M440.886 12.891h1.744v.289h-1.744z"/><path clip-path="url(#m)" fill="#00B2F8" d="M440.886 13.18h1.744v.289h-1.744z"/><path clip-path="url(#m)" fill="#00B3F8" d="M440.886 13.469h1.744v.155h-1.744z"/><path clip-path="url(#m)" fill="#00A9F9" d="M437.977 11.724h1.482v.012h-1.482z"/><path clip-path="url(#m)" fill="#00ABF9" d="M437.977 11.736h1.482v.289h-1.482z"/><path clip-path="url(#m)" fill="#00ACF9" d="M437.977 12.024h1.482"/><path clip-path="url(#m)" fill="#0098FC" d="M431.32 8.491h1.795v.069h-1.795z"/><path clip-path="url(#m)" fill="#009AFB" d="M431.32 8.56h1.795v.289h-1.795z"/><path clip-path="url(#m)" fill="#009BFB" d="M431.32 8.848h1.795v.289h-1.795z"/><path clip-path="url(#m)" fill="#009DFB" d="M431.32 9.137h1.795v.289h-1.795z"/><path clip-path="url(#m)" fill="#009FFB" d="M431.32 9.426h1.795v.289h-1.795z"/><path clip-path="url(#m)" fill="#00A0FA" d="M431.32 9.714h1.795v.289h-1.795z"/><path clip-path="url(#m)" fill="#00A2FA" d="M431.32 10.003h1.795v.282h-1.795z"/><path clip-path="url(#m)" fill="#00BBF7" d="M428.612 15.441h1.344v.049h-1.344z"/><path clip-path="url(#m)" fill="#00BCF6" d="M428.612 15.489h1.344v.289h-1.344z"/><path clip-path="url(#m)" fill="#00BDF6" d="M428.612 15.778h1.344v.289h-1.344z"/><path clip-path="url(#m)" fill="#00BEF6" d="M428.612 16.067h1.344v.289h-1.344z"/><path clip-path="url(#m)" fill="#00BFF6" d="M428.612 16.356h1.344v.289h-1.344z"/><path clip-path="url(#m)" fill="#00C0F6" d="M428.611 16.645h1.344v.14h-1.344z"/><path clip-path="url(#m)" fill="#00A0FA" d="M427.6 9.739h1.627v.264H427.6z"/><path clip-path="url(#m)" fill="#00A2FA" d="M427.6 10.003h1.627v.289H427.6z"/><path clip-path="url(#m)" fill="#00A3FA" d="M427.6 10.292h1.627v.289H427.6z"/><path clip-path="url(#m)" fill="#00A5FA" d="M427.6 10.581h1.627v.289H427.6z"/><path clip-path="url(#m)" fill="#00A6FA" d="M427.6 10.87h1.627v.289H427.6z"/><path clip-path="url(#m)" fill="#00A8F9" d="M427.6 11.159h1.627v.208H427.6z"/><path clip-path="url(#m)" fill="#00B7F7" d="M421.707 14.376h1.114v.248h-1.114z"/><path clip-path="url(#m)" fill="#00B8F7" d="M421.707 14.623h1.114v.289h-1.114z"/><path clip-path="url(#m)" fill="#00B9F7" d="M421.707 14.912h1.114v.289h-1.114z"/><path clip-path="url(#m)" fill="#00BBF7" d="M421.707 15.201h1.114v.289h-1.114z"/><path clip-path="url(#m)" fill="#00BCF6" d="M421.708 15.49h1.114-1.114z"/><path clip-path="url(#m)" fill="#0080FF" d="M416.895 4.517h55.144v.289h-55.144z"/><path clip-path="url(#m)" fill="#0082FF" d="M416.895 4.806h55.144v.289h-55.144z"/><path clip-path="url(#m)" fill="#0084FE" d="M416.895 5.095h55.144v.289h-55.144z"/><path clip-path="url(#m)" fill="#0086FE" d="M416.895 5.383h55.144v.289h-55.144z"/><path clip-path="url(#m)" fill="#0088FE" d="M416.895 5.672h55.144v.289h-55.144z"/><path clip-path="url(#m)" fill="#008AFE" d="M416.895 5.961h55.144v.289h-55.144z"/><path clip-path="url(#m)" fill="#008BFD" d="M416.895 6.25h55.144v.289h-55.144z"/><path clip-path="url(#m)" fill="#008DFD" d="M416.895 6.539h55.144v.289h-55.144z"/><path clip-path="url(#m)" fill="#008FFD" d="M416.895 6.827h55.144v.289h-55.144z"/><path clip-path="url(#m)" fill="#0091FD" d="M416.895 7.116h55.144v.289h-55.144z"/><path clip-path="url(#m)" fill="#0093FC" d="M416.895 7.405h55.144v.289h-55.144z"/><path clip-path="url(#m)" fill="#0094FC" d="M416.895 7.693h55.144v.289h-55.144z"/><path clip-path="url(#m)" fill="#0096FC" d="M416.895 7.982h55.144v.289h-55.144z"/><path clip-path="url(#m)" fill="#0098FC" d="M416.895 8.271h55.144v.289h-55.144z"/><path clip-path="url(#m)" fill="#009AFB" d="M416.895 8.56h55.144v.289h-55.144z"/><path clip-path="url(#m)" fill="#009BFB" d="M416.895 8.848h55.144v.289h-55.144z"/><path clip-path="url(#m)" fill="#009DFB" d="M416.895 9.137h55.144v.289h-55.144z"/><path clip-path="url(#m)" fill="#009FFB" d="M416.895 9.426h55.144v.289h-55.144z"/><path clip-path="url(#m)" fill="#00A0FA" d="M416.895 9.714h55.144v.289h-55.144z"/><path clip-path="url(#m)" fill="#00A2FA" d="M416.895 10.003h55.144v.289h-55.144z"/><path clip-path="url(#m)" fill="#00A3FA" d="M416.895 10.292h55.144v.289h-55.144z"/><path clip-path="url(#m)" fill="#00A5FA" d="M472.039 10.581v.289h-55.144v-.289"/><path clip-path="url(#m)" fill="#00A6FA" d="M416.895 10.87h55.144v.289h-55.144z"/><path clip-path="url(#m)" fill="#00A8F9" d="M416.895 11.158h55.144v.289h-55.144z"/><path clip-path="url(#m)" fill="#00A9F9" d="M416.895 11.447h55.144v.289h-55.144z"/><path clip-path="url(#m)" fill="#00ABF9" d="M416.895 11.736h55.144v.289h-55.144z"/><path clip-path="url(#m)" fill="#00ACF9" d="M416.895 12.313v-.289h55.144v.289"/><path clip-path="url(#m)" fill="#00AEF8" d="M472.039 12.314v.289M416.895 12.603v-.289"/><path clip-path="url(#m)" fill="#00AFF8" d="M472.039 12.602v.289M416.895 12.891v-.289"/><path clip-path="url(#m)" fill="#00B0F8" d="M472.039 12.891v.289M416.895 13.18v-.289"/><path clip-path="url(#m)" fill="#00B2F8" d="M472.039 13.18v.289M416.895 13.469v-.289"/><path clip-path="url(#m)" fill="#00B3F8" d="M472.039 13.468v.289M416.895 13.757v-.289"/><path clip-path="url(#m)" fill="#00B4F8" d="M472.039 13.757v.289M416.895 14.046v-.289"/><path clip-path="url(#m)" fill="#00B6F7" d="M472.039 14.046v.289M416.895 14.335v-.289"/><path clip-path="url(#m)" fill="#00B7F7" d="M472.039 14.335v.289M416.895 14.624v-.289"/><path clip-path="url(#m)" fill="#00B8F7" d="M472.039 14.623v.289M416.895 14.912v-.289"/><path clip-path="url(#m)" fill="#00B9F7" d="M472.039 14.912v.289M416.895 15.201v-.289"/><path clip-path="url(#m)" fill="#00BBF7" d="M472.039 15.201v.289M416.895 15.49v-.289"/><path clip-path="url(#m)" fill="#00BCF6" d="M472.039 15.489v.289M416.895 15.778v-.289"/><path clip-path="url(#m)" fill="#00BDF6" d="M472.039 15.778v.289M416.895 16.067v-.289"/><path clip-path="url(#m)" fill="#00BEF6" d="M472.039 16.067v.289M416.895 16.356v-.289"/><path clip-path="url(#m)" fill="#00BFF6" d="M472.039 16.356v.289M416.895 16.645v-.289"/><path clip-path="url(#m)" fill="#00C0F6" d="M472.039 16.645v.289M416.895 16.934v-.289"/><path clip-path="url(#m)" fill="#00C1F6" d="M472.039 16.933v.289M416.895 17.222v-.289"/><path clip-path="url(#m)" fill="#00C2F6" d="M472.039 17.222v.289M416.895 17.511v-.289"/><path clip-path="url(#m)" fill="#00C3F5" d="M472.039 17.511v.289M416.895 17.8v-.289"/><path clip-path="url(#m)" fill="#00CDF4" d="M472.039 20.398v.289M472.039 20.687v.289"/><path clip-path="url(#m)" fill="#00CEF4" d="M472.039 20.976v.289"/><path clip-path="url(#m)" fill="#00CFF4" d="M472.039 21.264v.289"/><path clip-path="url(#m)" fill="#00D0F4" d="M472.039 21.553v.289M472.039 21.842v.289"/><path clip-path="url(#m)" fill="#00D1F3" d="M472.039 22.13v.289"/><path clip-path="url(#m)" fill="#00D2F3" d="M472.039 22.419v.289M472.039 22.708v.289"/><path clip-path="url(#m)" fill="#00D3F3" d="M472.039 22.997v.289"/><path clip-path="url(#m)" fill="#00D4F3" d="M472.039 23.285v.289M472.039 23.574v.289"/><path clip-path="url(#m)" fill="#00D5F3" d="M472.039 23.863v.289M472.039 24.151v.289"/><path clip-path="url(#m)" fill="#00D6F3" d="M472.039 24.44v.289M472.039 24.729v.289"/><path clip-path="url(#m)" fill="#00D7F3" d="M472.039 25.018v.289M472.039 25.307v.289M472.039 25.595v.289"/><path clip-path="url(#m)" fill="#00D8F2" d="M472.039 25.884v.289M472.039 26.173v.289"/><path clip-path="url(#m)" fill="#00D9F2" d="M472.039 26.461v.289M472.039 26.75v.289M472.039 27.039v.289M472.039 27.328v.289"/><path clip-path="url(#m)" fill="#00DAF2" d="M472.039 27.617v.289M472.039 27.905v.289M472.039 28.194v.289M472.039 28.483v.289"/><path clip-path="url(#m)" fill="#00DBF2" d="M472.039 28.772v.289M472.039 29.06v.289M472.039 29.349v.289M472.039 29.638v.289M472.039 29.926v.289M472.039 30.215v.289M472.039 30.504v.289M472.039 30.793v.452"/><path clip-path="url(#m)" fill="#00DCF2" d="M472.039 31.245v.452"/><path clip-path="url(#m)" fill="#00DDF3" d="M472.039 31.696v.452"/><path clip-path="url(#m)" fill="#00DEF3" d="M472.039 32.148v.452"/><path clip-path="url(#m)" fill="#00DFF3" d="M472.039 32.6v.452"/><path clip-path="url(#m)" fill="#00E0F4" d="M472.039 33.052v.452"/><path clip-path="url(#m)" fill="#00E1F4" d="M472.039 33.504v.452"/><path clip-path="url(#m)" fill="#00E2F5" d="M472.039 33.956v.452"/><path clip-path="url(#m)" fill="#00E3F5" d="M472.039 34.407v.452"/><path clip-path="url(#m)" fill="#00E4F5" d="M472.039 34.859v.452"/><path clip-path="url(#m)" fill="#00E5F6" d="M472.039 35.311v.452"/><path clip-path="url(#m)" fill="#00E6F6" d="M472.039 35.763v.452"/><path clip-path="url(#m)" fill="#00E7F6" d="M472.039 36.215v.452"/><path clip-path="url(#m)" fill="#00E8F7" d="M472.039 36.667v.452"/><path clip-path="url(#m)" fill="#00E9F7" d="M472.039 37.118v.452"/><path clip-path="url(#m)" fill="#00EAF8" d="M472.039 37.57v.452"/><path clip-path="url(#m)" fill="#00EBF8" d="M472.039 38.022v.452"/><path clip-path="url(#m)" fill="#00ECF8" d="M472.039 38.474v.452"/><path clip-path="url(#m)" fill="#00EEF9" d="M472.039 38.925v.452"/><path clip-path="url(#m)" fill="#00EFF9" d="M472.039 39.377v.313"/></g><g clip-path="url(#b)"><defs><path id="n" d="m428.87-16.999-.185 1.098"/></defs><clipPath id="o"><use xlink:href="#n" overflow="visible"/></clipPath><path clip-path="url(#o)" fill="#0029FF" d="M428.685-15.811v-1.188M428.685-15.717v-.094"/></g><g clip-path="url(#b)"><clipPath id="q"><use xlink:href="#p" overflow="visible"/></clipPath><path clip-path="url(#q)" fill="#002CFF" d="M428.338-15.061v-.236"/></g></svg>