<svg xmlns="http://www.w3.org/2000/svg" xmlns:xlink="http://www.w3.org/1999/xlink" width="177.167" height="54" xml:space="preserve"><defs><path id="a" d="M1355.333 1140V-160h-1920v1300"/></defs><clipPath id="b"><use xlink:href="#a" overflow="visible"/></clipPath><g clip-path="url(#b)"><defs><path id="c" d="M-564.667 1140V-160h1920v1300"/></defs></g><g clip-path="url(#b)"><defs><path id="d" d="M-564.667 1140V-160h1920v1300"/></defs></g><g clip-path="url(#b)"><defs><path id="e" d="M-564.667 1140V-160h1920v1300"/></defs><clipPath id="f"><use xlink:href="#e" overflow="visible"/></clipPath><g opacity=".25" clip-path="url(#f)"><path fill="#007DF2" d="M463.526 730.135v2.58" opacity=".25"/></g></g><g clip-path="url(#b)"><defs><path id="g" d="M-564.667 1140V-160h1920v1300"/></defs><clipPath id="h"><use xlink:href="#g" overflow="visible"/></clipPath><g opacity=".8" clip-path="url(#h)"><defs><path id="i" d="M241.425 13.07h237.778v29.76H241.425z"/></defs></g></g><g clip-path="url(#b)"><defs><path id="j" d="M-564.667 1140V-160h1920v1300"/></defs><clipPath id="k"><use xlink:href="#j" overflow="visible"/></clipPath><path clip-path="url(#k)" fill="#0FF" d="M324.681 25.057a.095.095 0 0 0-.097.097"/><path clip-path="url(#k)" fill="#043848" d="M11.89 3.269 2.2 24.752v26.651l161.596 1.243h.104l10.935-24.243.073-.163V3.269H11.89zm162.518 24.512-10.715 23.751L2.7 50.297V25.211l9.397-20.833h162.311v23.403z"/><path clip-path="url(#k)" fill="#085967" d="M12.513 6.598 3.702 26.132v21.953l159.406 1.225.173.003 10.126-22.452V6.598H12.513zm160.06 19.497-9.637 21.365-158.4-1.217V26.898l8.323-18.45h159.714v17.647z"/></g><g clip-path="url(#b)"><defs><path id="l" d="M-92.629 36.232"/></defs><clipPath id="m"><use xlink:href="#l" overflow="visible"/></clipPath><path clip-path="url(#m)" fill="#00ACF9" d="M-117.936 12.217h2.216v.096h-2.216z"/><path clip-path="url(#m)" fill="#00AEF8" d="M-117.936 12.314h2.216v.289h-2.216z"/><path clip-path="url(#m)" fill="#00AFF8" d="M-117.936 12.602h2.216v.289h-2.216z"/><path clip-path="url(#m)" fill="#00B0F8" d="M-117.936 12.891h2.216v.289h-2.216z"/><path clip-path="url(#m)" fill="#00B2F8" d="M-117.936 13.18h2.216v.289h-2.216z"/><path clip-path="url(#m)" fill="#00B3F8" d="M-117.936 13.468h2.216v.289h-2.216z"/><path clip-path="url(#m)" fill="#00B4F8" d="M-117.936 13.757h2.216v.289h-2.216z"/><path clip-path="url(#m)" fill="#00B6F7" d="M-117.936 14.046h2.216v.289h-2.216z"/><path clip-path="url(#m)" fill="#00B7F7" d="M-117.937 14.335h2.216v.099h-2.216z"/><path clip-path="url(#m)" fill="#0080FF" d="M-120.123 4.517h2.229v.289h-2.229z"/><path clip-path="url(#m)" fill="#0082FF" d="M-120.124 4.806h2.229v.227h-2.229z"/><path clip-path="url(#m)" fill="#009AFB" d="M-123.553 8.781h1.862v.068h-1.862z"/><path clip-path="url(#m)" fill="#009BFB" d="M-123.553 8.848h1.862v.289h-1.862z"/><path clip-path="url(#m)" fill="#009DFB" d="M-123.553 9.137h1.862v.289h-1.862z"/><path clip-path="url(#m)" fill="#009FFB" d="M-123.553 9.426h1.862v.289h-1.862z"/><path clip-path="url(#m)" fill="#00A0FA" d="M-123.553 9.714h1.862v.289h-1.862z"/><path clip-path="url(#m)" fill="#00A2FA" d="M-123.553 10.003h1.862v.289h-1.862z"/><path clip-path="url(#m)" fill="#00A3FA" d="M-123.553 10.292h1.862v.289h-1.862z"/><path clip-path="url(#m)" fill="#00A5FA" d="M-123.553 10.581h1.862v.062h-1.862z"/><path clip-path="url(#m)" fill="#00ABF9" d="M-123.781 11.88h1.744v.145h-1.744z"/><path clip-path="url(#m)" fill="#00ACF9" d="M-123.781 12.024h1.744v.289h-1.744z"/><path clip-path="url(#m)" fill="#00AEF8" d="M-123.781 12.314h1.744v.289h-1.744z"/><path clip-path="url(#m)" fill="#00AFF8" d="M-123.781 12.602h1.744v.289h-1.744z"/><path clip-path="url(#m)" fill="#00B0F8" d="M-123.781 12.891h1.744v.289h-1.744z"/><path clip-path="url(#m)" fill="#00B2F8" d="M-123.781 13.18h1.744v.289h-1.744z"/><path clip-path="url(#m)" fill="#00B3F8" d="M-123.781 13.469h1.744v.155h-1.744z"/><path clip-path="url(#m)" fill="#00A9F9" d="M-126.69 11.724h1.482v.012h-1.482z"/><path clip-path="url(#m)" fill="#00ABF9" d="M-126.69 11.736h1.482v.289h-1.482z"/><path clip-path="url(#m)" fill="#00ACF9" d="M-126.69 12.024h1.482"/><path clip-path="url(#m)" fill="#0098FC" d="M-133.347 8.491h1.795v.069h-1.795z"/><path clip-path="url(#m)" fill="#009AFB" d="M-133.347 8.56h1.795v.289h-1.795z"/><path clip-path="url(#m)" fill="#009BFB" d="M-133.347 8.848h1.795v.289h-1.795z"/><path clip-path="url(#m)" fill="#009DFB" d="M-133.347 9.137h1.795v.289h-1.795z"/><path clip-path="url(#m)" fill="#009FFB" d="M-133.347 9.426h1.795v.289h-1.795z"/><path clip-path="url(#m)" fill="#00A0FA" d="M-133.347 9.714h1.795v.289h-1.795z"/><path clip-path="url(#m)" fill="#00A2FA" d="M-133.347 10.003h1.795v.282h-1.795z"/><path clip-path="url(#m)" fill="#00BBF7" d="M-136.055 15.441h1.344v.049h-1.344z"/><path clip-path="url(#m)" fill="#00BCF6" d="M-136.055 15.489h1.344v.289h-1.344z"/><path clip-path="url(#m)" fill="#00BDF6" d="M-136.055 15.778h1.344v.289h-1.344z"/><path clip-path="url(#m)" fill="#00BEF6" d="M-136.055 16.067h1.344v.289h-1.344z"/><path clip-path="url(#m)" fill="#00BFF6" d="M-136.055 16.356h1.344v.289h-1.344z"/><path clip-path="url(#m)" fill="#00C0F6" d="M-136.056 16.645h1.344v.14h-1.344z"/><path clip-path="url(#m)" fill="#00A0FA" d="M-137.067 9.739h1.627v.264h-1.627z"/><path clip-path="url(#m)" fill="#00A2FA" d="M-137.067 10.003h1.627v.289h-1.627z"/><path clip-path="url(#m)" fill="#00A3FA" d="M-137.067 10.292h1.627v.289h-1.627z"/><path clip-path="url(#m)" fill="#00A5FA" d="M-137.067 10.581h1.627v.289h-1.627z"/><path clip-path="url(#m)" fill="#00A6FA" d="M-137.067 10.87h1.627v.289h-1.627z"/><path clip-path="url(#m)" fill="#00A8F9" d="M-137.067 11.159h1.627v.208h-1.627z"/><path clip-path="url(#m)" fill="#00B7F7" d="M-142.96 14.376h1.114v.248h-1.114z"/><path clip-path="url(#m)" fill="#00B8F7" d="M-142.96 14.623h1.114v.289h-1.114z"/><path clip-path="url(#m)" fill="#00B9F7" d="M-142.96 14.912h1.114v.289h-1.114z"/><path clip-path="url(#m)" fill="#00BBF7" d="M-142.96 15.201h1.114v.289h-1.114z"/><path clip-path="url(#m)" fill="#00BCF6" d="M-142.959 15.49h1.114-1.114z"/><path clip-path="url(#m)" fill="#0080FF" d="M-147.772 4.517h55.144v.289h-55.144z"/><path clip-path="url(#m)" fill="#0082FF" d="M-147.772 4.806h55.144v.289h-55.144z"/><path clip-path="url(#m)" fill="#0084FE" d="M-147.772 5.095h55.144v.289h-55.144z"/><path clip-path="url(#m)" fill="#0086FE" d="M-147.772 5.383h55.144v.289h-55.144z"/><path clip-path="url(#m)" fill="#0088FE" d="M-147.772 5.672h55.144v.289h-55.144z"/><path clip-path="url(#m)" fill="#008AFE" d="M-147.772 5.961h55.144v.289h-55.144z"/><path clip-path="url(#m)" fill="#008BFD" d="M-147.772 6.25h55.144v.289h-55.144z"/><path clip-path="url(#m)" fill="#008DFD" d="M-147.772 6.539h55.144v.289h-55.144z"/><path clip-path="url(#m)" fill="#008FFD" d="M-147.772 6.827h55.144v.289h-55.144z"/><path clip-path="url(#m)" fill="#0091FD" d="M-147.772 7.116h55.144v.289h-55.144z"/><path clip-path="url(#m)" fill="#0093FC" d="M-147.772 7.405h55.144v.289h-55.144z"/><path clip-path="url(#m)" fill="#0094FC" d="M-147.772 7.693h55.144v.289h-55.144z"/><path clip-path="url(#m)" fill="#0096FC" d="M-147.772 7.982h55.144v.289h-55.144z"/><path clip-path="url(#m)" fill="#0098FC" d="M-147.772 8.271h55.144v.289h-55.144z"/><path clip-path="url(#m)" fill="#009AFB" d="M-147.772 8.56h55.144v.289h-55.144z"/><path clip-path="url(#m)" fill="#009BFB" d="M-147.772 8.848h55.144v.289h-55.144z"/><path clip-path="url(#m)" fill="#009DFB" d="M-147.772 9.137h55.144v.289h-55.144z"/><path clip-path="url(#m)" fill="#009FFB" d="M-147.772 9.426h55.144v.289h-55.144z"/><path clip-path="url(#m)" fill="#00A0FA" d="M-147.772 9.714h55.144v.289h-55.144z"/><path clip-path="url(#m)" fill="#00A2FA" d="M-147.772 10.003h55.144v.289h-55.144z"/><path clip-path="url(#m)" fill="#00A3FA" d="M-147.772 10.292h55.144v.289h-55.144z"/><path clip-path="url(#m)" fill="#00A5FA" d="M-92.628 10.581v.289h-55.144v-.289"/><path clip-path="url(#m)" fill="#00A6FA" d="M-147.772 10.87h55.144v.289h-55.144z"/><path clip-path="url(#m)" fill="#00A8F9" d="M-147.772 11.158h55.144v.289h-55.144z"/><path clip-path="url(#m)" fill="#00A9F9" d="M-147.772 11.447h55.144v.289h-55.144z"/><path clip-path="url(#m)" fill="#00ABF9" d="M-147.772 11.736h55.144v.289h-55.144z"/><path clip-path="url(#m)" fill="#00ACF9" d="M-147.772 12.313v-.289h55.144v.289"/><path clip-path="url(#m)" fill="#00AEF8" d="M-92.628 12.314v.289M-147.772 12.603v-.289"/><path clip-path="url(#m)" fill="#00AFF8" d="M-92.628 12.602v.289M-147.772 12.891v-.289"/><path clip-path="url(#m)" fill="#00B0F8" d="M-92.628 12.891v.289M-147.772 13.18v-.289"/><path clip-path="url(#m)" fill="#00B2F8" d="M-92.628 13.18v.289M-147.772 13.469v-.289"/><path clip-path="url(#m)" fill="#00B3F8" d="M-92.628 13.468v.289M-147.772 13.757v-.289"/><path clip-path="url(#m)" fill="#00B4F8" d="M-92.628 13.757v.289M-147.772 14.046v-.289"/><path clip-path="url(#m)" fill="#00B6F7" d="M-92.628 14.046v.289M-147.772 14.335v-.289"/><path clip-path="url(#m)" fill="#00B7F7" d="M-92.628 14.335v.289M-147.772 14.624v-.289"/><path clip-path="url(#m)" fill="#00B8F7" d="M-92.628 14.623v.289M-147.772 14.912v-.289"/><path clip-path="url(#m)" fill="#00B9F7" d="M-92.628 14.912v.289M-147.772 15.201v-.289"/><path clip-path="url(#m)" fill="#00BBF7" d="M-92.628 15.201v.289M-147.772 15.49v-.289"/><path clip-path="url(#m)" fill="#00BCF6" d="M-92.628 15.489v.289M-147.772 15.778v-.289"/><path clip-path="url(#m)" fill="#00BDF6" d="M-92.628 15.778v.289M-147.772 16.067v-.289"/><path clip-path="url(#m)" fill="#00BEF6" d="M-92.628 16.067v.289M-147.772 16.356v-.289"/><path clip-path="url(#m)" fill="#00BFF6" d="M-92.628 16.356v.289M-147.772 16.645v-.289"/><path clip-path="url(#m)" fill="#00C0F6" d="M-92.628 16.645v.289M-147.772 16.934v-.289"/><path clip-path="url(#m)" fill="#00C1F6" d="M-92.628 16.933v.289M-147.772 17.222v-.289"/><path clip-path="url(#m)" fill="#00C2F6" d="M-92.628 17.222v.289M-147.772 17.511v-.289"/><path clip-path="url(#m)" fill="#00C3F5" d="M-92.628 17.511v.289M-147.772 17.8v-.289"/><path clip-path="url(#m)" fill="#00CDF4" d="M-92.628 20.398v.289M-92.628 20.687v.289"/><path clip-path="url(#m)" fill="#00CEF4" d="M-92.628 20.976v.289"/><path clip-path="url(#m)" fill="#00CFF4" d="M-92.628 21.264v.289"/><path clip-path="url(#m)" fill="#00D0F4" d="M-92.628 21.553v.289M-92.628 21.842v.289"/><path clip-path="url(#m)" fill="#00D1F3" d="M-92.628 22.13v.289"/><path clip-path="url(#m)" fill="#00D2F3" d="M-92.628 22.419v.289M-92.628 22.708v.289"/><path clip-path="url(#m)" fill="#00D3F3" d="M-92.628 22.997v.289"/><path clip-path="url(#m)" fill="#00D4F3" d="M-92.628 23.285v.289M-92.628 23.574v.289"/><path clip-path="url(#m)" fill="#00D5F3" d="M-92.628 23.863v.289M-92.628 24.151v.289"/><path clip-path="url(#m)" fill="#00D6F3" d="M-92.628 24.44v.289M-92.628 24.729v.289"/><path clip-path="url(#m)" fill="#00D7F3" d="M-92.628 25.018v.289M-92.628 25.307v.289M-92.628 25.595v.289"/><path clip-path="url(#m)" fill="#00D8F2" d="M-92.628 25.884v.289M-92.628 26.173v.289"/><path clip-path="url(#m)" fill="#00D9F2" d="M-92.628 26.461v.289M-92.628 26.75v.289M-92.628 27.039v.289M-92.628 27.328v.289"/><path clip-path="url(#m)" fill="#00DAF2" d="M-92.628 27.617v.289M-92.628 27.905v.289M-92.628 28.194v.289M-92.628 28.483v.289"/><path clip-path="url(#m)" fill="#00DBF2" d="M-92.628 28.772v.289M-92.628 29.06v.289M-92.628 29.349v.289M-92.628 29.638v.289M-92.628 29.926v.289M-92.628 30.215v.289M-92.628 30.504v.289M-92.628 30.793v.452"/><path clip-path="url(#m)" fill="#00DCF2" d="M-92.628 31.245v.452"/><path clip-path="url(#m)" fill="#00DDF3" d="M-92.628 31.696v.452"/><path clip-path="url(#m)" fill="#00DEF3" d="M-92.628 32.148v.452"/><path clip-path="url(#m)" fill="#00DFF3" d="M-92.628 32.6v.452"/><path clip-path="url(#m)" fill="#00E0F4" d="M-92.628 33.052v.452"/><path clip-path="url(#m)" fill="#00E1F4" d="M-92.628 33.504v.452"/><path clip-path="url(#m)" fill="#00E2F5" d="M-92.628 33.956v.452"/><path clip-path="url(#m)" fill="#00E3F5" d="M-92.628 34.407v.452"/><path clip-path="url(#m)" fill="#00E4F5" d="M-92.628 34.859v.452"/><path clip-path="url(#m)" fill="#00E5F6" d="M-92.628 35.311v.452"/><path clip-path="url(#m)" fill="#00E6F6" d="M-92.628 35.763v.452"/><path clip-path="url(#m)" fill="#00E7F6" d="M-92.628 36.215v.452"/><path clip-path="url(#m)" fill="#00E8F7" d="M-92.628 36.667v.452"/><path clip-path="url(#m)" fill="#00E9F7" d="M-92.628 37.118v.452"/><path clip-path="url(#m)" fill="#00EAF8" d="M-92.628 37.57v.452"/><path clip-path="url(#m)" fill="#00EBF8" d="M-92.628 38.022v.452"/><path clip-path="url(#m)" fill="#00ECF8" d="M-92.628 38.474v.452"/><path clip-path="url(#m)" fill="#00EEF9" d="M-92.628 38.925v.452"/><path clip-path="url(#m)" fill="#00EFF9" d="M-92.628 39.377v.313"/></g><g clip-path="url(#b)"><defs><path id="n" d="m-135.797-16.999-.185 1.098"/></defs><clipPath id="o"><use xlink:href="#n" overflow="visible"/></clipPath><path clip-path="url(#o)" fill="#0029FF" d="M-135.982-15.811v-1.188M-135.982-15.717v-.094"/></g><g clip-path="url(#b)"><clipPath id="q"><use xlink:href="#p" overflow="visible"/></clipPath><path clip-path="url(#q)" fill="#002CFF" d="M-136.329-15.061v-.236"/></g></svg>