<svg xmlns="http://www.w3.org/2000/svg" xmlns:xlink="http://www.w3.org/1999/xlink" width="174.38" height="50.75" xml:space="preserve"><defs><path id="a" d="M1353.88 1137.5v-1300H-566.13v1300"/></defs><clipPath id="b"><use xlink:href="#a" overflow="visible"/></clipPath><g clip-path="url(#b)"><defs><path id="c" d="M-566.13 1137.5v-1300h1920.01v1300"/></defs></g><g clip-path="url(#b)"><defs><path id="d" d="M-566.13 1137.5v-1300h1920.01v1300"/></defs></g><g clip-path="url(#b)"><defs><path id="e" d="M-566.13 1137.5v-1300h1920.01v1300"/></defs><clipPath id="f"><use xlink:href="#e" overflow="visible"/></clipPath><g opacity=".25" clip-path="url(#f)"><path fill="#007DF2" d="M462.07 727.63v2.58" opacity=".25"/></g></g><g clip-path="url(#b)"><defs><path id="g" d="M-566.13 1137.5v-1300h1920.01v1300"/></defs><clipPath id="h"><use xlink:href="#g" overflow="visible"/></clipPath><g opacity=".8" clip-path="url(#h)"><defs><path id="i" d="M239.97 10.57h237.78v29.76H239.97z"/></defs></g></g><g clip-path="url(#b)"><defs><path id="j" d="M-566.13 1137.5v-1300h1920.01v1300"/></defs><clipPath id="k"><use xlink:href="#j" overflow="visible"/></clipPath><path clip-path="url(#k)" fill="#0FF" d="M323.22 22.56c-.06 0-.1.04-.1.1"/><g opacity=".8" clip-path="url(#k)"><defs><path id="l" d="M5.16 10.57h32.23v28.72H5.16z"/></defs><clipPath id="m"><use xlink:href="#l" overflow="visible"/></clipPath><path clip-path="url(#m)" fill="#10ADC8" d="M37.39 10.57 24.44 39.29l-19.28-.16V26.31l7.1-15.74z"/></g><g opacity=".8" clip-path="url(#k)"><defs><path id="n" d="M28.64 10.57h18.1v28.79h-18.1z"/></defs><clipPath id="o"><use xlink:href="#n" overflow="visible"/></clipPath><path clip-path="url(#o)" fill="#10ADC8" d="M46.73 10.57 33.78 39.29l-.06.07h-.01l-5.07-.04L41.6 10.57z"/></g><path clip-path="url(#k)" fill="#043848" d="M10.43.77.74 22.25V48.9l161.6 1.24h.1l10.93-24.24.07-.16V.77H10.43zm162.52 24.51-10.71 23.75-161-1.23V22.71l9.4-20.83h162.31v23.4z"/><path clip-path="url(#k)" fill="#085967" d="M11.05 4.1 2.24 23.63v21.95l159.41 1.22h.17l10.13-22.45V4.1H11.05zm160.06 19.49-9.64 21.37L3.08 43.74V24.4L11.4 5.95h159.71v17.64z"/><g opacity=".8" clip-path="url(#k)"><defs><path id="p" d="M37.95 10.57h18.13v28.86H37.95z"/></defs><clipPath id="q"><use xlink:href="#p" overflow="visible"/></clipPath><path clip-path="url(#q)" fill="#10ADC8" d="M56.08 10.57 43.12 39.29l-.13.14-5.04-.04 13-28.82z"/></g><g opacity=".8" clip-path="url(#k)"><defs><path id="r" d="M47.26 10.57h121.77v29.76H47.26z"/></defs><clipPath id="s"><use xlink:href="#r" overflow="visible"/></clipPath><path clip-path="url(#s)" fill="#10ADC8" d="M169.03 10.57v11.11l-8.41 18.65-113.36-.86 13.03-28.9z"/></g></g><g clip-path="url(#b)"><defs><path id="t" d="M-94.09 33.73"/></defs><clipPath id="u"><use xlink:href="#t" overflow="visible"/></clipPath><path clip-path="url(#u)" fill="#00ACF9" d="M-119.39 9.72h2.22v.1h-2.22z"/><path clip-path="url(#u)" fill="#00AEF8" d="M-119.39 9.81h2.22v.29h-2.22z"/><path clip-path="url(#u)" fill="#00AFF8" d="M-119.39 10.1h2.22v.29h-2.22z"/><path clip-path="url(#u)" fill="#00B0F8" d="M-119.39 10.39h2.22v.29h-2.22z"/><path clip-path="url(#u)" fill="#00B2F8" d="M-119.39 10.68h2.22v.29h-2.22z"/><path clip-path="url(#u)" fill="#00B3F8" d="M-119.39 10.97h2.22v.29h-2.22z"/><path clip-path="url(#u)" fill="#00B4F8" d="M-119.39 11.26h2.22v.29h-2.22z"/><path clip-path="url(#u)" fill="#00B6F7" d="M-119.39 11.55h2.22v.29h-2.22z"/><path clip-path="url(#u)" fill="#00B7F7" d="M-119.4 11.83h2.22v.1h-2.22z"/><path clip-path="url(#u)" fill="#0080FF" d="M-121.58 2.02h2.23v.29h-2.23z"/><path clip-path="url(#u)" fill="#0082FF" d="M-121.58 2.31h2.23v.23h-2.23z"/><path clip-path="url(#u)" fill="#009AFB" d="M-125.01 6.28h1.86v.07h-1.86z"/><path clip-path="url(#u)" fill="#009BFB" d="M-125.01 6.35h1.86v.29h-1.86z"/><path clip-path="url(#u)" fill="#009DFB" d="M-125.01 6.64h1.86v.29h-1.86z"/><path clip-path="url(#u)" fill="#009FFB" d="M-125.01 6.93h1.86v.29h-1.86z"/><path clip-path="url(#u)" fill="#00A0FA" d="M-125.01 7.21h1.86v.29h-1.86z"/><path clip-path="url(#u)" fill="#00A2FA" d="M-125.01 7.5h1.86v.29h-1.86z"/><path clip-path="url(#u)" fill="#00A3FA" d="M-125.01 7.79h1.86v.29h-1.86z"/><path clip-path="url(#u)" fill="#00A5FA" d="M-125.01 8.08h1.86v.06h-1.86z"/><path clip-path="url(#u)" fill="#00ABF9" d="M-125.24 9.38h1.74v.15h-1.74z"/><path clip-path="url(#u)" fill="#00ACF9" d="M-125.24 9.52h1.74v.29h-1.74z"/><path clip-path="url(#u)" fill="#00AEF8" d="M-125.24 9.81h1.74v.29h-1.74z"/><path clip-path="url(#u)" fill="#00AFF8" d="M-125.24 10.1h1.74v.29h-1.74z"/><path clip-path="url(#u)" fill="#00B0F8" d="M-125.24 10.39h1.74v.29h-1.74z"/><path clip-path="url(#u)" fill="#00B2F8" d="M-125.24 10.68h1.74v.29h-1.74z"/><path clip-path="url(#u)" fill="#00B3F8" d="M-125.24 10.97h1.74v.16h-1.74z"/><path clip-path="url(#u)" fill="#00A9F9" d="M-128.15 9.22h1.48v.01h-1.48z"/><path clip-path="url(#u)" fill="#00ABF9" d="M-128.15 9.24h1.48v.29h-1.48z"/><path clip-path="url(#u)" fill="#00ACF9" d="M-128.15 9.52h1.48"/><path clip-path="url(#u)" fill="#0098FC" d="M-134.81 5.99h1.8v.07h-1.8z"/><path clip-path="url(#u)" fill="#009AFB" d="M-134.81 6.06h1.8v.29h-1.8z"/><path clip-path="url(#u)" fill="#009BFB" d="M-134.81 6.35h1.8v.29h-1.8z"/><path clip-path="url(#u)" fill="#009DFB" d="M-134.81 6.64h1.8v.29h-1.8z"/><path clip-path="url(#u)" fill="#009FFB" d="M-134.81 6.93h1.8v.29h-1.8z"/><path clip-path="url(#u)" fill="#00A0FA" d="M-134.81 7.21h1.8v.29h-1.8z"/><path clip-path="url(#u)" fill="#00A2FA" d="M-134.81 7.5h1.8v.28h-1.8z"/><path clip-path="url(#u)" fill="#00BBF7" d="M-137.51 12.94h1.34v.05h-1.34z"/><path clip-path="url(#u)" fill="#00BCF6" d="M-137.51 12.99h1.34v.29h-1.34z"/><path clip-path="url(#u)" fill="#00BDF6" d="M-137.51 13.28h1.34v.29h-1.34z"/><path clip-path="url(#u)" fill="#00BEF6" d="M-137.51 13.57h1.34v.29h-1.34z"/><path clip-path="url(#u)" fill="#00BFF6" d="M-137.51 13.86h1.34v.29h-1.34z"/><path clip-path="url(#u)" fill="#00C0F6" d="M-137.51 14.15h1.34v.14h-1.34z"/><path clip-path="url(#u)" fill="#00A0FA" d="M-138.52 7.24h1.63v.26h-1.63z"/><path clip-path="url(#u)" fill="#00A2FA" d="M-138.52 7.5h1.63v.29h-1.63z"/><path clip-path="url(#u)" fill="#00A3FA" d="M-138.52 7.79h1.63v.29h-1.63z"/><path clip-path="url(#u)" fill="#00A5FA" d="M-138.52 8.08h1.63v.29h-1.63z"/><path clip-path="url(#u)" fill="#00A6FA" d="M-138.52 8.37h1.63v.29h-1.63z"/><path clip-path="url(#u)" fill="#00A8F9" d="M-138.52 8.66h1.63v.21h-1.63z"/><path clip-path="url(#u)" fill="#00B7F7" d="M-144.42 11.88h1.11v.25h-1.11z"/><path clip-path="url(#u)" fill="#00B8F7" d="M-144.42 12.12h1.11v.29h-1.11z"/><path clip-path="url(#u)" fill="#00B9F7" d="M-144.42 12.41h1.11v.29h-1.11z"/><path clip-path="url(#u)" fill="#00BBF7" d="M-144.42 12.7h1.11v.29h-1.11z"/><path clip-path="url(#u)" fill="#00BCF6" d="M-144.42 12.99h1.11-1.11z"/><path clip-path="url(#u)" fill="#0080FF" d="M-149.23 2.02h55.14v.29h-55.14z"/><path clip-path="url(#u)" fill="#0082FF" d="M-149.23 2.31h55.14v.29h-55.14z"/><path clip-path="url(#u)" fill="#0084FE" d="M-149.23 2.6h55.14v.29h-55.14z"/><path clip-path="url(#u)" fill="#0086FE" d="M-149.23 2.88h55.14v.29h-55.14z"/><path clip-path="url(#u)" fill="#0088FE" d="M-149.23 3.17h55.14v.29h-55.14z"/><path clip-path="url(#u)" fill="#008AFE" d="M-149.23 3.46h55.14v.29h-55.14z"/><path clip-path="url(#u)" fill="#008BFD" d="M-149.23 3.75h55.14v.29h-55.14z"/><path clip-path="url(#u)" fill="#008DFD" d="M-149.23 4.04h55.14v.29h-55.14z"/><path clip-path="url(#u)" fill="#008FFD" d="M-149.23 4.33h55.14v.29h-55.14z"/><path clip-path="url(#u)" fill="#0091FD" d="M-149.23 4.62h55.14v.29h-55.14z"/><path clip-path="url(#u)" fill="#0093FC" d="M-149.23 4.91h55.14v.29h-55.14z"/><path clip-path="url(#u)" fill="#0094FC" d="M-149.23 5.19h55.14v.29h-55.14z"/><path clip-path="url(#u)" fill="#0096FC" d="M-149.23 5.48h55.14v.29h-55.14z"/><path clip-path="url(#u)" fill="#0098FC" d="M-149.23 5.77h55.14v.29h-55.14z"/><path clip-path="url(#u)" fill="#009AFB" d="M-149.23 6.06h55.14v.29h-55.14z"/><path clip-path="url(#u)" fill="#009BFB" d="M-149.23 6.35h55.14v.29h-55.14z"/><path clip-path="url(#u)" fill="#009DFB" d="M-149.23 6.64h55.14v.29h-55.14z"/><path clip-path="url(#u)" fill="#009FFB" d="M-149.23 6.93h55.14v.29h-55.14z"/><path clip-path="url(#u)" fill="#00A0FA" d="M-149.23 7.21h55.14v.29h-55.14z"/><path clip-path="url(#u)" fill="#00A2FA" d="M-149.23 7.5h55.14v.29h-55.14z"/><path clip-path="url(#u)" fill="#00A3FA" d="M-149.23 7.79h55.14v.29h-55.14z"/><path clip-path="url(#u)" fill="#00A5FA" d="M-94.09 8.08v.29h-55.14v-.29"/><path clip-path="url(#u)" fill="#00A6FA" d="M-149.23 8.37h55.14v.29h-55.14z"/><path clip-path="url(#u)" fill="#00A8F9" d="M-149.23 8.66h55.14v.29h-55.14z"/><path clip-path="url(#u)" fill="#00A9F9" d="M-149.23 8.95h55.14v.29h-55.14z"/><path clip-path="url(#u)" fill="#00ABF9" d="M-149.23 9.24h55.14v.29h-55.14z"/><path clip-path="url(#u)" fill="#00ACF9" d="M-149.23 9.81v-.29h55.14v.29"/><path clip-path="url(#u)" fill="#00AEF8" d="M-94.09 9.81v.29M-149.23 10.1v-.29"/><path clip-path="url(#u)" fill="#00AFF8" d="M-94.09 10.1v.29M-149.23 10.39v-.29"/><path clip-path="url(#u)" fill="#00B0F8" d="M-94.09 10.39v.29M-149.23 10.68v-.29"/><path clip-path="url(#u)" fill="#00B2F8" d="M-94.09 10.68v.29M-149.23 10.97v-.29"/><path clip-path="url(#u)" fill="#00B3F8" d="M-94.09 10.97v.29M-149.23 11.26v-.29"/><path clip-path="url(#u)" fill="#00B4F8" d="M-94.09 11.26v.29M-149.23 11.55v-.29"/><path clip-path="url(#u)" fill="#00B6F7" d="M-94.09 11.55v.28M-149.23 11.83v-.28"/><path clip-path="url(#u)" fill="#00B7F7" d="M-94.09 11.83v.29M-149.23 12.12v-.29"/><path clip-path="url(#u)" fill="#00B8F7" d="M-94.09 12.12v.29M-149.23 12.41v-.29"/><path clip-path="url(#u)" fill="#00B9F7" d="M-94.09 12.41v.29M-149.23 12.7v-.29"/><path clip-path="url(#u)" fill="#00BBF7" d="M-94.09 12.7v.29M-149.23 12.99v-.29"/><path clip-path="url(#u)" fill="#00BCF6" d="M-94.09 12.99v.29M-149.23 13.28v-.29"/><path clip-path="url(#u)" fill="#00BDF6" d="M-94.09 13.28v.29M-149.23 13.57v-.29"/><path clip-path="url(#u)" fill="#00BEF6" d="M-94.09 13.57v.29M-149.23 13.86v-.29"/><path clip-path="url(#u)" fill="#00BFF6" d="M-94.09 13.86v.29M-149.23 14.15v-.29"/><path clip-path="url(#u)" fill="#00C0F6" d="M-94.09 14.15v.28M-149.23 14.43v-.28"/><path clip-path="url(#u)" fill="#00C1F6" d="M-94.09 14.43v.29M-149.23 14.72v-.29"/><path clip-path="url(#u)" fill="#00C2F6" d="M-94.09 14.72v.29M-149.23 15.01v-.29"/><path clip-path="url(#u)" fill="#00C3F5" d="M-94.09 15.01v.29M-149.23 15.3v-.29"/><path clip-path="url(#u)" fill="#00CDF4" d="M-94.09 17.9v.29M-94.09 18.19v.29"/><path clip-path="url(#u)" fill="#00CEF4" d="M-94.09 18.48v.29"/><path clip-path="url(#u)" fill="#00CFF4" d="M-94.09 18.76v.29"/><path clip-path="url(#u)" fill="#00D0F4" d="M-94.09 19.05v.29M-94.09 19.34v.29"/><path clip-path="url(#u)" fill="#00D1F3" d="M-94.09 19.63v.29"/><path clip-path="url(#u)" fill="#00D2F3" d="M-94.09 19.92v.29M-94.09 20.21v.29"/><path clip-path="url(#u)" fill="#00D3F3" d="M-94.09 20.5v.29"/><path clip-path="url(#u)" fill="#00D4F3" d="M-94.09 20.79v.28M-94.09 21.07v.29"/><path clip-path="url(#u)" fill="#00D5F3" d="M-94.09 21.36v.29M-94.09 21.65v.29"/><path clip-path="url(#u)" fill="#00D6F3" d="M-94.09 21.94v.29M-94.09 22.23v.29"/><path clip-path="url(#u)" fill="#00D7F3" d="M-94.09 22.52v.29M-94.09 22.81v.29M-94.09 23.1v.28"/><path clip-path="url(#u)" fill="#00D8F2" d="M-94.09 23.38v.29M-94.09 23.67v.29"/><path clip-path="url(#u)" fill="#00D9F2" d="M-94.09 23.96v.29M-94.09 24.25v.29M-94.09 24.54v.29M-94.09 24.83v.29"/><path clip-path="url(#u)" fill="#00DAF2" d="M-94.09 25.12v.29M-94.09 25.41v.28M-94.09 25.69v.29M-94.09 25.98v.29"/><path clip-path="url(#u)" fill="#00DBF2" d="M-94.09 26.27v.29M-94.09 26.56v.29M-94.09 26.85v.29M-94.09 27.14v.29M-94.09 27.43v.28M-94.09 27.71V28M-94.09 28v.29M-94.09 28.29v.46"/><path clip-path="url(#u)" fill="#00DCF2" d="M-94.09 28.75v.45"/><path clip-path="url(#u)" fill="#00DDF3" d="M-94.09 29.2v.45"/><path clip-path="url(#u)" fill="#00DEF3" d="M-94.09 29.65v.45"/><path clip-path="url(#u)" fill="#00DFF3" d="M-94.09 30.1v.45"/><path clip-path="url(#u)" fill="#00E0F4" d="M-94.09 30.55V31"/><path clip-path="url(#u)" fill="#00E1F4" d="M-94.09 31v.46"/><path clip-path="url(#u)" fill="#00E2F5" d="M-94.09 31.46v.45"/><path clip-path="url(#u)" fill="#00E3F5" d="M-94.09 31.91v.45"/><path clip-path="url(#u)" fill="#00E4F5" d="M-94.09 32.36v.45"/><path clip-path="url(#u)" fill="#00E5F6" d="M-94.09 32.81v.45"/><path clip-path="url(#u)" fill="#00E6F6" d="M-94.09 33.26v.45"/><path clip-path="url(#u)" fill="#00E7F6" d="M-94.09 33.71v.46"/><path clip-path="url(#u)" fill="#00E8F7" d="M-94.09 34.17v.45"/><path clip-path="url(#u)" fill="#00E9F7" d="M-94.09 34.62v.45"/><path clip-path="url(#u)" fill="#00EAF8" d="M-94.09 35.07v.45"/><path clip-path="url(#u)" fill="#00EBF8" d="M-94.09 35.52v.45"/><path clip-path="url(#u)" fill="#00ECF8" d="M-94.09 35.97v.46"/><path clip-path="url(#u)" fill="#00EEF9" d="M-94.09 36.42v.46"/><path clip-path="url(#u)" fill="#00EFF9" d="M-94.09 36.88v.31"/></g><g clip-path="url(#b)"><defs><path id="v" d="m-137.25-19.5-.19 1.1"/></defs><clipPath id="w"><use xlink:href="#v" overflow="visible"/></clipPath><path clip-path="url(#w)" fill="#0029FF" d="M-137.44-18.31v-1.19M-137.44-18.22v-.09"/></g><g clip-path="url(#b)"><clipPath id="y"><use xlink:href="#x" overflow="visible"/></clipPath><path clip-path="url(#y)" fill="#002CFF" d="M-137.79-17.56v-.24"/></g></svg>