<?xml version="1.0" encoding="utf-8"?>
<!-- Generator: Adobe Illustrator 16.0.3, SVG Export Plug-In . SVG Version: 6.00 Build 0)  -->
<!DOCTYPE svg PUBLIC "-//W3C//DTD SVG 1.1//EN" "http://www.w3.org/Graphics/SVG/1.1/DTD/svg11.dtd" [
	<!ENTITY ns_flows "http://ns.adobe.com/Flows/1.0/">
	<!ENTITY ns_extend "http://ns.adobe.com/Extensibility/1.0/">
	<!ENTITY ns_ai "http://ns.adobe.com/AdobeIllustrator/10.0/">
	<!ENTITY ns_graphs "http://ns.adobe.com/Graphs/1.0/">
]>
<svg version="1.1" id="Capa_1" xmlns:x="&ns_extend;" xmlns:i="&ns_ai;" xmlns:graph="&ns_graphs;"
	 xmlns="http://www.w3.org/2000/svg" xmlns:xlink="http://www.w3.org/1999/xlink" xmlns:a="http://ns.adobe.com/AdobeSVGViewerExtensions/3.0/"
	 x="0px" y="0px" width="165.3px" height="30.5px" viewBox="0 0 165.3 30.5" enable-background="new 0 0 165.3 30.5"
	 xml:space="preserve">
<g>
	<defs>
		<polyline id="SVGID_1_" points="1349.5,1127.6 1349.5,-172.4 -570.5,-172.4 -570.5,1127.6 		"/>
	</defs>
	<clipPath id="SVGID_2_">
		<use xlink:href="#SVGID_1_"  overflow="visible"/>
	</clipPath>
	<g clip-path="url(#SVGID_2_)">
		<defs>
			<polyline id="SVGID_3_" points="-570.5,1127.6 -570.5,-172.4 1349.5,-172.4 1349.5,1127.6 			"/>
		</defs>
		<clipPath id="SVGID_4_">
			<use xlink:href="#SVGID_3_"  overflow="visible"/>
		</clipPath>
	</g>
	<g clip-path="url(#SVGID_2_)">
		<defs>
			<polyline id="SVGID_5_" points="-570.5,1127.6 -570.5,-172.4 1349.5,-172.4 1349.5,1127.6 			"/>
		</defs>
		<clipPath id="SVGID_6_">
			<use xlink:href="#SVGID_5_"  overflow="visible"/>
		</clipPath>
	</g>
	<g clip-path="url(#SVGID_2_)">
		<defs>
			<polyline id="SVGID_7_" points="-570.5,1127.6 -570.5,-172.4 1349.5,-172.4 1349.5,1127.6 			"/>
		</defs>
		<clipPath id="SVGID_8_">
			<use xlink:href="#SVGID_7_"  overflow="visible"/>
		</clipPath>
		<g opacity="0.25" clip-path="url(#SVGID_8_)">
			<g>
				<g opacity="0.25">
					<g>
						<line fill="#007DF2" x1="457.7" y1="717.8" x2="457.7" y2="720.3"/>
					</g>
				</g>
			</g>
		</g>
	</g>
	<g clip-path="url(#SVGID_2_)">
		<defs>
			<polyline id="SVGID_9_" points="-570.5,1127.6 -570.5,-172.4 1349.5,-172.4 1349.5,1127.6 			"/>
		</defs>
		<clipPath id="SVGID_10_">
			<use xlink:href="#SVGID_9_"  overflow="visible"/>
		</clipPath>
		<g opacity="0.8" clip-path="url(#SVGID_10_)">
			<g>
				<defs>
					<rect id="SVGID_11_" x="235.6" y="0.7" width="237.8" height="29.8"/>
				</defs>
				<clipPath id="SVGID_12_">
					<use xlink:href="#SVGID_11_"  overflow="visible"/>
				</clipPath>
			</g>
		</g>
	</g>
	<g clip-path="url(#SVGID_2_)">
		<defs>
			<polyline id="SVGID_13_" points="-570.5,1127.6 -570.5,-172.4 1349.5,-172.4 1349.5,1127.6 			"/>
		</defs>
		<clipPath id="SVGID_14_">
			<use xlink:href="#SVGID_13_"  overflow="visible"/>
		</clipPath>
		<path clip-path="url(#SVGID_14_)" fill="#00FFFF" d="M318.8,15.6 M318.8,12.7C318.8,12.7,318.8,12.7,318.8,12.7"/>
		<g opacity="0.8" clip-path="url(#SVGID_14_)">
			<g>
				<defs>
					<rect id="SVGID_15_" x="0.8" y="0.7" width="32.2" height="28.7"/>
				</defs>
				<clipPath id="SVGID_16_">
					<use xlink:href="#SVGID_15_"  overflow="visible"/>
				</clipPath>
				<polygon clip-path="url(#SVGID_16_)" fill="#10ADC8" points="33,0.7 20.1,29.4 0.8,29.3 0.8,16.4 7.9,0.7 				"/>
			</g>
		</g>
		<g opacity="0.8" clip-path="url(#SVGID_14_)">
			<g>
				<defs>
					<rect id="SVGID_17_" x="24.3" y="0.7" width="18.1" height="28.8"/>
				</defs>
				<clipPath id="SVGID_18_">
					<use xlink:href="#SVGID_17_"  overflow="visible"/>
				</clipPath>
				<polygon clip-path="url(#SVGID_18_)" fill="#10ADC8" points="42.4,0.7 29.4,29.4 29.3,29.5 29.3,29.5 24.3,29.4 37.2,0.7 				
					"/>
			</g>
		</g>
		<g opacity="0.8" clip-path="url(#SVGID_14_)">
			<g>
				<defs>
					<rect id="SVGID_19_" x="33.6" y="0.7" width="18.1" height="28.9"/>
				</defs>
				<clipPath id="SVGID_20_">
					<use xlink:href="#SVGID_19_"  overflow="visible"/>
				</clipPath>
				<polygon clip-path="url(#SVGID_20_)" fill="#10ADC8" points="51.7,0.7 38.7,29.4 38.6,29.6 33.6,29.5 46.6,0.7 				"/>
			</g>
		</g>
		<g opacity="0.8" clip-path="url(#SVGID_14_)">
			<g>
				<defs>
					<rect id="SVGID_21_" x="42.9" y="0.7" width="121.8" height="29.8"/>
				</defs>
				<clipPath id="SVGID_22_">
					<use xlink:href="#SVGID_21_"  overflow="visible"/>
				</clipPath>
				<polygon clip-path="url(#SVGID_22_)" fill="#10ADC8" points="164.7,0.7 164.7,11.8 156.2,30.5 42.9,29.6 55.9,0.7 				"/>
			</g>
		</g>
		<path clip-path="url(#SVGID_14_)" fill="#10ADC8" d="M733.5,29.4"/>
	</g>
	<g clip-path="url(#SVGID_2_)">
		<defs>
			<path id="SVGID_23_" d="M-131.7-0.7 M-98.5,23.9"/>
		</defs>
		<clipPath id="SVGID_24_">
			<use xlink:href="#SVGID_23_"  overflow="visible"/>
		</clipPath>
		<rect x="-123.8" y="-0.2" clip-path="url(#SVGID_24_)" fill="#00ACF9" width="2.2" height="0.1"/>
		<rect x="-123.8" y="-0.1" clip-path="url(#SVGID_24_)" fill="#00AEF8" width="2.2" height="0.3"/>
		<rect x="-123.8" y="0.2" clip-path="url(#SVGID_24_)" fill="#00AFF8" width="2.2" height="0.3"/>
		<rect x="-123.8" y="0.5" clip-path="url(#SVGID_24_)" fill="#00B0F8" width="2.2" height="0.3"/>
		<rect x="-123.8" y="0.8" clip-path="url(#SVGID_24_)" fill="#00B2F8" width="2.2" height="0.3"/>
		<rect x="-123.8" y="1.1" clip-path="url(#SVGID_24_)" fill="#00B3F8" width="2.2" height="0.3"/>
		<rect x="-123.8" y="1.4" clip-path="url(#SVGID_24_)" fill="#00B4F8" width="2.2" height="0.3"/>
		<rect x="-123.8" y="1.7" clip-path="url(#SVGID_24_)" fill="#00B6F7" width="2.2" height="0.3"/>
		<rect x="-123.8" y="2" clip-path="url(#SVGID_24_)" fill="#00B7F7" width="2.2" height="0.1"/>
		<rect x="-126" y="-7.9" clip-path="url(#SVGID_24_)" fill="#0080FF" width="2.2" height="0.3"/>
		<rect x="-126" y="-7.6" clip-path="url(#SVGID_24_)" fill="#0082FF" width="2.2" height="0.2"/>
		<rect x="-129.4" y="-3.6" clip-path="url(#SVGID_24_)" fill="#009AFB" width="1.9" height="0.1"/>
		<rect x="-129.4" y="-3.5" clip-path="url(#SVGID_24_)" fill="#009BFB" width="1.9" height="0.3"/>
		<rect x="-129.4" y="-3.2" clip-path="url(#SVGID_24_)" fill="#009DFB" width="1.9" height="0.3"/>
		<rect x="-129.4" y="-2.9" clip-path="url(#SVGID_24_)" fill="#009FFB" width="1.9" height="0.3"/>
		<rect x="-129.4" y="-2.7" clip-path="url(#SVGID_24_)" fill="#00A0FA" width="1.9" height="0.3"/>
		<rect x="-129.4" y="-2.4" clip-path="url(#SVGID_24_)" fill="#00A2FA" width="1.9" height="0.3"/>
		<rect x="-129.4" y="-2.1" clip-path="url(#SVGID_24_)" fill="#00A3FA" width="1.9" height="0.3"/>
		<rect x="-129.4" y="-1.8" clip-path="url(#SVGID_24_)" fill="#00A5FA" width="1.9" height="0.1"/>
		<rect x="-129.6" y="-0.5" clip-path="url(#SVGID_24_)" fill="#00ABF9" width="1.7" height="0.1"/>
		<rect x="-129.6" y="-0.4" clip-path="url(#SVGID_24_)" fill="#00ACF9" width="1.7" height="0.3"/>
		<rect x="-129.6" y="-0.1" clip-path="url(#SVGID_24_)" fill="#00AEF8" width="1.7" height="0.3"/>
		<rect x="-129.6" y="0.2" clip-path="url(#SVGID_24_)" fill="#00AFF8" width="1.7" height="0.3"/>
		<rect x="-129.6" y="0.5" clip-path="url(#SVGID_24_)" fill="#00B0F8" width="1.7" height="0.3"/>
		<rect x="-129.6" y="0.8" clip-path="url(#SVGID_24_)" fill="#00B2F8" width="1.7" height="0.3"/>
		<rect x="-129.6" y="1.1" clip-path="url(#SVGID_24_)" fill="#00B3F8" width="1.7" height="0.2"/>
		<rect x="-132.5" y="-0.7" clip-path="url(#SVGID_24_)" fill="#00A9F9" width="1.5" height="0"/>
		<rect x="-132.5" y="-0.6" clip-path="url(#SVGID_24_)" fill="#00ABF9" width="1.5" height="0.3"/>
		<line clip-path="url(#SVGID_24_)" fill="#00ACF9" x1="-132.5" y1="-0.4" x2="-131" y2="-0.4"/>
		<rect x="-139.2" y="-3.9" clip-path="url(#SVGID_24_)" fill="#0098FC" width="1.8" height="0.1"/>
		<rect x="-139.2" y="-3.8" clip-path="url(#SVGID_24_)" fill="#009AFB" width="1.8" height="0.3"/>
		<rect x="-139.2" y="-3.5" clip-path="url(#SVGID_24_)" fill="#009BFB" width="1.8" height="0.3"/>
		<rect x="-139.2" y="-3.2" clip-path="url(#SVGID_24_)" fill="#009DFB" width="1.8" height="0.3"/>
		<rect x="-139.2" y="-2.9" clip-path="url(#SVGID_24_)" fill="#009FFB" width="1.8" height="0.3"/>
		<rect x="-139.2" y="-2.7" clip-path="url(#SVGID_24_)" fill="#00A0FA" width="1.8" height="0.3"/>
		<rect x="-139.2" y="-2.4" clip-path="url(#SVGID_24_)" fill="#00A2FA" width="1.8" height="0.3"/>
		<rect x="-141.9" y="3.1" clip-path="url(#SVGID_24_)" fill="#00BBF7" width="1.3" height="0"/>
		<rect x="-141.9" y="3.1" clip-path="url(#SVGID_24_)" fill="#00BCF6" width="1.3" height="0.3"/>
		<rect x="-141.9" y="3.4" clip-path="url(#SVGID_24_)" fill="#00BDF6" width="1.3" height="0.3"/>
		<rect x="-141.9" y="3.7" clip-path="url(#SVGID_24_)" fill="#00BEF6" width="1.3" height="0.3"/>
		<rect x="-141.9" y="4" clip-path="url(#SVGID_24_)" fill="#00BFF6" width="1.3" height="0.3"/>
		<rect x="-141.9" y="4.3" clip-path="url(#SVGID_24_)" fill="#00C0F6" width="1.3" height="0.1"/>
		<rect x="-142.9" y="-2.6" clip-path="url(#SVGID_24_)" fill="#00A0FA" width="1.6" height="0.3"/>
		<rect x="-142.9" y="-2.4" clip-path="url(#SVGID_24_)" fill="#00A2FA" width="1.6" height="0.3"/>
		<rect x="-142.9" y="-2.1" clip-path="url(#SVGID_24_)" fill="#00A3FA" width="1.6" height="0.3"/>
		<rect x="-142.9" y="-1.8" clip-path="url(#SVGID_24_)" fill="#00A5FA" width="1.6" height="0.3"/>
		<rect x="-142.9" y="-1.5" clip-path="url(#SVGID_24_)" fill="#00A6FA" width="1.6" height="0.3"/>
		<rect x="-142.9" y="-1.2" clip-path="url(#SVGID_24_)" fill="#00A8F9" width="1.6" height="0.2"/>
		<rect x="-148.8" y="2" clip-path="url(#SVGID_24_)" fill="#00B7F7" width="1.1" height="0.2"/>
		<rect x="-148.8" y="2.2" clip-path="url(#SVGID_24_)" fill="#00B8F7" width="1.1" height="0.3"/>
		<rect x="-148.8" y="2.5" clip-path="url(#SVGID_24_)" fill="#00B9F7" width="1.1" height="0.3"/>
		<rect x="-148.8" y="2.8" clip-path="url(#SVGID_24_)" fill="#00BBF7" width="1.1" height="0.3"/>
		<path clip-path="url(#SVGID_24_)" fill="#00BCF6" d="M-148.8,3.1h1.1H-148.8z"/>
		<rect x="-153.6" y="-7.9" clip-path="url(#SVGID_24_)" fill="#0080FF" width="55.1" height="0.3"/>
		<rect x="-153.6" y="-7.6" clip-path="url(#SVGID_24_)" fill="#0082FF" width="55.1" height="0.3"/>
		<rect x="-153.6" y="-7.3" clip-path="url(#SVGID_24_)" fill="#0084FE" width="55.1" height="0.3"/>
		<rect x="-153.6" y="-7" clip-path="url(#SVGID_24_)" fill="#0086FE" width="55.1" height="0.3"/>
		<rect x="-153.6" y="-6.7" clip-path="url(#SVGID_24_)" fill="#0088FE" width="55.1" height="0.3"/>
		<rect x="-153.6" y="-6.4" clip-path="url(#SVGID_24_)" fill="#008AFE" width="55.1" height="0.3"/>
		<rect x="-153.6" y="-6.1" clip-path="url(#SVGID_24_)" fill="#008BFD" width="55.1" height="0.3"/>
		<rect x="-153.6" y="-5.8" clip-path="url(#SVGID_24_)" fill="#008DFD" width="55.1" height="0.3"/>
		<rect x="-153.6" y="-5.5" clip-path="url(#SVGID_24_)" fill="#008FFD" width="55.1" height="0.3"/>
		<rect x="-153.6" y="-5.3" clip-path="url(#SVGID_24_)" fill="#0091FD" width="55.1" height="0.3"/>
		<rect x="-153.6" y="-5" clip-path="url(#SVGID_24_)" fill="#0093FC" width="55.1" height="0.3"/>
		<rect x="-153.6" y="-4.7" clip-path="url(#SVGID_24_)" fill="#0094FC" width="55.1" height="0.3"/>
		<rect x="-153.6" y="-4.4" clip-path="url(#SVGID_24_)" fill="#0096FC" width="55.1" height="0.3"/>
		<rect x="-153.6" y="-4.1" clip-path="url(#SVGID_24_)" fill="#0098FC" width="55.1" height="0.3"/>
		<rect x="-153.6" y="-3.8" clip-path="url(#SVGID_24_)" fill="#009AFB" width="55.1" height="0.3"/>
		<rect x="-153.6" y="-3.5" clip-path="url(#SVGID_24_)" fill="#009BFB" width="55.1" height="0.3"/>
		<rect x="-153.6" y="-3.2" clip-path="url(#SVGID_24_)" fill="#009DFB" width="55.1" height="0.3"/>
		<rect x="-153.6" y="-2.9" clip-path="url(#SVGID_24_)" fill="#009FFB" width="55.1" height="0.3"/>
		<rect x="-153.6" y="-2.7" clip-path="url(#SVGID_24_)" fill="#00A0FA" width="55.1" height="0.3"/>
		<rect x="-153.6" y="-2.4" clip-path="url(#SVGID_24_)" fill="#00A2FA" width="55.1" height="0.3"/>
		<rect x="-153.6" y="-2.1" clip-path="url(#SVGID_24_)" fill="#00A3FA" width="55.1" height="0.3"/>
		<polyline clip-path="url(#SVGID_24_)" fill="#00A5FA" points="-98.5,-1.8 -98.5,-1.5 -153.6,-1.5 -153.6,-1.8 		"/>
		<rect x="-153.6" y="-1.5" clip-path="url(#SVGID_24_)" fill="#00A6FA" width="55.1" height="0.3"/>
		<rect x="-153.6" y="-1.2" clip-path="url(#SVGID_24_)" fill="#00A8F9" width="55.1" height="0.3"/>
		<rect x="-153.6" y="-0.9" clip-path="url(#SVGID_24_)" fill="#00A9F9" width="55.1" height="0.3"/>
		<rect x="-153.6" y="-0.6" clip-path="url(#SVGID_24_)" fill="#00ABF9" width="55.1" height="0.3"/>
		<polyline clip-path="url(#SVGID_24_)" fill="#00ACF9" points="-153.6,-0.1 -153.6,-0.4 -98.5,-0.4 -98.5,-0.1 		"/>
		<line clip-path="url(#SVGID_24_)" fill="#00AEF8" x1="-98.5" y1="-0.1" x2="-98.5" y2="0.2"/>
		<line clip-path="url(#SVGID_24_)" fill="#00AEF8" x1="-153.6" y1="0.2" x2="-153.6" y2="-0.1"/>
		<line clip-path="url(#SVGID_24_)" fill="#00AFF8" x1="-98.5" y1="0.2" x2="-98.5" y2="0.5"/>
		<line clip-path="url(#SVGID_24_)" fill="#00AFF8" x1="-153.6" y1="0.5" x2="-153.6" y2="0.2"/>
		<line clip-path="url(#SVGID_24_)" fill="#00B0F8" x1="-98.5" y1="0.5" x2="-98.5" y2="0.8"/>
		<line clip-path="url(#SVGID_24_)" fill="#00B0F8" x1="-153.6" y1="0.8" x2="-153.6" y2="0.5"/>
		<line clip-path="url(#SVGID_24_)" fill="#00B2F8" x1="-98.5" y1="0.8" x2="-98.5" y2="1.1"/>
		<line clip-path="url(#SVGID_24_)" fill="#00B2F8" x1="-153.6" y1="1.1" x2="-153.6" y2="0.8"/>
		<line clip-path="url(#SVGID_24_)" fill="#00B3F8" x1="-98.5" y1="1.1" x2="-98.5" y2="1.4"/>
		<line clip-path="url(#SVGID_24_)" fill="#00B3F8" x1="-153.6" y1="1.4" x2="-153.6" y2="1.1"/>
		<line clip-path="url(#SVGID_24_)" fill="#00B4F8" x1="-98.5" y1="1.4" x2="-98.5" y2="1.7"/>
		<line clip-path="url(#SVGID_24_)" fill="#00B4F8" x1="-153.6" y1="1.7" x2="-153.6" y2="1.4"/>
		<line clip-path="url(#SVGID_24_)" fill="#00B6F7" x1="-98.5" y1="1.7" x2="-98.5" y2="2"/>
		<line clip-path="url(#SVGID_24_)" fill="#00B6F7" x1="-153.6" y1="2" x2="-153.6" y2="1.7"/>
		<line clip-path="url(#SVGID_24_)" fill="#00B7F7" x1="-98.5" y1="2" x2="-98.5" y2="2.2"/>
		<line clip-path="url(#SVGID_24_)" fill="#00B7F7" x1="-153.6" y1="2.2" x2="-153.6" y2="2"/>
		<line clip-path="url(#SVGID_24_)" fill="#00B8F7" x1="-98.5" y1="2.2" x2="-98.5" y2="2.5"/>
		<line clip-path="url(#SVGID_24_)" fill="#00B8F7" x1="-153.6" y1="2.5" x2="-153.6" y2="2.2"/>
		<line clip-path="url(#SVGID_24_)" fill="#00B9F7" x1="-98.5" y1="2.5" x2="-98.5" y2="2.8"/>
		<line clip-path="url(#SVGID_24_)" fill="#00B9F7" x1="-153.6" y1="2.8" x2="-153.6" y2="2.5"/>
		<line clip-path="url(#SVGID_24_)" fill="#00BBF7" x1="-98.5" y1="2.8" x2="-98.5" y2="3.1"/>
		<line clip-path="url(#SVGID_24_)" fill="#00BBF7" x1="-153.6" y1="3.1" x2="-153.6" y2="2.8"/>
		<line clip-path="url(#SVGID_24_)" fill="#00BCF6" x1="-98.5" y1="3.1" x2="-98.5" y2="3.4"/>
		<line clip-path="url(#SVGID_24_)" fill="#00BCF6" x1="-153.6" y1="3.4" x2="-153.6" y2="3.1"/>
		<line clip-path="url(#SVGID_24_)" fill="#00BDF6" x1="-98.5" y1="3.4" x2="-98.5" y2="3.7"/>
		<line clip-path="url(#SVGID_24_)" fill="#00BDF6" x1="-153.6" y1="3.7" x2="-153.6" y2="3.4"/>
		<line clip-path="url(#SVGID_24_)" fill="#00BEF6" x1="-98.5" y1="3.7" x2="-98.5" y2="4"/>
		<line clip-path="url(#SVGID_24_)" fill="#00BEF6" x1="-153.6" y1="4" x2="-153.6" y2="3.7"/>
		<line clip-path="url(#SVGID_24_)" fill="#00BFF6" x1="-98.5" y1="4" x2="-98.5" y2="4.3"/>
		<line clip-path="url(#SVGID_24_)" fill="#00BFF6" x1="-153.6" y1="4.3" x2="-153.6" y2="4"/>
		<line clip-path="url(#SVGID_24_)" fill="#00C0F6" x1="-98.5" y1="4.3" x2="-98.5" y2="4.6"/>
		<line clip-path="url(#SVGID_24_)" fill="#00C0F6" x1="-153.6" y1="4.6" x2="-153.6" y2="4.3"/>
		<line clip-path="url(#SVGID_24_)" fill="#00C1F6" x1="-98.5" y1="4.6" x2="-98.5" y2="4.8"/>
		<line clip-path="url(#SVGID_24_)" fill="#00C1F6" x1="-153.6" y1="4.8" x2="-153.6" y2="4.6"/>
		<line clip-path="url(#SVGID_24_)" fill="#00C2F6" x1="-98.5" y1="4.8" x2="-98.5" y2="5.1"/>
		<line clip-path="url(#SVGID_24_)" fill="#00C2F6" x1="-153.6" y1="5.1" x2="-153.6" y2="4.8"/>
		<line clip-path="url(#SVGID_24_)" fill="#00C3F5" x1="-98.5" y1="5.1" x2="-98.5" y2="5.4"/>
		<line clip-path="url(#SVGID_24_)" fill="#00C3F5" x1="-153.6" y1="5.4" x2="-153.6" y2="5.1"/>
		<line clip-path="url(#SVGID_24_)" fill="#00CDF4" x1="-98.5" y1="8" x2="-98.5" y2="8.3"/>
		<line clip-path="url(#SVGID_24_)" fill="#00CDF4" x1="-98.5" y1="8.3" x2="-98.5" y2="8.6"/>
		<line clip-path="url(#SVGID_24_)" fill="#00CEF4" x1="-98.5" y1="8.6" x2="-98.5" y2="8.9"/>
		<line clip-path="url(#SVGID_24_)" fill="#00CFF4" x1="-98.5" y1="8.9" x2="-98.5" y2="9.2"/>
		<line clip-path="url(#SVGID_24_)" fill="#00D0F4" x1="-98.5" y1="9.2" x2="-98.5" y2="9.5"/>
		<line clip-path="url(#SVGID_24_)" fill="#00D0F4" x1="-98.5" y1="9.5" x2="-98.5" y2="9.8"/>
		<line clip-path="url(#SVGID_24_)" fill="#00D1F3" x1="-98.5" y1="9.8" x2="-98.5" y2="10"/>
		<line clip-path="url(#SVGID_24_)" fill="#00D2F3" x1="-98.5" y1="10" x2="-98.5" y2="10.3"/>
		<line clip-path="url(#SVGID_24_)" fill="#00D2F3" x1="-98.5" y1="10.3" x2="-98.5" y2="10.6"/>
		<line clip-path="url(#SVGID_24_)" fill="#00D3F3" x1="-98.5" y1="10.6" x2="-98.5" y2="10.9"/>
		<line clip-path="url(#SVGID_24_)" fill="#00D4F3" x1="-98.5" y1="10.9" x2="-98.5" y2="11.2"/>
		<line clip-path="url(#SVGID_24_)" fill="#00D4F3" x1="-98.5" y1="11.2" x2="-98.5" y2="11.5"/>
		<line clip-path="url(#SVGID_24_)" fill="#00D5F3" x1="-98.5" y1="11.5" x2="-98.5" y2="11.8"/>
		<line clip-path="url(#SVGID_24_)" fill="#00D5F3" x1="-98.5" y1="11.8" x2="-98.5" y2="12.1"/>
		<line clip-path="url(#SVGID_24_)" fill="#00D6F3" x1="-98.5" y1="12.1" x2="-98.5" y2="12.4"/>
		<line clip-path="url(#SVGID_24_)" fill="#00D6F3" x1="-98.5" y1="12.4" x2="-98.5" y2="12.6"/>
		<line clip-path="url(#SVGID_24_)" fill="#00D7F3" x1="-98.5" y1="12.6" x2="-98.5" y2="12.9"/>
		<line clip-path="url(#SVGID_24_)" fill="#00D7F3" x1="-98.5" y1="12.9" x2="-98.5" y2="13.2"/>
		<line clip-path="url(#SVGID_24_)" fill="#00D7F3" x1="-98.5" y1="13.2" x2="-98.5" y2="13.5"/>
		<line clip-path="url(#SVGID_24_)" fill="#00D8F2" x1="-98.5" y1="13.5" x2="-98.5" y2="13.8"/>
		<line clip-path="url(#SVGID_24_)" fill="#00D8F2" x1="-98.5" y1="13.8" x2="-98.5" y2="14.1"/>
		<line clip-path="url(#SVGID_24_)" fill="#00D9F2" x1="-98.5" y1="14.1" x2="-98.5" y2="14.4"/>
		<line clip-path="url(#SVGID_24_)" fill="#00D9F2" x1="-98.5" y1="14.4" x2="-98.5" y2="14.7"/>
		<line clip-path="url(#SVGID_24_)" fill="#00D9F2" x1="-98.5" y1="14.7" x2="-98.5" y2="15"/>
		<line clip-path="url(#SVGID_24_)" fill="#00D9F2" x1="-98.5" y1="15" x2="-98.5" y2="15.2"/>
		<line clip-path="url(#SVGID_24_)" fill="#00DAF2" x1="-98.5" y1="15.2" x2="-98.5" y2="15.5"/>
		<line clip-path="url(#SVGID_24_)" fill="#00DAF2" x1="-98.5" y1="15.5" x2="-98.5" y2="15.8"/>
		<line clip-path="url(#SVGID_24_)" fill="#00DAF2" x1="-98.5" y1="15.8" x2="-98.5" y2="16.1"/>
		<line clip-path="url(#SVGID_24_)" fill="#00DAF2" x1="-98.5" y1="16.1" x2="-98.5" y2="16.4"/>
		<line clip-path="url(#SVGID_24_)" fill="#00DBF2" x1="-98.5" y1="16.4" x2="-98.5" y2="16.7"/>
		<line clip-path="url(#SVGID_24_)" fill="#00DBF2" x1="-98.5" y1="16.7" x2="-98.5" y2="17"/>
		<line clip-path="url(#SVGID_24_)" fill="#00DBF2" x1="-98.5" y1="17" x2="-98.5" y2="17.3"/>
		<line clip-path="url(#SVGID_24_)" fill="#00DBF2" x1="-98.5" y1="17.3" x2="-98.5" y2="17.6"/>
		<line clip-path="url(#SVGID_24_)" fill="#00DBF2" x1="-98.5" y1="17.6" x2="-98.5" y2="17.8"/>
		<line clip-path="url(#SVGID_24_)" fill="#00DBF2" x1="-98.5" y1="17.8" x2="-98.5" y2="18.1"/>
		<line clip-path="url(#SVGID_24_)" fill="#00DBF2" x1="-98.5" y1="18.1" x2="-98.5" y2="18.4"/>
		<line clip-path="url(#SVGID_24_)" fill="#00DBF2" x1="-98.5" y1="18.4" x2="-98.5" y2="18.9"/>
		<line clip-path="url(#SVGID_24_)" fill="#00DCF2" x1="-98.5" y1="18.9" x2="-98.5" y2="19.3"/>
		<line clip-path="url(#SVGID_24_)" fill="#00DDF3" x1="-98.5" y1="19.3" x2="-98.5" y2="19.8"/>
		<line clip-path="url(#SVGID_24_)" fill="#00DEF3" x1="-98.5" y1="19.8" x2="-98.5" y2="20.2"/>
		<line clip-path="url(#SVGID_24_)" fill="#00DFF3" x1="-98.5" y1="20.2" x2="-98.5" y2="20.7"/>
		<line clip-path="url(#SVGID_24_)" fill="#00E0F4" x1="-98.5" y1="20.7" x2="-98.5" y2="21.1"/>
		<line clip-path="url(#SVGID_24_)" fill="#00E1F4" x1="-98.5" y1="21.1" x2="-98.5" y2="21.6"/>
		<line clip-path="url(#SVGID_24_)" fill="#00E2F5" x1="-98.5" y1="21.6" x2="-98.5" y2="22"/>
		<line clip-path="url(#SVGID_24_)" fill="#00E3F5" x1="-98.5" y1="22" x2="-98.5" y2="22.5"/>
		<line clip-path="url(#SVGID_24_)" fill="#00E4F5" x1="-98.5" y1="22.5" x2="-98.5" y2="22.9"/>
		<line clip-path="url(#SVGID_24_)" fill="#00E5F6" x1="-98.5" y1="22.9" x2="-98.5" y2="23.4"/>
		<line clip-path="url(#SVGID_24_)" fill="#00E6F6" x1="-98.5" y1="23.4" x2="-98.5" y2="23.8"/>
		<line clip-path="url(#SVGID_24_)" fill="#00E7F6" x1="-98.5" y1="23.8" x2="-98.5" y2="24.3"/>
		<line clip-path="url(#SVGID_24_)" fill="#00E8F7" x1="-98.5" y1="24.3" x2="-98.5" y2="24.7"/>
		<line clip-path="url(#SVGID_24_)" fill="#00E9F7" x1="-98.5" y1="24.7" x2="-98.5" y2="25.2"/>
		<line clip-path="url(#SVGID_24_)" fill="#00EAF8" x1="-98.5" y1="25.2" x2="-98.5" y2="25.6"/>
		<line clip-path="url(#SVGID_24_)" fill="#00EBF8" x1="-98.5" y1="25.6" x2="-98.5" y2="26.1"/>
		<line clip-path="url(#SVGID_24_)" fill="#00ECF8" x1="-98.5" y1="26.1" x2="-98.5" y2="26.6"/>
		<line clip-path="url(#SVGID_24_)" fill="#00EEF9" x1="-98.5" y1="26.5" x2="-98.5" y2="27"/>
		<line clip-path="url(#SVGID_24_)" fill="#00EFF9" x1="-98.5" y1="27" x2="-98.5" y2="27.3"/>
	</g>
	<g clip-path="url(#SVGID_2_)">
		<defs>
			<line id="SVGID_25_" x1="-141.6" y1="-29.4" x2="-141.8" y2="-28.3"/>
		</defs>
		<clipPath id="SVGID_26_">
			<use xlink:href="#SVGID_25_"  overflow="visible"/>
		</clipPath>
		<line clip-path="url(#SVGID_26_)" fill="#0029FF" x1="-141.8" y1="-28.2" x2="-141.8" y2="-29.4"/>
		<line clip-path="url(#SVGID_26_)" fill="#0029FF" x1="-141.8" y1="-28.1" x2="-141.8" y2="-28.2"/>
	</g>
	<g clip-path="url(#SVGID_2_)">
		<defs>
			<path id="SVGID_27_" d="M-142-27.7"/>
		</defs>
		<clipPath id="SVGID_28_">
			<use xlink:href="#SVGID_27_"  overflow="visible"/>
		</clipPath>
		<line clip-path="url(#SVGID_28_)" fill="#002CFF" x1="-142.2" y1="-27.4" x2="-142.2" y2="-27.7"/>
		<path clip-path="url(#SVGID_28_)" fill="#002EFF" d="M-142.2-27.4"/>
	</g>
</g>
</svg>
