<svg xmlns="http://www.w3.org/2000/svg" xmlns:xlink="http://www.w3.org/1999/xlink" width="174.1" height="50.6" xml:space="preserve"><defs><path id="a" d="M1353.9 1137.5v-1300h-1920v1300"/></defs><clipPath id="b"><use xlink:href="#a" overflow="visible"/></clipPath><g clip-path="url(#b)"><defs><path id="c" d="M-566.1 1137.5v-1300h1920v1300"/></defs></g><g clip-path="url(#b)"><defs><path id="d" d="M-566.1 1137.5v-1300h1920v1300"/></defs></g><g clip-path="url(#b)"><defs><path id="e" d="M-566.1 1137.5v-1300h1920v1300"/></defs><clipPath id="f"><use xlink:href="#e" overflow="visible"/></clipPath><g opacity=".25" clip-path="url(#f)"><path fill="#007DF2" d="M462.1 727.6v2.6" opacity=".25"/></g></g><g clip-path="url(#b)"><defs><path id="g" d="M-566.1 1137.5v-1300h1920v1300"/></defs><clipPath id="h"><use xlink:href="#g" overflow="visible"/></clipPath><g opacity=".8" clip-path="url(#h)"><defs><path id="i" d="M240 10.6h237.8v29.8H240z"/></defs></g></g><g clip-path="url(#b)"><defs><path id="j" d="M-566.1 1137.5v-1300h1920v1300"/></defs><clipPath id="k"><use xlink:href="#j" overflow="visible"/></clipPath><path clip-path="url(#k)" fill="#0FF" d="M323.2 22.6s-.1 0 0 0"/><g opacity=".8" clip-path="url(#k)"><defs><path id="l" d="M5.2 10.6h32.2v28.7H5.2z"/></defs></g><g opacity=".8" clip-path="url(#k)"><defs><path id="m" d="M28.6 10.6h18.1v28.8H28.6z"/></defs></g><path clip-path="url(#k)" fill="#043848" d="M10.4.8.7 22.3V49l161.6 1.2h.1L173.3 26l.1-.2V.8h-163zM173 25.3 162.2 49l-161-1.2V22.7l9.4-20.8H173v23.4z"/><path clip-path="url(#k)" fill="#085967" d="M11.1 4.1 2.2 23.6v22l159.4 1.2h.2l10.1-22.5V4.1H11.1zm160 19.5L161.5 45 3.1 43.7V24.4l8.3-18.5h159.7v17.7z"/><g opacity=".8" clip-path="url(#k)"><defs><path id="n" d="M37.9 10.6H56v28.9H37.9z"/></defs></g><g opacity=".8" clip-path="url(#k)"><defs><path id="o" d="M47.3 10.6h121.8v29.8H47.3z"/></defs></g></g><g clip-path="url(#b)"><defs><path id="p" d="M-94.1 33.7"/></defs><clipPath id="q"><use xlink:href="#p" overflow="visible"/></clipPath><path clip-path="url(#q)" fill="#00ACF9" d="M-119.4 9.7h2.2v.1h-2.2z"/><path clip-path="url(#q)" fill="#00AEF8" d="M-119.4 9.8h2.2v.3h-2.2z"/><path clip-path="url(#q)" fill="#00AFF8" d="M-119.4 10.1h2.2v.3h-2.2z"/><path clip-path="url(#q)" fill="#00B0F8" d="M-119.4 10.4h2.2v.3h-2.2z"/><path clip-path="url(#q)" fill="#00B2F8" d="M-119.4 10.7h2.2v.3h-2.2z"/><path clip-path="url(#q)" fill="#00B3F8" d="M-119.4 11h2.2v.3h-2.2z"/><path clip-path="url(#q)" fill="#00B4F8" d="M-119.4 11.3h2.2v.3h-2.2z"/><path clip-path="url(#q)" fill="#00B6F7" d="M-119.4 11.5h2.2v.3h-2.2z"/><path clip-path="url(#q)" fill="#00B7F7" d="M-119.4 11.8h2.2v.1h-2.2z"/><path clip-path="url(#q)" fill="#0080FF" d="M-121.6 2h2.2v.3h-2.2z"/><path clip-path="url(#q)" fill="#0082FF" d="M-121.6 2.3h2.2v.2h-2.2z"/><path clip-path="url(#q)" fill="#009AFB" d="M-125 6.3h1.9v.1h-1.9z"/><path clip-path="url(#q)" fill="#009BFB" d="M-125 6.3h1.9v.3h-1.9z"/><path clip-path="url(#q)" fill="#009DFB" d="M-125 6.6h1.9v.3h-1.9z"/><path clip-path="url(#q)" fill="#009FFB" d="M-125 6.9h1.9v.3h-1.9z"/><path clip-path="url(#q)" fill="#00A0FA" d="M-125 7.2h1.9v.3h-1.9z"/><path clip-path="url(#q)" fill="#00A2FA" d="M-125 7.5h1.9v.3h-1.9z"/><path clip-path="url(#q)" fill="#00A3FA" d="M-125 7.8h1.9v.3h-1.9z"/><path clip-path="url(#q)" fill="#00A5FA" d="M-125 8.1h1.9v.1h-1.9z"/><path clip-path="url(#q)" fill="#00ABF9" d="M-125.2 9.4h1.7v.1h-1.7z"/><path clip-path="url(#q)" fill="#00ACF9" d="M-125.2 9.5h1.7v.3h-1.7z"/><path clip-path="url(#q)" fill="#00AEF8" d="M-125.2 9.8h1.7v.3h-1.7z"/><path clip-path="url(#q)" fill="#00AFF8" d="M-125.2 10.1h1.7v.3h-1.7z"/><path clip-path="url(#q)" fill="#00B0F8" d="M-125.2 10.4h1.7v.3h-1.7z"/><path clip-path="url(#q)" fill="#00B2F8" d="M-125.2 10.7h1.7v.3h-1.7z"/><path clip-path="url(#q)" fill="#00B3F8" d="M-125.2 11h1.7v.2h-1.7z"/><path clip-path="url(#q)" fill="#00ABF9" d="M-128.1 9.2h1.5v.3h-1.5z"/><path clip-path="url(#q)" fill="#00ACF9" d="M-128.1 9.5h1.4"/><path clip-path="url(#q)" fill="#0098FC" d="M-134.8 6h1.8v.1h-1.8z"/><path clip-path="url(#q)" fill="#009AFB" d="M-134.8 6.1h1.8v.3h-1.8z"/><path clip-path="url(#q)" fill="#009BFB" d="M-134.8 6.3h1.8v.3h-1.8z"/><path clip-path="url(#q)" fill="#009DFB" d="M-134.8 6.6h1.8v.3h-1.8z"/><path clip-path="url(#q)" fill="#009FFB" d="M-134.8 6.9h1.8v.3h-1.8z"/><path clip-path="url(#q)" fill="#00A0FA" d="M-134.8 7.2h1.8v.3h-1.8z"/><path clip-path="url(#q)" fill="#00A2FA" d="M-134.8 7.5h1.8v.3h-1.8z"/><path clip-path="url(#q)" fill="#00BCF6" d="M-137.5 13h1.3v.3h-1.3z"/><path clip-path="url(#q)" fill="#00BDF6" d="M-137.5 13.3h1.3v.3h-1.3z"/><path clip-path="url(#q)" fill="#00BEF6" d="M-137.5 13.6h1.3v.3h-1.3z"/><path clip-path="url(#q)" fill="#00BFF6" d="M-137.5 13.9h1.3v.3h-1.3z"/><path clip-path="url(#q)" fill="#00C0F6" d="M-137.5 14.1h1.3v.1h-1.3z"/><path clip-path="url(#q)" fill="#00A0FA" d="M-138.5 7.2h1.6v.3h-1.6z"/><path clip-path="url(#q)" fill="#00A2FA" d="M-138.5 7.5h1.6v.3h-1.6z"/><path clip-path="url(#q)" fill="#00A3FA" d="M-138.5 7.8h1.6v.3h-1.6z"/><path clip-path="url(#q)" fill="#00A5FA" d="M-138.5 8.1h1.6v.3h-1.6z"/><path clip-path="url(#q)" fill="#00A6FA" d="M-138.5 8.4h1.6v.3h-1.6z"/><path clip-path="url(#q)" fill="#00A8F9" d="M-138.5 8.7h1.6v.2h-1.6z"/><path clip-path="url(#q)" fill="#00B7F7" d="M-144.4 11.9h1.1v.2h-1.1z"/><path clip-path="url(#q)" fill="#00B8F7" d="M-144.4 12.1h1.1v.3h-1.1z"/><path clip-path="url(#q)" fill="#00B9F7" d="M-144.4 12.4h1.1v.3h-1.1z"/><path clip-path="url(#q)" fill="#00BBF7" d="M-144.4 12.7h1.1v.3h-1.1z"/><path clip-path="url(#q)" fill="#00BCF6" d="M-144.4 13h1.1-1.1z"/><path clip-path="url(#q)" fill="#0080FF" d="M-149.2 2h55.1v.3h-55.1z"/><path clip-path="url(#q)" fill="#0082FF" d="M-149.2 2.3h55.1v.3h-55.1z"/><path clip-path="url(#q)" fill="#0084FE" d="M-149.2 2.6h55.1v.3h-55.1z"/><path clip-path="url(#q)" fill="#0086FE" d="M-149.2 2.9h55.1v.3h-55.1z"/><path clip-path="url(#q)" fill="#0088FE" d="M-149.2 3.2h55.1v.3h-55.1z"/><path clip-path="url(#q)" fill="#008AFE" d="M-149.2 3.5h55.1v.3h-55.1z"/><path clip-path="url(#q)" fill="#008BFD" d="M-149.2 3.8h55.1v.3h-55.1z"/><path clip-path="url(#q)" fill="#008DFD" d="M-149.2 4h55.1v.3h-55.1z"/><path clip-path="url(#q)" fill="#008FFD" d="M-149.2 4.3h55.1v.3h-55.1z"/><path clip-path="url(#q)" fill="#0091FD" d="M-149.2 4.6h55.1v.3h-55.1z"/><path clip-path="url(#q)" fill="#0093FC" d="M-149.2 4.9h55.1v.3h-55.1z"/><path clip-path="url(#q)" fill="#0094FC" d="M-149.2 5.2h55.1v.3h-55.1z"/><path clip-path="url(#q)" fill="#0096FC" d="M-149.2 5.5h55.1v.3h-55.1z"/><path clip-path="url(#q)" fill="#0098FC" d="M-149.2 5.8h55.1v.3h-55.1z"/><path clip-path="url(#q)" fill="#009AFB" d="M-149.2 6.1h55.1v.3h-55.1z"/><path clip-path="url(#q)" fill="#009BFB" d="M-149.2 6.3h55.1v.3h-55.1z"/><path clip-path="url(#q)" fill="#009DFB" d="M-149.2 6.6h55.1v.3h-55.1z"/><path clip-path="url(#q)" fill="#009FFB" d="M-149.2 6.9h55.1v.3h-55.1z"/><path clip-path="url(#q)" fill="#00A0FA" d="M-149.2 7.2h55.1v.3h-55.1z"/><path clip-path="url(#q)" fill="#00A2FA" d="M-149.2 7.5h55.1v.3h-55.1z"/><path clip-path="url(#q)" fill="#00A3FA" d="M-149.2 7.8h55.1v.3h-55.1z"/><path clip-path="url(#q)" fill="#00A5FA" d="M-94.1 8.1v.3h-55.1v-.3"/><path clip-path="url(#q)" fill="#00A6FA" d="M-149.2 8.4h55.1v.3h-55.1z"/><path clip-path="url(#q)" fill="#00A8F9" d="M-149.2 8.7h55.1V9h-55.1z"/><path clip-path="url(#q)" fill="#00A9F9" d="M-149.2 8.9h55.1v.3h-55.1z"/><path clip-path="url(#q)" fill="#00ABF9" d="M-149.2 9.2h55.1v.3h-55.1z"/><path clip-path="url(#q)" fill="#00ACF9" d="M-149.2 9.8v-.3h55.1v.3"/><path clip-path="url(#q)" fill="#00AEF8" d="M-94.1 9.8v.3M-149.2 10.1v-.3"/><path clip-path="url(#q)" fill="#00AFF8" d="M-94.1 10.1v.3M-149.2 10.4v-.3"/><path clip-path="url(#q)" fill="#00B0F8" d="M-94.1 10.4v.3M-149.2 10.7v-.3"/><path clip-path="url(#q)" fill="#00B2F8" d="M-94.1 10.7v.3M-149.2 11v-.3"/><path clip-path="url(#q)" fill="#00B3F8" d="M-94.1 11v.3M-149.2 11.3V11"/><path clip-path="url(#q)" fill="#00B4F8" d="M-94.1 11.3v.2M-149.2 11.5v-.2"/><path clip-path="url(#q)" fill="#00B6F7" d="M-94.1 11.5v.3M-149.2 11.8v-.3"/><path clip-path="url(#q)" fill="#00B7F7" d="M-94.1 11.8v.3M-149.2 12.1v-.3"/><path clip-path="url(#q)" fill="#00B8F7" d="M-94.1 12.1v.3M-149.2 12.4v-.3"/><path clip-path="url(#q)" fill="#00B9F7" d="M-94.1 12.4v.3M-149.2 12.7v-.3"/><path clip-path="url(#q)" fill="#00BBF7" d="M-94.1 12.7v.3M-149.2 13v-.3"/><path clip-path="url(#q)" fill="#00BCF6" d="M-94.1 13v.3M-149.2 13.3V13"/><path clip-path="url(#q)" fill="#00BDF6" d="M-94.1 13.3v.3M-149.2 13.6v-.3"/><path clip-path="url(#q)" fill="#00BEF6" d="M-94.1 13.6v.3M-149.2 13.9v-.3"/><path clip-path="url(#q)" fill="#00BFF6" d="M-94.1 13.9v.2M-149.2 14.1v-.2"/><path clip-path="url(#q)" fill="#00C0F6" d="M-94.1 14.1v.3M-149.2 14.4v-.3"/><path clip-path="url(#q)" fill="#00C1F6" d="M-94.1 14.4v.3M-149.2 14.7v-.3"/><path clip-path="url(#q)" fill="#00C2F6" d="M-94.1 14.7v.3M-149.2 15v-.3"/><path clip-path="url(#q)" fill="#00C3F5" d="M-94.1 15v.3M-149.2 15.3V15"/><path clip-path="url(#q)" fill="#00CDF4" d="M-94.1 17.9v.3M-94.1 18.2v.3"/><path clip-path="url(#q)" fill="#00CEF4" d="M-94.1 18.5v.3"/><path clip-path="url(#q)" fill="#00CFF4" d="M-94.1 18.8v.3"/><path clip-path="url(#q)" fill="#00D0F4" d="M-94.1 19.1v.2M-94.1 19.3v.3"/><path clip-path="url(#q)" fill="#00D1F3" d="M-94.1 19.6v.3"/><path clip-path="url(#q)" fill="#00D2F3" d="M-94.1 19.9v.3M-94.1 20.2v.3"/><path clip-path="url(#q)" fill="#00D3F3" d="M-94.1 20.5v.3"/><path clip-path="url(#q)" fill="#00D4F3" d="M-94.1 20.8v.3M-94.1 21.1v.3"/><path clip-path="url(#q)" fill="#00D5F3" d="M-94.1 21.4v.3M-94.1 21.7v.2"/><path clip-path="url(#q)" fill="#00D6F3" d="M-94.1 21.9v.3M-94.1 22.2v.3"/><path clip-path="url(#q)" fill="#00D7F3" d="M-94.1 22.5v.3M-94.1 22.8v.3M-94.1 23.1v.3"/><path clip-path="url(#q)" fill="#00D8F2" d="M-94.1 23.4v.3M-94.1 23.7v.3"/><path clip-path="url(#q)" fill="#00D9F2" d="M-94.1 24v.3M-94.1 24.3v.2M-94.1 24.5v.3M-94.1 24.8v.3"/><path clip-path="url(#q)" fill="#00DAF2" d="M-94.1 25.1v.3M-94.1 25.4v.3M-94.1 25.7v.3M-94.1 26v.3"/><path clip-path="url(#q)" fill="#00DBF2" d="M-94.1 26.3v.3M-94.1 26.6v.2M-94.1 26.8v.3M-94.1 27.1v.3M-94.1 27.4v.3M-94.1 27.7v.3M-94.1 28v.3M-94.1 28.3v.4"/><path clip-path="url(#q)" fill="#00DCF2" d="M-94.1 28.7v.5"/><path clip-path="url(#q)" fill="#00DDF3" d="M-94.1 29.2v.4"/><path clip-path="url(#q)" fill="#00DEF3" d="M-94.1 29.6v.5"/><path clip-path="url(#q)" fill="#00DFF3" d="M-94.1 30.1v.5"/><path clip-path="url(#q)" fill="#00E0F4" d="M-94.1 30.6v.4"/><path clip-path="url(#q)" fill="#00E1F4" d="M-94.1 31v.5"/><path clip-path="url(#q)" fill="#00E2F5" d="M-94.1 31.5v.4"/><path clip-path="url(#q)" fill="#00E3F5" d="M-94.1 31.9v.5"/><path clip-path="url(#q)" fill="#00E4F5" d="M-94.1 32.4v.4"/><path clip-path="url(#q)" fill="#00E5F6" d="M-94.1 32.8v.5"/><path clip-path="url(#q)" fill="#00E6F6" d="M-94.1 33.3v.4"/><path clip-path="url(#q)" fill="#00E7F6" d="M-94.1 33.7v.5"/><path clip-path="url(#q)" fill="#00E8F7" d="M-94.1 34.2v.4"/><path clip-path="url(#q)" fill="#00E9F7" d="M-94.1 34.6v.5"/><path clip-path="url(#q)" fill="#00EAF8" d="M-94.1 35.1v.4"/><path clip-path="url(#q)" fill="#00EBF8" d="M-94.1 35.5v.5"/><path clip-path="url(#q)" fill="#00ECF8" d="M-94.1 36v.4"/><path clip-path="url(#q)" fill="#00EEF9" d="M-94.1 36.4v.5"/><path clip-path="url(#q)" fill="#00EFF9" d="M-94.1 36.9v.3"/></g><g clip-path="url(#b)"><defs><path id="r" d="m-137.3-19.5-.1 1.1"/></defs><clipPath id="s"><use xlink:href="#r" overflow="visible"/></clipPath><path clip-path="url(#s)" fill="#0029FF" d="M-137.4-18.3v-1.2M-137.4-18.2v-.1"/></g><g clip-path="url(#b)"><clipPath id="u"><use xlink:href="#t" overflow="visible"/></clipPath><path clip-path="url(#u)" fill="#002CFF" d="M-137.8-17.6v-.2"/></g></svg>