<svg width="36.994mm" height="33.406mm" version="1.1" viewBox="0 0 36.994 33.406" xmlns="http://www.w3.org/2000/svg">
 <g transform="translate(-80.624 -54.098)">
  <g fill="#fff">
   <g stroke-width=".26458">
    <path class="cls-1" d="m86.506 78.138a0.34396 0.34396 0 0 0 0.34925 0.35983 0.32015 0.32015 0 0 0 0.3466-0.32279c0-0.23548-0.2196-0.29369-0.40217-0.3466a1.2991 1.2991 0 0 1-0.46302-0.20373 0.61912 0.61912 0 0 1-0.26458-0.51329 0.6985 0.6985 0 0 1 0.71438-0.67998 0.508 0.508 0 0 1 0.43656 0.18256v-0.13229h0.34396v0.635h-0.41275a0.30427 0.30427 0 0 0-0.30692-0.30692 0.29369 0.29369 0 0 0-0.32015 0.29369c0 0.23283 0.20373 0.28046 0.38629 0.33338a1.4393 1.4393 0 0 1 0.50271 0.21431 0.61912 0.61912 0 0 1 0.23548 0.49477 0.72231 0.72231 0 0 1-0.74612 0.74083 0.56092 0.56092 0 0 1-0.45244-0.20108v0.15346h-0.35719v-0.70115z"/>
    <path class="cls-1" d="m88.384 78.461h0.32015v0.37571h-0.72231v-1.3864h-0.27781v-0.37571h0.27781v-0.59267h0.40217v0.59267h0.29898v0.37571h-0.29898z"/>
    <path class="cls-1" d="m90.199 78.601a0.65352 0.65352 0 0 1-0.56621 0.2831 0.91281 0.91281 0 0 1-0.90488-0.9181 0.93133 0.93133 0 0 1 0.9234-0.93662 0.635 0.635 0 0 1 0.54769 0.29633v-0.26458h0.62971v0.37571h-0.2196v1.0107h0.2196v0.38894h-0.62971zm0-0.65352a0.52917 0.52917 0 1 0-0.52917 0.52917 0.52917 0.52917 0 0 0 0.5371-0.52917z"/>
    <path class="cls-1" d="m91.588 77.381a0.58473 0.58473 0 0 1 0.52917-0.32015v0.41275a0.52917 0.52917 0 0 0-0.3466 0.127 0.49477 0.49477 0 0 0-0.15081 0.42069v0.4445h0.22754v0.37042h-0.8599v-0.37571h0.22754v-1.0107h-0.22754v-0.37571h0.6006z"/>
    <path class="cls-1" d="m92.972 78.461h0.32015v0.37571h-0.72231v-1.3864h-0.27781v-0.37571h0.27781v-0.59267h0.40217v0.59267h0.30162v0.37571h-0.30162z"/>
    <path class="cls-1" d="m95.255 78.461h0.22754v0.37571h-0.58738v-0.21696a0.64558 0.64558 0 0 1-0.52917 0.26458 0.635 0.635 0 0 1-0.48948-0.2249 0.7276 0.7276 0 0 1-0.1561-0.51065v-0.6985h-0.22754v-0.37571h0.63235v0.95515a0.56356 0.56356 0 0 0 0.06879 0.32808 0.34131 0.34131 0 0 0 0.29633 0.15346 0.381 0.381 0 0 0 0.29633-0.14552 0.55033 0.55033 0 0 0 0.07673-0.3466v-0.56885h-0.23283v-0.37571h0.62971z"/>
    <path class="cls-1" d="m95.769 77.45h-0.2249v-0.37571h0.62971v0.26458a0.65881 0.65881 0 0 1 0.57415-0.2831 0.90487 0.90487 0 0 1 0.02117 1.8071 0.74083 0.74083 0 0 1-0.59796-0.26458v0.51329h0.22754v0.37835h-0.85461v-0.38629h0.2249zm1.4658 0.51329a0.52917 0.52917 0 1 0-0.52917 0.52917 0.52917 0.52917 0 0 0 0.52917-0.52917z"/>
    <path class="cls-1" d="m100.88 78.81h-0.42598l-0.43656-1.5558-0.43656 1.5558h-0.41804l-0.56092-1.9817h-0.23812v-0.37571h0.95779v0.37571h-0.26458l0.33867 1.2382 0.42333-1.614h0.381l0.45244 1.6007 0.33073-1.225h-0.26459v-0.37571h0.95515v0.37571h-0.26458z"/>
    <path class="cls-1" d="m103.2 78.291a0.91546 0.91546 0 0 1-1.7595-0.35719 0.9181 0.9181 0 0 1 0.9181-0.94192 0.94721 0.94721 0 0 1 0.65881 0.28575 0.92075 0.92075 0 0 1 0.24871 0.65881v0.14288h-1.4393a0.5424 0.5424 0 0 0 0.52916 0.42333 0.48948 0.48948 0 0 0 0.42598-0.21167zm-0.30692-0.52917a0.56621 0.56621 0 0 0-0.55563-0.41804 0.54769 0.54769 0 0 0-0.52916 0.41804z"/>
    <path class="cls-1" d="m105.18 78.291a0.90487 0.90487 0 0 1-0.83079 0.56356 0.93133 0.93133 0 0 1 0-1.8521 0.9525 0.9525 0 0 1 0.66146 0.28575 0.9181 0.9181 0 0 1 0.24606 0.65881v0.14288h-1.4499a0.54504 0.54504 0 0 0 0.52917 0.42333 0.49212 0.49212 0 0 0 0.42598-0.21167zm-0.30692-0.52917a0.56356 0.56356 0 0 0-0.55298-0.41804 0.54769 0.54769 0 0 0-0.52916 0.41804z"/>
    <path class="cls-1" d="m106.37 77.381h-0.17992v-0.33602h0.88106v0.37835h-0.21431l-0.50006 0.46831 0.52917 0.52917h0.26458v0.38894h-0.96044v-0.37042h0.14817l-0.42069-0.46038v0.46038h0.15875v0.37042h-0.79375v-0.37042h0.23019v-1.6113h-0.23019v-0.37571h0.63235v1.3838z"/>
    <path class="cls-1" d="m108.92 78.291a0.90752 0.90752 0 0 1-0.83079 0.56356 0.93133 0.93133 0 0 1 0-1.8521 0.94721 0.94721 0 0 1 0.65881 0.28575 0.92075 0.92075 0 0 1 0.24871 0.65881v0.14288h-1.4261a0.54504 0.54504 0 0 0 0.52917 0.42333 0.48419 0.48419 0 0 0 0.42333-0.21167zm-0.30692-0.52917a0.56621 0.56621 0 0 0-0.55562-0.41804 0.52917 0.52917 0 0 0-0.5133 0.41804z"/>
    <path class="cls-1" d="m109.27 77.424h-0.22754v-0.37835h0.62971v0.26458a0.57415 0.57415 0 0 1 0.52917-0.29104 0.6985 0.6985 0 0 1 0.51064 0.2196 0.68262 0.68262 0 0 1 0.14817 0.52917v0.67204h0.22754v0.37042h-0.8599v-0.37042h0.23019v-0.57679a0.49742 0.49742 0 0 0-0.0714-0.3175 0.38365 0.38365 0 0 0-0.30956-0.14288 0.39688 0.39688 0 0 0-0.32014 0.14817 0.61912 0.61912 0 0 0-0.0767 0.37042v0.51858h0.22754v0.37042h-0.85725v-0.37042h0.22754z"/>
    <path class="cls-1" d="m112.55 78.545a0.66675 0.66675 0 0 1-0.57679 0.29104 0.91017 0.91017 0 0 1 0-1.8203 0.7329 0.7329 0 0 1 0.58208 0.2884v-0.47625h-0.23019v-0.37571h0.63236v1.987h0.22754v0.37042h-0.62971zm0-0.62442a0.52917 0.52917 0 1 0-0.52917 0.54504 0.52917 0.52917 0 0 0 0.53975-0.55562z"/>
    <path class="cls-2" d="m85.418 70.163-0.82285 0.02381-0.82021 0.01852c-0.54769 0-1.0954 0.02381-1.6431 0.0291h-0.07144v-0.07408l-0.02381-1.8971q-0.01587-0.9525-0.02117-1.9024v-3.9344h3.5348v0.13758c0 0.635 0 1.27-0.01588 1.9024l-0.02646 1.9024v0.94985l-0.02117 0.9525c-0.03704 0.62442-0.05027 1.2594-0.06879 1.8918zm0 0c-0.02117-0.63235-0.0344-1.2674-0.04762-1.8997l-0.01852-0.9525-0.01323-0.94986-0.02646-1.9024c0-0.63235 0-1.2674-0.01587-1.9024l0.12171 0.12171h-3.2861l0.12965-0.13229v3.8047q0 0.94985-0.02117 1.9024l-0.04498 1.9103-0.07144-0.07144c0.54769 0 1.0954 0.02117 1.6431 0.03175l0.82021 0.01852z"/>
    <path class="cls-2" d="m84.048 64.522c-0.20108 0.03175-0.40481 0.04762-0.6059 0.06615l-0.30427 0.02381-0.30427 0.01587h-0.0979v-0.11112c0-0.18521 0-0.36777-0.02117-0.55562-0.02117-0.18786 0-0.36777 0-0.55298v-0.12964h1.4526v0.09525l-0.01587 0.26458c0 0.0926-0.01323 0.18521-0.02117 0.26458-0.04233 0.24871-0.05821 0.43392-0.08202 0.61912zm0 0c-0.02646-0.18521-0.04498-0.36777-0.06085-0.55562 0-0.08996-0.01323-0.18256-0.02117-0.26458-0.0079-0.08202 0-0.18521-0.01588-0.26458l0.0979 0.0979c-0.10054 0-0.20108 0.01323-0.30162 0.01323h-0.91281l0.12965-0.12965v0.55298s0 0.37042-0.02117 0.55562l-0.11377-0.11112 0.30427 0.01588 0.30427 0.02117c0.20108 0.02117 0.40481 0.03969 0.61119 0.06879z"/>
    <path class="cls-2" d="m83.437 65.377c0.19579-0.02381 0.39423-0.03969 0.59002-0.05292 0.19579-0.01323 0.39423-0.02646 0.59002-0.03704h0.08731v0.09525l0.01852 0.43392v0.43392 0.87048 0.12964h-0.72231l-0.59002-0.01323h-0.11377v-0.12171c0-0.14552 0.01323-0.29104 0.01852-0.43392 0.0053-0.14288 0.01323-0.29104 0.02117-0.43656 0.0079-0.14552 0.02117-0.2884 0.03175-0.43392s0.05027-0.2884 0.06879-0.43392zm0 0c0.01588 0.14552 0.0291 0.2884 0.04233 0.43392s0.02117 0.2884 0.0291 0.43392c0.0079 0.14552 0.01852 0.29104 0.02381 0.43656 0.0053 0.14552 0 0.2884 0.01587 0.43392l-0.11112-0.11112 0.59002-0.01587h0.59002l-0.12964 0.12965v-0.87048l0.01323-0.43392 0.01587-0.43392 0.08996 0.08996c-0.19579 0-0.39423-0.02117-0.59002-0.03704-0.19579-0.01587-0.38365-0.0344-0.57944-0.05556z"/>
    <path class="cls-2" d="m83.437 68.459a1.0583 1.0583 0 0 1-0.15346 0.0344l-0.15081 0.02646c-0.05027 0-0.10054 0.01323-0.15346 0.02117l-0.15081 0.01852h-0.08731v-0.10848c-0.02117-0.22754-0.03175-0.45508-0.03175-0.68527v-0.12171h0.12964c0.20373 0 0.40481 0 0.60854 0.02646h0.11112v0.09525c0 0.11642-0.02381 0.23019-0.03969 0.34396-0.01587 0.11377-0.05292 0.23548-0.08202 0.34925zm0 0a3.1194 3.1194 0 0 1-0.06879-0.33867c0-0.11377-0.0291-0.22754-0.03704-0.34396l0.10583 0.10583c-0.20373 0.01852-0.40481 0.02646-0.60854 0.02646l0.12965-0.13229a6.5643 6.5643 0 0 1-0.03175 0.68527l-0.0979-0.0979 0.1614 0.02117c0.05292 0 0.10319 0 0.15346 0.02117l0.15081 0.02646c0.03969 0.0026 0.0926 0.01323 0.14288 0.02646z"/>
    <path class="cls-2" d="m88.731 69.052-0.82285 0.02381-0.82021 0.01588c-0.54769 0-1.0954 0.02646-1.6431 0.03175h-0.07408v-0.07144l-0.02381-1.9024c0-0.63235-0.01852-1.2674-0.02117-1.8997v-3.9344h3.5348v0.11906c0 0.635 0 1.2674-0.01587 1.9024l-0.0344 1.9129v0.94986l-0.02117 0.94985c-0.02646 0.635-0.03969 1.27-0.05821 1.9024zm0 0c-0.02117-0.63235-0.0344-1.2674-0.04762-1.9024l-0.01852-0.94985-0.01323-0.94986-0.02381-1.8918c0-0.635 0-1.2674-0.01587-1.9024l0.11906 0.11906h-3.2861l0.12965-0.12965v3.8153c0 0.63235 0 1.2674-0.02117 1.8997l-0.02381 1.9024-0.07144-0.07144c0.54769 0 1.0954 0.02117 1.6431 0.03175l0.82021 0.01852z"/>
    <path class="cls-2" d="m87.358 63.411c-0.20373 0.03175-0.40746 0.04762-0.60854 0.06615l-0.30427 0.02117-0.30427 0.01587h-0.0979v-0.10848c0-0.18521-0.01323-0.37042-0.02117-0.55562-0.0079-0.18521 0-0.37042 0-0.55562v-0.12965h1.0451l0.30427 0.01323h0.10319v0.0926c0 0.0926 0 0.18521-0.01588 0.26458-0.01587 0.07937-0.01323 0.18521-0.02117 0.27781-0.03704 0.22754-0.05292 0.41275-0.07937 0.59796zm0 0c-0.0291-0.18521-0.04498-0.37042-0.0635-0.55562 0-0.0926-0.01323-0.18521-0.01852-0.27781-0.0053-0.0926-0.01323-0.18521-0.01852-0.26458l0.10054 0.10054-0.30427 0.01323h-0.30427-0.60854l0.12965-0.13229v0.55562c0 0.18521 0 0.37042-0.01852 0.55562l-0.10583-0.10319 0.30427 0.01588 0.30427 0.02117c0.20373 0.01852 0.39952 0.04233 0.60325 0.07144z"/>
    <path class="cls-2" d="m86.749 64.266c0.19579-0.02381 0.39423-0.04233 0.59002-0.05556s0.39423-0.02381 0.59267-0.0344h0.08467v0.09525l0.01852 0.43392 0.01323 0.43392v0.87048 0.12964h-1.4261v-0.13494c0-0.14552 0-0.29104 0.01587-0.43656 0.01587-0.14552 0-0.2884 0.02381-0.43392s0.01852-0.2884 0.0291-0.43392 0.04233-0.2831 0.05821-0.43392zm0 0c0.01587 0.14288 0.0291 0.2884 0.04233 0.43392s0.02117 0.2884 0.02911 0.43392c0.0079 0.14552 0.01852 0.29104 0.02381 0.43392 0.0053 0.14288 0.01323 0.29104 0.01588 0.43656l-0.11113-0.11377h1.1827l-0.13229 0.13229v-0.87048l0.01323-0.43392 0.01852-0.43392 0.08996 0.08731c-0.19844 0-0.39423-0.01852-0.59267-0.0344-0.19844-0.01587-0.37042-0.05027-0.57944-0.07144z"/>
    <path class="cls-2" d="m86.749 67.348-0.15346 0.0344-0.15081 0.02646-0.15081 0.02117-0.15346 0.01588h-0.08731v-0.10848c-0.02117-0.22754-0.03175-0.45508-0.03175-0.68527v-0.11906h0.12965c0.20373 0 0.40481 0 0.60854 0.02381h0.11377v0.09525c0 0.11377-0.02381 0.23019-0.03969 0.34396a3.1036 3.1036 0 0 1-0.08467 0.3519zm0 0a3.1036 3.1036 0 0 1-0.05556-0.34131c-0.01588-0.11377-0.03175-0.23019-0.03969-0.34396l0.10583 0.10583c-0.20373 0.01852-0.40481 0.02381-0.60854 0.02381l0.12965-0.12965a6.5643 6.5643 0 0 1-0.03175 0.68527l-0.0979-0.0979 0.15346 0.01852 0.15081 0.01852c0.05027 0 0.10054 0.01587 0.15081 0.0291a1.4314 1.4314 0 0 1 0.14288 0.03175z"/>
    <path class="cls-2" d="m84.024 67.113-0.82021 0.02381-0.82285 0.01852c-0.54769 0-1.0954 0.02381-1.6431 0.02911h-0.06879v-0.07408l-0.02646-1.8997c0-0.635-0.01587-1.2674-0.01852-1.9024v-3.9185h0.11377 3.2861 0.11906v0.11642c0 0.635 0 1.27-0.01588 1.9024l-0.02381 1.9024-0.01323 0.94985-0.02117 0.94985c-0.02117 0.635-0.02117 1.27-0.04498 1.9024zm0 0c-0.02117-0.63235-0.03175-1.2674-0.04498-1.8997l-0.02117-0.9525-0.01323-0.94985-0.02381-1.9024c0-0.63235 0-1.2674-0.01588-1.9024l0.11906 0.12171h-3.2861l0.12965-0.13229v3.8047c0 0.635 0 1.2674-0.01852 1.9024l-0.02646 1.8997-0.07144-0.07144c0.54769 0 1.0954 0.02117 1.6431 0.03175l0.82286 0.01852z"/>
    <path class="cls-2" d="m82.651 61.472c-0.20373 0.03175-0.40481 0.04763-0.60854 0.06615l-0.30427 0.02381-0.30427 0.01588h-0.09525v-0.11112c0-0.18521 0-0.37042-0.01852-0.55562-0.01852-0.18521 0-0.36777 0-0.55298v-0.12965h0.12965 0.60854 0.30427l0.30427 0.01323h0.10319v0.09525c0 0.0926 0 0.18521-0.01588 0.27781-0.01587 0.0926 0 0.18521-0.02117 0.26458-0.03704 0.22225-0.05556 0.40746-0.08202 0.59267zm0 0c-0.02646-0.18521-0.04498-0.37042-0.06085-0.55562 0-0.08996-0.01588-0.18256-0.02117-0.26458-0.0053-0.08202 0-0.18521-0.01852-0.27781l0.10054 0.0979c-0.10054 0-0.20373 0.01323-0.30427 0.01323h-0.30427-0.60854l0.13229-0.12965v0.55298c0 0.18521 0 0.37042-0.01852 0.55562l-0.10583-0.10319 0.30427 0.01588 0.30427 0.02117c0.19579 0.02646 0.4101 0.04498 0.6006 0.07408z"/>
    <path class="cls-2" d="m82.042 65.411a1.5293 1.5293 0 0 1-0.15081 0.03175l-0.15346 0.02646c-0.05027 0-0.10054 0.01323-0.15081 0.02117l-0.15346 0.01852h-0.08731v-0.10583c-0.02117-0.23019-0.03175-0.45773-0.03175-0.68792v-0.12965h0.12965c0.20373 0 0.40746 0 0.60854 0.02381h0.11377v0.09525c0 0.11642-0.02381 0.23019-0.03969 0.34396a3.2755 3.2755 0 0 1-0.08467 0.36248zm0 0c-0.02911-0.11642-0.04763-0.23019-0.06615-0.34396s-0.03175-0.22754-0.03969-0.34396l0.10583 0.10583c-0.20108 0.01852-0.40481 0.02646-0.60854 0.02646l0.13229-0.13229c0 0.23019 0 0.45773-0.03175 0.68792l-0.10054-0.10054 0.15346 0.01852c0.05027 0 0.10054 0 0.15081 0.02117l0.15346 0.02646a1.0319 1.0319 0 0 1 0.15081 0.0344z"/>
    <path class="cls-2" d="m85.588 64.578-0.82021 0.02117-0.82285 0.01852c-0.54769 0-1.0954 0.02646-1.6431 0.03175h-0.06879v-0.07144l-0.03704-1.9024q0-0.94721 0-1.9024v-3.9317h3.511v0.11906c0 0.635 0 1.2674-0.01588 1.9024l-0.02381 1.8997-0.01323 0.9525-0.01852 0.96044c-0.01588 0.635-0.0291 1.2674-0.04763 1.9024zm0 0c-0.02117-0.635-0.03175-1.2674-0.04762-1.9024l-0.01852-0.94986-0.01323-0.9525-0.02381-1.8997c0-0.635 0-1.2674-0.01588-1.9024l0.11906 0.11906h-3.2861l0.12965-0.12964v3.8021c0 0.635 0 1.27-0.01852 1.9024l-0.02646 1.9024-0.07144-0.07144c0.54769 0 1.0954 0.02117 1.6431 0.03175l0.82285 0.01588z"/>
    <path class="cls-2" d="m84.214 58.937c-0.20373 0.0291-0.40481 0.04763-0.60854 0.06615l-0.30427 0.02117-0.31221 0.01588h-0.0979v-0.10848c0-0.18521-0.01323-0.37042-0.01852-0.55562-0.0053-0.18521 0-0.37042 0-0.55562v-0.12435h1.0292c0.10054 0 0.20108 0 0.30427 0.01323h0.10319v0.0926c0 0.0926 0 0.18521-0.01587 0.27781-0.01588 0.0926 0 0.18521-0.02117 0.27781-0.01323 0.20902-0.03175 0.39423-0.05821 0.57944zm0 0c-0.0291-0.18521-0.04498-0.37042-0.06085-0.55562 0-0.0926-0.01587-0.18521-0.02117-0.27781-0.0053-0.0926-0.01323-0.18521-0.01852-0.27781l0.10054 0.10054h-1.2171l0.13229-0.12965v0.55562c0 0.18521 0 0.37042-0.01852 0.55562l-0.10583-0.10583 0.30427 0.01852 0.30427 0.02117c0.19579 0.04763 0.39688 0.0635 0.6006 0.09525z"/>
    <path class="cls-2" d="m83.606 59.789c0.19579-0.02117 0.39423-0.03969 0.59002-0.05292s0.39423-0.02381 0.59267-0.03704h0.08467v0.09525l0.01587 0.43392 0.01323 0.43656v0.86783 0.13229h-1.4102v-0.11112c0-0.14552 0-0.2884 0.01587-0.43392 0.01587-0.14552 0.01587-0.2884 0.02381-0.43392 0.0079-0.14552 0.01852-0.29104 0.0291-0.43656 0.01058-0.14552 0.0291-0.31485 0.04498-0.46038zm0 0c0.01587 0.14552 0.0291 0.29104 0.04233 0.43392s0.02381 0.29104 0.0291 0.43656c0.0053 0.14552 0.01852 0.2884 0.02381 0.43392 0.0053 0.14552 0.01323 0.2884 0.01587 0.43392l-0.11112-0.11112 0.59002-0.01323h0.59267l-0.12965 0.12965v-0.86783-0.43656l0.01852-0.43392 0.08996 0.08996c-0.19844 0-0.39423-0.02117-0.59267-0.03704-0.19844-0.01588-0.37306-0.0344-0.56885-0.05821z"/>
    <path class="cls-2" d="m83.606 62.874-0.15081 0.0344-0.15346 0.02646-0.15081 0.02117-0.1614 0.01588h-0.08731v-0.10848c-0.02117-0.22754-0.03175-0.45773-0.03175-0.68527v-0.12965h0.11906c0.20373 0 0.40481 0 0.60854 0.02381h0.11377v0.09525c0 0.11377-0.02381 0.22754-0.03969 0.34131a3.0348 3.0348 0 0 1-0.06615 0.36512zm0 0a3.0348 3.0348 0 0 1-0.06615-0.34396c-0.01588-0.11377-0.03175-0.22754-0.03969-0.34131l0.10583 0.10583c-0.20373 0.01587-0.40481 0.02381-0.60854 0.02381l0.13229-0.12965c0 0.22754 0 0.45773-0.03175 0.68527l-0.10848-0.0979 0.15346 0.01587 0.15081 0.02117 0.15346 0.02646z"/>
    <path class="cls-2" d="m117.5 68.827-0.8202 0.02381-0.82286 0.01852c-0.54769 0-1.0954 0.02381-1.6431 0.0291h-0.0688v-0.07408l-0.0238-1.8997c0-0.635-0.0159-1.2674-0.0185-1.9024v-3.9344h3.5163v0.11642c0 0.635 0 1.27-0.0159 1.9024l-0.0238 1.9024v0.94985l-0.0212 0.9525c-0.0265 0.64823-0.037 1.2832-0.0582 1.9156zm0 0c-0.0212-0.63235-0.0318-1.2674-0.0476-1.8997l-0.0185-0.9525-0.0132-0.94985-0.0344-1.9024c0-0.63235 0-1.2674-0.0159-1.9024l0.11906 0.12171h-3.2861l0.12964-0.13229v3.8047c0 0.635 0 1.2674-0.0185 1.9024l-0.0265 1.8997-0.0767-0.06086c0.54769 0 1.0954 0.02117 1.6431 0.03175l0.82285 0.01852z"/>
    <path class="cls-2" d="m116.13 63.186c-0.20373 0.03175-0.40482 0.04763-0.60854 0.06615l-0.30428 0.02381-0.30427 0.01588h-0.0952v-0.11112c0-0.18521-0.0132-0.36777-0.0185-0.55298-5e-3 -0.18521 0-0.37042 0-0.55562v-0.12965h1.0425l0.30427 0.01323h0.10319v0.09525c0 0.0926 0 0.18521-0.0159 0.27781-0.0159 0.0926-0.0132 0.18521-0.0212 0.26458-0.037 0.23548-0.0556 0.40746-0.082 0.59267zm0 0c-0.0265-0.18521-0.045-0.36777-0.0609-0.55298 0-0.0926-0.0159-0.18521-0.0212-0.26458-5e-3 -0.07937-0.0132-0.18521-0.0185-0.27781l0.10054 0.0979-0.30427 0.01588h-0.91282l0.1323-0.12965v0.55562c0 0.18521 0 0.36777-0.0185 0.55298l-0.10583-0.10319 0.30427 0.01587 0.30427 0.02381c0.19579 0.01852 0.39688 0.03704 0.60061 0.06614z"/>
    <path class="cls-2" d="m115.52 64.041c0.19843-0.02117 0.39422-0.03969 0.59002-0.05292 0.19579-0.01323 0.39423-0.02646 0.59266-0.03704h0.0847v0.09525l0.0159 0.43392 0.0132 0.43392v0.87048 0.12965h-1.4288v-0.10848c0-0.14552 0-0.29104 0.0159-0.43392s0.0159-0.29104 0.0238-0.43656c8e-3 -0.14552 0.0185-0.2884 0.0291-0.43392 0.0106-0.14552 0.0476-0.31486 0.0635-0.46038zm0 0c0.0159 0.14552 0.0291 0.2884 0.0423 0.43392s0.0238 0.2884 0.0291 0.43392c5e-3 0.14552 0.0185 0.29104 0.0238 0.43656 5e-3 0.14552 0 0.2884 0.0159 0.43392l-0.11112-0.11112 0.59002-0.01587h0.59266l-0.12964 0.12965v-0.87048-0.43392l0.0185-0.43392 0.09 0.08996c-0.19844-0.01323-0.39423-0.02117-0.59267-0.03704s-0.37042-0.0344-0.56885-0.05556z"/>
    <path class="cls-2" d="m115.52 67.126-0.15082 0.03175-0.15346 0.02646a1.4764 1.4764 0 0 1-0.15081 0.02117l-0.15346 0.01852h-0.0873v-0.10583c-0.0212-0.23019-0.0318-0.45773-0.0318-0.68792v-0.12965h0.12965c0.20373 0 0.40481 0 0.60854 0.02646h0.11377v0.09525c0 0.11642-0.0238 0.23019-0.0397 0.34396a2.712 2.712 0 0 1-0.0847 0.35983zm0 0a3.2755 3.2755 0 0 1-0.0661-0.34396c-0.0159-0.11377-0.0318-0.22754-0.0397-0.34396l0.10584 0.10583c-0.20373 0.01852-0.40482 0.02646-0.60855 0.02646l0.1323-0.13229c0 0.23019 0 0.45773-0.0318 0.68792l-0.10055-0.10054 0.15346 0.01852c0.0503 0 0.10054 0 0.15081 0.02117l0.15346 0.02646z"/>
    <path class="cls-2" d="m116.29 65.194-0.8202 0.02381-0.82286 0.01588c-0.54504 0-1.0927 0.02646-1.6404 0.03175h-0.0714v-0.07144l-0.0265-1.9024c0-0.63235-0.0159-1.2674-0.0185-1.9024v-3.9317h3.5375v0.11906c0 0.635 0 1.2674-0.0185 1.9024l-0.0238 1.8997v0.9525l-0.0185 0.94985c-0.0423 0.64558-0.0423 1.2806-0.0767 1.9129zm0 0c-0.0185-0.63235-0.0318-1.2674-0.045-1.9024l-0.0212-0.94985v-0.9525l-0.0265-1.8997c0-0.635 0-1.2674-0.0159-1.9024l0.11906 0.11906h-3.2835l0.12964-0.12965v3.8021c0 0.635 0 1.27-0.0185 1.9024l-0.0238 1.9024-0.0714-0.07144c0.54769 0 1.0954 0.02117 1.6404 0.03175l0.82285 0.01588z"/>
    <path class="cls-2" d="m114.92 59.554c-0.20109 0.0291-0.40482 0.04762-0.6059 0.06615l-0.30427 0.02117-0.30427 0.01588h-0.0979v-0.10848c0-0.18521 0-0.37042-0.0185-0.55562-0.0185-0.18521 0-0.37042 0-0.55562v-0.12965h1.0425l0.30427 0.01323h0.10319v0.0926c0 0.0926 0 0.18521-0.0185 0.26458-0.0185 0.07937 0 0.18521-0.0212 0.27781-0.0344 0.22754-0.0503 0.41275-0.0794 0.59796zm0 0c-0.0265-0.18521-0.045-0.37042-0.0609-0.55562 0-0.0926 0-0.18521-0.0212-0.27781-0.0212-0.0926 0-0.18521-0.0159-0.26458l0.0979 0.10054-0.30427 0.01323h-0.91017l0.12965-0.13229v0.55562c0 0.18521 0 0.37042-0.0185 0.55562l-0.10318-0.10319 0.30427 0.01588 0.30427 0.02117c0.19314 0.02381 0.39687 0.04233 0.59796 0.07144z"/>
    <path class="cls-2" d="m114.31 60.406c0.19579-0.02117 0.39158-0.03969 0.59002-0.05292s0.39423-0.02381 0.59002-0.03704h0.0873v0.0926l0.0185 0.43656v0.43392 0.86783 0.13229h-0.72232l-0.59002-0.01323h-0.0767v-0.11112c0-0.14288 0-0.2884 0.0185-0.43392s0-0.2884 0.0212-0.43392 0.0212-0.29104 0.0318-0.43392 0.0132-0.30162 0.0318-0.44714zm0 0q0.0238 0.21696 0.0397 0.43656c0 0.14288 0.0238 0.2884 0.0318 0.43392s0.0185 0.2884 0.0212 0.43392c3e-3 0.14552 0.0159 0.29104 0.0185 0.43392l-0.1112-0.11112h1.18l-0.12964 0.12965v-0.86783-0.43392l0.0185-0.43656 0.09 0.08996c-0.1958 0-0.39423-0.01852-0.59002-0.0344-0.1958-0.01587-0.37307-0.05027-0.56886-0.07408z"/>
    <path class="cls-2" d="m114.31 63.491-0.15346 0.0344-0.15081 0.02646-0.15346 0.02117c-0.0503 0-0.10054 0-0.15081 0.01588h-0.09v-0.10848a6.5987 6.5987 0 0 1-0.0318-0.68527v-0.12965h0.12965c0.20108 0 0.40481 0 0.60854 0.02381h0.11112v0.09525c0 0.11377-0.0212 0.22754-0.037 0.34396-0.0159 0.11642-0.0529 0.24871-0.082 0.36248zm0 0a3.1194 3.1194 0 0 1-0.0688-0.34131c-0.0159-0.11642-0.0291-0.23019-0.037-0.34396l0.10583 0.10583c-0.20373 0.01588-0.40746 0.02381-0.60854 0.02381l0.12965-0.12965c0 0.22754 0 0.45773-0.0317 0.68527l-0.0979-0.0979 0.15081 0.01588 0.15346 0.02117 0.15081 0.02646z"/>
    <path class="cls-2" d="m112.11 64.925-0.81227 0.02117-0.82286 0.01852c-0.54768 0-1.0954 0.02646-1.6431 0.03175h-0.0688v-0.07144l-0.0238-1.9024c0-0.635-0.0159-1.2674-0.0185-1.9024v-3.9317h3.5348v0.11906c0 0.63235 0 1.2674-0.0159 1.9024l-0.0238 1.8997-0.0132 0.9525-0.0212 0.94985c-0.0397 0.64558-0.0503 1.2779-0.0714 1.9129zm0 0c-0.0212-0.635-0.0318-1.2674-0.0476-1.9024l-0.0185-0.94985v-0.9525l-0.0238-1.8997c0-0.635 0-1.27-0.0159-1.9024l0.11907 0.11906h-3.2861l0.12965-0.12965v3.8021c0 0.635 0 1.2674-0.0185 1.9024l-0.0265 1.9024-0.0714-0.07144c0.54769 0 1.0954 0.01852 1.6431 0.0291l0.82286 0.01852z"/>
    <path class="cls-2" d="m110.74 59.284c-0.20373 0.0291-0.40481 0.04762-0.60854 0.06615l-0.30427 0.02117-0.30427 0.01588h-0.0952v-0.10848c0-0.18521 0-0.37042-0.0185-0.55562-0.0185-0.18521 0-0.37042 0-0.55562v-0.12965h1.0424l0.30428 0.01588h0.10318v0.0926c0 0.0926 0 0.18521-0.0159 0.26458-0.0159 0.07937 0 0.18521-0.0212 0.27781-0.037 0.2249-0.0503 0.4101-0.082 0.59531zm0 0c-0.0291-0.18521-0.045-0.37042-0.0608-0.55562 0-0.0926-0.0159-0.18521-0.0212-0.27781-5e-3 -0.0926 0-0.18521-0.0185-0.26458l0.10054 0.0979-0.30427 0.01588h-0.91281l0.12964-0.12965v0.55562s0 0.37042-0.0185 0.55562l-0.10583-0.10583 0.30427 0.01588 0.30427 0.02381c0.19844 0.02117 0.39952 0.03704 0.60325 0.06879z"/>
    <path class="cls-2" d="m110.13 60.136c0.19844-0.02117 0.39423-0.03969 0.59002-0.05292s0.39423-0.02381 0.59267-0.03704h0.0847v0.09525l0.0159 0.43392v0.43656 0.86783 0.13229h-0.72496l-0.59002-0.01587h-0.11377v-0.10848c0-0.14552 0-0.2884 0.0159-0.43392 0.0159-0.14552 0.0159-0.29104 0.0238-0.43392 8e-3 -0.14288 0.0185-0.29104 0.0291-0.43656 0.0106-0.14552 0.0608-0.30162 0.0767-0.44714zm0 0c0.0159 0.14552 0.0291 0.29104 0.0423 0.43392s0.0238 0.29104 0.0291 0.43656c5e-3 0.14552 0.0185 0.2884 0.0238 0.43392 5e-3 0.14552 0 0.2884 0.0159 0.43392l-0.11112-0.11112h1.1827l-0.12965 0.12965v-0.86783-0.43656l0.0185-0.43392 0.09 0.08996c-0.19844 0-0.39423-0.02117-0.59267-0.03704-0.19843-0.01588-0.37041-0.05027-0.56885-0.07144z"/>
    <path class="cls-2" d="m114.16 66.835-0.82021 0.01852-0.82286 0.01588c-0.54504 0-1.0927 0.02381-1.6404 0.02646h-0.0714v-0.06085l-0.0265-1.6642c0-0.55562-0.0159-1.1086-0.0185-1.6642v-3.4396h3.5375v0.11642c0 0.55298 0 1.1086-0.0159 1.6616l-0.0265 1.6642v0.83079l-0.0423 0.83079c-0.0185 0.55298-0.0318 1.098-0.0529 1.6642zm0 0c-0.0185-0.55562-0.0318-1.1112-0.045-1.6642l-0.0212-0.83344v-0.83079l-0.0265-1.6642c0-0.55298 0-1.1086-0.0159-1.6616l0.11906 0.10319h-3.2835l0.12965-0.11377v3.3258c0 0.55562 0 1.1086-0.0185 1.6642l-0.0238 1.6642-0.0714-0.0635c0.54768 0 1.0954 0.01852 1.6404 0.02646l0.82286 0.01587z"/>
    <path class="cls-2" d="m112.18 62.647c0.19844-0.02117 0.39423-0.03704 0.59266-0.04763 0.19844-0.01058 0.39423-0.02117 0.59003-0.03175h0.0873v0.08467l0.0185 0.37835v1.2568h-1.4288v-0.09525c0-0.127 0-0.26458 0.0185-0.37835s0.0132-0.26458 0.0212-0.381 0.0212-0.26458 0.0318-0.381 0.0529-0.28046 0.0688-0.40481zm0 0c0.0185 0.12436 0.0318 0.25136 0.0423 0.37836 0.0106 0.127 0.0238 0.26458 0.0318 0.381 8e-3 0.11642 0.0185 0.26458 0.0212 0.381 3e-3 0.11642 0.0159 0.26458 0.0185 0.37835l-0.11377-0.0979h1.1827l-0.12965 0.11377v-1.1404l0.0185-0.37836 0.09 0.07673c-0.19579 0-0.39423-0.01852-0.59002-0.03175s-0.37306-0.04233-0.5715-0.06085z"/>
    <path class="cls-2" d="m112.96 62.829-0.82285 0.02381-0.82021 0.01852c-0.54769 0-1.0954 0.02381-1.6431 0.0291h-0.0688v-0.07144l-0.0238-1.8997c0-0.635-0.0159-1.2674-0.0212-1.9024v-3.9344h3.5348v0.11906c0 0.63235 0 1.2674-0.0159 1.8997l-0.0238 1.9024v0.94985l-0.0212 0.9525c-0.0423 0.65088-0.0556 1.2859-0.0741 1.9129zm0 0c-0.0212-0.63235-0.0318-1.2674-0.0476-1.8997l-0.0185-0.9525v-0.94986l-0.0238-1.9024c0-0.63235 0-1.2674-0.0159-1.8997l0.11906 0.11906h-3.2861l0.12965-0.12964v3.8021c0 0.635 0 1.2674-0.0185 1.9024l-0.0265 1.8997-0.0714-0.07144c0.54769 0 1.0954 0.02117 1.6431 0.03175l0.8202 0.01852z"/>
    <path class="cls-2" d="m111.59 57.193c-0.20373 0.03175-0.40481 0.04763-0.60854 0.06615l-0.30427 0.02381-0.30427 0.01588h-0.0979v-0.11112c0-0.18521 0-0.36777-0.0212-0.55298s0-0.37042 0-0.55562v-0.12965h1.4526v0.09525c0 0.0926 0 0.18521-0.0159 0.27781-0.0159 0.0926-0.0132 0.18521-0.0212 0.26458-0.0344 0.23812-0.0529 0.42069-0.0794 0.6059zm0 0c-0.0291-0.18521-0.045-0.36777-0.0609-0.55298 0-0.0926-0.0159-0.18521-0.0212-0.26458-5e-3 -0.07937 0-0.18521-0.0185-0.27781l0.10054 0.0979-0.30427 0.01588h-0.91281l0.13229-0.12965v0.55562c0 0.18521 0 0.36777-0.0185 0.55298l-0.10583-0.10319 0.30427 0.01588 0.30427 0.02381c0.19579 0.01852 0.39687 0.03704 0.6006 0.06615z"/>
    <path class="cls-2" d="m88.038 59.561 5.4901-0.05821 5.4875-0.03175h5.4875 5.4901v0.2196l-5.4875 0.05292-2.7464 0.02646-2.7437 0.03704c-1.8283 0.02117-3.6592 0.05556-5.4875 0.08996l-5.4875 0.11642v-0.14552l10.978-0.05292h10.978v0.26458l-5.4875 0.06879-5.4927 0.0344-5.4875 0.03969-5.4901 0.02381v-0.02646l5.4875-0.12965 5.4875-0.11377 5.4901-0.10319 5.4875-0.08467v0.26458h-5.4875l-5.4875-0.01323-10.978-0.05027v-0.14552l5.4875-0.0635c1.8309-0.02646 3.6592-0.05027 5.4901-0.08996l2.7437-0.03704 8.2312-0.1905v0.2196c-1.8309 0-3.6592 0.01323-5.4901 0l-5.4875-0.01588-5.4848-0.01323-5.4901-0.05556z"/>
    <path class="cls-2" d="m90.699 64.681c0.03969-0.85196 0.0979-1.7039 0.14817-2.5559 0.05027-0.85196 0.11377-1.7013 0.17462-2.5532l0.19315-2.5638c0.07144-0.85196 0.13494-1.7013 0.21167-2.5506v-0.17462h0.17727l1.1748-0.0026h0.17198l0.02117 0.17198c0.10583 0.84402 0.20373 1.688 0.30162 2.5321 0.0979 0.84402 0.19579 1.688 0.28575 2.5347 0.1905 1.688 0.36248 3.3787 0.52917 5.0721v0.11377h-0.10848l-1.6378-0.02381q-0.82021 0-1.6431 0zm0 0c0.54769-0.0344 1.0927-0.0635 1.6404-0.08996l1.6404-0.07937-0.09789 0.11377q-0.35719-2.5241-0.68262-5.0535-0.1561-1.2753-0.31485-2.54c-0.10583-0.84402-0.20638-1.688-0.30427-2.5321l0.19579 0.17198h-1.1589l0.1905-0.17462c-0.07673 0.84931-0.16669 1.696-0.24871 2.5453l-0.26458 2.5453c-0.0926 0.84931-0.17992 1.696-0.28575 2.5426-0.10583 0.84667-0.19579 1.6933-0.30956 2.5506z"/>
    <path class="cls-2" d="m97.653 64.681c0.04233-0.85196 0.0979-1.7039 0.15081-2.5559 0.05292-0.85196 0.11377-1.7013 0.17198-2.5532l0.19315-2.5638c0.07144-0.85196 0.13494-1.7013 0.21167-2.5506l0.01587-0.17462h1.5055l0.02117 0.17198c0.10584 0.84402 0.20373 1.688 0.30163 2.5321s0.19579 1.688 0.28839 2.5347q0.28046 2.5321 0.52917 5.0721l0.0132 0.11377h-0.11112l-1.6484-0.02646q-0.82021 0-1.6431 0zm0 0q0.82021-0.05292 1.6404-0.08996l1.6404-0.07937-0.0979 0.11377c-0.23813-1.6828-0.46832-3.3681-0.67998-5.0535-0.11113-0.84402-0.21432-1.688-0.3175-2.5294-0.10319-0.84138-0.20638-1.688-0.30162-2.5321l0.19315 0.17198h-1.1589l0.1905-0.17462c-0.07673 0.84931-0.16404 1.696-0.24871 2.5453l-0.26458 2.5453c-0.0926 0.84931-0.17727 1.6828-0.2831 2.5294-0.10583 0.84667-0.19844 1.696-0.31221 2.5532z"/>
    <path class="cls-2" d="m104.42 64.488c0.0397-0.85196 0.0979-1.7039 0.14817-2.5559 0.0503-0.85196 0.11377-1.7039 0.17198-2.5532l0.19579-2.5532c0.0688-0.84931 0.13229-1.6986 0.20902-2.5479l8e-3 -0.17992h1.5081l0.0212 0.17198c0.10583 0.84402 0.20373 1.688 0.29898 2.5321 0.0952 0.84402 0.19843 1.688 0.28839 2.5321 0.1905 1.6907 0.36248 3.3814 0.52917 5.0721v0.11642h-1.7515q-0.81492-0.01587-1.6272-0.0344zm0 0q0.81756-0.05292 1.6404-0.08996l1.6404-0.07937-0.0979 0.11377q-0.36513-2.5294-0.69056-5.043-0.1614-1.2674-0.31486-2.5321t-0.30427-2.54l0.19579 0.17198h-1.1589l0.1905-0.17462c-0.0767 0.84931-0.16669 1.696-0.24871 2.5453l-0.26458 2.5453c-0.0952 0.84931-0.18257 1.696-0.28575 2.5426-0.10319 0.84667-0.19844 1.6933-0.30163 2.54z"/>
    <path class="cls-2" d="m88.03 59.39q0.51594-0.56886 1.0134-1.1536c0.32808-0.39423 0.65352-0.79375 0.96308-1.1933 0.30956-0.39952 0.6059-0.82814 0.87577-1.2488a6.4664 6.4664 0 0 0 0.36777-0.66146 2.6458 2.6458 0 0 0 0.23548-0.69321l0.01587-0.0926h1.1562l0.0291 0.07673c0.17462 0.4445 0.3466 0.89429 0.52917 1.3388 0.18256 0.4445 0.37835 0.88106 0.57679 1.3229 0.19844 0.44185 0.4101 0.86783 0.65088 1.2806a5.2149 5.2149 0 0 0 0.39158 0.59267 1.9685 1.9685 0 0 0 0.23548 0.26458 0.48948 0.48948 0 0 0 0.26458 0.14023h-0.03175a6.0431 6.0431 0 0 0 1.1456-0.96838 7.8714 7.8714 0 0 0 0.92604-1.188 9.4509 9.4509 0 0 0 0.71173-1.3229 10.425 10.425 0 0 0 0.51329-1.4473v-0.05027h0.05292l0.92604-0.02381h0.05821l0.02117 0.05556c0.16669 0.43921 0.3466 0.87577 0.52917 1.3229 0.18256 0.44715 0.36777 0.86783 0.56356 1.2965s0.40217 0.84931 0.62971 1.2568a6.2997 6.2997 0 0 0 0.36512 0.59002 2.5585 2.5585 0 0 0 0.21432 0.26458c0.0714 0.07408 0.16668 0.13758 0.20637 0.13229l-0.0635 0.01588a6.3897 6.3897 0 0 0 1.1404-0.93927 7.7205 7.7205 0 0 0 0.93398-1.1589 7.448 7.448 0 0 0 0.68263-1.3229 8.3661 8.3661 0 0 0 0.41539-1.4314l0.0185-0.10583h1.1377l0.0238 0.08202c0.14023 0.48948 0.30427 0.97631 0.48154 1.4552s0.36777 0.95515 0.59002 1.4155a7.8105 7.8105 0 0 0 0.77258 1.3229 2.7093 2.7093 0 0 0 0.52917 0.54504 1.0345 1.0345 0 0 0 0.70379 0.23283v0.02646a1.0821 1.0821 0 0 1-0.74083-0.20902 2.7834 2.7834 0 0 1-0.56886-0.52917 7.4083 7.4083 0 0 1-0.83608-1.3229c-0.23548-0.45773-0.44715-0.93133-0.63765-1.4129-0.1905-0.48154-0.36248-0.96573-0.52916-1.4631l0.11377 0.08467h-0.94721l0.12435-0.10319a7.4427 7.4427 0 0 1-0.40216 1.5002 7.6729 7.6729 0 0 1-0.70379 1.3758 7.6729 7.6729 0 0 1-0.96573 1.2039 6.5458 6.5458 0 0 1-1.2092 0.97367l-0.0291 0.01588h-0.037a0.43921 0.43921 0 0 1-0.23547-0.08202 1.098 1.098 0 0 1-0.15611-0.12965 2.6458 2.6458 0 0 1-0.23548-0.29104 6.2256 6.2256 0 0 1-0.37571-0.61912c-0.22754-0.41804-0.43127-0.84931-0.61912-1.2832-0.381-0.86783-0.72496-1.7489-1.0398-2.6458l0.07673 0.05292h-0.92075l0.06615-0.05027a10.525 10.525 0 0 1-0.52917 1.4288 9.7499 9.7499 0 0 1-0.73025 1.3229 9.3371 9.3371 0 0 1-0.93133 1.2065 6.7601 6.7601 0 0 1-1.1483 1.0107h-0.03175a0.60325 0.60325 0 0 1-0.36248-0.1614 1.9235 1.9235 0 0 1-0.26458-0.26458 5.1991 5.1991 0 0 1-0.42333-0.59796c-0.26458-0.41275-0.48154-0.84138-0.69585-1.2753-0.21431-0.43392-0.4101-0.87577-0.6006-1.3229s-0.37306-0.889-0.52917-1.3441l0.10848 0.07408h-0.98425l0.11112-0.0926a2.8787 2.8787 0 0 1-0.26458 0.75142 6.813 6.813 0 0 1-0.38894 0.67733 13.697 13.697 0 0 1-0.92604 1.2488c-0.32544 0.39688-0.65881 0.79375-1.0107 1.1642-0.3519 0.37042-0.70379 0.74612-1.0742 1.1007z"/>
    <path class="cls-2" d="m88.016 59.874c0.34131-0.42862 0.67733-0.8599 1.0028-1.2965 0.32544-0.43656 0.64823-0.87842 0.95779-1.3229 0.30956-0.4445 0.60325-0.90752 0.87312-1.3758a8.0592 8.0592 0 0 0 0.38629-0.72231 2.9475 2.9475 0 0 0 0.24871-0.74612l0.01587-0.0926h1.307l0.02646 0.08202c0.15875 0.49212 0.31485 0.97102 0.4736 1.4526 0.15875 0.48154 0.34925 0.96573 0.52917 1.442 0.17992 0.47625 0.381 0.94985 0.60854 1.4076a6.006 6.006 0 0 0 0.37571 0.66146 2.0611 2.0611 0 0 0 0.23019 0.29104 0.47625 0.47625 0 0 0 0.2831 0.16669l-0.03704 0.01323a8.4905 8.4905 0 0 0 1.1112-1.1536 10.872 10.872 0 0 0 0.92075-1.3229 11.729 11.729 0 0 0 0.74083-1.4261 12.263 12.263 0 0 0 0.52917-1.5214v-0.04762h0.05292l0.92604-0.01588h0.05821l0.02117 0.05556c0.16669 0.48154 0.34396 0.96044 0.52917 1.4367s0.36512 0.94985 0.56091 1.4182c0.1958 0.46831 0.39952 0.93662 0.62442 1.3864a7.1967 7.1967 0 0 0 0.36777 0.65617 2.4315 2.4315 0 0 0 0.21431 0.29104 0.79375 0.79375 0 0 0 0.11907 0.11377 0.17727 0.17727 0 0 0 0.0953 0.04498l-0.082 0.03175a9.5964 9.5964 0 0 0 1.1033-1.1853 11.335 11.335 0 0 0 0.92604-1.3229 9.525 9.525 0 0 0 1.1562-3.0348l0.0185-0.10319h1.1404l0.0212 0.08731c0.13758 0.52917 0.29633 1.0795 0.47096 1.6113 0.17462 0.53181 0.35983 1.0583 0.57414 1.5875a9.9007 9.9007 0 0 0 0.75671 1.4949 3.3576 3.3576 0 0 0 0.52917 0.64558 1.0001 1.0001 0 0 0 0.74348 0.30427v0.02646a0.82815 0.82815 0 0 1-0.42333-0.06085 1.3732 1.3732 0 0 1-0.36513-0.2249 3.3126 3.3126 0 0 1-0.56621-0.635 8.9588 8.9588 0 0 1-0.81756-1.4896c-0.23283-0.52917-0.43656-1.0425-0.62442-1.5875-0.18785-0.54504-0.35189-1.0583-0.50271-1.606l0.11378 0.08731h-0.94721l0.12435-0.0926a9.3319 9.3319 0 0 1-1.1642 3.1168 10.636 10.636 0 0 1-0.9472 1.3732 9.7896 9.7896 0 0 1-1.1589 1.2091l-0.037 0.03175h-0.0476a0.42069 0.42069 0 0 1-0.26458-0.0979 1.0583 1.0583 0 0 1-0.1561-0.15081 2.6591 2.6591 0 0 1-0.23284-0.32808 7.4983 7.4983 0 0 1-0.3757-0.68262c-0.2249-0.46302-0.42598-0.93398-0.61384-1.4102q-0.56621-1.4288-1.0292-2.8892l0.07673 0.05556-0.92075-0.01323 0.06615-0.05027a12.171 12.171 0 0 1-0.56092 1.5214 12.128 12.128 0 0 1-0.74348 1.4393 13.552 13.552 0 0 1-0.9234 1.3229 9.7896 9.7896 0 0 1-1.0954 1.188l-0.01587 0.01323h-0.02381a0.57679 0.57679 0 0 1-0.37593-0.19315 2.2992 2.2992 0 0 1-0.26458-0.30427 5.969 5.969 0 0 1-0.40481-0.66675c-0.24342-0.45773-0.45508-0.93133-0.65617-1.4049-0.20108-0.4736-0.37835-0.96044-0.55298-1.4446-0.17462-0.48419-0.34396-0.97102-0.49477-1.4658l0.11377 0.08202h-1.1298l0.11112-0.0926a3.2041 3.2041 0 0 1-0.26458 0.79375c-0.11906 0.26458-0.26458 0.49477-0.39423 0.73025-0.28046 0.47625-0.59531 0.9234-0.9181 1.3679-0.32279 0.4445-0.65617 0.87577-1.0028 1.2991-0.3466 0.42333-0.6985 0.84138-1.0583 1.2462z"/>
    <path class="cls-2" d="m87.993 63.887-0.82285 0.02381-0.82021 0.01852c-0.54769 0-1.0954 0.02381-1.6431 0.0291h-0.07144v-0.07144l-0.02381-1.8997c0-0.635-0.01852-1.2674-0.02117-1.9024v-3.937h0.12965 3.2861 0.11906v0.11642c0 0.635 0 1.27-0.01588 1.9024l-0.02646 1.9024v0.94985l-0.02117 0.9525c-0.04498 0.64558-0.04498 1.2806-0.06879 1.9156zm0 0c-0.02117-0.63235-0.0344-1.2674-0.04763-1.8997l-0.01852-0.9525-0.01323-0.94985-0.02646-1.9024c0-0.63236 0-1.2674-0.01588-1.9024l0.12171 0.12171h-3.2861l0.12965-0.13229v3.8047c0 0.635 0 1.2674-0.02117 1.9024l-0.03704 1.9103-0.07144-0.07144c0.54769 0 1.0954 0.02117 1.6431 0.03175l0.82021 0.01852z"/>
    <path class="cls-2" d="m86.617 58.244c-0.20108 0.03175-0.40481 0.04763-0.6059 0.06615l-0.30427 0.02117-0.30427 0.01587h-0.0979v-0.11112c0-0.18521-0.01323-0.37042-0.02117-0.55298-0.0079-0.18256 0-0.37042 0-0.55562v-0.11906h1.4526v0.09525l-0.01588 0.26458c0 0.0926-0.01323 0.18521-0.02117 0.27781-0.03704 0.22754-0.05292 0.42069-0.08202 0.59796zm0 0c-0.02646-0.18521-0.04233-0.37042-0.06085-0.55298 0-0.0926-0.01323-0.18521-0.02117-0.27781-0.0079-0.0926 0-0.18521-0.01587-0.26458l0.09789 0.0979c-0.10054 0-0.20108 0.01323-0.30427 0.01323h-0.91017l0.12965-0.12965v0.55562s0 0.36777-0.02117 0.55298l-0.10319-0.10319 0.30427 0.01587 0.30427 0.02117c0.19579 0.02381 0.41275 0.04233 0.6006 0.07144z"/>
    <path class="cls-2" d="m86.011 59.098c0.19579-0.02117 0.39423-0.03969 0.59002-0.05292 0.19579-0.01323 0.39423-0.02646 0.59002-0.03704h0.08731v0.09525l0.01852 0.43392v0.43392 0.87048 0.13494h-0.72231l-0.59002-0.01323h-0.08467v-0.10848c0-0.14552 0.01323-0.29104 0.01852-0.43392 0.0053-0.14288 0.01323-0.29104 0.02117-0.43656 0.0079-0.14552 0.02117-0.2884 0.03175-0.43392 0.01058-0.14552 0.02117-0.30692 0.03969-0.45244zm0 0c0.01587 0.14552 0.0291 0.2884 0.04233 0.43392 0.01323 0.14552 0.02117 0.2884 0.0291 0.43392 0.0079 0.14552 0.01852 0.29104 0.02381 0.43656 0.0053 0.14552 0 0.2884 0.01588 0.43392l-0.11112-0.11112 0.59002-0.01323h0.59002l-0.12965 0.12965v-0.87048l0.01323-0.43392 0.01588-0.43392 0.08996 0.08996c-0.19579 0-0.39423-0.02117-0.59002-0.03704-0.19579-0.01588-0.38365-0.03175-0.57944-0.05821z"/>
    <path class="cls-2" d="m86.011 62.184c-0.05027 0.01323-0.10319 0.02381-0.15346 0.03175l-0.15081 0.02646c-0.05027 0-0.10054 0-0.15346 0.02117l-0.15081 0.01852h-0.08731v-0.10583c-0.02117-0.23019-0.03175-0.45773-0.03175-0.68792v-0.12964h0.12965c0.20373 0 0.40481 0 0.60854 0.02646h0.11112v0.09525c0 0.11642-0.02381 0.23019-0.03969 0.34396s-0.05292 0.24342-0.08202 0.35983zm0 0a3.2941 3.2941 0 0 1-0.06879-0.34396c-0.01323-0.11377-0.0291-0.22754-0.03704-0.34396l0.10583 0.10583c-0.20373 0.01852-0.40481 0.02646-0.60854 0.02646l0.12965-0.13229c0 0.23019 0 0.45773-0.03175 0.68792l-0.0979-0.10054 0.15081 0.01852c0.05292 0 0.10319 0 0.15346 0.02117l0.15081 0.02646c0.04233 0.0079 0.10319 0.02117 0.15346 0.0344z"/>
    <path class="cls-3" d="m96.197 85.583v-1.9447c0-1.5134-1.2277-1.7939-2.4924-1.7939a3.5481 3.5481 0 0 0-1.7039 0.37042 1.6536 1.6536 0 0 0-0.83079 1.434h1.6378c0.08202-0.45508 0.38894-0.6694 0.87577-0.6694 0.35983 0 0.84402 0.15346 0.84402 0.55298 0 0.33073-0.16404 0.43392-0.46302 0.49742-1.1404 0.23019-2.8813 0.127-3.093 1.5531a2.1458 2.1458 0 0 0-0.01852 0.30162c0 1.1007 0.79375 1.6166 1.823 1.6166a2.4156 2.4156 0 0 0 1.7621-0.65881 2.0214 2.0214 0 0 0 0.10319 0.50271h1.7621a3.1009 3.1009 0 0 1-0.20638-1.3705zm-1.7304 0c-0.10319 0.57944-0.41275 0.83608-1.0319 0.83608-0.39158 0-0.73025-0.17462-0.73025-0.6059a0.56092 0.56092 0 0 1 0.03969-0.23019c0.0979-0.26458 0.37042-0.37571 0.68262-0.45244 0.381-0.10319 0.83344-0.13229 1.0795-0.29104a3.3655 3.3655 0 0 1-0.03969 0.74348"/>
    <path class="cls-4" d="m90.715 85.959v-0.26458h-2.8019v-5.7124h-1.9182v7.3554h5.3499v-0.02117a1.5875 1.5875 0 0 1-0.62971-1.3573"/>
   </g>
   <polygon class="cls-3" transform="matrix(.26458 0 0 .26458 80.608 54.098)" points="103.89 120.5 103.89 125.63 123.12 125.63 123.12 120.57 112.29 120.57 113.9 118.97 122.39 110.45 122.39 105.43 104.7 105.43 104.7 110.5 113.98 110.5 105.43 118.97"/>
   <g stroke-width=".26458">
    <path class="cls-3" d="m107.73 85.583v-1.9447c0-1.5134-1.2277-1.7939-2.495-1.7939a3.773 3.773 0 0 0-1.4922 0.26458v0.1561a3.3046 3.3046 0 0 1-0.26458 1.3785h0.8599c0.0847-0.45508 0.39158-0.6694 0.87577-0.6694 0.35983 0 0.84402 0.15346 0.84402 0.55298 0 0.33073-0.16404 0.43392-0.46567 0.49742-1.1351 0.23019-2.876 0.127-3.0877 1.5531a2.1458 2.1458 0 0 0-0.0185 0.30162c0 1.1007 0.79375 1.6166 1.823 1.6166a2.4051 2.4051 0 0 0 1.7595-0.65881 2.0267 2.0267 0 0 0 0.10583 0.50271h1.7595a3.138 3.138 0 0 1-0.20373-1.3705zm-1.7251 0c-0.10319 0.57944-0.4154 0.83608-1.0319 0.83608-0.39159 0-0.7329-0.17462-0.7329-0.6059a0.60854 0.60854 0 0 1 0.0397-0.23019 0.88106 0.88106 0 0 1 0.67998-0.44979c0.38364-0.10319 0.83608-0.13229 1.0848-0.29104a3.3655 3.3655 0 0 1-0.0397 0.74083"/>
    <path class="cls-3" d="m100.82 84.887c1.6166 0 2.6458-0.71173 2.6458-2.5347 0-1.741-1.2859-2.3812-2.6458-2.3812h-3.4925v7.3739h1.9156v-2.45zm-1.5875-3.3681h1.2965c0.59002 0 1.0345 0.26458 1.0345 0.96838 0 0.70379-0.43392 0.91546-1.0345 0.91546h-1.2859z"/>
    <path class="cls-2" d="m101.28 66.97a0.7329 0.7329 0 0 1-0.67998-0.62971v-2.0241a2.712 2.712 0 0 0-1.8944-2.1934 10.298 10.298 0 0 0-3.2464 0.08202 2.4897 2.4897 0 0 0-1.7992 2.1537v0.99219h-0.3519v-0.99748a2.8628 2.8628 0 0 1 2.0558-2.4871 10.451 10.451 0 0 1 3.3972-0.09525h0.01852a3.1247 3.1247 0 0 1 2.1643 2.495v2.0135c0.0185 0.07408 0.10318 0.34925 0.36777 0.33073a0.26458 0.26458 0 0 0 0.2487-0.23019v-1.2515a2.585 2.585 0 0 1 1.7568-2.0346h0.0159a6.5511 6.5511 0 0 1 2.5903-0.07144c0.127 0.01852 1.5875 0.28046 2.0373 2.0399v1.7357h-0.34925v-1.6801c-0.40482-1.5478-1.688-1.7595-1.7436-1.7595a6.35 6.35 0 0 0-2.4315 0.06614 2.2384 2.2384 0 0 0-1.4975 1.7357v1.2647a0.6059 0.6059 0 0 1-0.58738 0.54504z"/>
    <path class="cls-2" d="m91.435 68.65a0.52917 0.52917 0 1 1-0.52917-0.52917 0.52917 0.52917 0 0 1 0.52917 0.52917z"/>
    <circle class="cls-2" transform="rotate(-89.27)" cx="-67.443" cy="94.879" r=".53181"/>
    <path class="cls-2" d="m95.531 64.97a0.52917 0.52917 0 1 1-0.52917-0.52917 0.52917 0.52917 0 0 1 0.52917 0.52917z"/>
    <path class="cls-2" d="m99.589 64.97a0.52917 0.52917 0 1 1-0.52917-0.52917 0.52917 0.52917 0 0 1 0.52917 0.52917z"/>
    <path class="cls-2" d="m99.235 70.282a0.50006 0.50006 0 1 1-0.50006-0.50006 0.49742 0.49742 0 0 1 0.50006 0.50006z"/>
    <path class="cls-2" d="m101.98 70.282a0.50006 0.50006 0 1 1-0.49742-0.50006 0.49742 0.49742 0 0 1 0.49742 0.50006z"/>
    <path class="cls-2" d="m103.46 65.74a0.50006 0.50006 0 1 1-0.49742-0.50006 0.50006 0.50006 0 0 1 0.49742 0.50006z"/>
    <path class="cls-2" d="m106.89 65.74a0.50006 0.50006 0 1 1-0.50006-0.50006 0.50006 0.50006 0 0 1 0.50006 0.50006z"/>
    <path class="cls-2" d="m107.84 70.838a0.44715 0.44715 0 1 1-0.44715-0.44715 0.44715 0.44715 0 0 1 0.44715 0.44715z"/>
    <path class="cls-2" d="m110.41 70.838a0.44979 0.44979 0 1 1-0.44979-0.44715 0.44979 0.44979 0 0 1 0.44979 0.44715z"/>
    <path class="cls-2" d="m93.938 70.685h-3.1459a0.6006 0.6006 0 0 1 0-1.1986h3.1459a0.6006 0.6006 0 0 1 0 1.1986zm-3.1459-0.84667a0.24871 0.24871 0 1 0 0 0.49477h3.1459a0.24871 0.24871 0 0 0 0-0.49477z"/>
    <path class="cls-2" d="m106.2 67.875h-3.1459a0.59796 0.59796 0 0 1 0-1.1959h3.1459a0.59796 0.59796 0 0 1 0 1.1959zm-3.1459-0.84402a0.24871 0.24871 0 1 0 0 0.49477h3.1459a0.24871 0.24871 0 0 0 0-0.49477z"/>
    <path class="cls-2" d="m98.999 67.454h-3.4237a0.17727 0.17727 0 0 1 0-0.3519h3.4237a0.31221 0.31221 0 0 0 0-0.62177h-3.9926a0.17462 0.17462 0 1 1 0-0.34925h3.9926a0.66146 0.66146 0 0 1 0 1.3229z"/>
    <rect class="cls-2" x="103.85" y="69.875" width="1.3864" height=".3519"/>
    <path class="cls-2" d="m101.19 71.582h-2.1352a0.17727 0.17727 0 0 1 0-0.3519h2.1352a0.17727 0.17727 0 1 1 0 0.3519z"/>
    <path class="cls-2" d="m109.67 72.256h-2.2701a0.17462 0.17462 0 0 1 0-0.34925h2.2701a0.17462 0.17462 0 1 1 0 0.34925z"/>
    <rect class="cls-2" x="105.6" y="75.508" width="1.6457" height=".3519"/>
    <rect class="cls-2" x="110.22" y="75.508" width="1.6457" height=".3519"/>
    <rect class="cls-2" x="100.98" y="75.508" width="2.7517" height=".3519"/>
    <rect class="cls-2" x="88.816" y="75.508" width="1.6563" height=".3519"/>
    <rect class="cls-2" x="93.533" y="75.847" width="2.1643" height=".3519"/>
    <path class="cls-2" d="m88.339 74.185c-1.1695 0-2.1167-0.70114-2.1167-1.561s0.9525-1.5637 2.1167-1.5637 2.1167 0.70115 2.1167 1.5637c0 0.86254-0.94721 1.561-2.1167 1.561zm0-2.7728c-0.97631 0-1.7701 0.52917-1.7701 1.2118s0.79375 1.2091 1.7701 1.2091c0.97631 0 1.7701-0.52917 1.7701-1.2091s-0.79375-1.2118-1.7701-1.2118z"/>
    <path class="cls-2" d="m95.401 73.677c-0.74612 0-1.352-0.46831-1.352-1.0583s0.6059-1.0583 1.352-1.0583 1.352 0.47096 1.352 1.0583-0.6059 1.0583-1.352 1.0583zm0-1.741c-0.55033 0-1.0001 0.31221-1.0001 0.69585s0.44979 0.69585 1.0001 0.69585 1.0001-0.31221 1.0001-0.69585-0.44715-0.69585-1.0001-0.69585z"/>
    <path class="cls-2" d="m103.85 73.571c-0.74348 0-1.352-0.46831-1.352-1.0451s0.60854-1.0583 1.352-1.0583 1.352 0.47096 1.352 1.0583-0.60589 1.0451-1.352 1.0451zm0-1.741c-0.55033 0-1.0001 0.31221-1.0001 0.69585s0.44979 0.69585 1.0001 0.69585 1.0001-0.31221 1.0001-0.69585-0.44715-0.70115-1.0001-0.70115z"/>
    <path class="cls-2" d="m111.68 73.571c-0.74613 0-1.352-0.46831-1.352-1.0451s0.6059-1.0583 1.352-1.0583c0.74612 0 1.3494 0.47096 1.3494 1.0583s-0.6059 1.0451-1.3494 1.0451zm0-1.741c-0.55298 0-1.0001 0.31221-1.0001 0.69585s0.44715 0.69585 1.0001 0.69585c0.55297 0 1.0001-0.31221 1.0001-0.69585s-0.44979-0.70115-1.0001-0.70115z"/>
    <path class="cls-2" d="m108.65 67.875a0.98954 0.98954 0 1 1 0.99748-0.98954 0.99219 0.99219 0 0 1-0.99748 0.98954zm0-1.6272a0.64029 0.64029 0 1 0 0.64559 0.63764 0.64294 0.64294 0 0 0-0.64559-0.63764z"/>
   </g>
   <path class="cls-2" d="m95.451 71.653h-0.3519v-3.1192c-0.73671-2.2626-4.8286-2.5078-5.1274-0.36036l-0.1351 3.3504h-0.35454v-2.8189c0.44066-2.7914 5.2462-2.6367 5.9425-0.2228v0.01641z" stroke-width=".2491"/>
   <g stroke-width=".26458">
    <rect class="cls-2" x="95.099" y="73.672" width=".3519" height=".33867"/>
    <path class="cls-2" d="m102.81 74.111h-0.34925v-4.4027a2.0558 2.0558 0 0 0-1.397-1.2965 3.6301 3.6301 0 0 0-1.9367 0.07408 2.1299 2.1299 0 0 0-1.2065 1.4129v4.2333h-0.3519v-4.3021a2.4474 2.4474 0 0 1 1.4208-1.6828 3.9158 3.9158 0 0 1 2.1378-0.0926 2.3998 2.3998 0 0 1 1.6669 1.5452v0.0291z"/>
    <path class="cls-2" d="m106.54 74.111h-0.34661v-3.6565a2.1167 2.1167 0 0 1 1.2568-1.5875h0.0159a4.6752 4.6752 0 0 1 2.3442-0.05556h0.0238a2.4024 2.4024 0 0 1 1.3864 1.6907v1.2224h-0.3519v-1.1642a2.0479 2.0479 0 0 0-1.1536-1.4235 4.4106 4.4106 0 0 0-2.1167 0.04233 1.7859 1.7859 0 0 0-1.0583 1.307z"/>
    <rect class="cls-2" x="110.84" y="73.397" width=".3519" height=".61383"/>
    <path class="cls-2" d="m96.663 62.625h1.3361s0.30427 0.01852 0.32015 0.2884a0.31221 0.31221 0 0 1-0.2884 0.32014z"/>
    <rect class="cls-2" x="89.482" y="74.55" width=".3519" height=".4736"/>
    <rect class="cls-2" x="95.099" y="74.619" width=".3519" height=".40481"/>
    <rect class="cls-2" x="97.565" y="74.619" width=".3519" height=".40481"/>
    <rect class="cls-2" x="97.565" y="75.582" width=".3519" height=".40481"/>
    <rect class="cls-2" x="102.46" y="74.619" width=".3519" height=".33867"/>
    <rect class="cls-2" x="106.19" y="74.619" width=".3519" height=".33867"/>
    <rect class="cls-2" x="110.84" y="74.619" width=".3519" height=".33867"/>
    <path class="cls-6" d="m106.88 68.891 0.0291-0.24077a0.16404 0.16404 0 0 1 0.0979-0.13758s0.47096-0.39423 2.5426 0.33338c0 0 1.442 0.50006 2.1167 1.1139 0 0 0.14288 0.11112 0.0979 0.24871a0.49477 0.49477 0 0 1-0.09 0.17992s-0.14023 0.29633-0.40217 0.14552c0 0-1.5505-0.79375-1.9711-0.90752a8.636 8.636 0 0 0-2.1431-0.45244s-0.33602-0.03969-0.27781-0.2831z"/>
    <path class="cls-6" d="m107.97 68.446s0.21432-0.79375 0.68263-1.0134a1.5002 1.5002 0 0 1 1.2356-0.01587s0.95515 0.21431 1.2621 0.90223c0 0 0.23018 0.41804-0.10584 1.2171a12.076 12.076 0 0 0-1.4684-0.6694 10.403 10.403 0 0 0-1.606-0.42069z"/>
    <path class="cls-6" d="m90.22 70.843a0.381 0.381 0 1 1-0.37835-0.34131 0.36248 0.36248 0 0 1 0.37835 0.34131z"/>
    <path class="cls-6" d="m95.621 71.081a0.381 0.381 0 1 1-0.37835-0.34396 0.36248 0.36248 0 0 1 0.37835 0.34396z"/>
    <path class="cls-6" d="m92.625 63.461c-0.16325 2.33e-4 -0.2744 0.01085-0.2744 0.01085a2.5718 2.5718 0 0 0-1.1219 0.32038 3.5613 3.5613 0 0 0-1.3601 1.3756c-1.5214 3.4819-0.26458 5.0694-0.26458 5.0694a3.1141 3.1141 0 0 1 0.26458 0.52917 1.1139 1.1139 0 0 1 0.17984 0.08217 2.63 2.63 0 0 0-0.1111-0.44752c-0.0635-0.0979 0.12196-0.28578 0.12196-0.28578a1.1192 1.1192 0 0 0 0-0.56068c-0.15875-1.4155-0.08733-1.3813-0.08733-1.3813 0.0291-0.72496 0.93379-0.93379 0.93379-0.93379 1.4314-0.46831 3.1565 0.06098 3.1565 0.06098 0.78846 0.29104 0.8599 1.2645 0.8599 1.2645a4.408 4.408 0 0 1-0.11369 1.1591c0.0291 0.26194 0.06615 0.28834 0.06615 0.28834 0.22754 0.35719 0.03979 0.39688 0.03979 0.39688-0.1561 0.15875 0 0.40979 0 0.40979 0.13494 0.13229 0.0925 0.21187 0.0925 0.21187l0.11627-0.07958a0.60325 0.60325 0 0 1 0-0.46302l0.20102-0.38343a8.3159 8.3159 0 0 0 0.05839-3.9873c-0.64823-2.0346-1.7885-2.4712-1.7885-2.4712-0.28112-0.1571-0.69686-0.18591-0.96893-0.18552zm-0.19276 1.6407a0.082021 0.082021 0 0 1 0.08217 0.08475 0.082021 0.082021 0 1 1-0.08217-0.08475zm1.3229 0.08475a0.082021 0.082021 0 0 1 0.08217 0.08217 0.084667 0.084667 0 1 1-0.08217-0.08217zm-2.6458 0.08217a0.082021 0.082021 0 0 1 0.08217 0.08165 0.082021 0.082021 0 0 1-0.08217 0.08217 0.082021 0.082021 0 0 1 0-0.16381zm1.974 0.02635a0.03175 0.03175 0 0 1 0.03411 0c0.21124 0.14604 0.42228 0.29223 0.63098 0.4408l0.68678-0.25838a0.015875 0.015875 0 0 1 0.0186 0l0.52917 0.52917-0.55811-0.49197-0.68265 0.2775a0.023812 0.023812 0 0 1-0.02377 0l-0.62632-0.42788-0.63354 0.40979a0.03175 0.03175 0 0 1-0.03669 0l-0.62735-0.38706c-0.19294 0.15459-0.38364 0.31165-0.57671 0.46355a0.023812 0.023812 0 0 1-0.02636 0l-0.69919-0.28215-0.57102 0.55449c0.18256-0.19844 0.3678-0.39383 0.55036-0.58962a0.015875 0.015875 0 0 1 0.0186 0l0.70641 0.26045c0.19156-0.16252 0.3883-0.32009 0.5824-0.48009a0.03175 0.03175 0 0 1 0.03669 0l0.63201 0.3855zm-0.0677 0.71313a0.026458 0.026458 0 0 1 0.01757 0.0062c0.22464 0.15151 0.44865 0.30329 0.67077 0.45733l0.72348-0.28268a0.023812 0.023812 0 0 1 0.0186 0l0.57155 0.56121-0.58962-0.52401-0.72038 0.30697a0.026458 0.026458 0 0 1-0.02377 0l-0.66302-0.44029-0.66765 0.44029a0.03175 0.03175 0 0 1-0.03721 0l-0.66662-0.40256-0.60616 0.49766a0.029104 0.029104 0 0 1-0.02894 0l-0.73639-0.2925c-0.19895 0.20135-0.39529 0.39015-0.59428 0.58653 0.18786-0.20902 0.38362-0.41574 0.57412-0.62476a0.018521 0.018521 0 0 1 0.01809 0l0.74104 0.27646 0.60616-0.52245a0.037042 0.037042 0 0 1 0.03669 0l0.67387 0.39894 0.66508-0.43614a0.026458 0.026458 0 0 1 0.01705-0.0062zm-0.66508 0.01447a0.082021 0.082021 0 0 1 0.08165 0.08217 0.082021 0.082021 0 1 1-0.08165-0.08217zm1.4046 0a0.082021 0.082021 0 0 1 0.08217 0.08216 0.084667 0.084667 0 1 1-0.08217-0.08217zm-2.8138 1e-3a0.084667 0.084667 0 0 1 0.09147 0.09922 0.084667 0.084667 0 0 1-0.16692 0 0.084667 0.084667 0 0 1 0.07545-0.09922z"/>
   </g>
  </g>
 </g>
</svg>
