<?xml version="1.0" encoding="utf-8"?>
<!-- Generator: Adobe Illustrator 16.0.3, SVG Export Plug-In . SVG Version: 6.00 Build 0)  -->
<!DOCTYPE svg PUBLIC "-//W3C//DTD SVG 1.1//EN" "http://www.w3.org/Graphics/SVG/1.1/DTD/svg11.dtd" [
	<!ENTITY ns_flows "http://ns.adobe.com/Flows/1.0/">
	<!ENTITY ns_extend "http://ns.adobe.com/Extensibility/1.0/">
	<!ENTITY ns_ai "http://ns.adobe.com/AdobeIllustrator/10.0/">
	<!ENTITY ns_graphs "http://ns.adobe.com/Graphs/1.0/">
]>
<svg version="1.1" id="Capa_1" xmlns:x="&ns_extend;" xmlns:i="&ns_ai;" xmlns:graph="&ns_graphs;"
	 xmlns="http://www.w3.org/2000/svg" xmlns:xlink="http://www.w3.org/1999/xlink" xmlns:a="http://ns.adobe.com/AdobeSVGViewerExtensions/3.0/"
	 x="0px" y="0px" width="174.1px" height="50.6px" viewBox="0 0 174.1 50.6" enable-background="new 0 0 174.1 50.6"
	 xml:space="preserve">
<g>
	<defs>
		<polyline id="SVGID_1_" points="1353.9,1137.5 1353.9,-162.5 -566.1,-162.5 -566.1,1137.5 		"/>
	</defs>
	<clipPath id="SVGID_2_">
		<use xlink:href="#SVGID_1_"  overflow="visible"/>
	</clipPath>
	<g clip-path="url(#SVGID_2_)">
		<defs>
			<polyline id="SVGID_3_" points="-566.1,1137.5 -566.1,-162.5 1353.9,-162.5 1353.9,1137.5 			"/>
		</defs>
		<clipPath id="SVGID_4_">
			<use xlink:href="#SVGID_3_"  overflow="visible"/>
		</clipPath>
	</g>
	<g clip-path="url(#SVGID_2_)">
		<defs>
			<polyline id="SVGID_5_" points="-566.1,1137.5 -566.1,-162.5 1353.9,-162.5 1353.9,1137.5 			"/>
		</defs>
		<clipPath id="SVGID_6_">
			<use xlink:href="#SVGID_5_"  overflow="visible"/>
		</clipPath>
	</g>
	<g clip-path="url(#SVGID_2_)">
		<defs>
			<polyline id="SVGID_7_" points="-566.1,1137.5 -566.1,-162.5 1353.9,-162.5 1353.9,1137.5 			"/>
		</defs>
		<clipPath id="SVGID_8_">
			<use xlink:href="#SVGID_7_"  overflow="visible"/>
		</clipPath>
		<g opacity="0.25" clip-path="url(#SVGID_8_)">
			<g>
				<g opacity="0.25">
					<g>
						<line fill="#007DF2" x1="462.1" y1="727.6" x2="462.1" y2="730.2"/>
					</g>
				</g>
			</g>
		</g>
	</g>
	<g clip-path="url(#SVGID_2_)">
		<defs>
			<polyline id="SVGID_9_" points="-566.1,1137.5 -566.1,-162.5 1353.9,-162.5 1353.9,1137.5 			"/>
		</defs>
		<clipPath id="SVGID_10_">
			<use xlink:href="#SVGID_9_"  overflow="visible"/>
		</clipPath>
		<g opacity="0.8" clip-path="url(#SVGID_10_)">
			<g>
				<defs>
					<rect id="SVGID_11_" x="240" y="10.6" width="237.8" height="29.8"/>
				</defs>
				<clipPath id="SVGID_12_">
					<use xlink:href="#SVGID_11_"  overflow="visible"/>
				</clipPath>
			</g>
		</g>
	</g>
	<g clip-path="url(#SVGID_2_)">
		<defs>
			<polyline id="SVGID_13_" points="-566.1,1137.5 -566.1,-162.5 1353.9,-162.5 1353.9,1137.5 			"/>
		</defs>
		<clipPath id="SVGID_14_">
			<use xlink:href="#SVGID_13_"  overflow="visible"/>
		</clipPath>
		<path clip-path="url(#SVGID_14_)" fill="#00FFFF" d="M323.2,25.4 M323.2,22.6C323.2,22.6,323.1,22.6,323.2,22.6"/>
		<g opacity="0.8" clip-path="url(#SVGID_14_)">
			<g>
				<defs>
					<rect id="SVGID_15_" x="5.2" y="10.6" width="32.2" height="28.7"/>
				</defs>
				<clipPath id="SVGID_16_">
					<use xlink:href="#SVGID_15_"  overflow="visible"/>
				</clipPath>
			</g>
		</g>
		<g opacity="0.8" clip-path="url(#SVGID_14_)">
			<g>
				<defs>
					<rect id="SVGID_17_" x="28.6" y="10.6" width="18.1" height="28.8"/>
				</defs>
				<clipPath id="SVGID_18_">
					<use xlink:href="#SVGID_17_"  overflow="visible"/>
				</clipPath>
			</g>
		</g>
		<path clip-path="url(#SVGID_14_)" fill="#043848" d="M10.4,0.8L0.7,22.3v26.7l161.6,1.2h0.1l10.9-24.2l0.1-0.2v-25H10.4z
			 M173,25.3L162.2,49l-161-1.2V22.7l9.4-20.8H173V25.3z"/>
		<path clip-path="url(#SVGID_14_)" fill="#085967" d="M11.1,4.1L2.2,23.6v22l159.4,1.2l0.2,0l10.1-22.5V4.1H11.1z M171.1,23.6
			L161.5,45L3.1,43.7V24.4l8.3-18.5h159.7V23.6z"/>
		<g opacity="0.8" clip-path="url(#SVGID_14_)">
			<g>
				<defs>
					<rect id="SVGID_19_" x="37.9" y="10.6" width="18.1" height="28.9"/>
				</defs>
				<clipPath id="SVGID_20_">
					<use xlink:href="#SVGID_19_"  overflow="visible"/>
				</clipPath>
			</g>
		</g>
		<g opacity="0.8" clip-path="url(#SVGID_14_)">
			<g>
				<defs>
					<rect id="SVGID_21_" x="47.3" y="10.6" width="121.8" height="29.8"/>
				</defs>
				<clipPath id="SVGID_22_">
					<use xlink:href="#SVGID_21_"  overflow="visible"/>
				</clipPath>
			</g>
		</g>
		<path clip-path="url(#SVGID_14_)" fill="#10ADC8" d="M737.9,39.3"/>
	</g>
	<g clip-path="url(#SVGID_2_)">
		<defs>
			<path id="SVGID_23_" d="M-127.3,9.2 M-94.1,33.7"/>
		</defs>
		<clipPath id="SVGID_24_">
			<use xlink:href="#SVGID_23_"  overflow="visible"/>
		</clipPath>
		<rect x="-119.4" y="9.7" clip-path="url(#SVGID_24_)" fill="#00ACF9" width="2.2" height="0.1"/>
		<rect x="-119.4" y="9.8" clip-path="url(#SVGID_24_)" fill="#00AEF8" width="2.2" height="0.3"/>
		<rect x="-119.4" y="10.1" clip-path="url(#SVGID_24_)" fill="#00AFF8" width="2.2" height="0.3"/>
		<rect x="-119.4" y="10.4" clip-path="url(#SVGID_24_)" fill="#00B0F8" width="2.2" height="0.3"/>
		<rect x="-119.4" y="10.7" clip-path="url(#SVGID_24_)" fill="#00B2F8" width="2.2" height="0.3"/>
		<rect x="-119.4" y="11" clip-path="url(#SVGID_24_)" fill="#00B3F8" width="2.2" height="0.3"/>
		<rect x="-119.4" y="11.3" clip-path="url(#SVGID_24_)" fill="#00B4F8" width="2.2" height="0.3"/>
		<rect x="-119.4" y="11.5" clip-path="url(#SVGID_24_)" fill="#00B6F7" width="2.2" height="0.3"/>
		<rect x="-119.4" y="11.8" clip-path="url(#SVGID_24_)" fill="#00B7F7" width="2.2" height="0.1"/>
		<rect x="-121.6" y="2" clip-path="url(#SVGID_24_)" fill="#0080FF" width="2.2" height="0.3"/>
		<rect x="-121.6" y="2.3" clip-path="url(#SVGID_24_)" fill="#0082FF" width="2.2" height="0.2"/>
		<rect x="-125" y="6.3" clip-path="url(#SVGID_24_)" fill="#009AFB" width="1.9" height="0.1"/>
		<rect x="-125" y="6.3" clip-path="url(#SVGID_24_)" fill="#009BFB" width="1.9" height="0.3"/>
		<rect x="-125" y="6.6" clip-path="url(#SVGID_24_)" fill="#009DFB" width="1.9" height="0.3"/>
		<rect x="-125" y="6.9" clip-path="url(#SVGID_24_)" fill="#009FFB" width="1.9" height="0.3"/>
		<rect x="-125" y="7.2" clip-path="url(#SVGID_24_)" fill="#00A0FA" width="1.9" height="0.3"/>
		<rect x="-125" y="7.5" clip-path="url(#SVGID_24_)" fill="#00A2FA" width="1.9" height="0.3"/>
		<rect x="-125" y="7.8" clip-path="url(#SVGID_24_)" fill="#00A3FA" width="1.9" height="0.3"/>
		<rect x="-125" y="8.1" clip-path="url(#SVGID_24_)" fill="#00A5FA" width="1.9" height="0.1"/>
		<rect x="-125.2" y="9.4" clip-path="url(#SVGID_24_)" fill="#00ABF9" width="1.7" height="0.1"/>
		<rect x="-125.2" y="9.5" clip-path="url(#SVGID_24_)" fill="#00ACF9" width="1.7" height="0.3"/>
		<rect x="-125.2" y="9.8" clip-path="url(#SVGID_24_)" fill="#00AEF8" width="1.7" height="0.3"/>
		<rect x="-125.2" y="10.1" clip-path="url(#SVGID_24_)" fill="#00AFF8" width="1.7" height="0.3"/>
		<rect x="-125.2" y="10.4" clip-path="url(#SVGID_24_)" fill="#00B0F8" width="1.7" height="0.3"/>
		<rect x="-125.2" y="10.7" clip-path="url(#SVGID_24_)" fill="#00B2F8" width="1.7" height="0.3"/>
		<rect x="-125.2" y="11" clip-path="url(#SVGID_24_)" fill="#00B3F8" width="1.7" height="0.2"/>
		<rect x="-128.1" y="9.2" clip-path="url(#SVGID_24_)" fill="#00A9F9" width="1.5" height="0"/>
		<rect x="-128.1" y="9.2" clip-path="url(#SVGID_24_)" fill="#00ABF9" width="1.5" height="0.3"/>
		<line clip-path="url(#SVGID_24_)" fill="#00ACF9" x1="-128.1" y1="9.5" x2="-126.7" y2="9.5"/>
		<rect x="-134.8" y="6" clip-path="url(#SVGID_24_)" fill="#0098FC" width="1.8" height="0.1"/>
		<rect x="-134.8" y="6.1" clip-path="url(#SVGID_24_)" fill="#009AFB" width="1.8" height="0.3"/>
		<rect x="-134.8" y="6.3" clip-path="url(#SVGID_24_)" fill="#009BFB" width="1.8" height="0.3"/>
		<rect x="-134.8" y="6.6" clip-path="url(#SVGID_24_)" fill="#009DFB" width="1.8" height="0.3"/>
		<rect x="-134.8" y="6.9" clip-path="url(#SVGID_24_)" fill="#009FFB" width="1.8" height="0.3"/>
		<rect x="-134.8" y="7.2" clip-path="url(#SVGID_24_)" fill="#00A0FA" width="1.8" height="0.3"/>
		<rect x="-134.8" y="7.5" clip-path="url(#SVGID_24_)" fill="#00A2FA" width="1.8" height="0.3"/>
		<rect x="-137.5" y="12.9" clip-path="url(#SVGID_24_)" fill="#00BBF7" width="1.3" height="0"/>
		<rect x="-137.5" y="13" clip-path="url(#SVGID_24_)" fill="#00BCF6" width="1.3" height="0.3"/>
		<rect x="-137.5" y="13.3" clip-path="url(#SVGID_24_)" fill="#00BDF6" width="1.3" height="0.3"/>
		<rect x="-137.5" y="13.6" clip-path="url(#SVGID_24_)" fill="#00BEF6" width="1.3" height="0.3"/>
		<rect x="-137.5" y="13.9" clip-path="url(#SVGID_24_)" fill="#00BFF6" width="1.3" height="0.3"/>
		<rect x="-137.5" y="14.1" clip-path="url(#SVGID_24_)" fill="#00C0F6" width="1.3" height="0.1"/>
		<rect x="-138.5" y="7.2" clip-path="url(#SVGID_24_)" fill="#00A0FA" width="1.6" height="0.3"/>
		<rect x="-138.5" y="7.5" clip-path="url(#SVGID_24_)" fill="#00A2FA" width="1.6" height="0.3"/>
		<rect x="-138.5" y="7.8" clip-path="url(#SVGID_24_)" fill="#00A3FA" width="1.6" height="0.3"/>
		<rect x="-138.5" y="8.1" clip-path="url(#SVGID_24_)" fill="#00A5FA" width="1.6" height="0.3"/>
		<rect x="-138.5" y="8.4" clip-path="url(#SVGID_24_)" fill="#00A6FA" width="1.6" height="0.3"/>
		<rect x="-138.5" y="8.7" clip-path="url(#SVGID_24_)" fill="#00A8F9" width="1.6" height="0.2"/>
		<rect x="-144.4" y="11.9" clip-path="url(#SVGID_24_)" fill="#00B7F7" width="1.1" height="0.2"/>
		<rect x="-144.4" y="12.1" clip-path="url(#SVGID_24_)" fill="#00B8F7" width="1.1" height="0.3"/>
		<rect x="-144.4" y="12.4" clip-path="url(#SVGID_24_)" fill="#00B9F7" width="1.1" height="0.3"/>
		<rect x="-144.4" y="12.7" clip-path="url(#SVGID_24_)" fill="#00BBF7" width="1.1" height="0.3"/>
		<path clip-path="url(#SVGID_24_)" fill="#00BCF6" d="M-144.4,13h1.1H-144.4z"/>
		<rect x="-149.2" y="2" clip-path="url(#SVGID_24_)" fill="#0080FF" width="55.1" height="0.3"/>
		<rect x="-149.2" y="2.3" clip-path="url(#SVGID_24_)" fill="#0082FF" width="55.1" height="0.3"/>
		<rect x="-149.2" y="2.6" clip-path="url(#SVGID_24_)" fill="#0084FE" width="55.1" height="0.3"/>
		<rect x="-149.2" y="2.9" clip-path="url(#SVGID_24_)" fill="#0086FE" width="55.1" height="0.3"/>
		<rect x="-149.2" y="3.2" clip-path="url(#SVGID_24_)" fill="#0088FE" width="55.1" height="0.3"/>
		<rect x="-149.2" y="3.5" clip-path="url(#SVGID_24_)" fill="#008AFE" width="55.1" height="0.3"/>
		<rect x="-149.2" y="3.8" clip-path="url(#SVGID_24_)" fill="#008BFD" width="55.1" height="0.3"/>
		<rect x="-149.2" y="4" clip-path="url(#SVGID_24_)" fill="#008DFD" width="55.1" height="0.3"/>
		<rect x="-149.2" y="4.3" clip-path="url(#SVGID_24_)" fill="#008FFD" width="55.1" height="0.3"/>
		<rect x="-149.2" y="4.6" clip-path="url(#SVGID_24_)" fill="#0091FD" width="55.1" height="0.3"/>
		<rect x="-149.2" y="4.9" clip-path="url(#SVGID_24_)" fill="#0093FC" width="55.1" height="0.3"/>
		<rect x="-149.2" y="5.2" clip-path="url(#SVGID_24_)" fill="#0094FC" width="55.1" height="0.3"/>
		<rect x="-149.2" y="5.5" clip-path="url(#SVGID_24_)" fill="#0096FC" width="55.1" height="0.3"/>
		<rect x="-149.2" y="5.8" clip-path="url(#SVGID_24_)" fill="#0098FC" width="55.1" height="0.3"/>
		<rect x="-149.2" y="6.1" clip-path="url(#SVGID_24_)" fill="#009AFB" width="55.1" height="0.3"/>
		<rect x="-149.2" y="6.3" clip-path="url(#SVGID_24_)" fill="#009BFB" width="55.1" height="0.3"/>
		<rect x="-149.2" y="6.6" clip-path="url(#SVGID_24_)" fill="#009DFB" width="55.1" height="0.3"/>
		<rect x="-149.2" y="6.9" clip-path="url(#SVGID_24_)" fill="#009FFB" width="55.1" height="0.3"/>
		<rect x="-149.2" y="7.2" clip-path="url(#SVGID_24_)" fill="#00A0FA" width="55.1" height="0.3"/>
		<rect x="-149.2" y="7.5" clip-path="url(#SVGID_24_)" fill="#00A2FA" width="55.1" height="0.3"/>
		<rect x="-149.2" y="7.8" clip-path="url(#SVGID_24_)" fill="#00A3FA" width="55.1" height="0.3"/>
		<polyline clip-path="url(#SVGID_24_)" fill="#00A5FA" points="-94.1,8.1 -94.1,8.4 -149.2,8.4 -149.2,8.1 		"/>
		<rect x="-149.2" y="8.4" clip-path="url(#SVGID_24_)" fill="#00A6FA" width="55.1" height="0.3"/>
		<rect x="-149.2" y="8.7" clip-path="url(#SVGID_24_)" fill="#00A8F9" width="55.1" height="0.3"/>
		<rect x="-149.2" y="8.9" clip-path="url(#SVGID_24_)" fill="#00A9F9" width="55.1" height="0.3"/>
		<rect x="-149.2" y="9.2" clip-path="url(#SVGID_24_)" fill="#00ABF9" width="55.1" height="0.3"/>
		<polyline clip-path="url(#SVGID_24_)" fill="#00ACF9" points="-149.2,9.8 -149.2,9.5 -94.1,9.5 -94.1,9.8 		"/>
		<line clip-path="url(#SVGID_24_)" fill="#00AEF8" x1="-94.1" y1="9.8" x2="-94.1" y2="10.1"/>
		<line clip-path="url(#SVGID_24_)" fill="#00AEF8" x1="-149.2" y1="10.1" x2="-149.2" y2="9.8"/>
		<line clip-path="url(#SVGID_24_)" fill="#00AFF8" x1="-94.1" y1="10.1" x2="-94.1" y2="10.4"/>
		<line clip-path="url(#SVGID_24_)" fill="#00AFF8" x1="-149.2" y1="10.4" x2="-149.2" y2="10.1"/>
		<line clip-path="url(#SVGID_24_)" fill="#00B0F8" x1="-94.1" y1="10.4" x2="-94.1" y2="10.7"/>
		<line clip-path="url(#SVGID_24_)" fill="#00B0F8" x1="-149.2" y1="10.7" x2="-149.2" y2="10.4"/>
		<line clip-path="url(#SVGID_24_)" fill="#00B2F8" x1="-94.1" y1="10.7" x2="-94.1" y2="11"/>
		<line clip-path="url(#SVGID_24_)" fill="#00B2F8" x1="-149.2" y1="11" x2="-149.2" y2="10.7"/>
		<line clip-path="url(#SVGID_24_)" fill="#00B3F8" x1="-94.1" y1="11" x2="-94.1" y2="11.3"/>
		<line clip-path="url(#SVGID_24_)" fill="#00B3F8" x1="-149.2" y1="11.3" x2="-149.2" y2="11"/>
		<line clip-path="url(#SVGID_24_)" fill="#00B4F8" x1="-94.1" y1="11.3" x2="-94.1" y2="11.5"/>
		<line clip-path="url(#SVGID_24_)" fill="#00B4F8" x1="-149.2" y1="11.5" x2="-149.2" y2="11.3"/>
		<line clip-path="url(#SVGID_24_)" fill="#00B6F7" x1="-94.1" y1="11.5" x2="-94.1" y2="11.8"/>
		<line clip-path="url(#SVGID_24_)" fill="#00B6F7" x1="-149.2" y1="11.8" x2="-149.2" y2="11.5"/>
		<line clip-path="url(#SVGID_24_)" fill="#00B7F7" x1="-94.1" y1="11.8" x2="-94.1" y2="12.1"/>
		<line clip-path="url(#SVGID_24_)" fill="#00B7F7" x1="-149.2" y1="12.1" x2="-149.2" y2="11.8"/>
		<line clip-path="url(#SVGID_24_)" fill="#00B8F7" x1="-94.1" y1="12.1" x2="-94.1" y2="12.4"/>
		<line clip-path="url(#SVGID_24_)" fill="#00B8F7" x1="-149.2" y1="12.4" x2="-149.2" y2="12.1"/>
		<line clip-path="url(#SVGID_24_)" fill="#00B9F7" x1="-94.1" y1="12.4" x2="-94.1" y2="12.7"/>
		<line clip-path="url(#SVGID_24_)" fill="#00B9F7" x1="-149.2" y1="12.7" x2="-149.2" y2="12.4"/>
		<line clip-path="url(#SVGID_24_)" fill="#00BBF7" x1="-94.1" y1="12.7" x2="-94.1" y2="13"/>
		<line clip-path="url(#SVGID_24_)" fill="#00BBF7" x1="-149.2" y1="13" x2="-149.2" y2="12.7"/>
		<line clip-path="url(#SVGID_24_)" fill="#00BCF6" x1="-94.1" y1="13" x2="-94.1" y2="13.3"/>
		<line clip-path="url(#SVGID_24_)" fill="#00BCF6" x1="-149.2" y1="13.3" x2="-149.2" y2="13"/>
		<line clip-path="url(#SVGID_24_)" fill="#00BDF6" x1="-94.1" y1="13.3" x2="-94.1" y2="13.6"/>
		<line clip-path="url(#SVGID_24_)" fill="#00BDF6" x1="-149.2" y1="13.6" x2="-149.2" y2="13.3"/>
		<line clip-path="url(#SVGID_24_)" fill="#00BEF6" x1="-94.1" y1="13.6" x2="-94.1" y2="13.9"/>
		<line clip-path="url(#SVGID_24_)" fill="#00BEF6" x1="-149.2" y1="13.9" x2="-149.2" y2="13.6"/>
		<line clip-path="url(#SVGID_24_)" fill="#00BFF6" x1="-94.1" y1="13.9" x2="-94.1" y2="14.1"/>
		<line clip-path="url(#SVGID_24_)" fill="#00BFF6" x1="-149.2" y1="14.1" x2="-149.2" y2="13.9"/>
		<line clip-path="url(#SVGID_24_)" fill="#00C0F6" x1="-94.1" y1="14.1" x2="-94.1" y2="14.4"/>
		<line clip-path="url(#SVGID_24_)" fill="#00C0F6" x1="-149.2" y1="14.4" x2="-149.2" y2="14.1"/>
		<line clip-path="url(#SVGID_24_)" fill="#00C1F6" x1="-94.1" y1="14.4" x2="-94.1" y2="14.7"/>
		<line clip-path="url(#SVGID_24_)" fill="#00C1F6" x1="-149.2" y1="14.7" x2="-149.2" y2="14.4"/>
		<line clip-path="url(#SVGID_24_)" fill="#00C2F6" x1="-94.1" y1="14.7" x2="-94.1" y2="15"/>
		<line clip-path="url(#SVGID_24_)" fill="#00C2F6" x1="-149.2" y1="15" x2="-149.2" y2="14.7"/>
		<line clip-path="url(#SVGID_24_)" fill="#00C3F5" x1="-94.1" y1="15" x2="-94.1" y2="15.3"/>
		<line clip-path="url(#SVGID_24_)" fill="#00C3F5" x1="-149.2" y1="15.3" x2="-149.2" y2="15"/>
		<line clip-path="url(#SVGID_24_)" fill="#00CDF4" x1="-94.1" y1="17.9" x2="-94.1" y2="18.2"/>
		<line clip-path="url(#SVGID_24_)" fill="#00CDF4" x1="-94.1" y1="18.2" x2="-94.1" y2="18.5"/>
		<line clip-path="url(#SVGID_24_)" fill="#00CEF4" x1="-94.1" y1="18.5" x2="-94.1" y2="18.8"/>
		<line clip-path="url(#SVGID_24_)" fill="#00CFF4" x1="-94.1" y1="18.8" x2="-94.1" y2="19.1"/>
		<line clip-path="url(#SVGID_24_)" fill="#00D0F4" x1="-94.1" y1="19.1" x2="-94.1" y2="19.3"/>
		<line clip-path="url(#SVGID_24_)" fill="#00D0F4" x1="-94.1" y1="19.3" x2="-94.1" y2="19.6"/>
		<line clip-path="url(#SVGID_24_)" fill="#00D1F3" x1="-94.1" y1="19.6" x2="-94.1" y2="19.9"/>
		<line clip-path="url(#SVGID_24_)" fill="#00D2F3" x1="-94.1" y1="19.9" x2="-94.1" y2="20.2"/>
		<line clip-path="url(#SVGID_24_)" fill="#00D2F3" x1="-94.1" y1="20.2" x2="-94.1" y2="20.5"/>
		<line clip-path="url(#SVGID_24_)" fill="#00D3F3" x1="-94.1" y1="20.5" x2="-94.1" y2="20.8"/>
		<line clip-path="url(#SVGID_24_)" fill="#00D4F3" x1="-94.1" y1="20.8" x2="-94.1" y2="21.1"/>
		<line clip-path="url(#SVGID_24_)" fill="#00D4F3" x1="-94.1" y1="21.1" x2="-94.1" y2="21.4"/>
		<line clip-path="url(#SVGID_24_)" fill="#00D5F3" x1="-94.1" y1="21.4" x2="-94.1" y2="21.7"/>
		<line clip-path="url(#SVGID_24_)" fill="#00D5F3" x1="-94.1" y1="21.7" x2="-94.1" y2="21.9"/>
		<line clip-path="url(#SVGID_24_)" fill="#00D6F3" x1="-94.1" y1="21.9" x2="-94.1" y2="22.2"/>
		<line clip-path="url(#SVGID_24_)" fill="#00D6F3" x1="-94.1" y1="22.2" x2="-94.1" y2="22.5"/>
		<line clip-path="url(#SVGID_24_)" fill="#00D7F3" x1="-94.1" y1="22.5" x2="-94.1" y2="22.8"/>
		<line clip-path="url(#SVGID_24_)" fill="#00D7F3" x1="-94.1" y1="22.8" x2="-94.1" y2="23.1"/>
		<line clip-path="url(#SVGID_24_)" fill="#00D7F3" x1="-94.1" y1="23.1" x2="-94.1" y2="23.4"/>
		<line clip-path="url(#SVGID_24_)" fill="#00D8F2" x1="-94.1" y1="23.4" x2="-94.1" y2="23.7"/>
		<line clip-path="url(#SVGID_24_)" fill="#00D8F2" x1="-94.1" y1="23.7" x2="-94.1" y2="24"/>
		<line clip-path="url(#SVGID_24_)" fill="#00D9F2" x1="-94.1" y1="24" x2="-94.1" y2="24.3"/>
		<line clip-path="url(#SVGID_24_)" fill="#00D9F2" x1="-94.1" y1="24.3" x2="-94.1" y2="24.5"/>
		<line clip-path="url(#SVGID_24_)" fill="#00D9F2" x1="-94.1" y1="24.5" x2="-94.1" y2="24.8"/>
		<line clip-path="url(#SVGID_24_)" fill="#00D9F2" x1="-94.1" y1="24.8" x2="-94.1" y2="25.1"/>
		<line clip-path="url(#SVGID_24_)" fill="#00DAF2" x1="-94.1" y1="25.1" x2="-94.1" y2="25.4"/>
		<line clip-path="url(#SVGID_24_)" fill="#00DAF2" x1="-94.1" y1="25.4" x2="-94.1" y2="25.7"/>
		<line clip-path="url(#SVGID_24_)" fill="#00DAF2" x1="-94.1" y1="25.7" x2="-94.1" y2="26"/>
		<line clip-path="url(#SVGID_24_)" fill="#00DAF2" x1="-94.1" y1="26" x2="-94.1" y2="26.3"/>
		<line clip-path="url(#SVGID_24_)" fill="#00DBF2" x1="-94.1" y1="26.3" x2="-94.1" y2="26.6"/>
		<line clip-path="url(#SVGID_24_)" fill="#00DBF2" x1="-94.1" y1="26.6" x2="-94.1" y2="26.8"/>
		<line clip-path="url(#SVGID_24_)" fill="#00DBF2" x1="-94.1" y1="26.8" x2="-94.1" y2="27.1"/>
		<line clip-path="url(#SVGID_24_)" fill="#00DBF2" x1="-94.1" y1="27.1" x2="-94.1" y2="27.4"/>
		<line clip-path="url(#SVGID_24_)" fill="#00DBF2" x1="-94.1" y1="27.4" x2="-94.1" y2="27.7"/>
		<line clip-path="url(#SVGID_24_)" fill="#00DBF2" x1="-94.1" y1="27.7" x2="-94.1" y2="28"/>
		<line clip-path="url(#SVGID_24_)" fill="#00DBF2" x1="-94.1" y1="28" x2="-94.1" y2="28.3"/>
		<line clip-path="url(#SVGID_24_)" fill="#00DBF2" x1="-94.1" y1="28.3" x2="-94.1" y2="28.7"/>
		<line clip-path="url(#SVGID_24_)" fill="#00DCF2" x1="-94.1" y1="28.7" x2="-94.1" y2="29.2"/>
		<line clip-path="url(#SVGID_24_)" fill="#00DDF3" x1="-94.1" y1="29.2" x2="-94.1" y2="29.6"/>
		<line clip-path="url(#SVGID_24_)" fill="#00DEF3" x1="-94.1" y1="29.6" x2="-94.1" y2="30.1"/>
		<line clip-path="url(#SVGID_24_)" fill="#00DFF3" x1="-94.1" y1="30.1" x2="-94.1" y2="30.6"/>
		<line clip-path="url(#SVGID_24_)" fill="#00E0F4" x1="-94.1" y1="30.6" x2="-94.1" y2="31"/>
		<line clip-path="url(#SVGID_24_)" fill="#00E1F4" x1="-94.1" y1="31" x2="-94.1" y2="31.5"/>
		<line clip-path="url(#SVGID_24_)" fill="#00E2F5" x1="-94.1" y1="31.5" x2="-94.1" y2="31.9"/>
		<line clip-path="url(#SVGID_24_)" fill="#00E3F5" x1="-94.1" y1="31.9" x2="-94.1" y2="32.4"/>
		<line clip-path="url(#SVGID_24_)" fill="#00E4F5" x1="-94.1" y1="32.4" x2="-94.1" y2="32.8"/>
		<line clip-path="url(#SVGID_24_)" fill="#00E5F6" x1="-94.1" y1="32.8" x2="-94.1" y2="33.3"/>
		<line clip-path="url(#SVGID_24_)" fill="#00E6F6" x1="-94.1" y1="33.3" x2="-94.1" y2="33.7"/>
		<line clip-path="url(#SVGID_24_)" fill="#00E7F6" x1="-94.1" y1="33.7" x2="-94.1" y2="34.2"/>
		<line clip-path="url(#SVGID_24_)" fill="#00E8F7" x1="-94.1" y1="34.2" x2="-94.1" y2="34.6"/>
		<line clip-path="url(#SVGID_24_)" fill="#00E9F7" x1="-94.1" y1="34.6" x2="-94.1" y2="35.1"/>
		<line clip-path="url(#SVGID_24_)" fill="#00EAF8" x1="-94.1" y1="35.1" x2="-94.1" y2="35.5"/>
		<line clip-path="url(#SVGID_24_)" fill="#00EBF8" x1="-94.1" y1="35.5" x2="-94.1" y2="36"/>
		<line clip-path="url(#SVGID_24_)" fill="#00ECF8" x1="-94.1" y1="36" x2="-94.1" y2="36.4"/>
		<line clip-path="url(#SVGID_24_)" fill="#00EEF9" x1="-94.1" y1="36.4" x2="-94.1" y2="36.9"/>
		<line clip-path="url(#SVGID_24_)" fill="#00EFF9" x1="-94.1" y1="36.9" x2="-94.1" y2="37.2"/>
	</g>
	<g clip-path="url(#SVGID_2_)">
		<defs>
			<line id="SVGID_25_" x1="-137.3" y1="-19.5" x2="-137.4" y2="-18.4"/>
		</defs>
		<clipPath id="SVGID_26_">
			<use xlink:href="#SVGID_25_"  overflow="visible"/>
		</clipPath>
		<line clip-path="url(#SVGID_26_)" fill="#0029FF" x1="-137.4" y1="-18.3" x2="-137.4" y2="-19.5"/>
		<line clip-path="url(#SVGID_26_)" fill="#0029FF" x1="-137.4" y1="-18.2" x2="-137.4" y2="-18.3"/>
	</g>
	<g clip-path="url(#SVGID_2_)">
		<defs>
			<path id="SVGID_27_" d="M-137.6-17.8"/>
		</defs>
		<clipPath id="SVGID_28_">
			<use xlink:href="#SVGID_27_"  overflow="visible"/>
		</clipPath>
		<line clip-path="url(#SVGID_28_)" fill="#002CFF" x1="-137.8" y1="-17.6" x2="-137.8" y2="-17.8"/>
		<path clip-path="url(#SVGID_28_)" fill="#002EFF" d="M-137.8-17.6"/>
	</g>
</g>
</svg>
