<?xml version="1.0" encoding="UTF-8" standalone="no"?>
<!DOCTYPE svg PUBLIC "-//W3C//DTD SVG 1.1//EN"
 "http://www.w3.org/Graphics/SVG/1.1/DTD/svg11.dtd">
<!-- Generated by graphviz version 2.47.3 (20210619.1520)
 -->
<!-- Title: dependencies Pages: 1 -->
<svg width="783pt" height="253pt"
 viewBox="0.00 0.00 783.00 252.80" xmlns="http://www.w3.org/2000/svg" xmlns:xlink="http://www.w3.org/1999/xlink">
<g id="graph0" class="graph" transform="scale(1 1) rotate(0) translate(4 248.8)">
<title>dependencies</title>
<polygon fill="white" stroke="transparent" points="-4,4 -4,-248.8 779,-248.8 779,4 -4,4"/>
<text text-anchor="middle" x="387.5" y="-8.2" font-family="sans-serif" font-size="14.00">dependencies</text>
<g id="clust1" class="cluster">
<title>cluster_AppModule</title>
<polygon fill="none" stroke="black" stroke-dasharray="1,5" points="8,-32.8 8,-236.8 423,-236.8 423,-32.8 8,-32.8"/>
</g>
<g id="clust2" class="cluster">
<title>cluster_AppModule_declarations</title>
<polygon fill="none" stroke="black" points="16,-40.8 16,-92.8 138,-92.8 138,-40.8 16,-40.8"/>
</g>
<g id="clust4" class="cluster">
<title>cluster_AppModule_imports</title>
<polygon fill="none" stroke="black" points="146,-40.8 146,-92.8 415,-92.8 415,-40.8 146,-40.8"/>
</g>
<g id="clust6" class="cluster">
<title>cluster_AppModule_bootstrap</title>
<polygon fill="none" stroke="black" points="145,-176.8 145,-228.8 269,-228.8 269,-176.8 145,-176.8"/>
</g>
<g id="clust8" class="cluster">
<title>cluster_AppRoutingModule</title>
<polygon fill="none" stroke="black" stroke-dasharray="1,5" points="431,-100.8 431,-168.8 767,-168.8 767,-100.8 431,-100.8"/>
</g>
<g id="clust10" class="cluster">
<title>cluster_AppRoutingModule_imports</title>
<polygon fill="none" stroke="black" points="565,-108.8 565,-160.8 759,-160.8 759,-108.8 565,-108.8"/>
</g>
<g id="clust11" class="cluster">
<title>cluster_AppRoutingModule_exports</title>
<polygon fill="none" stroke="black" points="439,-108.8 439,-160.8 557,-160.8 557,-108.8 439,-108.8"/>
</g>
<!-- AppComponent -->
<g id="node1" class="node">
<title>AppComponent</title>
<polygon fill="#ffffb3" stroke="black" points="129.94,-84.8 24.06,-84.8 24.06,-48.8 129.94,-48.8 129.94,-84.8"/>
<text text-anchor="middle" x="77" y="-62.6" font-family="Times,serif" font-size="14.00">AppComponent</text>
</g>
<!-- AppModule -->
<g id="node2" class="node">
<title>AppModule</title>
<polygon fill="#8dd3c7" stroke="black" points="248.66,-152.8 245.66,-156.8 224.66,-156.8 221.66,-152.8 165.34,-152.8 165.34,-116.8 248.66,-116.8 248.66,-152.8"/>
<text text-anchor="middle" x="207" y="-130.6" font-family="Times,serif" font-size="14.00">AppModule</text>
</g>
<!-- AppComponent&#45;&gt;AppModule -->
<g id="edge1" class="edge">
<title>AppComponent&#45;&gt;AppModule</title>
<path fill="none" stroke="black" d="M77,-85.02C77,-105.17 77,-134.8 77,-134.8 77,-134.8 155.15,-134.8 155.15,-134.8"/>
<polygon fill="black" stroke="black" points="155.15,-138.3 165.15,-134.8 155.15,-131.3 155.15,-138.3"/>
</g>
<!-- AppComponent  -->
<g id="node5" class="node">
<title>AppComponent </title>
<polygon fill="#80b1d3" stroke="black" points="261.44,-220.8 152.56,-220.8 152.56,-184.8 261.44,-184.8 261.44,-220.8"/>
<text text-anchor="middle" x="207" y="-198.6" font-family="Times,serif" font-size="14.00">AppComponent </text>
</g>
<!-- AppModule&#45;&gt;AppComponent  -->
<g id="edge4" class="edge">
<title>AppModule&#45;&gt;AppComponent </title>
<path fill="none" stroke="black" stroke-dasharray="1,5" d="M207,-153.02C207,-153.02 207,-174.53 207,-174.53"/>
<polygon fill="black" stroke="black" points="203.5,-174.53 207,-184.53 210.5,-174.53 203.5,-174.53"/>
</g>
<!-- BrowserModule -->
<g id="node3" class="node">
<title>BrowserModule</title>
<polygon fill="#8dd3c7" stroke="black" points="260.47,-84.8 257.47,-88.8 236.47,-88.8 233.47,-84.8 153.53,-84.8 153.53,-48.8 260.47,-48.8 260.47,-84.8"/>
<text text-anchor="middle" x="207" y="-62.6" font-family="Times,serif" font-size="14.00">BrowserModule</text>
</g>
<!-- BrowserModule&#45;&gt;AppModule -->
<g id="edge2" class="edge">
<title>BrowserModule&#45;&gt;AppModule</title>
<path fill="none" stroke="black" d="M207,-85.02C207,-85.02 207,-106.53 207,-106.53"/>
<polygon fill="black" stroke="black" points="203.5,-106.53 207,-116.53 210.5,-106.53 203.5,-106.53"/>
</g>
<!-- AppRoutingModule -->
<g id="node4" class="node">
<title>AppRoutingModule</title>
<polygon fill="#8dd3c7" stroke="black" points="407.27,-84.8 404.27,-88.8 383.27,-88.8 380.27,-84.8 278.73,-84.8 278.73,-48.8 407.27,-48.8 407.27,-84.8"/>
<text text-anchor="middle" x="343" y="-62.6" font-family="Times,serif" font-size="14.00">AppRoutingModule</text>
</g>
<!-- AppRoutingModule&#45;&gt;AppModule -->
<g id="edge3" class="edge">
<title>AppRoutingModule&#45;&gt;AppModule</title>
<path fill="none" stroke="black" d="M343,-85.02C343,-105.17 343,-134.8 343,-134.8 343,-134.8 258.91,-134.8 258.91,-134.8"/>
<polygon fill="black" stroke="black" points="258.91,-131.3 248.91,-134.8 258.91,-138.3 258.91,-131.3"/>
</g>
<!-- RouterModule  -->
<g id="node7" class="node">
<title>RouterModule </title>
<polygon fill="#fb8072" stroke="black" points="548.65,-152.8 447.35,-152.8 447.35,-116.8 548.65,-116.8 548.65,-152.8"/>
<text text-anchor="middle" x="498" y="-130.6" font-family="Times,serif" font-size="14.00">RouterModule </text>
</g>
<!-- AppRoutingModule&#45;&gt;RouterModule  -->
<g id="edge6" class="edge">
<title>AppRoutingModule&#45;&gt;RouterModule </title>
<path fill="none" stroke="black" stroke-dasharray="5,2" d="M407.39,-72.8C449.97,-72.8 498,-72.8 498,-72.8 498,-72.8 498,-106.53 498,-106.53"/>
<polygon fill="black" stroke="black" points="494.5,-106.53 498,-116.53 501.5,-106.53 494.5,-106.53"/>
</g>
<!-- RouterModule.forRoot(args) -->
<g id="node6" class="node">
<title>RouterModule.forRoot(args)</title>
<polygon fill="#8dd3c7" stroke="black" points="750.84,-152.8 747.84,-156.8 726.84,-156.8 723.84,-152.8 573.16,-152.8 573.16,-116.8 750.84,-116.8 750.84,-152.8"/>
<text text-anchor="middle" x="662" y="-130.6" font-family="Times,serif" font-size="14.00">RouterModule.forRoot(args)</text>
</g>
<!-- RouterModule.forRoot(args)&#45;&gt;AppRoutingModule -->
<g id="edge5" class="edge">
<title>RouterModule.forRoot(args)&#45;&gt;AppRoutingModule</title>
<path fill="none" stroke="black" d="M662,-116.51C662,-94.59 662,-60.8 662,-60.8 662,-60.8 417.55,-60.8 417.55,-60.8"/>
<polygon fill="black" stroke="black" points="417.55,-57.3 407.55,-60.8 417.55,-64.3 417.55,-57.3"/>
</g>
</g>
</svg>
